<svg width="12" height="12" viewBox="0 0 12 12" fill="none" xmlns="http://www.w3.org/2000/svg">
<path fill-rule="evenodd" clip-rule="evenodd" d="M10.0317 6.17593C10.1442 6.28845 10.2074 6.44104 10.2074 6.60013C10.2074 6.75923 10.1442 6.91182 10.0317 7.02433L6.43171 10.6243C6.3192 10.7368 6.16661 10.8 6.00751 10.8C5.84841 10.8 5.69583 10.7368 5.58331 10.6243L1.98331 7.02433C1.92601 6.96899 1.8803 6.90278 1.84885 6.82958C1.81741 6.75637 1.80086 6.67764 1.80016 6.59797C1.79947 6.51831 1.81465 6.4393 1.84482 6.36556C1.87499 6.29182 1.91954 6.22483 1.97588 6.1685C2.03221 6.11216 2.0992 6.06761 2.17294 6.03744C2.24668 6.00727 2.32569 5.99209 2.40535 5.99278C2.48502 5.99348 2.56375 6.01003 2.63696 6.04147C2.71016 6.07292 2.77636 6.11863 2.83171 6.17593L5.40751 8.75173V1.80013C5.40751 1.641 5.47073 1.48839 5.58325 1.37587C5.69577 1.26335 5.84838 1.20013 6.00751 1.20013C6.16664 1.20013 6.31925 1.26335 6.43178 1.37587C6.5443 1.48839 6.60751 1.641 6.60751 1.80013V8.75173L9.18331 6.17593C9.29583 6.06345 9.44841 6.00026 9.60751 6.00026C9.76661 6.00026 9.9192 6.06345 10.0317 6.17593Z" fill="#E95F2D"/>
</svg>
