<svg width="12" height="12" viewBox="0 0 12 12" fill="none" xmlns="http://www.w3.org/2000/svg">
<path fill-rule="evenodd" clip-rule="evenodd" d="M1.97586 5.82425C1.86337 5.71173 1.80018 5.55915 1.80018 5.40005C1.80018 5.24095 1.86337 5.08837 1.97586 4.97585L5.57586 1.37585C5.68837 1.26337 5.84096 1.20018 6.00006 1.20018C6.15915 1.20018 6.31174 1.26337 6.42426 1.37585L10.0243 4.97585C10.0816 5.0312 10.1273 5.0974 10.1587 5.17061C10.1902 5.24381 10.2067 5.32254 10.2074 5.40221C10.2081 5.48188 10.1929 5.56088 10.1627 5.63462C10.1326 5.70836 10.088 5.77535 10.0317 5.83169C9.97536 5.88802 9.90837 5.93257 9.83463 5.96274C9.76089 5.99291 9.68188 6.00809 9.60221 6.0074C9.52255 6.00671 9.44381 5.99016 9.37061 5.95871C9.29741 5.92726 9.2312 5.88156 9.17586 5.82425L6.60006 3.24845L6.60006 10.2C6.60006 10.3592 6.53684 10.5118 6.42432 10.6243C6.3118 10.7368 6.15919 10.8 6.00006 10.8C5.84093 10.8 5.68831 10.7368 5.57579 10.6243C5.46327 10.5118 5.40006 10.3592 5.40006 10.2L5.40006 3.24845L2.82426 5.82425C2.71174 5.93673 2.55915 5.99992 2.40006 5.99992C2.24096 5.99992 2.08837 5.93673 1.97586 5.82425Z" fill="#21D2D2"/>
</svg>
