<svg width="20" height="20" viewBox="0 0 20 20" fill="none" xmlns="http://www.w3.org/2000/svg">
<path d="M9.99996 17.7083C14.2572 17.7083 17.7083 14.2572 17.7083 10C17.7083 5.7428 14.2572 2.29166 9.99996 2.29166M9.99996 17.7083C5.74276 17.7083 2.29163 14.2572 2.29163 10C2.29163 5.7428 5.74276 2.29166 9.99996 2.29166M9.99996 17.7083C8.04395 17.7083 6.45829 14.2572 6.45829 10C6.45829 5.7428 8.04395 2.29166 9.99996 2.29166M9.99996 17.7083C11.956 17.7083 13.5416 14.2572 13.5416 10C13.5416 5.7428 11.956 2.29166 9.99996 2.29166M17.5 10H2.49996" stroke="white" stroke-opacity="0.8" stroke-width="1.5" stroke-linecap="square"/>
</svg>
