<svg width="129" height="24" viewBox="0 0 129 24" fill="none" xmlns="http://www.w3.org/2000/svg">
<g clip-path="url(#clip0_2001_2124)">
<path d="M39.4688 5.052C44.5227 5.052 47.0498 7.46 47.0498 12.276C47.0498 17.0921 44.5227 19.5 39.4688 19.5H33.2108V5.052H39.4688ZM37.8518 16.035H39.3848C41.3307 16.035 42.3038 14.992 42.3038 12.906V11.646C42.3038 9.56 41.3307 8.517 39.3848 8.517H37.8518V16.035ZM54.9945 8.16C57.0245 8.16 58.5714 8.636 59.6355 9.588C60.7134 10.54 61.2525 11.996 61.2525 13.956V14.67H52.9365C52.9365 15.468 53.1114 16.07 53.4615 16.476C53.8254 16.8821 54.3924 17.085 55.1625 17.085C55.8624 17.085 56.3735 16.938 56.6955 16.644C57.0315 16.35 57.1995 15.9581 57.1995 15.468H61.2525C61.2525 16.812 60.7415 17.862 59.7195 18.618C58.6974 19.374 57.2064 19.752 55.2465 19.752C53.1885 19.752 51.5925 19.2761 50.4585 18.324C49.3245 17.358 48.7575 15.902 48.7575 13.956C48.7575 12.052 49.3104 10.61 50.4165 9.63C51.5225 8.65001 53.0484 8.16 54.9945 8.16ZM55.1625 10.827C53.8464 10.827 53.1114 11.45 52.9575 12.696H57.0315C57.0315 12.122 56.8635 11.667 56.5275 11.331C56.2055 10.995 55.7505 10.827 55.1625 10.827ZM69.6314 4.8C71.4794 4.8 72.9983 5.178 74.1884 5.934C75.3783 6.67601 75.9873 7.782 76.0154 9.252V9.504H71.6684V9.42C71.6684 9 71.5143 8.65001 71.2064 8.37C70.8983 8.09 70.4294 7.95 69.7994 7.95C69.1833 7.95 68.7074 8.04101 68.3713 8.223C68.0493 8.405 67.8884 8.62901 67.8884 8.895C67.8884 9.273 68.1123 9.55301 68.5604 9.735C69.0083 9.917 69.7293 10.106 70.7234 10.302C71.8853 10.54 72.8373 10.792 73.5793 11.058C74.3354 11.31 74.9933 11.73 75.5534 12.318C76.1133 12.906 76.4003 13.704 76.4144 14.712C76.4144 16.4201 75.8333 17.687 74.6714 18.513C73.5233 19.3391 71.9834 19.752 70.0514 19.752C67.7973 19.752 66.0404 19.374 64.7804 18.618C63.5343 17.862 62.9114 16.5251 62.9114 14.607H67.3004C67.3004 15.335 67.4894 15.825 67.8674 16.077C68.2454 16.3151 68.8334 16.434 69.6314 16.434C70.2193 16.434 70.7024 16.371 71.0804 16.245C71.4723 16.119 71.6684 15.86 71.6684 15.468C71.6684 15.1181 71.4513 14.859 71.0173 14.691C70.5974 14.509 69.9044 14.32 68.9384 14.124C67.7624 13.872 66.7893 13.613 66.0194 13.347C65.2493 13.067 64.5773 12.612 64.0034 11.982C63.4293 11.352 63.1424 10.498 63.1424 9.42C63.1424 7.838 63.7514 6.67601 64.9694 5.934C66.2013 5.178 67.7553 4.8 69.6314 4.8ZM82.6026 9.567C83.0505 9.119 83.5755 8.77601 84.1776 8.538C84.7796 8.286 85.4095 8.16 86.0676 8.16C87.3555 8.16 88.3215 8.517 88.9656 9.231C89.6095 9.945 89.9316 10.974 89.9316 12.318V19.5H85.7526V12.822C85.7526 12.346 85.6266 11.968 85.3746 11.688C85.1366 11.394 84.7935 11.247 84.3456 11.247C83.8275 11.247 83.4075 11.415 83.0856 11.751C82.7635 12.087 82.6026 12.5 82.6026 12.99V19.5H78.4236V4.275H82.6026V9.567ZM97.9115 8.16C99.6054 8.16 100.984 8.447 102.048 9.021C103.112 9.581 103.644 10.498 103.644 11.772V16.098C103.644 16.3361 103.7 16.532 103.812 16.686C103.924 16.8401 104.092 16.917 104.316 16.917H105.072V19.332C105.03 19.3601 104.918 19.409 104.736 19.479C104.568 19.535 104.323 19.5911 104.001 19.647C103.679 19.7171 103.308 19.752 102.888 19.752C102.076 19.752 101.404 19.6331 100.872 19.395C100.354 19.143 99.9974 18.8 99.8015 18.366C99.2694 18.786 98.6743 19.122 98.0164 19.374C97.3584 19.626 96.5884 19.752 95.7064 19.752C93.1024 19.752 91.8004 18.716 91.8004 16.644C91.8004 15.566 92.0874 14.747 92.6614 14.187C93.2495 13.613 94.0895 13.221 95.1814 13.011C96.2734 12.801 97.7015 12.696 99.4655 12.696V12.15C99.4655 11.716 99.3114 11.387 99.0034 11.163C98.7094 10.939 98.3244 10.827 97.8484 10.827C97.4144 10.827 97.0364 10.904 96.7145 11.058C96.4064 11.212 96.2524 11.457 96.2524 11.793V11.877H92.1365C92.1224 11.807 92.1155 11.709 92.1155 11.583C92.1155 10.533 92.6124 9.70001 93.6065 9.084C94.6145 8.468 96.0494 8.16 97.9115 8.16ZM99.4655 14.67C98.2754 14.67 97.3934 14.803 96.8195 15.069C96.2594 15.321 95.9795 15.6641 95.9795 16.098C95.9795 16.7981 96.4554 17.148 97.4075 17.148C97.9535 17.148 98.4294 17.001 98.8354 16.707C99.2554 16.413 99.4655 16.049 99.4655 15.615V14.67ZM113.178 8.139C113.5 8.139 113.787 8.181 114.039 8.265C114.291 8.33501 114.417 8.37701 114.417 8.391V11.898H113.073C112.205 11.898 111.575 12.122 111.183 12.57C110.805 13.018 110.616 13.683 110.616 14.565V19.5H106.437V8.412H109.86L110.133 10.092C110.385 9.44801 110.784 8.96501 111.33 8.643C111.876 8.307 112.492 8.139 113.178 8.139ZM121.829 8.16C123.859 8.16 125.406 8.636 126.47 9.588C127.548 10.54 128.087 11.996 128.087 13.956V14.67H119.771C119.771 15.468 119.946 16.07 120.296 16.476C120.66 16.8821 121.227 17.085 121.997 17.085C122.697 17.085 123.208 16.938 123.53 16.644C123.866 16.35 124.034 15.9581 124.034 15.468H128.087C128.087 16.812 127.576 17.862 126.554 18.618C125.532 19.374 124.041 19.752 122.081 19.752C120.023 19.752 118.427 19.2761 117.293 18.324C116.159 17.358 115.592 15.902 115.592 13.956C115.592 12.052 116.145 10.61 117.251 9.63C118.358 8.65001 119.883 8.16 121.829 8.16ZM121.997 10.827C120.681 10.827 119.946 11.45 119.792 12.696H123.866C123.866 12.122 123.698 11.667 123.362 11.331C123.04 10.995 122.585 10.827 121.997 10.827Z" fill="white"/>
<path d="M11.1429 24C17.7705 24 23.1431 18.6275 23.1431 12C23.1431 5.37258 17.7705 0 11.1429 0H6V5.14286H11.1429C14.9301 5.14286 18.0002 8.21289 18.0002 12C18.0002 15.7871 14.9301 18.8571 11.1429 18.8571H6V24H11.1429Z" fill="#007AFF"/>
<path d="M22.8765 9.42774C23.0489 10.2566 23.1431 11.1168 23.1431 12C23.1431 18.6275 18.0262 24 11.7144 24H6V18.857H11.7144C11.8293 18.857 11.9436 18.8529 12.0571 18.8468C17.3758 18.6822 21.7788 14.7065 22.8765 9.42774Z" fill="url(#paint0_linear_2001_2124)"/>
<path d="M6.00009 6C6.00009 6 6.33114 9.08996 7.62066 10.3794C8.91016 11.6689 12.0002 12 12.0002 12C12.0002 12 8.91016 12.3311 7.62066 13.6205C6.33114 14.91 6.00009 18 6.00009 18C6.00009 18 5.66902 14.91 4.37952 13.6205C3.09001 12.3311 0 12 0 12C0 12 3.09001 11.6689 4.37952 10.3794C5.66902 9.08996 6.00009 6 6.00009 6Z" fill="#00FFFF"/>
</g>
<defs>
<linearGradient id="paint0_linear_2001_2124" x1="23.1431" y1="12.4279" x2="8.14256" y2="20.9993" gradientUnits="userSpaceOnUse">
<stop stop-color="#96FFFD"/>
<stop offset="1" stop-color="#007AFF"/>
</linearGradient>
<clipPath id="clip0_2001_2124">
<rect width="129" height="24" fill="white"/>
</clipPath>
</defs>
</svg>
