<svg width="104" height="24" viewBox="0 0 104 24" fill="none" xmlns="http://www.w3.org/2000/svg">
<rect x="0.5" y="0.5" width="103" height="23" rx="11.5" fill="#0A0A17"/>
<rect x="0.5" y="0.5" width="103" height="23" rx="11.5" stroke="#21D2D2"/>
<rect x="6" y="4.5" width="37" height="15" rx="7.5" fill="#21D2D2"/>
<path d="M13.5 8.5C13.5 8.5 13.6931 10.3025 14.4453 11.0547C15.1975 11.8069 17 12 17 12C17 12 15.1975 12.1931 14.4453 12.9453C13.6931 13.6975 13.5 15.5 13.5 15.5C13.5 15.5 13.3069 13.6975 12.5547 12.9453C11.8025 12.1931 10 12 10 12C10 12 11.8025 11.8069 12.5547 11.0547C13.3069 10.3025 13.5 8.5 13.5 8.5Z" fill="#0A0A17"/>
<path d="M19.6659 15.5V8.4H20.9959L23.1459 13.5V8.4H24.3459V15.5H23.0159L20.8659 10.4V15.5H19.6659ZM25.862 15.5V8.4H30.262V9.54H27.102V11.39H30.142V12.49H27.102V14.36H30.342V15.5H25.862ZM32.008 15.5L31.258 8.4H32.458L32.968 14.28H32.848L33.538 9.2H34.458L35.148 14.28H35.028L35.538 8.4H36.738L35.988 15.5H34.558L33.878 10.7H34.118L33.438 15.5H32.008Z" fill="#0A0A17"/>
<path d="M48.3004 16V7.48H51.0004C51.5844 7.48 52.1004 7.592 52.5484 7.816C52.9964 8.04 53.3444 8.352 53.5924 8.752C53.8404 9.152 53.9644 9.628 53.9644 10.18C53.9644 10.724 53.8404 11.196 53.5924 11.596C53.3444 11.996 52.9964 12.308 52.5484 12.532C52.1004 12.748 51.5844 12.856 51.0004 12.856H49.7884V16H48.3004ZM49.7884 11.5H50.8444C51.3804 11.5 51.7764 11.388 52.0324 11.164C52.2964 10.932 52.4284 10.604 52.4284 10.18C52.4284 9.74 52.2964 9.408 52.0324 9.184C51.7764 8.96 51.3804 8.848 50.8444 8.848H49.7884V11.5ZM55.2797 16V7.48H57.9797C58.8917 7.48 59.6077 7.708 60.1277 8.164C60.6477 8.62 60.9077 9.244 60.9077 10.036C60.9077 10.444 60.8157 10.804 60.6317 11.116C60.4557 11.428 60.2197 11.676 59.9237 11.86C59.6277 12.036 59.3037 12.136 58.9517 12.16L58.9037 12.004C59.5197 12.028 59.9797 12.164 60.2837 12.412C60.5877 12.652 60.7637 13.048 60.8117 13.6L61.0157 16H59.5277L59.3477 13.948C59.3237 13.644 59.2637 13.408 59.1677 13.24C59.0797 13.072 58.9397 12.956 58.7477 12.892C58.5637 12.828 58.3077 12.796 57.9797 12.796H56.7677V16H55.2797ZM56.7677 11.428H57.9437C58.4077 11.428 58.7597 11.316 58.9997 11.092C59.2477 10.868 59.3717 10.548 59.3717 10.132C59.3717 9.716 59.2477 9.4 58.9997 9.184C58.7597 8.96 58.4077 8.848 57.9437 8.848H56.7677V11.428ZM62.739 16V7.48H68.019V8.848H64.227V11.068H67.875V12.388H64.227V14.632H68.115V16H62.739ZM70.5343 13.144V11.848H74.4703V13.144H70.5343ZM77.0097 16V14.632H78.9537V8.848H77.0097V7.48H82.3857V8.848H80.4417V14.632H82.3857V16H77.0097ZM84.277 16V7.48H86.977C87.561 7.48 88.077 7.592 88.525 7.816C88.973 8.04 89.321 8.352 89.569 8.752C89.817 9.152 89.941 9.628 89.941 10.18C89.941 10.724 89.817 11.196 89.569 11.596C89.321 11.996 88.973 12.308 88.525 12.532C88.077 12.748 87.561 12.856 86.977 12.856H85.765V16H84.277ZM85.765 11.5H86.821C87.357 11.5 87.753 11.388 88.009 11.164C88.273 10.932 88.405 10.604 88.405 10.18C88.405 9.74 88.273 9.408 88.009 9.184C87.753 8.96 87.357 8.848 86.821 8.848H85.765V11.5ZM94.0883 16.192C93.4083 16.192 92.8283 16.02 92.3483 15.676C91.8763 15.332 91.5163 14.828 91.2683 14.164C91.0203 13.5 90.8963 12.696 90.8963 11.752C90.8963 10.792 91.0203 9.98 91.2683 9.316C91.5163 8.652 91.8763 8.148 92.3483 7.804C92.8283 7.46 93.4083 7.288 94.0883 7.288C94.7683 7.288 95.3443 7.46 95.8163 7.804C96.2963 8.148 96.6603 8.652 96.9083 9.316C97.1563 9.98 97.2803 10.792 97.2803 11.752C97.2803 12.696 97.1563 13.5 96.9083 14.164C96.6603 14.828 96.2963 15.332 95.8163 15.676C95.3443 16.02 94.7683 16.192 94.0883 16.192ZM94.0883 14.848C94.4483 14.848 94.7523 14.736 95.0003 14.512C95.2483 14.288 95.4323 13.948 95.5523 13.492C95.6803 13.028 95.7443 12.448 95.7443 11.752C95.7443 11.056 95.6803 10.476 95.5523 10.012C95.4323 9.548 95.2483 9.204 95.0003 8.98C94.7523 8.748 94.4483 8.632 94.0883 8.632C93.7283 8.632 93.4243 8.748 93.1763 8.98C92.9283 9.204 92.7403 9.548 92.6123 10.012C92.4923 10.476 92.4323 11.056 92.4323 11.752C92.4323 12.448 92.4923 13.028 92.6123 13.492C92.7403 13.948 92.9283 14.288 93.1763 14.512C93.4243 14.736 93.7283 14.848 94.0883 14.848Z" fill="white" fill-opacity="0.85"/>
</svg>
