<svg width="84" height="78" viewBox="0 0 84 78" fill="none" xmlns="http://www.w3.org/2000/svg">
<path d="M41.0674 0.00587619C44.2281 -0.0505566 47.3896 0.300436 50.4502 1.01759C55.0398 2.09253 59.4058 3.98579 63.3027 6.54592C64.6801 7.45076 66.0038 8.43056 67.2695 9.47853C67.402 9.60358 67.8099 9.95521 67.9209 10.0996C68.629 10.9175 69.5911 11.8588 70.6563 12.9629C70.876 13.1911 71.1001 13.4267 71.3252 13.668C73.4594 15.3669 75.524 17.5614 76.6895 19.1904C77.6725 20.5463 78.0957 21.6702 78.4395 22.625C78.6741 23.2827 78.8664 23.863 79.1426 24.3985C79.2918 24.688 79.5009 25.0803 79.7442 25.5547C79.7854 25.6352 79.8277 25.7187 79.8711 25.8047C80.5597 27.1668 82.6788 30.6679 83.0586 34.7129C83.2506 36.5236 83.0771 38.6451 82.6846 40.4639C82.1328 43.0986 81.2386 45.2076 81.0557 46.332C80.8578 47.5288 80.4535 48.7659 79.9688 49.9365C79.6762 50.6357 79.3693 51.3137 79.0762 51.957C78.3625 53.5289 77.7212 54.9072 77.6143 55.7988C77.486 56.8644 77.0641 57.6586 76.3926 58.8555C75.9229 59.6824 75.3459 60.7058 74.544 62.167C73.6081 63.86 72.6287 65.0308 71.6836 65.9619C70.3225 67.2671 69.1352 68.2048 67.252 69.5352C67.1092 69.6334 66.9632 69.7284 66.8145 69.8203C65.6505 70.677 64.4948 71.5993 63.3096 72.2461C62.7341 72.5581 62.0872 72.9993 61.3565 73.4717C60.3931 74.0962 59.2602 74.7702 58.0938 75.1836C57.1344 75.5254 56.2448 75.5924 55.4815 75.6113C55.2393 75.6185 55.0168 75.6188 54.7959 75.624C54.0421 75.8565 53.2803 76.0478 52.5195 76.2022C52.423 76.2558 52.3208 76.3126 52.2139 76.3711C52.1907 76.383 52.1674 76.3953 52.1436 76.4072C51.4016 76.7742 50.5407 77.1496 49.4902 77.335C47.831 77.6222 46.4266 77.4204 44.9844 77.1582C43.8649 76.9512 42.726 76.701 41.4024 76.5498C40.5041 76.4474 39.4738 76.3755 38.4541 76.2774C36.9337 76.1324 35.4478 75.9264 34.4678 75.5664C34.1042 75.4327 33.8187 75.1878 33.5498 74.9463C33.5488 74.9451 33.5479 74.9436 33.5469 74.9424C33.5285 74.926 33.5097 74.91 33.4912 74.8936C32.3572 74.6324 31.2291 74.3449 30.1065 74.0322C28.8829 73.6957 27.6595 73.3666 26.4111 73.0235C26.2023 72.9961 25.9869 72.9666 25.7754 72.9365C24.743 72.7906 23.7248 72.6322 22.9951 72.6514C22.1994 72.6625 20.419 72.2243 18.2803 71.3711C16.885 70.8052 15.2752 70.0115 13.7881 68.8369C13.2299 68.3965 12.7547 67.8055 12.3613 67.1182C12.2696 66.9119 12.188 66.6977 12.1065 66.4805C11.8899 65.9031 11.6797 65.3125 11.2803 64.7891C11.0787 64.5246 10.8253 64.265 10.5567 63.9844C10.3194 63.7361 10.0717 63.4747 9.83888 63.1807C9.62209 62.9061 9.29199 62.2035 8.89748 61.2959C8.65266 60.7335 8.38388 60.0928 8.09767 59.4248C7.09638 57.7892 6.16265 56.0987 5.31447 54.3369C5.02132 54.0176 4.713 53.76 4.38283 53.5869C4.1456 53.4619 3.88819 53.3755 3.62502 53.2842C3.26686 53.1597 2.89627 53.0278 2.54787 52.7735C2.27574 52.5751 2.0932 52.2877 2.09084 52.0498C2.08976 51.939 2.12723 51.8399 2.16115 51.751C2.19993 51.6493 2.23419 51.5587 2.20314 51.4736C2.18053 51.4124 2.11203 51.3638 2.02834 51.3037C1.8945 51.2077 1.72043 51.0815 1.63283 50.8262C1.30927 49.8846 1.02239 48.7616 0.788101 47.6328C0.525267 46.3778 0.327778 45.1009 0.145523 44.0547C-0.0611493 42.8865 -0.050727 41.1233 0.196304 39.2598C0.351685 38.0624 0.608015 36.8265 0.895523 35.71C0.913465 35.6472 0.930528 35.5849 0.947281 35.5235C1.15096 34.7768 1.21627 33.9547 1.29103 33.1406C1.38003 32.1654 1.48616 31.1978 1.84669 30.4248C1.91937 30.2698 2.16494 30.1123 2.47365 29.9199C2.69247 29.7839 2.94441 29.6257 3.18947 29.4375C3.47083 28.4042 3.7968 27.3524 4.18654 26.2852C4.17418 26.2385 4.16118 26.1901 4.14845 26.1416L4.14748 26.1397C3.85956 25.0585 3.51963 23.4347 4.89162 21.8526C5.24055 21.4556 5.61059 21.2869 5.9424 21.1406C6.26906 20.9973 6.56115 20.8754 6.78615 20.5791C7.04201 20.2427 7.19526 19.7499 7.39162 19.208C7.66382 18.4509 8.03464 17.5832 8.78712 17.0293C8.83814 16.9917 8.89325 16.9516 8.95021 16.9102C9.49181 16.5133 10.326 15.9521 11.3223 15.6485C11.4787 15.5173 11.6378 15.3881 11.7988 15.2608C13.4574 13.977 15.1849 12.8036 16.9707 11.7373C20.1818 9.81969 23.5674 8.25785 27.0205 7.02345C28.7026 6.42172 30.521 6.36386 31.9981 6.8633C32.3676 6.98856 32.7087 7.14472 33.0186 7.32717C32.966 7.16396 32.9245 6.99737 32.8936 6.82814C32.6633 5.53054 33.0846 4.16475 34.0508 2.9883C35.0236 1.81471 36.4193 0.919703 38.1719 0.491228C38.8342 0.332035 39.534 0.175687 40.2735 0.042009C40.4342 0.0335184 40.9074 -0.0117849 41.0674 0.00587619ZM34.9365 9.72463C35.2804 10.9169 35.0475 12.2412 34.3897 13.4727C33.6975 14.7548 32.5986 15.8364 31.3106 16.5723C29.2036 17.77 27.2058 19.1051 25.3262 20.5528C25.2363 20.6418 25.1458 20.7314 25.0547 20.8194C24.381 21.4719 23.8891 22.2549 23.4297 23.041C23.3225 23.2229 23.2203 23.4025 23.1152 23.583C22.6859 24.3205 21.8227 25.102 20.9404 25.8418C20.4887 26.2089 20.0388 26.5759 19.7119 26.8906C19.6992 26.9032 19.6865 26.9161 19.6738 26.9287C19.5067 27.0912 19.3679 27.268 19.21 27.4893C18.8389 28.0497 18.3211 28.6839 17.1211 30.8692C16.8968 31.5578 16.683 32.2879 16.4746 33.0537C16.0119 34.7532 15.5936 36.6218 15.1553 38.5908C14.1832 42.2798 16.5932 50.2814 19.8594 56.4072C19.9211 56.502 19.9853 56.5996 20.0498 56.6973C20.7256 57.7212 21.5275 58.8485 22.2705 59.876C22.0997 59.6971 22.3988 60.0697 22.792 60.4063C23.9511 61.4164 25.4837 62.2669 26.5733 62.918C28.5831 63.8088 30.7615 64.6687 32.96 65.5488C37.7842 67.4983 42.9755 68.8674 47.9434 69.0791C49.0154 69.1208 50.1422 69.0877 50.8916 68.9697C51.8857 68.8074 52.8134 68.5584 53.7119 68.2051C55.3654 67.5684 56.9539 66.4995 58.96 65.1543C60.06 64.2857 61.2339 63.391 62.4238 62.6319C62.7109 62.4482 62.9941 62.2736 63.2822 62.1045C63.787 61.6895 64.0594 61.2876 64.4004 60.8623C65.378 59.6982 66.9131 57.0443 67.9404 54.9727C68.1105 54.635 68.2714 54.3095 68.417 54.0059C69.0307 52.2365 69.6094 50.3976 70.1865 48.5342C70.2786 48.4312 70.3737 48.3263 70.4707 48.2197C70.8287 47.8222 71.1348 47.3911 71.4268 46.8711C72.0713 45.767 72.5603 44.2866 72.9336 42.3721C73.1564 41.1967 73.3324 39.8541 73.336 38.3692C73.3318 37.4158 73.518 36.9121 73.6709 36.4707C73.7144 36.3398 73.7536 36.2159 73.7793 36.0938C73.8656 35.6691 73.5864 35.2961 73.2363 34.8838C72.7782 34.3413 72.2175 33.7712 72.0264 32.6035C71.8475 31.5312 71.5301 30.5677 71.2051 29.7158C70.5152 27.8782 69.5977 27.1243 68.8652 26.5479C68.5628 26.3118 68.2856 26.1038 68.0567 25.8692C67.3112 25.093 66.6917 23.7821 66.2354 22.709C65.8854 21.8452 64.4979 20.6913 63.207 19.8828C62.7225 19.5719 62.1579 19.0307 61.4365 18.3057C61.1684 18.0351 60.8795 17.7369 60.5694 17.4131C60.2225 17.1597 59.8495 16.9112 59.4473 16.6836C57.0799 15.3615 55.7664 14.8351 54.7217 14.4004C54.4232 14.2798 54.1439 14.1703 53.8643 14.0664C52.9798 13.7367 51.8936 13.329 50.7832 12.9854C49.4551 12.5701 48.0921 12.2536 47.043 12.1328C45.0085 11.4488 42.9177 10.9595 40.8047 10.7158C40.5551 10.7376 40.2966 10.7634 40.0303 10.793C38.5082 10.9649 36.7466 10.7246 35.3858 9.98927C35.2297 9.90616 35.0797 9.81782 34.9365 9.72463Z" fill="#21D2D2"/>
</svg>
