<svg width="56" height="24" viewBox="0 0 56 24" fill="none" xmlns="http://www.w3.org/2000/svg">
<g clip-path="url(#clip0_2239_1529)">
<path d="M0 9.88241V9.06507C0.399037 2.61925 6.89594 -1.81369 13.0769 0.804763C13.3868 0.93628 15.1672 1.82941 15.1163 2.1073L12.8283 4.74805C9.81797 2.84142 5.55658 4.10012 4.39615 7.52179C3.98214 8.74185 3.98513 10.3973 4.43433 11.6115C5.71679 15.0792 10.1107 16.2458 13.0559 14.0471L15.3446 16.7488C11.0795 20.348 4.71283 19.3487 1.62984 14.7671C0.685027 13.362 0.0965775 11.5565 0 9.88241Z" fill="white"/>
<path d="M48.8727 0.096633C51.2325 -0.110674 53.7248 0.540224 55.541 2.05304L53.2569 4.74431C50.5557 3.07843 46.8521 3.85193 45.2559 6.61156C44.204 8.42976 44.2774 10.942 45.4131 12.6992C47.1291 15.3548 50.9839 15.9842 53.4935 14.0464L55.7701 16.6908C55.8016 16.8625 54.7639 17.5275 54.5715 17.6412C47.8538 21.6038 39.7136 16.0644 40.5034 8.50852C40.9511 4.22419 44.4878 0.482268 48.8727 0.096633Z" fill="white"/>
<path d="M29.4974 7.50464V11.5913H21.5615V14.5635H30.9198V18.7245H17.5936V7.50464H29.4974Z" fill="white"/>
<path d="M30.9198 0.37146H17.5936V4.45815H30.9198V0.37146Z" fill="white"/>
<path d="M37.7326 7.50464V18.6873L37.6203 18.7988H33.8021L33.6898 18.6873V7.50464H37.7326Z" fill="white"/>
<path d="M37.7326 0.445801H33.6898V4.45818H37.7326V0.445801Z" fill="white"/>
<path d="M32.7165 21.6595L32.4178 21.4002C32.6237 21.4306 32.995 21.3348 33.1657 21.4373C33.4749 21.6231 34.1188 22.9769 34.5141 23.257V21.7338L34.1929 21.548L34.1772 21.3994H35.0374C35.1085 21.6224 34.6638 21.5674 34.6638 21.7346V23.9265L34.398 23.8559L32.9419 21.9203V23.7036L33.3162 23.7786C33.1567 24.0558 32.6941 23.8812 32.4186 23.9258C32.3639 23.7199 32.581 23.7437 32.7173 23.7036V21.6602L32.7165 21.6595Z" fill="white"/>
<path d="M12.278 21.6595L11.9793 21.4002C12.1852 21.4306 12.5565 21.3348 12.7272 21.4373C13.0364 21.6231 13.6803 22.9769 14.0756 23.257V21.7338L13.7544 21.548L13.7387 21.3994H14.5989C14.67 21.6224 14.2253 21.5674 14.2253 21.7346V23.9265L13.9595 23.8559L12.5034 21.9203V23.7036L12.8777 23.7786C12.7183 24.0558 12.2556 23.8812 11.9801 23.9258C11.9254 23.7199 12.1425 23.7437 12.2788 23.7036V21.6602L12.278 21.6595Z" fill="white"/>
<path d="M9.13364 21.6595L8.83492 21.4002C9.0408 21.4306 9.41214 21.3348 9.58283 21.4373C9.89203 21.6231 10.5359 22.9769 10.9312 23.257V21.7338L10.61 21.548L10.5943 21.3994H11.4545C11.5256 21.6224 11.0809 21.5674 11.0809 21.7346V23.9265L10.8151 23.8559L9.35898 21.9203V23.7036L9.73332 23.7786C9.57385 24.0558 9.11118 23.8812 8.83567 23.9258C8.78102 23.7199 8.99813 23.7437 9.13439 23.7036V21.6602L9.13364 21.6595Z" fill="white"/>
<path d="M30.1509 21.4165C31.2102 21.201 31.9087 21.7843 31.8204 22.8513C31.7463 23.7555 30.931 24.1011 30.094 23.8908C28.9493 23.6025 29.0908 21.632 30.1509 21.4165ZM30.5259 21.4893C29.3243 21.5889 29.6081 24.4272 30.9138 23.7333C31.5771 23.3811 31.5 21.4083 30.5259 21.4893Z" fill="white"/>
<path d="M15.9263 21.4165C16.9856 21.201 17.6841 21.7843 17.5958 22.8513C17.5217 23.7555 16.7064 24.1011 15.8694 23.8908C14.7247 23.6025 14.8662 21.632 15.9263 21.4165ZM16.3013 21.4893C15.0997 21.5889 15.3835 24.4272 16.6891 23.7333C17.3525 23.3811 17.2754 21.4083 16.3013 21.4893Z" fill="white"/>
<path d="M5.09087 21.3994L5.16499 22.0674C4.92841 22.1083 5.03172 21.8475 4.90146 21.6981C4.68584 21.4522 4.19247 21.574 3.89226 21.5473V22.514L4.52039 22.5043L4.64616 22.2197L4.86552 22.216V23.0341L4.64691 23.0289C4.64392 22.6106 4.22017 22.6522 3.89226 22.6618V23.7764C4.13857 23.7623 4.40434 23.8158 4.64467 23.7429C5.00477 23.6345 4.92841 23.2503 5.2391 23.182L5.16499 23.925H3.1436C3.09868 23.7251 3.34424 23.7281 3.40563 23.6278C3.47151 23.52 3.47151 21.7055 3.41012 21.6164C3.29782 21.5109 3.08894 21.6275 3.1436 21.3994H5.09012H5.09087Z" fill="white"/>
<path d="M44.6578 21.3994C45.2178 21.4833 45.5974 21.9804 45.2537 22.5109C45.0052 22.8951 44.3591 22.9003 43.9466 22.8854C43.9601 23.1143 43.9039 23.3966 43.9967 23.6121C44.0896 23.8276 44.3778 23.6738 44.3217 23.9264H43.1987C43.1433 23.7057 43.3888 23.7823 43.4614 23.6307C43.5273 23.494 43.5243 21.7047 43.4644 21.6171C43.3521 21.5116 43.1433 21.6282 43.1979 21.4001C43.6509 21.4477 44.2228 21.3347 44.6578 21.4001V21.3994ZM43.9466 22.7368C45.1647 22.8988 45.2463 21.3466 43.9466 21.548V22.7368Z" fill="white"/>
<path d="M22.9091 23.9257L23.2048 23.6575L23.0491 23.1188L22.0781 23.1544L21.8609 23.7021C21.9096 23.7637 22.3146 23.6887 22.2353 23.9257H21.3376C21.3242 23.6872 21.5443 23.8209 21.7022 23.5817C22.0384 23.0735 22.2562 22.0429 22.5722 21.4737C22.6987 21.3667 22.8439 21.3273 22.9293 21.4923C23.1928 21.9998 23.502 23.2889 23.803 23.65C23.8996 23.766 24.0463 23.7645 24.1818 23.7779C24.2058 23.8001 24.0852 23.9257 24.0695 23.9257H22.9091ZM22.9091 22.9598C22.9787 22.8892 22.6276 21.9262 22.5355 21.9946L22.2353 22.9598H22.9091Z" fill="white"/>
<path d="M41.476 23.9257L41.7717 23.6575L41.616 23.1188L40.645 23.1544L40.4278 23.7021C40.4765 23.7637 40.8815 23.6887 40.8022 23.9257H39.9045C39.891 23.6872 40.1112 23.8209 40.2691 23.5817C40.6053 23.0735 40.8231 22.0429 41.1391 21.4737C41.2656 21.3667 41.4108 21.3273 41.4962 21.4923C41.7597 21.9998 42.0689 23.2889 42.3699 23.65C42.4664 23.766 42.6132 23.7645 42.7487 23.7779C42.7726 23.8001 42.6521 23.9257 42.6364 23.9257H41.476ZM41.476 22.9598C41.5456 22.8892 41.1945 21.9262 41.1024 21.9946L40.8022 22.9598H41.476Z" fill="white"/>
<path d="M52.1069 23.9257L52.4027 23.6575L52.2469 23.1188L51.2759 23.1544L51.0588 23.7021C51.1075 23.7637 51.5125 23.6887 51.4331 23.9257H50.5355C50.522 23.6872 50.7421 23.8209 50.9001 23.5817C51.2363 23.0735 51.4541 22.0429 51.77 21.4737C51.8966 21.3667 52.0418 21.3273 52.1272 21.4923C52.3907 21.9998 52.6999 23.2889 53.0008 23.65C53.0974 23.766 53.2442 23.7645 53.3797 23.7779C53.4036 23.8001 53.2831 23.9257 53.2674 23.9257H52.1069ZM52.1069 22.9598C52.1766 22.8892 51.8254 21.9262 51.7334 21.9946L51.4331 22.9598H52.1069Z" fill="white"/>
<path d="M27.0267 21.3994V22.2903L26.4989 21.6625L26.0534 21.5473V23.5163C26.0534 23.6917 26.3454 23.7935 26.5026 23.7771C26.5266 23.7994 26.4061 23.925 26.3903 23.925H25.2299V23.7771C25.3332 23.8076 25.6042 23.6664 25.6042 23.5906V21.5473C25.4365 21.5451 25.2516 21.5971 25.1161 21.6944C24.8511 21.8854 24.9357 22.2487 24.631 22.2896L24.7051 21.3979H27.026L27.0267 21.3994Z" fill="white"/>
<path d="M50.0107 21.3994V22.2903L49.4829 21.6625L49.0375 21.5473V23.5163C49.0375 23.6917 49.3294 23.7935 49.4866 23.7771C49.5106 23.7994 49.3901 23.925 49.3743 23.925H48.2139V23.7771C48.3172 23.8076 48.5883 23.6664 48.5883 23.5906V21.5473C48.4206 21.5451 48.2356 21.5971 48.1001 21.6944C47.8351 21.8854 47.9197 22.2487 47.615 22.2896L47.6891 21.3979H50.01L50.0107 21.3994Z" fill="white"/>
<path d="M2.38228 21.4863L2.46988 22.2167C2.15469 22.1655 2.13148 21.6565 1.81854 21.5643C0.835547 21.2746 0.57052 22.5125 0.819825 23.2243C1.08111 23.9725 2.08057 23.8729 2.32164 23.1842C2.8779 23.2785 2.07758 23.8611 1.8163 23.9086C0.747205 24.1048 0.0307339 23.3328 0.257579 22.2873C0.484424 21.2419 1.56325 21.3125 2.38228 21.4871V21.4863Z" fill="white"/>
<path d="M39.2165 21.4863L39.3041 22.2167C38.9889 22.1654 38.9657 21.6564 38.6528 21.5643C37.6698 21.2745 37.4047 22.5124 37.6541 23.2243C37.9153 23.9725 38.9148 23.8729 39.1559 23.1841C39.7121 23.2785 38.9118 23.861 38.6505 23.9086C37.5814 24.1047 36.865 23.3327 37.0918 22.2873C37.3127 21.2701 38.3975 21.3124 39.2165 21.487V21.4863Z" fill="white"/>
<path d="M19.3155 21.3994C19.3484 21.6788 19.0063 21.4158 19.0542 21.7798C19.0714 21.9129 19.582 23.3402 19.6891 23.257C19.7011 22.9316 20.3314 21.8252 20.1825 21.6164C20.1061 21.5094 19.8456 21.6335 19.9152 21.4002H20.8128C20.8128 21.6431 20.5815 21.5465 20.4213 21.7917C20.1128 22.2628 19.9092 23.2132 19.6479 23.7771C19.5319 24.0275 19.4345 23.9896 19.2998 23.7563C19.0056 23.2496 18.8536 22.4151 18.5818 21.8683L18.1925 21.4002H19.3155V21.3994Z" fill="white"/>
<path d="M55.0268 21.3994C55.0799 21.6275 54.8763 21.5101 54.7647 21.6201C54.5259 21.8564 54.7026 23.257 54.6629 23.6553C54.743 23.8982 55.3779 23.789 55.5531 23.5936C55.6998 23.4301 55.6594 23.1017 55.9244 23.1084L55.8503 23.9257H53.9038C53.8244 23.6954 54.1419 23.7727 54.1928 23.6924L54.1703 21.6171C54.0947 21.5064 53.8357 21.6357 53.9038 21.4002H55.0268V21.3994Z" fill="white"/>
<path d="M28.8235 21.3994L28.4814 21.6171C28.426 21.6944 28.4155 23.332 28.4514 23.5148C28.4918 23.7214 28.6229 23.7764 28.8235 23.7779C28.8475 23.8009 28.7269 23.9257 28.7112 23.9257H27.6256C27.5628 23.6969 27.8083 23.7875 27.9079 23.6857C28.0509 23.5379 28.0509 21.8497 27.9206 21.6639C27.8023 21.4953 27.5785 21.6364 27.6264 21.3994H28.8243H28.8235Z" fill="white"/>
<path d="M47.1658 21.3994L46.8236 21.6171C46.7682 21.6944 46.7578 23.332 46.7937 23.5148C46.8341 23.7214 46.9651 23.7764 47.1658 23.7779C47.1897 23.8009 47.0692 23.9257 47.0535 23.9257H45.9679C45.905 23.6969 46.1506 23.7875 46.2502 23.6857C46.3932 23.5379 46.3932 21.8497 46.2629 21.6639C46.1446 21.4953 45.9208 21.6364 45.9687 21.3994H47.1665H47.1658Z" fill="white"/>
<path d="M8.38502 21.3994L8.04289 21.6171C7.98748 21.6944 7.977 23.332 8.01294 23.5148C8.05337 23.7214 8.18438 23.7764 8.38502 23.7779C8.40898 23.8009 8.28845 23.9257 8.27273 23.9257H7.18716C7.12428 23.6969 7.36984 23.7875 7.46941 23.6857C7.6124 23.5379 7.6124 21.8497 7.48214 21.6639C7.36385 21.4953 7.14 21.6364 7.18791 21.3994H8.38577H8.38502Z" fill="white"/>
</g>
<defs>
<clipPath id="clip0_2239_1529">
<rect width="56" height="24" fill="white"/>
</clipPath>
</defs>
</svg>
