<svg width="1075" height="42" viewBox="0 0 1075 42" fill="none" xmlns="http://www.w3.org/2000/svg">
<path d="M0.264 33V0.983997H7.08V33H0.264ZM13.4325 9.624H25.8165C27.6725 9.624 29.0805 9.768 30.0405 10.056C31.0325 10.312 31.9285 10.792 32.7285 11.496C34.3605 13 35.1765 15.368 35.1765 18.6V33H28.7445V17.88C28.7445 16.728 28.4885 15.896 27.9765 15.384C27.4645 14.872 26.6165 14.616 25.4325 14.616H19.8645V33H13.4325V9.624ZM61.4865 9.624V14.616H50.1105C48.7985 14.616 47.9665 14.68 47.6145 14.808C46.8785 15.064 46.5105 15.688 46.5105 16.68C46.5105 17.512 46.8625 18.152 47.5665 18.6C47.9505 18.856 48.9905 18.984 50.6865 18.984H54.4785C56.9105 18.984 58.8305 19.496 60.2385 20.52C61.8065 21.672 62.5905 23.368 62.5905 25.608C62.5905 27.304 62.1105 28.856 61.1505 30.264C60.4465 31.384 59.5825 32.12 58.5585 32.472C57.5665 32.824 55.8865 33 53.5185 33H40.2225V28.008H51.6945C53.1025 28.008 54.0625 27.992 54.5745 27.96C55.7265 27.832 56.3025 27.176 56.3025 25.992C56.3025 25.032 55.9185 24.376 55.1505 24.024C54.7665 23.832 53.8385 23.736 52.3665 23.736H48.4785C46.9425 23.736 45.7585 23.64 44.9265 23.448C44.1265 23.256 43.3745 22.904 42.6705 22.392C41.8065 21.784 41.1185 20.952 40.6065 19.896C40.1265 18.808 39.8865 17.656 39.8865 16.44C39.8865 14.104 40.7345 12.248 42.4305 10.872C43.4545 10.04 45.2305 9.624 47.7585 9.624H61.4865ZM69.2074 9.624V0.983997H75.6394V9.624H81.5914V14.616H75.6394V23.112C75.6394 25.096 75.8154 26.344 76.1674 26.856C76.7114 27.624 77.6714 28.008 79.0474 28.008H81.5914V33H76.9354C74.1514 33 72.1674 32.328 70.9834 30.984C69.7994 29.64 69.2074 27.384 69.2074 24.216V14.616H65.1274V9.624H69.2074ZM85.9481 9.624H92.3801V33H85.9481V9.624ZM85.9481 7.224V0.983997H92.3801V7.224H85.9481ZM100.426 9.624V0.983997H106.858V9.624H112.81V14.616H106.858V23.112C106.858 25.096 107.034 26.344 107.386 26.856C107.93 27.624 108.89 28.008 110.266 28.008H112.81V33H108.154C105.37 33 103.386 32.328 102.202 30.984C101.018 29.64 100.426 27.384 100.426 24.216V14.616H96.3461V9.624H100.426ZM132.431 28.008V9.624H138.863V33H126.191C124.367 33 122.959 32.872 121.967 32.616C120.975 32.328 120.095 31.832 119.327 31.128C117.695 29.656 116.879 27.272 116.879 23.976V9.624H123.263V24.648C123.263 25.704 123.535 26.536 124.079 27.144C124.655 27.72 125.423 28.008 126.383 28.008H132.431ZM146.879 9.624V0.983997H153.311V9.624H159.263V14.616H153.311V23.112C153.311 25.096 153.487 26.344 153.839 26.856C154.383 27.624 155.343 28.008 156.719 28.008H159.263V33H154.607C151.823 33 149.839 32.328 148.655 30.984C147.471 29.64 146.879 27.384 146.879 24.216V14.616H142.799V9.624H146.879ZM163.62 9.624H170.052V33H163.62V9.624ZM163.62 7.224V0.983997H170.052V7.224H163.62ZM187.17 9.288C191.49 9.288 194.674 10.536 196.722 13.032C198.61 15.304 199.554 18.168 199.554 21.624C199.554 25.272 198.37 28.184 196.002 30.36C193.826 32.344 190.85 33.336 187.074 33.336C183.17 33.336 180.114 32.216 177.906 29.976C175.858 27.96 174.834 25.016 174.834 21.144C174.834 17.88 175.81 15.16 177.762 12.984C179.938 10.552 183.074 9.32 187.17 9.288ZM187.218 14.184C183.346 14.184 181.41 16.584 181.41 21.384C181.41 23.336 181.73 24.824 182.37 25.848C183.426 27.576 185.058 28.44 187.266 28.44C191.074 28.44 192.978 26.056 192.978 21.288C192.978 16.616 191.058 14.248 187.218 14.184ZM204.308 9.624H216.692C218.548 9.624 219.956 9.768 220.916 10.056C221.908 10.312 222.804 10.792 223.604 11.496C225.236 13 226.052 15.368 226.052 18.6V33H219.62V17.88C219.62 16.728 219.364 15.896 218.852 15.384C218.34 14.872 217.492 14.616 216.308 14.616H210.74V33H204.308V9.624ZM248.186 18.792C248.186 17.16 247.85 16.056 247.178 15.48C246.538 14.904 245.242 14.616 243.29 14.616H232.442V9.624H243.29C245.242 9.624 246.586 9.672 247.322 9.768C248.058 9.832 248.81 9.976 249.578 10.2C253.13 11.544 254.81 14.76 254.618 19.848V33H241.082C238.65 33 236.97 32.936 236.042 32.808C235.114 32.648 234.298 32.344 233.594 31.896C231.706 30.616 230.762 28.68 230.762 26.088C230.762 24.52 231.13 23.128 231.866 21.912C232.634 20.664 233.642 19.816 234.89 19.368C235.978 18.984 237.786 18.792 240.314 18.792H248.186ZM248.186 23.784H240.794H239.69C238.954 23.784 238.362 23.976 237.914 24.36C237.498 24.744 237.29 25.272 237.29 25.944C237.29 26.68 237.546 27.208 238.058 27.528C238.602 27.848 239.514 28.008 240.794 28.008H248.186V23.784ZM267.036 33H260.604V0.983997H267.036V33ZM321.834 27.288V33H310.65C308.538 33 306.922 32.888 305.802 32.664C301.866 31.896 299.066 29.704 297.402 26.088C296.314 23.656 295.77 20.648 295.77 17.064C295.77 12.776 296.602 9.288 298.266 6.6C299.482 4.648 301.098 3.224 303.114 2.328C305.162 1.432 307.786 0.983997 310.986 0.983997H321.834V6.696H311.754C308.714 6.696 306.49 7.512 305.082 9.144C303.898 10.488 303.306 12.92 303.306 16.44C303.306 21.176 304.218 24.28 306.042 25.752C307.322 26.776 309.322 27.288 312.042 27.288H321.834ZM341.728 28.008V9.624H348.16V33H335.488C333.664 33 332.256 32.872 331.264 32.616C330.272 32.328 329.392 31.832 328.624 31.128C326.992 29.656 326.176 27.272 326.176 23.976V9.624H332.56V24.648C332.56 25.704 332.832 26.536 333.376 27.144C333.952 27.72 334.72 28.008 335.68 28.008H341.728ZM374.752 9.624V14.616H363.376C362.064 14.616 361.232 14.68 360.88 14.808C360.144 15.064 359.776 15.688 359.776 16.68C359.776 17.512 360.128 18.152 360.832 18.6C361.216 18.856 362.256 18.984 363.952 18.984H367.744C370.176 18.984 372.096 19.496 373.504 20.52C375.072 21.672 375.856 23.368 375.856 25.608C375.856 27.304 375.376 28.856 374.416 30.264C373.712 31.384 372.848 32.12 371.824 32.472C370.832 32.824 369.152 33 366.784 33H353.488V28.008H364.96C366.368 28.008 367.328 27.992 367.84 27.96C368.992 27.832 369.568 27.176 369.568 25.992C369.568 25.032 369.184 24.376 368.416 24.024C368.032 23.832 367.104 23.736 365.632 23.736H361.744C360.208 23.736 359.024 23.64 358.192 23.448C357.392 23.256 356.64 22.904 355.936 22.392C355.072 21.784 354.384 20.952 353.872 19.896C353.392 18.808 353.152 17.656 353.152 16.44C353.152 14.104 354 12.248 355.696 10.872C356.72 10.04 358.496 9.624 361.024 9.624H374.752ZM382.473 9.624V0.983997H388.905V9.624H394.857V14.616H388.905V23.112C388.905 25.096 389.081 26.344 389.433 26.856C389.977 27.624 390.937 28.008 392.313 28.008H394.857V33H390.201C387.417 33 385.433 32.328 384.249 30.984C383.065 29.64 382.473 27.384 382.473 24.216V14.616H378.393V9.624H382.473ZM410.014 9.288C414.334 9.288 417.518 10.536 419.566 13.032C421.454 15.304 422.398 18.168 422.398 21.624C422.398 25.272 421.214 28.184 418.846 30.36C416.67 32.344 413.694 33.336 409.918 33.336C406.014 33.336 402.958 32.216 400.75 29.976C398.702 27.96 397.678 25.016 397.678 21.144C397.678 17.88 398.654 15.16 400.606 12.984C402.782 10.552 405.918 9.32 410.014 9.288ZM410.062 14.184C406.19 14.184 404.254 16.584 404.254 21.384C404.254 23.336 404.574 24.824 405.214 25.848C406.27 27.576 407.902 28.44 410.11 28.44C413.918 28.44 415.822 26.056 415.822 21.288C415.822 16.616 413.902 14.248 410.062 14.184ZM442.847 9.624V0.983997H449.231V33H438.191C435.951 33 434.255 32.824 433.103 32.472C430.383 31.608 428.351 29.912 427.007 27.384C426.079 25.688 425.615 23.608 425.615 21.144C425.615 17.144 426.959 14.04 429.647 11.832C431.407 10.36 433.791 9.624 436.799 9.624H442.847ZM442.847 28.008V14.616H438.191C436.143 14.616 434.591 15.304 433.535 16.68C432.607 17.832 432.143 19.32 432.143 21.144C432.143 23.8 432.911 25.704 434.447 26.856C435.503 27.624 436.751 28.008 438.191 28.008H442.847ZM470.823 28.008V9.624H477.255V32.52C477.255 35.56 476.455 37.784 474.855 39.192C473.255 40.6 470.711 41.304 467.223 41.304H455.751V36.312H467.223C468.599 36.312 469.495 36.168 469.911 35.88C470.231 35.688 470.439 35.432 470.535 35.112C470.631 34.824 470.727 34.12 470.823 33H465.111C458.519 33.16 455.399 29.72 455.751 22.68V9.624H462.183V22.056C462.183 24.488 462.391 26.088 462.807 26.856C463.255 27.624 464.167 28.008 465.543 28.008H470.823ZM520.418 28.008V9.624H526.85V28.008H533.762V9.624H540.146V33H516.53C514.386 33 512.754 32.84 511.634 32.52C510.514 32.2 509.586 31.64 508.85 30.84C507.442 29.304 506.738 27.192 506.738 24.504V9.624H513.122V23.496C513.122 24.616 513.17 25.4 513.266 25.848C513.394 26.296 513.618 26.696 513.938 27.048C514.61 27.688 515.618 28.008 516.962 28.008H520.418ZM546.495 9.624H552.927V33H546.495V9.624ZM546.495 7.224V0.983997H552.927V7.224H546.495ZM560.973 9.624V0.983997H567.405V9.624H573.357V14.616H567.405V23.112C567.405 25.096 567.581 26.344 567.933 26.856C568.477 27.624 569.437 28.008 570.813 28.008H573.357V33H568.701C565.917 33 563.933 32.328 562.749 30.984C561.565 29.64 560.973 27.384 560.973 24.216V14.616H556.893V9.624H560.973ZM584.146 0.983997V9.624H590.722C592.674 9.624 594.194 9.784 595.282 10.104C596.402 10.392 597.346 10.92 598.114 11.688C599.586 13.032 600.322 15.288 600.322 18.456V33H593.89V19.704C593.89 18.456 593.826 17.576 593.698 17.064C593.602 16.52 593.378 16.056 593.026 15.672C592.386 15 591.17 14.648 589.378 14.616H584.146V33H577.714V0.983997H584.146ZM630.452 33V0.983997H637.268V33H630.452ZM643.62 9.624H656.004C657.86 9.624 659.268 9.768 660.228 10.056C661.22 10.312 662.116 10.792 662.916 11.496C664.548 13 665.364 15.368 665.364 18.6V33H658.932V17.88C658.932 16.728 658.676 15.896 658.164 15.384C657.652 14.872 656.804 14.616 655.62 14.616H650.052V33H643.62V9.624ZM673.098 9.624V0.983997H679.53V9.624H685.482V14.616H679.53V23.112C679.53 25.096 679.706 26.344 680.058 26.856C680.602 27.624 681.562 28.008 682.938 28.008H685.482V33H680.826C678.042 33 676.058 32.328 674.874 30.984C673.69 29.64 673.098 27.384 673.098 24.216V14.616H669.018V9.624H673.098ZM708.943 18.792V23.784H695.407C695.535 25.32 696.031 26.408 696.895 27.048C697.759 27.688 699.167 28.008 701.119 28.008H708.943V33H700.399C698.543 33 697.023 32.84 695.839 32.52C694.687 32.168 693.599 31.608 692.575 30.84C689.727 28.632 688.303 25.352 688.303 21C688.303 18.184 689.055 15.72 690.559 13.608C691.583 12.168 692.815 11.144 694.255 10.536C695.695 9.928 697.583 9.624 699.919 9.624H708.943V14.616H700.399C698.639 14.616 697.407 14.92 696.703 15.528C695.999 16.104 695.567 17.192 695.407 18.792H708.943ZM714.167 9.624H723.671C725.623 9.624 727.127 9.768 728.183 10.056C729.271 10.312 730.167 10.76 730.871 11.4C731.575 12.04 732.071 12.84 732.359 13.8C732.647 14.76 732.791 16.136 732.791 17.928V20.184H726.599V18.936C726.599 17.272 726.311 16.136 725.735 15.528C725.159 14.92 724.055 14.616 722.423 14.616H720.599V33H714.167V9.624ZM752.748 18.792C752.748 17.16 752.412 16.056 751.74 15.48C751.1 14.904 749.804 14.616 747.852 14.616H737.004V9.624H747.852C749.804 9.624 751.148 9.672 751.884 9.768C752.62 9.832 753.372 9.976 754.14 10.2C757.692 11.544 759.372 14.76 759.18 19.848V33H745.644C743.212 33 741.532 32.936 740.604 32.808C739.676 32.648 738.86 32.344 738.156 31.896C736.268 30.616 735.324 28.68 735.324 26.088C735.324 24.52 735.692 23.128 736.428 21.912C737.196 20.664 738.204 19.816 739.452 19.368C740.54 18.984 742.348 18.792 744.876 18.792H752.748ZM752.748 23.784H745.356H744.252C743.516 23.784 742.924 23.976 742.476 24.36C742.06 24.744 741.852 25.272 741.852 25.944C741.852 26.68 742.108 27.208 742.62 27.528C743.164 27.848 744.076 28.008 745.356 28.008H752.748V23.784ZM784.703 9.624V14.616H777.023C774.431 14.616 772.639 15.192 771.647 16.344C770.687 17.432 770.207 19.096 770.207 21.336C770.207 23.832 770.991 25.656 772.559 26.808C773.199 27.256 773.887 27.576 774.623 27.768C775.391 27.928 776.447 28.008 777.791 28.008H784.703V33H775.919C773.551 33 771.679 32.76 770.303 32.28C768.927 31.8 767.711 30.968 766.655 29.784C764.639 27.544 763.631 24.696 763.631 21.24C763.631 17.08 764.831 13.976 767.231 11.928C768.191 11.096 769.343 10.504 770.687 10.152C772.031 9.8 773.775 9.624 775.919 9.624H784.703ZM791.317 9.624V0.983997H797.749V9.624H803.701V14.616H797.749V23.112C797.749 25.096 797.925 26.344 798.277 26.856C798.821 27.624 799.781 28.008 801.157 28.008H803.701V33H799.045C796.261 33 794.277 32.328 793.093 30.984C791.909 29.64 791.317 27.384 791.317 24.216V14.616H787.237V9.624H791.317ZM808.058 9.624H814.49V33H808.058V9.624ZM808.058 7.224V0.983997H814.49V7.224H808.058ZM830.936 25.704L837.464 9.624H844.28L834.2 33H827.288L817.976 9.624H824.984L830.936 25.704ZM866.818 18.792V23.784H853.282C853.41 25.32 853.906 26.408 854.77 27.048C855.634 27.688 857.042 28.008 858.994 28.008H866.818V33H858.274C856.418 33 854.898 32.84 853.714 32.52C852.562 32.168 851.474 31.608 850.45 30.84C847.602 28.632 846.178 25.352 846.178 21C846.178 18.184 846.93 15.72 848.434 13.608C849.458 12.168 850.69 11.144 852.13 10.536C853.57 9.928 855.458 9.624 857.794 9.624H866.818V14.616H858.274C856.514 14.616 855.282 14.92 854.578 15.528C853.874 16.104 853.442 17.192 853.282 18.792H866.818ZM896.186 33V0.983997H914.282C917.13 0.983997 919.194 1.32 920.474 1.992C921.978 2.728 923.114 3.96 923.882 5.688C924.426 6.872 924.698 8.104 924.698 9.384C924.698 11.048 924.25 12.6 923.354 14.04C922.49 15.48 921.386 16.472 920.042 17.016C923.146 18.424 924.698 20.936 924.698 24.552C924.698 26.632 924.202 28.376 923.21 29.784C922.346 31 921.242 31.848 919.898 32.328C918.554 32.776 916.554 33 913.898 33H896.186ZM903.002 14.136H912.266C913.258 14.136 913.962 14.088 914.378 13.992C914.826 13.896 915.258 13.688 915.674 13.368C916.666 12.6 917.162 11.544 917.162 10.2C917.162 8.92 916.698 7.976 915.77 7.368C915.098 6.92 913.978 6.696 912.41 6.696H903.002V14.136ZM903.002 27.288H912.266C913.258 27.288 913.978 27.24 914.426 27.144C914.874 27.048 915.29 26.84 915.674 26.52C916.666 25.752 917.162 24.696 917.162 23.352C917.162 22.072 916.698 21.128 915.77 20.52C915.098 20.072 913.978 19.848 912.41 19.848H903.002V27.288ZM929.558 9.624H939.062C941.014 9.624 942.518 9.768 943.574 10.056C944.662 10.312 945.558 10.76 946.262 11.4C946.966 12.04 947.462 12.84 947.75 13.8C948.038 14.76 948.182 16.136 948.182 17.928V20.184H941.99V18.936C941.99 17.272 941.702 16.136 941.126 15.528C940.55 14.92 939.446 14.616 937.814 14.616H935.99V33H929.558V9.624ZM962.811 9.288C967.131 9.288 970.315 10.536 972.363 13.032C974.251 15.304 975.195 18.168 975.195 21.624C975.195 25.272 974.011 28.184 971.643 30.36C969.467 32.344 966.491 33.336 962.715 33.336C958.811 33.336 955.755 32.216 953.547 29.976C951.499 27.96 950.475 25.016 950.475 21.144C950.475 17.88 951.451 15.16 953.403 12.984C955.579 10.552 958.715 9.32 962.811 9.288ZM962.859 14.184C958.987 14.184 957.051 16.584 957.051 21.384C957.051 23.336 957.371 24.824 958.011 25.848C959.067 27.576 960.699 28.44 962.907 28.44C966.715 28.44 968.619 26.056 968.619 21.288C968.619 16.616 966.699 14.248 962.859 14.184ZM986.38 0.983997V18.888L994.972 9.624H1002.17L993.052 18.888H994.78C997.02 18.888 998.572 19.544 999.436 20.856C1000.3 22.168 1000.73 24.488 1000.73 27.816V33H994.3V27.528C994.3 26.056 994.06 25.08 993.58 24.6C993.1 24.088 992.156 23.832 990.748 23.832H986.38V33H979.948V0.983997H986.38ZM1025.11 18.792V23.784H1011.58C1011.71 25.32 1012.2 26.408 1013.07 27.048C1013.93 27.688 1015.34 28.008 1017.29 28.008H1025.11V33H1016.57C1014.71 33 1013.19 32.84 1012.01 32.52C1010.86 32.168 1009.77 31.608 1008.75 30.84C1005.9 28.632 1004.47 25.352 1004.47 21C1004.47 18.184 1005.23 15.72 1006.73 13.608C1007.75 12.168 1008.99 11.144 1010.43 10.536C1011.87 9.928 1013.75 9.624 1016.09 9.624H1025.11V14.616H1016.57C1014.81 14.616 1013.58 14.92 1012.87 15.528C1012.17 16.104 1011.74 17.192 1011.58 18.792H1025.11ZM1030.34 9.624H1039.84C1041.79 9.624 1043.3 9.768 1044.35 10.056C1045.44 10.312 1046.34 10.76 1047.04 11.4C1047.75 12.04 1048.24 12.84 1048.53 13.8C1048.82 14.76 1048.96 16.136 1048.96 17.928V20.184H1042.77V18.936C1042.77 17.272 1042.48 16.136 1041.91 15.528C1041.33 14.92 1040.23 14.616 1038.59 14.616H1036.77V33H1030.34V9.624ZM1073.1 9.624V14.616H1061.72C1060.41 14.616 1059.58 14.68 1059.22 14.808C1058.49 15.064 1058.12 15.688 1058.12 16.68C1058.12 17.512 1058.47 18.152 1059.18 18.6C1059.56 18.856 1060.6 18.984 1062.3 18.984H1066.09C1068.52 18.984 1070.44 19.496 1071.85 20.52C1073.42 21.672 1074.2 23.368 1074.2 25.608C1074.2 27.304 1073.72 28.856 1072.76 30.264C1072.06 31.384 1071.19 32.12 1070.17 32.472C1069.18 32.824 1067.5 33 1065.13 33H1051.83V28.008H1063.3C1064.71 28.008 1065.67 27.992 1066.18 27.96C1067.34 27.832 1067.91 27.176 1067.91 25.992C1067.91 25.032 1067.53 24.376 1066.76 24.024C1066.38 23.832 1065.45 23.736 1063.98 23.736H1060.09C1058.55 23.736 1057.37 23.64 1056.54 23.448C1055.74 23.256 1054.98 22.904 1054.28 22.392C1053.42 21.784 1052.73 20.952 1052.22 19.896C1051.74 18.808 1051.5 17.656 1051.5 16.44C1051.5 14.104 1052.34 12.248 1054.04 10.872C1055.06 10.04 1056.84 9.624 1059.37 9.624H1073.1Z" fill="url(#paint0_linear_132_251)"/>
<defs>
<linearGradient id="paint0_linear_132_251" x1="241.295" y1="4.78649" x2="241.295" y2="34.8815" gradientUnits="userSpaceOnUse">
<stop stop-color="#1BFFE4"/>
<stop offset="1" stop-color="#3183FF"/>
</linearGradient>
</defs>
</svg>
