<svg width="285" height="312" viewBox="0 0 285 312" fill="none" xmlns="http://www.w3.org/2000/svg">
<g filter="url(#filter0_i_132_295)">
<path d="M0 16C0 7.16344 7.16344 0 16 0H269C277.837 0 285 7.16344 285 16V296C285 304.837 277.837 312 269 312H16C7.16345 312 0 304.837 0 296V16Z" fill="url(#paint0_linear_132_295)"/>
</g>
<path d="M130.207 60.32C135.187 60.32 139.087 62.36 141.907 66.56C144.547 70.52 145.867 75.86 145.867 82.58C145.867 89.3 144.547 94.64 141.907 98.6C139.087 102.74 135.187 104.84 130.207 104.84C125.167 104.84 121.267 102.74 118.507 98.6C115.867 94.64 114.547 89.3 114.547 82.58C114.547 75.86 115.867 70.52 118.507 66.56C121.267 62.36 125.167 60.32 130.207 60.32ZM130.207 66.26C126.787 66.26 124.387 68.12 123.007 71.96C122.047 74.54 121.567 78.08 121.567 82.58C121.567 87.02 122.047 90.56 123.007 93.2C124.387 96.98 126.787 98.9 130.207 98.9C133.567 98.9 135.967 96.98 137.407 93.2C138.367 90.56 138.847 87.02 138.847 82.58C138.847 78.08 138.367 74.54 137.407 71.96C135.967 68.12 133.567 66.26 130.207 66.26ZM162.104 61.16H167.384V104H160.364V69.62C157.784 71.96 154.544 73.7 150.584 74.84V67.88C152.504 67.4 154.544 66.56 156.704 65.36C158.864 64.04 160.664 62.66 162.104 61.16Z" fill="white"/>
<path d="M125.641 133.389H128.104V144.142C128.104 146.012 127.892 147.497 127.469 148.598C127.046 149.698 126.28 150.595 125.171 151.289C124.071 151.975 122.623 152.317 120.829 152.317C119.086 152.317 117.66 152.017 116.551 151.416C115.442 150.815 114.651 149.948 114.177 148.813C113.703 147.671 113.466 146.114 113.466 144.142V133.389H115.929V144.129C115.929 145.745 116.077 146.939 116.373 147.709C116.678 148.471 117.194 149.059 117.922 149.474C118.658 149.888 119.555 150.096 120.613 150.096C122.424 150.096 123.715 149.685 124.485 148.864C125.256 148.043 125.641 146.465 125.641 144.129V133.389ZM131.011 147.976L133.271 147.62C133.397 148.526 133.749 149.22 134.324 149.702C134.908 150.185 135.721 150.426 136.762 150.426C137.811 150.426 138.59 150.214 139.098 149.791C139.605 149.359 139.859 148.856 139.859 148.28C139.859 147.764 139.635 147.358 139.187 147.062C138.873 146.858 138.095 146.6 136.851 146.287C135.175 145.864 134.011 145.5 133.359 145.195C132.716 144.882 132.225 144.455 131.887 143.913C131.557 143.363 131.392 142.758 131.392 142.098C131.392 141.497 131.527 140.942 131.798 140.435C132.077 139.918 132.454 139.491 132.928 139.152C133.283 138.89 133.766 138.67 134.375 138.492C134.993 138.306 135.653 138.213 136.355 138.213C137.413 138.213 138.34 138.365 139.136 138.67C139.94 138.975 140.532 139.389 140.913 139.914C141.294 140.43 141.556 141.124 141.7 141.996L139.466 142.301C139.364 141.607 139.068 141.065 138.577 140.676C138.095 140.286 137.409 140.092 136.521 140.092C135.471 140.092 134.722 140.265 134.273 140.612C133.825 140.959 133.601 141.366 133.601 141.831C133.601 142.127 133.694 142.394 133.88 142.631C134.066 142.876 134.358 143.079 134.756 143.24C134.984 143.325 135.657 143.52 136.774 143.824C138.391 144.256 139.517 144.611 140.151 144.891C140.795 145.161 141.298 145.559 141.662 146.084C142.026 146.609 142.208 147.26 142.208 148.039C142.208 148.801 141.984 149.52 141.535 150.197C141.095 150.866 140.456 151.386 139.618 151.759C138.78 152.123 137.832 152.305 136.774 152.305C135.022 152.305 133.685 151.941 132.763 151.213C131.849 150.485 131.265 149.406 131.011 147.976ZM154.154 147.658L156.516 147.95C156.143 149.33 155.453 150.4 154.446 151.162C153.439 151.924 152.153 152.305 150.587 152.305C148.615 152.305 147.049 151.7 145.89 150.489C144.739 149.271 144.163 147.565 144.163 145.373C144.163 143.105 144.747 141.344 145.915 140.092C147.083 138.839 148.598 138.213 150.46 138.213C152.263 138.213 153.735 138.826 154.878 140.054C156.021 141.281 156.592 143.007 156.592 145.233C156.592 145.369 156.588 145.572 156.579 145.843H146.524C146.609 147.324 147.028 148.458 147.781 149.245C148.535 150.032 149.474 150.426 150.6 150.426C151.438 150.426 152.153 150.206 152.745 149.766C153.338 149.326 153.807 148.623 154.154 147.658ZM146.651 143.964H154.18C154.078 142.83 153.79 141.979 153.316 141.412C152.589 140.532 151.645 140.092 150.485 140.092C149.436 140.092 148.551 140.443 147.832 141.146C147.121 141.848 146.728 142.787 146.651 143.964ZM159.372 152V138.518H161.429V140.562C161.953 139.605 162.436 138.975 162.876 138.67C163.325 138.365 163.815 138.213 164.349 138.213C165.119 138.213 165.902 138.458 166.697 138.949L165.91 141.069C165.352 140.739 164.793 140.574 164.234 140.574C163.735 140.574 163.286 140.727 162.889 141.031C162.491 141.327 162.207 141.742 162.038 142.275C161.784 143.088 161.657 143.977 161.657 144.941V152H159.372ZM100.39 182V163.389H106.801C108.248 163.389 109.353 163.478 110.114 163.655C111.181 163.901 112.09 164.345 112.844 164.988C113.826 165.818 114.558 166.88 115.04 168.175C115.531 169.461 115.776 170.934 115.776 172.593C115.776 174.006 115.611 175.259 115.281 176.351C114.951 177.442 114.528 178.348 114.012 179.067C113.495 179.778 112.928 180.341 112.311 180.756C111.701 181.162 110.961 181.471 110.089 181.683C109.226 181.894 108.231 182 107.105 182H100.39ZM102.853 179.804H106.826C108.053 179.804 109.014 179.689 109.708 179.461C110.41 179.232 110.969 178.911 111.384 178.496C111.968 177.912 112.421 177.129 112.742 176.147C113.072 175.157 113.237 173.96 113.237 172.555C113.237 170.608 112.916 169.114 112.272 168.073C111.638 167.024 110.863 166.321 109.949 165.966C109.289 165.712 108.227 165.585 106.763 165.585H102.853V179.804ZM128.116 177.658L130.478 177.95C130.105 179.33 129.415 180.4 128.408 181.162C127.401 181.924 126.115 182.305 124.549 182.305C122.577 182.305 121.011 181.7 119.852 180.489C118.701 179.271 118.125 177.565 118.125 175.373C118.125 173.105 118.709 171.344 119.877 170.092C121.045 168.839 122.56 168.213 124.422 168.213C126.225 168.213 127.697 168.826 128.84 170.054C129.982 171.281 130.554 173.007 130.554 175.233C130.554 175.369 130.549 175.572 130.541 175.843H120.486C120.571 177.324 120.99 178.458 121.743 179.245C122.496 180.032 123.436 180.426 124.562 180.426C125.399 180.426 126.115 180.206 126.707 179.766C127.299 179.326 127.769 178.623 128.116 177.658ZM120.613 173.964H128.142C128.04 172.83 127.752 171.979 127.278 171.412C126.55 170.532 125.607 170.092 124.447 170.092C123.398 170.092 122.513 170.443 121.794 171.146C121.083 171.848 120.689 172.787 120.613 173.964ZM133.359 187.167V168.518H135.441V170.27C135.932 169.584 136.487 169.072 137.104 168.733C137.722 168.386 138.471 168.213 139.352 168.213C140.503 168.213 141.518 168.509 142.398 169.102C143.279 169.694 143.943 170.532 144.392 171.615C144.84 172.69 145.064 173.871 145.064 175.157C145.064 176.537 144.815 177.781 144.315 178.89C143.825 179.99 143.105 180.836 142.157 181.429C141.218 182.013 140.228 182.305 139.187 182.305C138.425 182.305 137.739 182.144 137.13 181.822C136.529 181.501 136.034 181.094 135.645 180.604V187.167H133.359ZM135.429 175.335C135.429 177.07 135.78 178.352 136.482 179.182C137.185 180.011 138.035 180.426 139.034 180.426C140.05 180.426 140.917 179.998 141.637 179.144C142.365 178.28 142.729 176.947 142.729 175.145C142.729 173.426 142.373 172.14 141.662 171.285C140.96 170.43 140.118 170.003 139.136 170.003C138.162 170.003 137.299 170.46 136.546 171.374C135.801 172.28 135.429 173.6 135.429 175.335ZM146.981 175.259C146.981 172.762 147.675 170.913 149.063 169.711C150.223 168.712 151.636 168.213 153.304 168.213C155.157 168.213 156.672 168.822 157.849 170.041C159.025 171.251 159.613 172.927 159.613 175.068C159.613 176.803 159.351 178.17 158.826 179.169C158.31 180.159 157.552 180.929 156.554 181.479C155.563 182.03 154.48 182.305 153.304 182.305C151.416 182.305 149.889 181.7 148.721 180.489C147.561 179.279 146.981 177.535 146.981 175.259ZM149.33 175.259C149.33 176.985 149.707 178.28 150.46 179.144C151.213 179.998 152.161 180.426 153.304 180.426C154.438 180.426 155.382 179.994 156.135 179.131C156.888 178.268 157.265 176.951 157.265 175.183C157.265 173.515 156.884 172.254 156.122 171.399C155.369 170.536 154.429 170.104 153.304 170.104C152.161 170.104 151.213 170.532 150.46 171.387C149.707 172.242 149.33 173.532 149.33 175.259ZM161.391 177.976L163.65 177.62C163.777 178.526 164.129 179.22 164.704 179.702C165.288 180.185 166.101 180.426 167.142 180.426C168.191 180.426 168.97 180.214 169.478 179.791C169.985 179.359 170.239 178.856 170.239 178.28C170.239 177.764 170.015 177.358 169.566 177.062C169.253 176.858 168.475 176.6 167.23 176.287C165.555 175.864 164.391 175.5 163.739 175.195C163.096 174.882 162.605 174.455 162.267 173.913C161.937 173.363 161.771 172.758 161.771 172.098C161.771 171.497 161.907 170.942 162.178 170.435C162.457 169.918 162.834 169.491 163.308 169.152C163.663 168.89 164.146 168.67 164.755 168.492C165.373 168.306 166.033 168.213 166.735 168.213C167.793 168.213 168.72 168.365 169.516 168.67C170.32 168.975 170.912 169.389 171.293 169.914C171.674 170.43 171.936 171.124 172.08 171.996L169.846 172.301C169.744 171.607 169.448 171.065 168.957 170.676C168.475 170.286 167.789 170.092 166.9 170.092C165.851 170.092 165.102 170.265 164.653 170.612C164.205 170.959 163.98 171.366 163.98 171.831C163.98 172.127 164.074 172.394 164.26 172.631C164.446 172.876 164.738 173.079 165.136 173.24C165.364 173.325 166.037 173.52 167.154 173.824C168.771 174.256 169.896 174.611 170.531 174.891C171.174 175.161 171.678 175.559 172.042 176.084C172.406 176.609 172.588 177.26 172.588 178.039C172.588 178.801 172.364 179.52 171.915 180.197C171.475 180.866 170.836 181.386 169.998 181.759C169.16 182.123 168.212 182.305 167.154 182.305C165.402 182.305 164.065 181.941 163.143 181.213C162.229 180.485 161.645 179.406 161.391 177.976ZM175.317 166.017V163.389H177.603V166.017H175.317ZM175.317 182V168.518H177.603V182H175.317ZM186.083 179.956L186.413 181.975C185.77 182.11 185.194 182.178 184.687 182.178C183.857 182.178 183.214 182.047 182.757 181.784C182.3 181.522 181.978 181.179 181.792 180.756C181.606 180.324 181.513 179.423 181.513 178.052V170.295H179.837V168.518H181.513V165.179L183.785 163.808V168.518H186.083V170.295H183.785V178.179C183.785 178.83 183.823 179.249 183.899 179.436C183.984 179.622 184.115 179.77 184.293 179.88C184.479 179.99 184.742 180.045 185.08 180.045C185.334 180.045 185.668 180.015 186.083 179.956Z" fill="white"/>
<path d="M30.9375 227.684H32.832V235.955C32.832 237.394 32.6693 238.536 32.3438 239.383C32.0182 240.229 31.429 240.919 30.5762 241.453C29.7298 241.98 28.6165 242.244 27.2363 242.244C25.8952 242.244 24.7982 242.013 23.9453 241.551C23.0924 241.089 22.4837 240.421 22.1191 239.549C21.7546 238.67 21.5723 237.472 21.5723 235.955V227.684H23.4668V235.945C23.4668 237.189 23.5807 238.107 23.8086 238.699C24.043 239.285 24.4401 239.738 25 240.057C25.5664 240.376 26.2565 240.535 27.0703 240.535C28.4635 240.535 29.4564 240.219 30.0488 239.588C30.6413 238.956 30.9375 237.742 30.9375 235.945V227.684ZM35.3516 237.4L37.1387 237.244C37.2233 237.96 37.4186 238.549 37.7246 239.012C38.0371 239.467 38.5189 239.839 39.1699 240.125C39.821 240.405 40.5534 240.545 41.3672 240.545C42.0898 240.545 42.7279 240.438 43.2812 240.223C43.8346 240.008 44.2448 239.715 44.5117 239.344C44.7852 238.966 44.9219 238.556 44.9219 238.113C44.9219 237.664 44.7917 237.273 44.5312 236.941C44.2708 236.603 43.8411 236.32 43.2422 236.092C42.8581 235.942 42.0085 235.711 40.6934 235.398C39.3783 235.079 38.457 234.78 37.9297 234.5C37.2461 234.142 36.735 233.699 36.3965 233.172C36.0645 232.638 35.8984 232.042 35.8984 231.385C35.8984 230.662 36.1035 229.988 36.5137 229.363C36.9238 228.732 37.5228 228.253 38.3105 227.928C39.0983 227.602 39.974 227.439 40.9375 227.439C41.9987 227.439 42.9329 227.612 43.7402 227.957C44.554 228.296 45.179 228.797 45.6152 229.461C46.0514 230.125 46.2858 230.877 46.3184 231.717L44.502 231.854C44.4043 230.949 44.0723 230.265 43.5059 229.803C42.946 229.34 42.1159 229.109 41.0156 229.109C39.8698 229.109 39.0332 229.321 38.5059 229.744C37.985 230.161 37.7246 230.665 37.7246 231.258C37.7246 231.772 37.9102 232.195 38.2812 232.527C38.6458 232.859 39.5964 233.201 41.1328 233.553C42.6758 233.898 43.7337 234.201 44.3066 234.461C45.14 234.845 45.7552 235.333 46.1523 235.926C46.5495 236.512 46.748 237.189 46.748 237.957C46.748 238.719 46.5299 239.438 46.0938 240.115C45.6576 240.786 45.0293 241.31 44.209 241.688C43.3952 242.059 42.4772 242.244 41.4551 242.244C40.1595 242.244 39.0723 242.055 38.1934 241.678C37.321 241.3 36.6341 240.734 36.1328 239.979C35.638 239.217 35.3776 238.357 35.3516 237.4ZM49.3359 242V227.684H54.2676C55.3809 227.684 56.2305 227.752 56.8164 227.889C57.6367 228.077 58.3366 228.419 58.916 228.914C59.6712 229.552 60.2344 230.369 60.6055 231.365C60.9831 232.355 61.1719 233.488 61.1719 234.764C61.1719 235.851 61.0449 236.814 60.791 237.654C60.5371 238.494 60.2116 239.191 59.8145 239.744C59.4173 240.291 58.9811 240.724 58.5059 241.043C58.0371 241.355 57.4674 241.593 56.7969 241.756C56.1328 241.919 55.3678 242 54.502 242H49.3359ZM51.2305 240.311H54.2871C55.2311 240.311 55.9701 240.223 56.5039 240.047C57.0443 239.871 57.474 239.624 57.793 239.305C58.2422 238.855 58.5905 238.253 58.8379 237.498C59.0918 236.736 59.2188 235.815 59.2188 234.734C59.2188 233.237 58.9714 232.088 58.4766 231.287C57.9883 230.48 57.3926 229.939 56.6895 229.666C56.1816 229.471 55.3646 229.373 54.2383 229.373H51.2305V240.311ZM67.4316 242V229.373H62.7148V227.684H74.0625V229.373H69.3262V242H67.4316ZM74.4727 242.244L78.623 227.439H80.0293L75.8887 242.244H74.4727ZM90.9766 227.684H92.8711V235.955C92.8711 237.394 92.7083 238.536 92.3828 239.383C92.0573 240.229 91.4681 240.919 90.6152 241.453C89.7689 241.98 88.6556 242.244 87.2754 242.244C85.9342 242.244 84.8372 242.013 83.9844 241.551C83.1315 241.089 82.5228 240.421 82.1582 239.549C81.7936 238.67 81.6113 237.472 81.6113 235.955V227.684H83.5059V235.945C83.5059 237.189 83.6198 238.107 83.8477 238.699C84.082 239.285 84.4792 239.738 85.0391 240.057C85.6055 240.376 86.2956 240.535 87.1094 240.535C88.5026 240.535 89.4954 240.219 90.0879 239.588C90.6803 238.956 90.9766 237.742 90.9766 235.945V227.684ZM95.3906 237.4L97.1777 237.244C97.2624 237.96 97.4577 238.549 97.7637 239.012C98.0762 239.467 98.5579 239.839 99.209 240.125C99.86 240.405 100.592 240.545 101.406 240.545C102.129 240.545 102.767 240.438 103.32 240.223C103.874 240.008 104.284 239.715 104.551 239.344C104.824 238.966 104.961 238.556 104.961 238.113C104.961 237.664 104.831 237.273 104.57 236.941C104.31 236.603 103.88 236.32 103.281 236.092C102.897 235.942 102.048 235.711 100.732 235.398C99.4173 235.079 98.4961 234.78 97.9688 234.5C97.2852 234.142 96.7741 233.699 96.4355 233.172C96.1035 232.638 95.9375 232.042 95.9375 231.385C95.9375 230.662 96.1426 229.988 96.5527 229.363C96.9629 228.732 97.5618 228.253 98.3496 227.928C99.1374 227.602 100.013 227.439 100.977 227.439C102.038 227.439 102.972 227.612 103.779 227.957C104.593 228.296 105.218 228.797 105.654 229.461C106.09 230.125 106.325 230.877 106.357 231.717L104.541 231.854C104.443 230.949 104.111 230.265 103.545 229.803C102.985 229.34 102.155 229.109 101.055 229.109C99.9089 229.109 99.0723 229.321 98.5449 229.744C98.0241 230.161 97.7637 230.665 97.7637 231.258C97.7637 231.772 97.9492 232.195 98.3203 232.527C98.6849 232.859 99.6354 233.201 101.172 233.553C102.715 233.898 103.773 234.201 104.346 234.461C105.179 234.845 105.794 235.333 106.191 235.926C106.589 236.512 106.787 237.189 106.787 237.957C106.787 238.719 106.569 239.438 106.133 240.115C105.697 240.786 105.068 241.31 104.248 241.688C103.434 242.059 102.516 242.244 101.494 242.244C100.199 242.244 99.1113 242.055 98.2324 241.678C97.36 241.3 96.6732 240.734 96.1719 239.979C95.6771 239.217 95.4167 238.357 95.3906 237.4ZM109.375 242V227.684H114.307C115.42 227.684 116.27 227.752 116.855 227.889C117.676 228.077 118.376 228.419 118.955 228.914C119.71 229.552 120.273 230.369 120.645 231.365C121.022 232.355 121.211 233.488 121.211 234.764C121.211 235.851 121.084 236.814 120.83 237.654C120.576 238.494 120.251 239.191 119.854 239.744C119.456 240.291 119.02 240.724 118.545 241.043C118.076 241.355 117.507 241.593 116.836 241.756C116.172 241.919 115.407 242 114.541 242H109.375ZM111.27 240.311H114.326C115.27 240.311 116.009 240.223 116.543 240.047C117.083 239.871 117.513 239.624 117.832 239.305C118.281 238.855 118.63 238.253 118.877 237.498C119.131 236.736 119.258 235.815 119.258 234.734C119.258 233.237 119.01 232.088 118.516 231.287C118.027 230.48 117.432 229.939 116.729 229.666C116.221 229.471 115.404 229.373 114.277 229.373H111.27V240.311ZM134.043 236.98L135.938 237.459C135.54 239.015 134.824 240.203 133.789 241.023C132.76 241.837 131.501 242.244 130.01 242.244C128.467 242.244 127.21 241.932 126.24 241.307C125.277 240.675 124.541 239.764 124.033 238.572C123.532 237.381 123.281 236.102 123.281 234.734C123.281 233.243 123.564 231.945 124.131 230.838C124.704 229.725 125.514 228.882 126.562 228.309C127.617 227.729 128.776 227.439 130.039 227.439C131.471 227.439 132.676 227.804 133.652 228.533C134.629 229.262 135.309 230.288 135.693 231.609L133.828 232.049C133.496 231.007 133.014 230.249 132.383 229.773C131.751 229.298 130.957 229.061 130 229.061C128.9 229.061 127.979 229.324 127.236 229.852C126.501 230.379 125.983 231.089 125.684 231.98C125.384 232.866 125.234 233.781 125.234 234.725C125.234 235.942 125.41 237.007 125.762 237.918C126.12 238.823 126.673 239.5 127.422 239.949C128.171 240.398 128.981 240.623 129.854 240.623C130.915 240.623 131.813 240.317 132.549 239.705C133.285 239.093 133.783 238.185 134.043 236.98ZM142.92 238.904L144.658 238.631C144.756 239.327 145.026 239.861 145.469 240.232C145.918 240.604 146.543 240.789 147.344 240.789C148.151 240.789 148.75 240.626 149.141 240.301C149.531 239.969 149.727 239.581 149.727 239.139C149.727 238.742 149.554 238.429 149.209 238.201C148.968 238.045 148.369 237.846 147.412 237.605C146.123 237.28 145.228 237 144.727 236.766C144.232 236.525 143.854 236.196 143.594 235.779C143.34 235.356 143.213 234.891 143.213 234.383C143.213 233.921 143.317 233.494 143.525 233.104C143.74 232.706 144.03 232.378 144.395 232.117C144.668 231.915 145.039 231.746 145.508 231.609C145.983 231.466 146.491 231.395 147.031 231.395C147.845 231.395 148.558 231.512 149.17 231.746C149.788 231.98 150.244 232.299 150.537 232.703C150.83 233.1 151.032 233.634 151.143 234.305L149.424 234.539C149.346 234.005 149.118 233.589 148.74 233.289C148.369 232.99 147.842 232.84 147.158 232.84C146.351 232.84 145.775 232.973 145.43 233.24C145.085 233.507 144.912 233.82 144.912 234.178C144.912 234.406 144.984 234.611 145.127 234.793C145.27 234.982 145.495 235.138 145.801 235.262C145.977 235.327 146.494 235.477 147.354 235.711C148.597 236.043 149.463 236.316 149.951 236.531C150.446 236.74 150.833 237.046 151.113 237.449C151.393 237.853 151.533 238.354 151.533 238.953C151.533 239.539 151.361 240.092 151.016 240.613C150.677 241.128 150.186 241.528 149.541 241.814C148.896 242.094 148.167 242.234 147.354 242.234C146.006 242.234 144.977 241.954 144.268 241.395C143.564 240.835 143.115 240.005 142.92 238.904ZM157.461 240.428L157.715 241.98C157.22 242.085 156.777 242.137 156.387 242.137C155.749 242.137 155.254 242.036 154.902 241.834C154.551 241.632 154.303 241.368 154.16 241.043C154.017 240.711 153.945 240.018 153.945 238.963V232.996H152.656V231.629H153.945V229.061L155.693 228.006V231.629H157.461V232.996H155.693V239.061C155.693 239.562 155.723 239.884 155.781 240.027C155.846 240.171 155.947 240.285 156.084 240.369C156.227 240.454 156.429 240.496 156.689 240.496C156.885 240.496 157.142 240.473 157.461 240.428ZM165.957 240.721C165.306 241.274 164.678 241.665 164.072 241.893C163.473 242.12 162.829 242.234 162.139 242.234C160.999 242.234 160.124 241.958 159.512 241.404C158.9 240.844 158.594 240.132 158.594 239.266C158.594 238.758 158.708 238.296 158.936 237.879C159.17 237.456 159.473 237.117 159.844 236.863C160.221 236.609 160.645 236.417 161.113 236.287C161.458 236.196 161.979 236.108 162.676 236.023C164.095 235.854 165.14 235.652 165.811 235.418C165.817 235.177 165.82 235.024 165.82 234.959C165.82 234.243 165.654 233.738 165.322 233.445C164.873 233.048 164.206 232.85 163.32 232.85C162.493 232.85 161.882 232.996 161.484 233.289C161.094 233.576 160.804 234.087 160.615 234.822L158.896 234.588C159.053 233.852 159.31 233.26 159.668 232.811C160.026 232.355 160.544 232.007 161.221 231.766C161.898 231.518 162.682 231.395 163.574 231.395C164.46 231.395 165.179 231.499 165.732 231.707C166.286 231.915 166.693 232.179 166.953 232.498C167.214 232.811 167.396 233.208 167.5 233.689C167.559 233.989 167.588 234.529 167.588 235.311V237.654C167.588 239.288 167.624 240.324 167.695 240.76C167.773 241.189 167.923 241.603 168.145 242H166.309C166.126 241.635 166.009 241.209 165.957 240.721ZM165.811 236.795C165.173 237.055 164.215 237.277 162.939 237.459C162.217 237.563 161.706 237.68 161.406 237.811C161.107 237.941 160.876 238.133 160.713 238.387C160.55 238.634 160.469 238.911 160.469 239.217C160.469 239.686 160.645 240.076 160.996 240.389C161.354 240.701 161.875 240.857 162.559 240.857C163.236 240.857 163.838 240.711 164.365 240.418C164.893 240.118 165.28 239.712 165.527 239.197C165.716 238.8 165.811 238.214 165.811 237.439V236.795ZM171.943 242H170.312V227.684H172.07V232.791C172.812 231.86 173.76 231.395 174.912 231.395C175.55 231.395 176.152 231.525 176.719 231.785C177.292 232.039 177.76 232.4 178.125 232.869C178.496 233.331 178.786 233.891 178.994 234.549C179.202 235.206 179.307 235.91 179.307 236.658C179.307 238.436 178.867 239.809 177.988 240.779C177.109 241.749 176.055 242.234 174.824 242.234C173.6 242.234 172.64 241.723 171.943 240.701V242ZM171.924 236.736C171.924 237.98 172.093 238.878 172.432 239.432C172.985 240.337 173.734 240.789 174.678 240.789C175.446 240.789 176.11 240.457 176.67 239.793C177.23 239.122 177.51 238.126 177.51 236.805C177.51 235.451 177.24 234.451 176.699 233.807C176.165 233.162 175.518 232.84 174.756 232.84C173.988 232.84 173.324 233.175 172.764 233.846C172.204 234.51 171.924 235.473 171.924 236.736ZM181.416 242V227.684H183.174V242H181.416ZM193.008 238.66L194.824 238.885C194.538 239.946 194.007 240.77 193.232 241.355C192.458 241.941 191.468 242.234 190.264 242.234C188.747 242.234 187.542 241.769 186.65 240.838C185.765 239.9 185.322 238.589 185.322 236.902C185.322 235.158 185.771 233.803 186.67 232.84C187.568 231.876 188.734 231.395 190.166 231.395C191.553 231.395 192.686 231.867 193.564 232.811C194.443 233.755 194.883 235.083 194.883 236.795C194.883 236.899 194.88 237.055 194.873 237.264H187.139C187.204 238.403 187.526 239.275 188.105 239.881C188.685 240.486 189.408 240.789 190.273 240.789C190.918 240.789 191.468 240.62 191.924 240.281C192.38 239.943 192.741 239.402 193.008 238.66ZM187.236 235.818H193.027C192.949 234.946 192.728 234.292 192.363 233.855C191.803 233.178 191.077 232.84 190.186 232.84C189.378 232.84 188.698 233.11 188.145 233.65C187.598 234.191 187.295 234.913 187.236 235.818ZM203.809 238.201L205.537 238.426C205.348 239.617 204.863 240.551 204.082 241.229C203.307 241.899 202.354 242.234 201.221 242.234C199.801 242.234 198.659 241.772 197.793 240.848C196.934 239.917 196.504 238.585 196.504 236.854C196.504 235.734 196.689 234.754 197.061 233.914C197.432 233.074 197.995 232.446 198.75 232.029C199.512 231.606 200.339 231.395 201.23 231.395C202.357 231.395 203.278 231.681 203.994 232.254C204.71 232.82 205.169 233.628 205.371 234.676L203.662 234.939C203.499 234.243 203.21 233.719 202.793 233.367C202.383 233.016 201.885 232.84 201.299 232.84C200.413 232.84 199.694 233.159 199.141 233.797C198.587 234.428 198.311 235.431 198.311 236.805C198.311 238.198 198.577 239.21 199.111 239.842C199.645 240.473 200.342 240.789 201.201 240.789C201.891 240.789 202.467 240.577 202.93 240.154C203.392 239.731 203.685 239.08 203.809 238.201ZM206.387 236.814C206.387 234.894 206.921 233.471 207.988 232.547C208.88 231.779 209.967 231.395 211.25 231.395C212.676 231.395 213.841 231.863 214.746 232.801C215.651 233.732 216.104 235.021 216.104 236.668C216.104 238.003 215.902 239.054 215.498 239.822C215.101 240.584 214.518 241.176 213.75 241.6C212.988 242.023 212.155 242.234 211.25 242.234C209.798 242.234 208.623 241.769 207.725 240.838C206.833 239.907 206.387 238.566 206.387 236.814ZM208.193 236.814C208.193 238.143 208.483 239.139 209.062 239.803C209.642 240.46 210.371 240.789 211.25 240.789C212.122 240.789 212.848 240.457 213.428 239.793C214.007 239.129 214.297 238.117 214.297 236.756C214.297 235.473 214.004 234.503 213.418 233.846C212.839 233.182 212.116 232.85 211.25 232.85C210.371 232.85 209.642 233.178 209.062 233.836C208.483 234.493 208.193 235.486 208.193 236.814ZM218.184 229.705V227.684H219.941V229.705H218.184ZM218.184 242V231.629H219.941V242H218.184ZM222.627 242V231.629H224.209V233.104C224.971 231.964 226.071 231.395 227.51 231.395C228.135 231.395 228.708 231.508 229.229 231.736C229.756 231.958 230.15 232.251 230.41 232.615C230.671 232.98 230.853 233.413 230.957 233.914C231.022 234.24 231.055 234.809 231.055 235.623V242H229.297V235.691C229.297 234.975 229.229 234.441 229.092 234.09C228.955 233.732 228.711 233.449 228.359 233.24C228.014 233.025 227.607 232.918 227.139 232.918C226.39 232.918 225.742 233.156 225.195 233.631C224.655 234.106 224.385 235.008 224.385 236.336V242H222.627ZM233.057 238.904L234.795 238.631C234.893 239.327 235.163 239.861 235.605 240.232C236.055 240.604 236.68 240.789 237.48 240.789C238.288 240.789 238.887 240.626 239.277 240.301C239.668 239.969 239.863 239.581 239.863 239.139C239.863 238.742 239.691 238.429 239.346 238.201C239.105 238.045 238.506 237.846 237.549 237.605C236.26 237.28 235.365 237 234.863 236.766C234.368 236.525 233.991 236.196 233.73 235.779C233.477 235.356 233.35 234.891 233.35 234.383C233.35 233.921 233.454 233.494 233.662 233.104C233.877 232.706 234.167 232.378 234.531 232.117C234.805 231.915 235.176 231.746 235.645 231.609C236.12 231.466 236.628 231.395 237.168 231.395C237.982 231.395 238.695 231.512 239.307 231.746C239.925 231.98 240.381 232.299 240.674 232.703C240.967 233.1 241.169 233.634 241.279 234.305L239.561 234.539C239.482 234.005 239.255 233.589 238.877 233.289C238.506 232.99 237.979 232.84 237.295 232.84C236.488 232.84 235.911 232.973 235.566 233.24C235.221 233.507 235.049 233.82 235.049 234.178C235.049 234.406 235.12 234.611 235.264 234.793C235.407 234.982 235.632 235.138 235.938 235.262C236.113 235.327 236.631 235.477 237.49 235.711C238.734 236.043 239.6 236.316 240.088 236.531C240.583 236.74 240.97 237.046 241.25 237.449C241.53 237.853 241.67 238.354 241.67 238.953C241.67 239.539 241.497 240.092 241.152 240.613C240.814 241.128 240.322 241.528 239.678 241.814C239.033 242.094 238.304 242.234 237.49 242.234C236.143 242.234 235.114 241.954 234.404 241.395C233.701 240.835 233.252 240.005 233.057 238.904Z" fill="#9A9A9A"/>
<defs>
<filter id="filter0_i_132_295" x="0" y="0" width="285" height="320" filterUnits="userSpaceOnUse" color-interpolation-filters="sRGB">
<feFlood flood-opacity="0" result="BackgroundImageFix"/>
<feBlend mode="normal" in="SourceGraphic" in2="BackgroundImageFix" result="shape"/>
<feColorMatrix in="SourceAlpha" type="matrix" values="0 0 0 0 0 0 0 0 0 0 0 0 0 0 0 0 0 0 127 0" result="hardAlpha"/>
<feOffset dy="8"/>
<feGaussianBlur stdDeviation="7.5"/>
<feComposite in2="hardAlpha" operator="arithmetic" k2="-1" k3="1"/>
<feColorMatrix type="matrix" values="0 0 0 0 0 0 0 0 0 1 0 0 0 0 0.916667 0 0 0 0.6 0"/>
<feBlend mode="normal" in2="shape" result="effect1_innerShadow_132_295"/>
</filter>
<linearGradient id="paint0_linear_132_295" x1="142.5" y1="0" x2="142.5" y2="312" gradientUnits="userSpaceOnUse">
<stop stop-color="#0065FE" stop-opacity="0.7"/>
<stop offset="1" stop-color="#0A223B" stop-opacity="0.5"/>
</linearGradient>
</defs>
</svg>
