<svg width="159" height="81" viewBox="0 0 159 81" fill="none" xmlns="http://www.w3.org/2000/svg">
<g filter="url(#filter0_i_199_116)">
<path d="M0 4C0 1.79086 1.79086 0 4 0H155C157.209 0 159 1.79086 159 4V77C159 79.2091 157.209 81 155 81H4C1.79086 81 0 79.2091 0 77V4Z" fill="url(#paint0_linear_199_116)"/>
</g>
<path d="M134.809 55.528C136.801 55.528 138.361 56.344 139.489 58.024C140.545 59.608 141.073 61.744 141.073 64.432C141.073 67.12 140.545 69.256 139.489 70.84C138.361 72.496 136.801 73.336 134.809 73.336C132.793 73.336 131.233 72.496 130.129 70.84C129.073 69.256 128.545 67.12 128.545 64.432C128.545 61.744 129.073 59.608 130.129 58.024C131.233 56.344 132.793 55.528 134.809 55.528ZM134.809 57.904C133.441 57.904 132.481 58.648 131.929 60.184C131.545 61.216 131.353 62.632 131.353 64.432C131.353 66.208 131.545 67.624 131.929 68.68C132.481 70.192 133.441 70.96 134.809 70.96C136.153 70.96 137.113 70.192 137.689 68.68C138.073 67.624 138.265 66.208 138.265 64.432C138.265 62.632 138.073 61.216 137.689 60.184C137.113 58.648 136.153 57.904 134.809 57.904ZM150.832 55.864H153.4V67.096H155.944V69.328H153.4V73H150.736V69.328H142.456V66.664L150.832 55.864ZM150.664 59.416L144.736 67.096H150.736V59.416H150.664Z" fill="#93CBFF" fill-opacity="0.5"/>
<path d="M12.6289 25.7803L13.8799 25.6709C13.9391 26.1722 14.0758 26.5846 14.29 26.9082C14.5088 27.2272 14.846 27.487 15.3018 27.6875C15.7575 27.8835 16.2702 27.9814 16.8398 27.9814C17.3457 27.9814 17.7923 27.9062 18.1797 27.7559C18.5671 27.6055 18.8542 27.4004 19.041 27.1406C19.2324 26.8763 19.3281 26.5892 19.3281 26.2793C19.3281 25.9648 19.237 25.6914 19.0547 25.459C18.8724 25.222 18.5716 25.0238 18.1523 24.8643C17.8835 24.7594 17.2887 24.5977 16.3682 24.3789C15.4476 24.1556 14.8027 23.946 14.4336 23.75C13.9551 23.4993 13.5973 23.1895 13.3604 22.8203C13.1279 22.4466 13.0117 22.0296 13.0117 21.5693C13.0117 21.0635 13.1553 20.5918 13.4424 20.1543C13.7295 19.7122 14.1488 19.3773 14.7002 19.1494C15.2516 18.9215 15.8646 18.8076 16.5391 18.8076C17.2819 18.8076 17.9359 18.9284 18.501 19.1699C19.0706 19.4069 19.5081 19.7578 19.8135 20.2227C20.1188 20.6875 20.2829 21.2139 20.3057 21.8018L19.0342 21.8975C18.9658 21.264 18.7334 20.7855 18.3369 20.4619C17.945 20.1383 17.3639 19.9766 16.5938 19.9766C15.7917 19.9766 15.2061 20.1247 14.8369 20.4209C14.4723 20.7126 14.29 21.0658 14.29 21.4805C14.29 21.8405 14.4199 22.1367 14.6797 22.3691C14.9349 22.6016 15.6003 22.8408 16.6758 23.0869C17.7559 23.3285 18.4964 23.5404 18.8975 23.7227C19.4808 23.9915 19.9115 24.3333 20.1895 24.748C20.4674 25.1582 20.6064 25.6322 20.6064 26.1699C20.6064 26.7031 20.4538 27.2067 20.1484 27.6807C19.8431 28.1501 19.4033 28.5169 18.8291 28.7812C18.2594 29.041 17.6169 29.1709 16.9014 29.1709C15.9945 29.1709 15.2334 29.0387 14.6182 28.7744C14.0075 28.5101 13.5267 28.1136 13.1758 27.585C12.8294 27.0518 12.6471 26.4502 12.6289 25.7803ZM27.2305 26.6621L28.502 26.8193C28.3014 27.5622 27.93 28.1387 27.3877 28.5488C26.8454 28.959 26.1527 29.1641 25.3096 29.1641C24.2477 29.1641 23.4046 28.8382 22.7803 28.1865C22.1605 27.5303 21.8506 26.612 21.8506 25.4316C21.8506 24.2103 22.165 23.2624 22.7939 22.5879C23.4229 21.9134 24.2386 21.5762 25.2412 21.5762C26.2119 21.5762 27.0049 21.9066 27.6201 22.5674C28.2354 23.2282 28.543 24.1579 28.543 25.3564C28.543 25.4294 28.5407 25.5387 28.5361 25.6846H23.1221C23.1676 26.4821 23.3932 27.0928 23.7988 27.5166C24.2044 27.9404 24.7103 28.1523 25.3164 28.1523C25.7676 28.1523 26.1527 28.0339 26.4717 27.7969C26.7907 27.5599 27.0436 27.1816 27.2305 26.6621ZM23.1904 24.6729H27.2441C27.1895 24.0622 27.0345 23.6042 26.7793 23.2988C26.3874 22.8249 25.8792 22.5879 25.2549 22.5879C24.6898 22.5879 24.2135 22.777 23.8262 23.1553C23.4434 23.5335 23.2314 24.0394 23.1904 24.6729ZM34.791 26.3408L36.001 26.498C35.8688 27.332 35.5293 27.986 34.9824 28.46C34.4401 28.9294 33.7725 29.1641 32.9795 29.1641C31.986 29.1641 31.1862 28.8405 30.5801 28.1934C29.9785 27.5417 29.6777 26.6097 29.6777 25.3975C29.6777 24.6136 29.8076 23.9277 30.0674 23.3398C30.3271 22.752 30.7214 22.3122 31.25 22.0205C31.7832 21.7243 32.362 21.5762 32.9863 21.5762C33.7747 21.5762 34.4196 21.7767 34.9209 22.1777C35.4222 22.5742 35.7435 23.1393 35.8848 23.873L34.6885 24.0576C34.5745 23.57 34.3717 23.2031 34.0801 22.957C33.793 22.7109 33.4443 22.5879 33.0342 22.5879C32.4144 22.5879 31.9108 22.8112 31.5234 23.2578C31.1361 23.6999 30.9424 24.4017 30.9424 25.3633C30.9424 26.3385 31.1292 27.0472 31.5029 27.4893C31.8766 27.9313 32.3643 28.1523 32.9658 28.1523C33.4489 28.1523 33.8522 28.0042 34.1758 27.708C34.4993 27.4118 34.7044 26.9561 34.791 26.3408ZM41.8115 29V27.9336C41.2464 28.7539 40.4785 29.1641 39.5078 29.1641C39.0794 29.1641 38.6784 29.082 38.3047 28.918C37.9355 28.7539 37.6598 28.5488 37.4775 28.3027C37.2998 28.0521 37.1745 27.7467 37.1016 27.3867C37.0514 27.1452 37.0264 26.7624 37.0264 26.2383V21.7402H38.2568V25.7666C38.2568 26.4092 38.2819 26.8421 38.332 27.0654C38.4095 27.389 38.5736 27.6442 38.8242 27.8311C39.0749 28.0133 39.3848 28.1045 39.7539 28.1045C40.123 28.1045 40.4694 28.0111 40.793 27.8242C41.1165 27.6328 41.3444 27.3753 41.4766 27.0518C41.6133 26.7236 41.6816 26.2497 41.6816 25.6299V21.7402H42.9121V29H41.8115ZM44.833 29V21.7402H45.9404V22.8408C46.223 22.3258 46.4827 21.9863 46.7197 21.8223C46.9613 21.6582 47.2256 21.5762 47.5127 21.5762C47.9274 21.5762 48.349 21.7083 48.7773 21.9727L48.3535 23.1143C48.0527 22.9365 47.752 22.8477 47.4512 22.8477C47.1823 22.8477 46.9408 22.9297 46.7266 23.0938C46.5124 23.2533 46.3597 23.4766 46.2686 23.7637C46.1318 24.2012 46.0635 24.6797 46.0635 25.1992V29H44.833ZM54.4785 26.6621L55.75 26.8193C55.5495 27.5622 55.1781 28.1387 54.6357 28.5488C54.0934 28.959 53.4007 29.1641 52.5576 29.1641C51.4958 29.1641 50.6527 28.8382 50.0283 28.1865C49.4085 27.5303 49.0986 26.612 49.0986 25.4316C49.0986 24.2103 49.4131 23.2624 50.042 22.5879C50.6709 21.9134 51.4867 21.5762 52.4893 21.5762C53.46 21.5762 54.2529 21.9066 54.8682 22.5674C55.4834 23.2282 55.791 24.1579 55.791 25.3564C55.791 25.4294 55.7887 25.5387 55.7842 25.6846H50.3701C50.4157 26.4821 50.6413 27.0928 51.0469 27.5166C51.4525 27.9404 51.9583 28.1523 52.5645 28.1523C53.0156 28.1523 53.4007 28.0339 53.7197 27.7969C54.0387 27.5599 54.2917 27.1816 54.4785 26.6621ZM50.4385 24.6729H54.4922C54.4375 24.0622 54.2826 23.6042 54.0273 23.2988C53.6354 22.8249 53.1273 22.5879 52.5029 22.5879C51.9378 22.5879 51.4616 22.777 51.0742 23.1553C50.6914 23.5335 50.4795 24.0394 50.4385 24.6729ZM68.5059 25.4863L69.832 25.8213C69.554 26.9105 69.0527 27.7422 68.3281 28.3164C67.6081 28.8861 66.7262 29.1709 65.6826 29.1709C64.6025 29.1709 63.723 28.9521 63.0439 28.5146C62.3695 28.0726 61.8545 27.4346 61.499 26.6006C61.1481 25.7666 60.9727 24.8711 60.9727 23.9141C60.9727 22.8704 61.1709 21.9613 61.5674 21.1865C61.9684 20.4072 62.5358 19.8171 63.2695 19.416C64.0078 19.0104 64.819 18.8076 65.7031 18.8076C66.7057 18.8076 67.5488 19.0628 68.2324 19.5732C68.916 20.0837 69.3923 20.8014 69.6611 21.7266L68.3555 22.0342C68.123 21.305 67.7858 20.7741 67.3438 20.4414C66.9017 20.1087 66.3457 19.9424 65.6758 19.9424C64.9056 19.9424 64.2607 20.127 63.7412 20.4961C63.2262 20.8652 62.8639 21.362 62.6543 21.9863C62.4447 22.6061 62.3398 23.2464 62.3398 23.9072C62.3398 24.7594 62.4629 25.5046 62.709 26.1426C62.9596 26.776 63.347 27.25 63.8711 27.5645C64.3952 27.8789 64.9626 28.0361 65.5732 28.0361C66.3161 28.0361 66.945 27.8219 67.46 27.3936C67.9749 26.9652 68.3236 26.3294 68.5059 25.4863ZM76.0732 29V27.9336C75.5081 28.7539 74.7402 29.1641 73.7695 29.1641C73.3411 29.1641 72.9401 29.082 72.5664 28.918C72.1973 28.7539 71.9215 28.5488 71.7393 28.3027C71.5615 28.0521 71.4362 27.7467 71.3633 27.3867C71.3132 27.1452 71.2881 26.7624 71.2881 26.2383V21.7402H72.5186V25.7666C72.5186 26.4092 72.5436 26.8421 72.5938 27.0654C72.6712 27.389 72.8353 27.6442 73.0859 27.8311C73.3366 28.0133 73.6465 28.1045 74.0156 28.1045C74.3848 28.1045 74.7311 28.0111 75.0547 27.8242C75.3783 27.6328 75.6061 27.3753 75.7383 27.0518C75.875 26.7236 75.9434 26.2497 75.9434 25.6299V21.7402H77.1738V29H76.0732ZM78.6162 26.833L79.833 26.6416C79.9014 27.1292 80.0905 27.5029 80.4004 27.7627C80.7148 28.0225 81.1523 28.1523 81.7129 28.1523C82.278 28.1523 82.6973 28.0384 82.9707 27.8105C83.2441 27.5781 83.3809 27.307 83.3809 26.9971C83.3809 26.7191 83.2601 26.5003 83.0186 26.3408C82.8499 26.2314 82.4307 26.0924 81.7607 25.9238C80.8584 25.696 80.2318 25.5 79.8809 25.3359C79.5345 25.1673 79.2702 24.9372 79.0879 24.6455C78.9102 24.3493 78.8213 24.0234 78.8213 23.668C78.8213 23.3444 78.8942 23.0459 79.04 22.7725C79.1904 22.4945 79.3932 22.2643 79.6484 22.082C79.8398 21.9408 80.0996 21.8223 80.4277 21.7266C80.7604 21.6263 81.1159 21.5762 81.4941 21.5762C82.0638 21.5762 82.5628 21.6582 82.9912 21.8223C83.4242 21.9863 83.7432 22.2096 83.9482 22.4922C84.1533 22.7702 84.2946 23.1439 84.3721 23.6133L83.1689 23.7773C83.1143 23.4036 82.9548 23.112 82.6904 22.9023C82.4307 22.6927 82.0615 22.5879 81.583 22.5879C81.0179 22.5879 80.6146 22.6813 80.373 22.8682C80.1315 23.055 80.0107 23.2738 80.0107 23.5244C80.0107 23.6839 80.0609 23.8275 80.1611 23.9551C80.2614 24.0872 80.4186 24.1966 80.6328 24.2832C80.7559 24.3288 81.1182 24.4336 81.7197 24.5977C82.5902 24.8301 83.1963 25.0215 83.5381 25.1719C83.8844 25.3177 84.1556 25.5319 84.3516 25.8145C84.5475 26.097 84.6455 26.4479 84.6455 26.8672C84.6455 27.2773 84.5247 27.6647 84.2832 28.0293C84.0462 28.3893 83.7021 28.6696 83.251 28.8701C82.7998 29.0661 82.2894 29.1641 81.7197 29.1641C80.7764 29.1641 80.0563 28.9681 79.5596 28.5762C79.0674 28.1842 78.7529 27.6032 78.6162 26.833ZM88.7949 27.8994L88.9727 28.9863C88.6263 29.0592 88.3164 29.0957 88.043 29.0957C87.5964 29.0957 87.25 29.0251 87.0039 28.8838C86.7578 28.7425 86.5846 28.5579 86.4844 28.3301C86.3841 28.0977 86.334 27.6123 86.334 26.874V22.6973H85.4316V21.7402H86.334V19.9424L87.5576 19.2041V21.7402H88.7949V22.6973H87.5576V26.9424C87.5576 27.2933 87.5781 27.5189 87.6191 27.6191C87.6647 27.7194 87.7354 27.7992 87.8311 27.8584C87.9313 27.9176 88.0726 27.9473 88.2549 27.9473C88.3916 27.9473 88.5716 27.9313 88.7949 27.8994ZM89.5469 25.3701C89.5469 24.0257 89.9206 23.0299 90.668 22.3828C91.2923 21.8451 92.0534 21.5762 92.9512 21.5762C93.9492 21.5762 94.765 21.9043 95.3984 22.5605C96.0319 23.2122 96.3486 24.1146 96.3486 25.2676C96.3486 26.2018 96.2074 26.9378 95.9248 27.4756C95.6468 28.0088 95.2389 28.4235 94.7012 28.7197C94.168 29.016 93.5846 29.1641 92.9512 29.1641C91.9349 29.1641 91.1123 28.8382 90.4834 28.1865C89.859 27.5348 89.5469 26.596 89.5469 25.3701ZM90.8115 25.3701C90.8115 26.2998 91.0143 26.9971 91.4199 27.4619C91.8255 27.9222 92.3359 28.1523 92.9512 28.1523C93.5618 28.1523 94.07 27.9199 94.4756 27.4551C94.8812 26.9902 95.084 26.2816 95.084 25.3291C95.084 24.4313 94.8789 23.7523 94.4688 23.292C94.0632 22.8271 93.5573 22.5947 92.9512 22.5947C92.3359 22.5947 91.8255 22.8249 91.4199 23.2852C91.0143 23.7454 90.8115 24.4404 90.8115 25.3701ZM102.508 29V28.084C102.048 28.804 101.371 29.1641 100.478 29.1641C99.8988 29.1641 99.3656 29.0046 98.8779 28.6855C98.3949 28.3665 98.0189 27.9222 97.75 27.3525C97.4857 26.7783 97.3535 26.1198 97.3535 25.377C97.3535 24.6523 97.4743 23.9961 97.7158 23.4082C97.9574 22.8158 98.3197 22.3623 98.8027 22.0479C99.2858 21.7334 99.8258 21.5762 100.423 21.5762C100.86 21.5762 101.25 21.6696 101.592 21.8564C101.934 22.0387 102.212 22.278 102.426 22.5742V18.9785H103.649V29H102.508ZM98.6182 25.377C98.6182 26.3066 98.8141 27.0016 99.2061 27.4619C99.598 27.9222 100.061 28.1523 100.594 28.1523C101.132 28.1523 101.587 27.9336 101.961 27.4961C102.339 27.054 102.528 26.3818 102.528 25.4795C102.528 24.486 102.337 23.7568 101.954 23.292C101.571 22.8271 101.1 22.5947 100.539 22.5947C99.9922 22.5947 99.5342 22.818 99.165 23.2646C98.8005 23.7113 98.6182 24.4154 98.6182 25.377ZM105.536 31.7959L105.399 30.6406C105.668 30.7135 105.903 30.75 106.104 30.75C106.377 30.75 106.596 30.7044 106.76 30.6133C106.924 30.5221 107.058 30.3945 107.163 30.2305C107.241 30.1074 107.366 29.8021 107.539 29.3145C107.562 29.2461 107.598 29.1458 107.648 29.0137L104.894 21.7402H106.22L107.73 25.9443C107.926 26.4775 108.102 27.0381 108.257 27.626C108.398 27.0609 108.567 26.5094 108.763 25.9717L110.314 21.7402H111.545L108.783 29.123C108.487 29.9206 108.257 30.4697 108.093 30.7705C107.874 31.1761 107.623 31.4723 107.341 31.6592C107.058 31.8506 106.721 31.9463 106.329 31.9463C106.092 31.9463 105.828 31.8962 105.536 31.7959Z" fill="white"/>
<path d="M12.4871 44.7002L13.3806 44.6221C13.4229 44.9801 13.5206 45.2747 13.6736 45.5059C13.8298 45.7337 14.0707 45.9193 14.3962 46.0625C14.7218 46.2025 15.088 46.2725 15.4949 46.2725C15.8562 46.2725 16.1752 46.2188 16.4519 46.1113C16.7286 46.0039 16.9337 45.8574 17.0671 45.6719C17.2039 45.4831 17.2722 45.278 17.2722 45.0566C17.2722 44.832 17.2071 44.6367 17.0769 44.4707C16.9467 44.3014 16.7319 44.1598 16.4324 44.0459C16.2403 43.971 15.8155 43.8555 15.158 43.6992C14.5004 43.5397 14.0398 43.39 13.7761 43.25C13.4343 43.071 13.1788 42.8496 13.0095 42.5859C12.8435 42.319 12.7605 42.0212 12.7605 41.6924C12.7605 41.3311 12.863 40.9941 13.0681 40.6816C13.2732 40.3659 13.5727 40.1266 13.9666 39.9639C14.3604 39.8011 14.7983 39.7197 15.28 39.7197C15.8106 39.7197 16.2778 39.806 16.6814 39.9785C17.0883 40.1478 17.4008 40.3984 17.6189 40.7305C17.837 41.0625 17.9542 41.4385 17.9705 41.8584L17.0623 41.9268C17.0134 41.4743 16.8474 41.1325 16.5642 40.9014C16.2843 40.6702 15.8692 40.5547 15.3191 40.5547C14.7462 40.5547 14.3279 40.6605 14.0642 40.8721C13.8038 41.0804 13.6736 41.3327 13.6736 41.6289C13.6736 41.8861 13.7664 42.0977 13.9519 42.2637C14.1342 42.4297 14.6095 42.6006 15.3777 42.7764C16.1492 42.9489 16.6781 43.1003 16.9646 43.2305C17.3813 43.4225 17.6889 43.6667 17.8875 43.9629C18.086 44.2559 18.1853 44.5944 18.1853 44.9785C18.1853 45.3594 18.0763 45.7191 17.8582 46.0576C17.6401 46.3929 17.3259 46.6549 16.9158 46.8438C16.5089 47.0293 16.0499 47.1221 15.5388 47.1221C14.891 47.1221 14.3474 47.0277 13.908 46.8389C13.4718 46.6501 13.1283 46.3669 12.8777 45.9893C12.6303 45.6084 12.5001 45.1787 12.4871 44.7002ZM22.9167 45.3301L23.825 45.4424C23.6817 45.973 23.4164 46.3848 23.0291 46.6777C22.6417 46.9707 22.1469 47.1172 21.5447 47.1172C20.7862 47.1172 20.184 46.8844 19.738 46.4189C19.2953 45.9502 19.074 45.2943 19.074 44.4512C19.074 43.5788 19.2986 42.9017 19.7478 42.4199C20.197 41.9382 20.7797 41.6973 21.4958 41.6973C22.1892 41.6973 22.7556 41.9333 23.1951 42.4053C23.6345 42.8773 23.8542 43.5413 23.8542 44.3975C23.8542 44.4495 23.8526 44.5277 23.8494 44.6318H19.9822C20.0147 45.2015 20.1759 45.6377 20.4656 45.9404C20.7553 46.2432 21.1166 46.3945 21.5496 46.3945C21.8718 46.3945 22.1469 46.3099 22.3748 46.1406C22.6026 45.9714 22.7833 45.7012 22.9167 45.3301ZM20.031 43.9092H22.9265C22.8875 43.473 22.7768 43.1458 22.5945 42.9277C22.3145 42.5892 21.9516 42.4199 21.5056 42.4199C21.102 42.4199 20.7618 42.555 20.4851 42.8252C20.2117 43.0954 20.0603 43.4567 20.031 43.9092ZM24.7722 47.4297L25.6267 47.5566C25.6625 47.8203 25.7618 48.0124 25.9246 48.1328C26.1427 48.2956 26.4405 48.377 26.8181 48.377C27.225 48.377 27.5391 48.2956 27.7605 48.1328C27.9819 47.9701 28.1316 47.7422 28.2097 47.4492C28.2553 47.2702 28.2764 46.8942 28.2732 46.3213C27.8891 46.7738 27.4106 47 26.8376 47C26.1248 47 25.573 46.7428 25.1824 46.2285C24.7917 45.7142 24.5964 45.0973 24.5964 44.3779C24.5964 43.8831 24.686 43.4274 24.865 43.0107C25.044 42.5908 25.3028 42.2669 25.6414 42.0391C25.9832 41.8112 26.3835 41.6973 26.8425 41.6973C27.4545 41.6973 27.9591 41.9447 28.3562 42.4395V41.8145H29.1667V46.2969C29.1667 47.1042 29.0837 47.6755 28.9177 48.0107C28.755 48.3493 28.4945 48.6162 28.1365 48.8115C27.7817 49.0068 27.3438 49.1045 26.823 49.1045C26.2045 49.1045 25.7048 48.9645 25.324 48.6846C24.9431 48.4079 24.7592 47.9896 24.7722 47.4297ZM25.4998 44.3145C25.4998 44.9948 25.6348 45.4912 25.905 45.8037C26.1752 46.1162 26.5138 46.2725 26.9207 46.2725C27.3243 46.2725 27.6628 46.1178 27.9363 45.8086C28.2097 45.4961 28.3464 45.0078 28.3464 44.3438C28.3464 43.709 28.2048 43.2305 27.9216 42.9082C27.6417 42.5859 27.3031 42.4248 26.906 42.4248C26.5154 42.4248 26.1833 42.5843 25.9099 42.9033C25.6365 43.2191 25.4998 43.6895 25.4998 44.3145ZM30.49 47V41.8145H31.281V42.6006C31.4828 42.2327 31.6684 41.9902 31.8376 41.873C32.0102 41.7559 32.199 41.6973 32.4041 41.6973C32.7003 41.6973 33.0014 41.7917 33.3074 41.9805L33.0046 42.7959C32.7898 42.6689 32.575 42.6055 32.3601 42.6055C32.1681 42.6055 31.9955 42.6641 31.8425 42.7812C31.6895 42.8952 31.5805 43.0547 31.5154 43.2598C31.4177 43.5723 31.3689 43.9141 31.3689 44.2852V47H30.49ZM37.3796 45.3301L38.2878 45.4424C38.1446 45.973 37.8793 46.3848 37.4919 46.6777C37.1046 46.9707 36.6098 47.1172 36.0076 47.1172C35.2491 47.1172 34.6469 46.8844 34.2009 46.4189C33.7582 45.9502 33.5369 45.2943 33.5369 44.4512C33.5369 43.5788 33.7615 42.9017 34.2107 42.4199C34.6599 41.9382 35.2426 41.6973 35.9587 41.6973C36.6521 41.6973 37.2185 41.9333 37.658 42.4053C38.0974 42.8773 38.3171 43.5413 38.3171 44.3975C38.3171 44.4495 38.3155 44.5277 38.3123 44.6318H34.4451C34.4776 45.2015 34.6388 45.6377 34.9285 45.9404C35.2182 46.2432 35.5795 46.3945 36.0125 46.3945C36.3347 46.3945 36.6098 46.3099 36.8376 46.1406C37.0655 45.9714 37.2462 45.7012 37.3796 45.3301ZM34.4939 43.9092H37.3894C37.3503 43.473 37.2397 43.1458 37.0574 42.9277C36.7774 42.5892 36.4145 42.4199 35.9685 42.4199C35.5649 42.4199 35.2247 42.555 34.948 42.8252C34.6746 43.0954 34.5232 43.4567 34.4939 43.9092ZM39.2351 47.4297L40.0896 47.5566C40.1254 47.8203 40.2247 48.0124 40.3875 48.1328C40.6056 48.2956 40.9034 48.377 41.281 48.377C41.6879 48.377 42.002 48.2956 42.2234 48.1328C42.4447 47.9701 42.5945 47.7422 42.6726 47.4492C42.7182 47.2702 42.7393 46.8942 42.7361 46.3213C42.352 46.7738 41.8735 47 41.3005 47C40.5876 47 40.0359 46.7428 39.6453 46.2285C39.2546 45.7142 39.0593 45.0973 39.0593 44.3779C39.0593 43.8831 39.1488 43.4274 39.3279 43.0107C39.5069 42.5908 39.7657 42.2669 40.1042 42.0391C40.446 41.8112 40.8464 41.6973 41.3054 41.6973C41.9174 41.6973 42.422 41.9447 42.8191 42.4395V41.8145H43.6296V46.2969C43.6296 47.1042 43.5466 47.6755 43.3806 48.0107C43.2179 48.3493 42.9574 48.6162 42.5994 48.8115C42.2445 49.0068 41.8067 49.1045 41.2859 49.1045C40.6674 49.1045 40.1677 48.9645 39.7869 48.6846C39.406 48.4079 39.2221 47.9896 39.2351 47.4297ZM39.9626 44.3145C39.9626 44.9948 40.0977 45.4912 40.3679 45.8037C40.6381 46.1162 40.9766 46.2725 41.3835 46.2725C41.7872 46.2725 42.1257 46.1178 42.3992 45.8086C42.6726 45.4961 42.8093 45.0078 42.8093 44.3438C42.8093 43.709 42.6677 43.2305 42.3845 42.9082C42.1046 42.5859 41.766 42.4248 41.3689 42.4248C40.9783 42.4248 40.6462 42.5843 40.3728 42.9033C40.0994 43.2191 39.9626 43.6895 39.9626 44.3145ZM48.3464 46.3604C48.0209 46.637 47.7068 46.8324 47.4041 46.9463C47.1046 47.0602 46.7823 47.1172 46.4373 47.1172C45.8676 47.1172 45.4298 46.9788 45.1238 46.7021C44.8178 46.4222 44.6648 46.0658 44.6648 45.6328C44.6648 45.3789 44.7218 45.1478 44.8357 44.9395C44.9529 44.7279 45.1042 44.5586 45.2898 44.4316C45.4786 44.3047 45.6902 44.2087 45.9246 44.1436C46.0971 44.098 46.3575 44.054 46.7058 44.0117C47.4154 43.9271 47.9379 43.8262 48.2732 43.709C48.2764 43.5885 48.2781 43.512 48.2781 43.4795C48.2781 43.1214 48.1951 42.8691 48.0291 42.7227C47.8044 42.5241 47.4708 42.4248 47.0281 42.4248C46.6147 42.4248 46.3087 42.498 46.1101 42.6445C45.9148 42.7878 45.7699 43.0433 45.6755 43.4111L44.8162 43.2939C44.8943 42.9261 45.0229 42.6299 45.2019 42.4053C45.3809 42.1774 45.6397 42.0033 45.9783 41.8828C46.3168 41.7591 46.7091 41.6973 47.155 41.6973C47.5977 41.6973 47.9574 41.7493 48.2341 41.8535C48.5108 41.9577 48.7143 42.0895 48.8445 42.249C48.9747 42.4053 49.0658 42.6038 49.1179 42.8447C49.1472 42.9945 49.1619 43.2646 49.1619 43.6553V44.8271C49.1619 45.6442 49.1798 46.1618 49.2156 46.3799C49.2546 46.5947 49.3295 46.8014 49.4402 47H48.5222C48.4311 46.8177 48.3725 46.6045 48.3464 46.3604ZM48.2732 44.3975C47.9542 44.5277 47.4757 44.6383 46.8376 44.7295C46.4763 44.7816 46.2208 44.8402 46.071 44.9053C45.9213 44.9704 45.8057 45.0664 45.7244 45.1934C45.643 45.3171 45.6023 45.4554 45.6023 45.6084C45.6023 45.8428 45.6902 46.0381 45.866 46.1943C46.045 46.3506 46.3054 46.4287 46.6472 46.4287C46.9858 46.4287 47.2869 46.3555 47.5505 46.209C47.8142 46.0592 48.0079 45.8558 48.1316 45.5986C48.226 45.4001 48.2732 45.1071 48.2732 44.7197V44.3975ZM52.448 46.2139L52.575 46.9902C52.3276 47.0423 52.1062 47.0684 51.9109 47.0684C51.5919 47.0684 51.3445 47.0179 51.1687 46.917C50.9929 46.8161 50.8692 46.6842 50.7976 46.5215C50.726 46.3555 50.6902 46.0088 50.6902 45.4814V42.498H50.0457V41.8145H50.6902V40.5303L51.5642 40.0029V41.8145H52.448V42.498H51.5642V45.5303C51.5642 45.7809 51.5789 45.9421 51.6082 46.0137C51.6407 46.0853 51.6912 46.1423 51.7595 46.1846C51.8311 46.2269 51.932 46.248 52.0623 46.248C52.1599 46.248 52.2885 46.2367 52.448 46.2139ZM56.8621 45.3301L57.7703 45.4424C57.627 45.973 57.3617 46.3848 56.9744 46.6777C56.587 46.9707 56.0922 47.1172 55.49 47.1172C54.7315 47.1172 54.1293 46.8844 53.6833 46.4189C53.2406 45.9502 53.0193 45.2943 53.0193 44.4512C53.0193 43.5788 53.2439 42.9017 53.6931 42.4199C54.1423 41.9382 54.725 41.6973 55.4412 41.6973C56.1345 41.6973 56.7009 41.9333 57.1404 42.4053C57.5798 42.8773 57.7996 43.5413 57.7996 44.3975C57.7996 44.4495 57.7979 44.5277 57.7947 44.6318H53.9275C53.96 45.2015 54.1212 45.6377 54.4109 45.9404C54.7006 46.2432 55.0619 46.3945 55.4949 46.3945C55.8171 46.3945 56.0922 46.3099 56.3201 46.1406C56.5479 45.9714 56.7286 45.7012 56.8621 45.3301ZM53.9763 43.9092H56.8718C56.8328 43.473 56.7221 43.1458 56.5398 42.9277C56.2598 42.5892 55.8969 42.4199 55.4509 42.4199C55.0473 42.4199 54.7071 42.555 54.4304 42.8252C54.157 43.0954 54.0056 43.4567 53.9763 43.9092ZM62.2429 47V46.3457C61.9141 46.86 61.4307 47.1172 60.7927 47.1172C60.3793 47.1172 59.9985 47.0033 59.6501 46.7754C59.3051 46.5475 59.0365 46.2301 58.8445 45.8232C58.6557 45.4131 58.5613 44.9427 58.5613 44.4121C58.5613 43.8945 58.6475 43.4258 58.8201 43.0059C58.9926 42.5827 59.2514 42.2588 59.5964 42.0342C59.9415 41.8096 60.3272 41.6973 60.7537 41.6973C61.0662 41.6973 61.3445 41.764 61.5886 41.8975C61.8328 42.0277 62.0313 42.1986 62.1843 42.4102V39.8418H63.0583V47H62.2429ZM59.4646 44.4121C59.4646 45.0762 59.6046 45.5726 59.8845 45.9014C60.1645 46.2301 60.4949 46.3945 60.8757 46.3945C61.2598 46.3945 61.5854 46.2383 61.8523 45.9258C62.1225 45.61 62.2576 45.1299 62.2576 44.4854C62.2576 43.7757 62.1208 43.2549 61.8474 42.9229C61.574 42.5908 61.2371 42.4248 60.8367 42.4248C60.446 42.4248 60.1189 42.5843 59.8552 42.9033C59.5948 43.2223 59.4646 43.7253 59.4646 44.4121ZM70.6121 46.3604C70.2865 46.637 69.9724 46.8324 69.6697 46.9463C69.3702 47.0602 69.0479 47.1172 68.7029 47.1172C68.1332 47.1172 67.6954 46.9788 67.3894 46.7021C67.0834 46.4222 66.9304 46.0658 66.9304 45.6328C66.9304 45.3789 66.9874 45.1478 67.1013 44.9395C67.2185 44.7279 67.3699 44.5586 67.5554 44.4316C67.7442 44.3047 67.9558 44.2087 68.1902 44.1436C68.3627 44.098 68.6231 44.054 68.9714 44.0117C69.6811 43.9271 70.2035 43.8262 70.5388 43.709C70.5421 43.5885 70.5437 43.512 70.5437 43.4795C70.5437 43.1214 70.4607 42.8691 70.2947 42.7227C70.0701 42.5241 69.7364 42.4248 69.2937 42.4248C68.8803 42.4248 68.5743 42.498 68.3757 42.6445C68.1804 42.7878 68.0356 43.0433 67.9412 43.4111L67.0818 43.2939C67.1599 42.9261 67.2885 42.6299 67.4675 42.4053C67.6466 42.1774 67.9054 42.0033 68.2439 41.8828C68.5824 41.7591 68.9747 41.6973 69.4207 41.6973C69.8634 41.6973 70.2231 41.7493 70.4998 41.8535C70.7764 41.9577 70.9799 42.0895 71.1101 42.249C71.2403 42.4053 71.3315 42.6038 71.3835 42.8447C71.4128 42.9945 71.4275 43.2646 71.4275 43.6553V44.8271C71.4275 45.6442 71.4454 46.1618 71.4812 46.3799C71.5203 46.5947 71.5951 46.8014 71.7058 47H70.7878C70.6967 46.8177 70.6381 46.6045 70.6121 46.3604ZM70.5388 44.3975C70.2198 44.5277 69.7413 44.6383 69.1033 44.7295C68.7419 44.7816 68.4864 44.8402 68.3367 44.9053C68.1869 44.9704 68.0714 45.0664 67.99 45.1934C67.9086 45.3171 67.8679 45.4554 67.8679 45.6084C67.8679 45.8428 67.9558 46.0381 68.1316 46.1943C68.3106 46.3506 68.571 46.4287 68.9128 46.4287C69.2514 46.4287 69.5525 46.3555 69.8162 46.209C70.0798 46.0592 70.2735 45.8558 70.3972 45.5986C70.4916 45.4001 70.5388 45.1071 70.5388 44.7197V44.3975ZM76.1785 45.1006L77.0427 45.2129C76.9483 45.8086 76.7058 46.2757 76.3152 46.6143C75.9278 46.9495 75.4509 47.1172 74.8845 47.1172C74.1749 47.1172 73.6036 46.8861 73.1707 46.4238C72.741 45.9583 72.5261 45.2926 72.5261 44.4268C72.5261 43.8669 72.6189 43.377 72.8044 42.957C72.99 42.5371 73.2716 42.223 73.6492 42.0146C74.03 41.8031 74.4434 41.6973 74.8894 41.6973C75.4526 41.6973 75.9132 41.8405 76.2712 42.127C76.6293 42.4102 76.8588 42.8138 76.9597 43.3379L76.1052 43.4697C76.0238 43.1214 75.879 42.8594 75.6707 42.6836C75.4656 42.5078 75.2166 42.4199 74.9236 42.4199C74.4809 42.4199 74.1212 42.5794 73.8445 42.8984C73.5678 43.2142 73.4294 43.7155 73.4294 44.4023C73.4294 45.099 73.5629 45.6051 73.8298 45.9209C74.0968 46.2367 74.4451 46.3945 74.8748 46.3945C75.2198 46.3945 75.5079 46.2887 75.739 46.0771C75.9701 45.8656 76.1166 45.54 76.1785 45.1006ZM81.1785 45.1006L82.0427 45.2129C81.9483 45.8086 81.7058 46.2757 81.3152 46.6143C80.9278 46.9495 80.4509 47.1172 79.8845 47.1172C79.1749 47.1172 78.6036 46.8861 78.1707 46.4238C77.741 45.9583 77.5261 45.2926 77.5261 44.4268C77.5261 43.8669 77.6189 43.377 77.8044 42.957C77.99 42.5371 78.2716 42.223 78.6492 42.0146C79.03 41.8031 79.4434 41.6973 79.8894 41.6973C80.4526 41.6973 80.9132 41.8405 81.2712 42.127C81.6293 42.4102 81.8588 42.8138 81.9597 43.3379L81.1052 43.4697C81.0238 43.1214 80.879 42.8594 80.6707 42.6836C80.4656 42.5078 80.2166 42.4199 79.9236 42.4199C79.4809 42.4199 79.1212 42.5794 78.8445 42.8984C78.5678 43.2142 78.4294 43.7155 78.4294 44.4023C78.4294 45.099 78.5629 45.6051 78.8298 45.9209C79.0968 46.2367 79.4451 46.3945 79.8748 46.3945C80.2198 46.3945 80.5079 46.2887 80.739 46.0771C80.9701 45.8656 81.1166 45.54 81.1785 45.1006ZM82.4675 44.4072C82.4675 43.4469 82.7345 42.7357 83.2683 42.2734C83.7143 41.8893 84.2579 41.6973 84.8992 41.6973C85.6121 41.6973 86.1947 41.9316 86.6472 42.4004C87.0997 42.8659 87.3259 43.5104 87.3259 44.334C87.3259 45.0013 87.225 45.527 87.0232 45.9111C86.8246 46.292 86.5333 46.5882 86.1492 46.7998C85.7683 47.0114 85.3516 47.1172 84.8992 47.1172C84.1733 47.1172 83.5857 46.8844 83.1365 46.4189C82.6905 45.9535 82.4675 45.2829 82.4675 44.4072ZM83.3708 44.4072C83.3708 45.0713 83.5157 45.5693 83.8054 45.9014C84.0951 46.2301 84.4597 46.3945 84.8992 46.3945C85.3354 46.3945 85.6983 46.2285 85.988 45.8965C86.2778 45.5645 86.4226 45.0583 86.4226 44.3779C86.4226 43.7367 86.2761 43.2516 85.9832 42.9229C85.6934 42.5908 85.3321 42.4248 84.8992 42.4248C84.4597 42.4248 84.0951 42.5892 83.8054 42.918C83.5157 43.2467 83.3708 43.7432 83.3708 44.4072ZM91.7595 47V46.2383C91.3559 46.8242 90.8074 47.1172 90.114 47.1172C89.808 47.1172 89.5216 47.0586 89.2546 46.9414C88.991 46.8242 88.794 46.6777 88.6638 46.502C88.5369 46.3229 88.4473 46.1048 88.3953 45.8477C88.3595 45.6751 88.3416 45.4017 88.3416 45.0273V41.8145H89.2205V44.6904C89.2205 45.1494 89.2384 45.4587 89.2742 45.6182C89.3295 45.8493 89.4467 46.0316 89.6257 46.165C89.8048 46.2952 90.0261 46.3604 90.2898 46.3604C90.5535 46.3604 90.8009 46.2936 91.032 46.1602C91.2631 46.0234 91.4259 45.8395 91.5203 45.6084C91.6179 45.374 91.6667 45.0355 91.6667 44.5928V41.8145H92.5457V47H91.7595ZM93.9275 47V41.8145H94.7185V42.5518C95.0994 41.9821 95.6495 41.6973 96.3689 41.6973C96.6814 41.6973 96.9679 41.7542 97.2283 41.8682C97.4919 41.9788 97.6889 42.1253 97.8191 42.3076C97.9493 42.4899 98.0404 42.7064 98.0925 42.957C98.1251 43.1198 98.1414 43.4046 98.1414 43.8115V47H97.2625V43.8457C97.2625 43.4876 97.2283 43.2207 97.1599 43.0449C97.0916 42.8659 96.9695 42.7243 96.7937 42.6201C96.6212 42.5127 96.4177 42.459 96.1833 42.459C95.809 42.459 95.4851 42.5778 95.2117 42.8154C94.9415 43.0531 94.8064 43.5039 94.8064 44.168V47H93.9275ZM101.413 46.2139L101.54 46.9902C101.292 47.0423 101.071 47.0684 100.876 47.0684C100.557 47.0684 100.309 47.0179 100.134 46.917C99.9578 46.8161 99.8341 46.6842 99.7625 46.5215C99.6908 46.3555 99.655 46.0088 99.655 45.4814V42.498H99.0105V41.8145H99.655V40.5303L100.529 40.0029V41.8145H101.413V42.498H100.529V45.5303C100.529 45.7809 100.544 45.9421 100.573 46.0137C100.606 46.0853 100.656 46.1423 100.724 46.1846C100.796 46.2269 100.897 46.248 101.027 46.248C101.125 46.248 101.253 46.2367 101.413 46.2139ZM101.926 45.4521L102.795 45.3154C102.844 45.6637 102.979 45.9307 103.2 46.1162C103.425 46.3018 103.737 46.3945 104.137 46.3945C104.541 46.3945 104.841 46.3132 105.036 46.1504C105.231 45.9844 105.329 45.7907 105.329 45.5693C105.329 45.3708 105.243 45.2145 105.07 45.1006C104.95 45.0225 104.65 44.9232 104.172 44.8027C103.527 44.64 103.08 44.5 102.829 44.3828C102.581 44.2624 102.393 44.098 102.262 43.8896C102.135 43.6781 102.072 43.4453 102.072 43.1914C102.072 42.9603 102.124 42.7471 102.228 42.5518C102.336 42.3532 102.481 42.1888 102.663 42.0586C102.8 41.9577 102.985 41.873 103.219 41.8047C103.457 41.7331 103.711 41.6973 103.981 41.6973C104.388 41.6973 104.745 41.7559 105.051 41.873C105.36 41.9902 105.588 42.1497 105.734 42.3516C105.881 42.5501 105.982 42.8171 106.037 43.1523L105.177 43.2695C105.138 43.0026 105.024 42.7943 104.836 42.6445C104.65 42.4948 104.386 42.4199 104.045 42.4199C103.641 42.4199 103.353 42.4867 103.18 42.6201C103.008 42.7536 102.922 42.9098 102.922 43.0889C102.922 43.2028 102.957 43.3053 103.029 43.3965C103.101 43.4909 103.213 43.569 103.366 43.6309C103.454 43.6634 103.713 43.7383 104.142 43.8555C104.764 44.0215 105.197 44.1582 105.441 44.2656C105.689 44.3698 105.882 44.5228 106.022 44.7246C106.162 44.9264 106.232 45.1771 106.232 45.4766C106.232 45.7695 106.146 46.0462 105.973 46.3066C105.804 46.5638 105.558 46.764 105.236 46.9072C104.914 47.0472 104.549 47.1172 104.142 47.1172C103.469 47.1172 102.954 46.9772 102.599 46.6973C102.248 46.4173 102.023 46.0023 101.926 45.4521Z" fill="#9A9A9A"/>
<defs>
<filter id="filter0_i_199_116" x="0" y="0" width="162" height="84" filterUnits="userSpaceOnUse" color-interpolation-filters="sRGB">
<feFlood flood-opacity="0" result="BackgroundImageFix"/>
<feBlend mode="normal" in="SourceGraphic" in2="BackgroundImageFix" result="shape"/>
<feColorMatrix in="SourceAlpha" type="matrix" values="0 0 0 0 0 0 0 0 0 0 0 0 0 0 0 0 0 0 127 0" result="hardAlpha"/>
<feOffset dx="3" dy="3"/>
<feGaussianBlur stdDeviation="7.5"/>
<feComposite in2="hardAlpha" operator="arithmetic" k2="-1" k3="1"/>
<feColorMatrix type="matrix" values="0 0 0 0 0 0 0 0 0 0.616667 0 0 0 0 1 0 0 0 0.6 0"/>
<feBlend mode="normal" in2="shape" result="effect1_innerShadow_199_116"/>
</filter>
<linearGradient id="paint0_linear_199_116" x1="79.5" y1="0" x2="79.5" y2="74" gradientUnits="userSpaceOnUse">
<stop stop-color="#0065FE" stop-opacity="0.5"/>
<stop offset="1" stop-color="#024D9D" stop-opacity="0.5"/>
</linearGradient>
</defs>
</svg>
