<svg width="159" height="81" viewBox="0 0 159 81" fill="none" xmlns="http://www.w3.org/2000/svg">
<g filter="url(#filter0_i_199_96)">
<path d="M0 4C0 1.79086 1.79086 0 4 0H155C157.209 0 159 1.79086 159 4V77C159 79.2091 157.209 81 155 81H4C1.79086 81 0 79.2091 0 77V4Z" fill="url(#paint0_linear_199_96)"/>
</g>
<path d="M134.809 55.528C136.801 55.528 138.361 56.344 139.489 58.024C140.545 59.608 141.073 61.744 141.073 64.432C141.073 67.12 140.545 69.256 139.489 70.84C138.361 72.496 136.801 73.336 134.809 73.336C132.793 73.336 131.233 72.496 130.129 70.84C129.073 69.256 128.545 67.12 128.545 64.432C128.545 61.744 129.073 59.608 130.129 58.024C131.233 56.344 132.793 55.528 134.809 55.528ZM134.809 57.904C133.441 57.904 132.481 58.648 131.929 60.184C131.545 61.216 131.353 62.632 131.353 64.432C131.353 66.208 131.545 67.624 131.929 68.68C132.481 70.192 133.441 70.96 134.809 70.96C136.153 70.96 137.113 70.192 137.689 68.68C138.073 67.624 138.265 66.208 138.265 64.432C138.265 62.632 138.073 61.216 137.689 60.184C137.113 58.648 136.153 57.904 134.809 57.904ZM149.464 55.528C151.12 55.528 152.488 56.008 153.568 56.968C154.624 57.928 155.152 59.152 155.152 60.688C155.152 62.176 154.576 63.52 153.472 64.744C152.8 65.464 151.6 66.376 149.92 67.504C148.168 68.656 147.112 69.664 146.728 70.528H155.176V73H143.224C143.224 71.248 143.776 69.736 144.928 68.44C145.552 67.72 146.872 66.664 148.864 65.296C149.968 64.528 150.736 63.88 151.216 63.376C151.96 62.536 152.344 61.624 152.344 60.664C152.344 59.728 152.08 59.032 151.6 58.576C151.096 58.12 150.352 57.904 149.368 57.904C148.312 57.904 147.52 58.264 146.992 58.984C146.464 59.656 146.176 60.688 146.128 62.032H143.32C143.344 60.112 143.896 58.576 145 57.4C146.128 56.152 147.616 55.528 149.464 55.528Z" fill="#93CBFF" fill-opacity="0.5"/>
<path d="M20.2305 25.4863L21.5566 25.8213C21.2786 26.9105 20.7773 27.7422 20.0527 28.3164C19.3327 28.8861 18.4508 29.1709 17.4072 29.1709C16.3271 29.1709 15.4476 28.9521 14.7686 28.5146C14.0941 28.0726 13.5791 27.4346 13.2236 26.6006C12.8727 25.7666 12.6973 24.8711 12.6973 23.9141C12.6973 22.8704 12.8955 21.9613 13.292 21.1865C13.693 20.4072 14.2604 19.8171 14.9941 19.416C15.7324 19.0104 16.5436 18.8076 17.4277 18.8076C18.4303 18.8076 19.2734 19.0628 19.957 19.5732C20.6406 20.0837 21.1169 20.8014 21.3857 21.7266L20.0801 22.0342C19.8477 21.305 19.5104 20.7741 19.0684 20.4414C18.6263 20.1087 18.0703 19.9424 17.4004 19.9424C16.6302 19.9424 15.9854 20.127 15.4658 20.4961C14.9508 20.8652 14.5885 21.362 14.3789 21.9863C14.1693 22.6061 14.0645 23.2464 14.0645 23.9072C14.0645 24.7594 14.1875 25.5046 14.4336 26.1426C14.6842 26.776 15.0716 27.25 15.5957 27.5645C16.1198 27.8789 16.6872 28.0361 17.2979 28.0361C18.0407 28.0361 18.6696 27.8219 19.1846 27.3936C19.6995 26.9652 20.0482 26.3294 20.2305 25.4863ZM27.7979 29V27.9336C27.2327 28.7539 26.4648 29.1641 25.4941 29.1641C25.0658 29.1641 24.6647 29.082 24.291 28.918C23.9219 28.7539 23.6462 28.5488 23.4639 28.3027C23.2861 28.0521 23.1608 27.7467 23.0879 27.3867C23.0378 27.1452 23.0127 26.7624 23.0127 26.2383V21.7402H24.2432V25.7666C24.2432 26.4092 24.2682 26.8421 24.3184 27.0654C24.3958 27.389 24.5599 27.6442 24.8105 27.8311C25.0612 28.0133 25.3711 28.1045 25.7402 28.1045C26.1094 28.1045 26.4557 28.0111 26.7793 27.8242C27.1029 27.6328 27.3307 27.3753 27.4629 27.0518C27.5996 26.7236 27.668 26.2497 27.668 25.6299V21.7402H28.8984V29H27.7979ZM30.8193 29V21.7402H31.9268V22.8408C32.2093 22.3258 32.4691 21.9863 32.7061 21.8223C32.9476 21.6582 33.2119 21.5762 33.499 21.5762C33.9137 21.5762 34.3353 21.7083 34.7637 21.9727L34.3398 23.1143C34.0391 22.9365 33.7383 22.8477 33.4375 22.8477C33.1686 22.8477 32.9271 22.9297 32.7129 23.0938C32.4987 23.2533 32.346 23.4766 32.2549 23.7637C32.1182 24.2012 32.0498 24.6797 32.0498 25.1992V29H30.8193ZM35.4814 29V21.7402H36.5889V22.8408C36.8714 22.3258 37.1312 21.9863 37.3682 21.8223C37.6097 21.6582 37.874 21.5762 38.1611 21.5762C38.5758 21.5762 38.9974 21.7083 39.4258 21.9727L39.002 23.1143C38.7012 22.9365 38.4004 22.8477 38.0996 22.8477C37.8307 22.8477 37.5892 22.9297 37.375 23.0938C37.1608 23.2533 37.0081 23.4766 36.917 23.7637C36.7803 24.2012 36.7119 24.6797 36.7119 25.1992V29H35.4814ZM45.127 26.6621L46.3984 26.8193C46.1979 27.5622 45.8265 28.1387 45.2842 28.5488C44.7419 28.959 44.0492 29.1641 43.2061 29.1641C42.1442 29.1641 41.3011 28.8382 40.6768 28.1865C40.057 27.5303 39.7471 26.612 39.7471 25.4316C39.7471 24.2103 40.0615 23.2624 40.6904 22.5879C41.3193 21.9134 42.1351 21.5762 43.1377 21.5762C44.1084 21.5762 44.9014 21.9066 45.5166 22.5674C46.1318 23.2282 46.4395 24.1579 46.4395 25.3564C46.4395 25.4294 46.4372 25.5387 46.4326 25.6846H41.0186C41.0641 26.4821 41.2897 27.0928 41.6953 27.5166C42.1009 27.9404 42.6068 28.1523 43.2129 28.1523C43.6641 28.1523 44.0492 28.0339 44.3682 27.7969C44.6872 27.5599 44.9401 27.1816 45.127 26.6621ZM41.0869 24.6729H45.1406C45.0859 24.0622 44.931 23.6042 44.6758 23.2988C44.2839 22.8249 43.7757 22.5879 43.1514 22.5879C42.5863 22.5879 42.11 22.777 41.7227 23.1553C41.3398 23.5335 41.1279 24.0394 41.0869 24.6729ZM47.9502 29V21.7402H49.0576V22.7725C49.5908 21.9749 50.361 21.5762 51.3682 21.5762C51.8057 21.5762 52.2067 21.6559 52.5713 21.8154C52.9404 21.9704 53.2161 22.1755 53.3984 22.4307C53.5807 22.6859 53.7083 22.9889 53.7812 23.3398C53.8268 23.5677 53.8496 23.9665 53.8496 24.5361V29H52.6191V24.584C52.6191 24.0827 52.5713 23.709 52.4756 23.4629C52.3799 23.2122 52.209 23.014 51.9629 22.8682C51.7214 22.7178 51.4365 22.6426 51.1084 22.6426C50.5843 22.6426 50.1309 22.8089 49.748 23.1416C49.3698 23.4743 49.1807 24.1055 49.1807 25.0352V29H47.9502ZM60.4805 26.3408L61.6904 26.498C61.5583 27.332 61.2188 27.986 60.6719 28.46C60.1296 28.9294 59.4619 29.1641 58.6689 29.1641C57.6755 29.1641 56.8757 28.8405 56.2695 28.1934C55.668 27.5417 55.3672 26.6097 55.3672 25.3975C55.3672 24.6136 55.4971 23.9277 55.7568 23.3398C56.0166 22.752 56.4108 22.3122 56.9395 22.0205C57.4727 21.7243 58.0514 21.5762 58.6758 21.5762C59.4642 21.5762 60.109 21.7767 60.6104 22.1777C61.1117 22.5742 61.4329 23.1393 61.5742 23.873L60.3779 24.0576C60.264 23.57 60.0612 23.2031 59.7695 22.957C59.4824 22.7109 59.1338 22.5879 58.7236 22.5879C58.1038 22.5879 57.6003 22.8112 57.2129 23.2578C56.8255 23.6999 56.6318 24.4017 56.6318 25.3633C56.6318 26.3385 56.8187 27.0472 57.1924 27.4893C57.5661 27.9313 58.0537 28.1523 58.6553 28.1523C59.1383 28.1523 59.5417 28.0042 59.8652 27.708C60.1888 27.4118 60.3939 26.9561 60.4805 26.3408ZM62.6885 31.7959L62.5518 30.6406C62.8206 30.7135 63.0553 30.75 63.2559 30.75C63.5293 30.75 63.748 30.7044 63.9121 30.6133C64.0762 30.5221 64.2106 30.3945 64.3154 30.2305C64.3929 30.1074 64.5182 29.8021 64.6914 29.3145C64.7142 29.2461 64.7507 29.1458 64.8008 29.0137L62.0459 21.7402H63.3721L64.8828 25.9443C65.0788 26.4775 65.2542 27.0381 65.4092 27.626C65.5505 27.0609 65.7191 26.5094 65.915 25.9717L67.4668 21.7402H68.6973L65.9355 29.123C65.6393 29.9206 65.4092 30.4697 65.2451 30.7705C65.0264 31.1761 64.7757 31.4723 64.4932 31.6592C64.2106 31.8506 63.8734 31.9463 63.4814 31.9463C63.2445 31.9463 62.9801 31.8962 62.6885 31.7959ZM80.9473 25.4863L82.2734 25.8213C81.9954 26.9105 81.4941 27.7422 80.7695 28.3164C80.0495 28.8861 79.1676 29.1709 78.124 29.1709C77.0439 29.1709 76.1644 28.9521 75.4854 28.5146C74.8109 28.0726 74.2959 27.4346 73.9404 26.6006C73.5895 25.7666 73.4141 24.8711 73.4141 23.9141C73.4141 22.8704 73.6123 21.9613 74.0088 21.1865C74.4098 20.4072 74.9772 19.8171 75.7109 19.416C76.4492 19.0104 77.2604 18.8076 78.1445 18.8076C79.1471 18.8076 79.9902 19.0628 80.6738 19.5732C81.3574 20.0837 81.8337 20.8014 82.1025 21.7266L80.7969 22.0342C80.5645 21.305 80.2272 20.7741 79.7852 20.4414C79.3431 20.1087 78.7871 19.9424 78.1172 19.9424C77.347 19.9424 76.7021 20.127 76.1826 20.4961C75.6676 20.8652 75.3053 21.362 75.0957 21.9863C74.8861 22.6061 74.7812 23.2464 74.7812 23.9072C74.7812 24.7594 74.9043 25.5046 75.1504 26.1426C75.401 26.776 75.7884 27.25 76.3125 27.5645C76.8366 27.8789 77.404 28.0361 78.0146 28.0361C78.7575 28.0361 79.3864 27.8219 79.9014 27.3936C80.4163 26.9652 80.765 26.3294 80.9473 25.4863ZM83.2988 25.3701C83.2988 24.0257 83.6725 23.0299 84.4199 22.3828C85.0443 21.8451 85.8053 21.5762 86.7031 21.5762C87.7012 21.5762 88.5169 21.9043 89.1504 22.5605C89.7839 23.2122 90.1006 24.1146 90.1006 25.2676C90.1006 26.2018 89.9593 26.9378 89.6768 27.4756C89.3988 28.0088 88.9909 28.4235 88.4531 28.7197C87.9199 29.016 87.3366 29.1641 86.7031 29.1641C85.6868 29.1641 84.8643 28.8382 84.2354 28.1865C83.611 27.5348 83.2988 26.596 83.2988 25.3701ZM84.5635 25.3701C84.5635 26.2998 84.7663 26.9971 85.1719 27.4619C85.5775 27.9222 86.0879 28.1523 86.7031 28.1523C87.3138 28.1523 87.8219 27.9199 88.2275 27.4551C88.6331 26.9902 88.8359 26.2816 88.8359 25.3291C88.8359 24.4313 88.6309 23.7523 88.2207 23.292C87.8151 22.8271 87.3092 22.5947 86.7031 22.5947C86.0879 22.5947 85.5775 22.8249 85.1719 23.2852C84.7663 23.7454 84.5635 24.4404 84.5635 25.3701ZM91.5498 29V21.7402H92.6572V22.7725C93.1904 21.9749 93.9606 21.5762 94.9678 21.5762C95.4053 21.5762 95.8063 21.6559 96.1709 21.8154C96.54 21.9704 96.8158 22.1755 96.998 22.4307C97.1803 22.6859 97.3079 22.9889 97.3809 23.3398C97.4264 23.5677 97.4492 23.9665 97.4492 24.5361V29H96.2188V24.584C96.2188 24.0827 96.1709 23.709 96.0752 23.4629C95.9795 23.2122 95.8086 23.014 95.5625 22.8682C95.321 22.7178 95.0361 22.6426 94.708 22.6426C94.1839 22.6426 93.7305 22.8089 93.3477 23.1416C92.9694 23.4743 92.7803 24.1055 92.7803 25.0352V29H91.5498ZM101.359 29L98.5977 21.7402H99.8965L101.455 26.0879C101.624 26.5573 101.779 27.0449 101.92 27.5508C102.029 27.168 102.182 26.7077 102.378 26.1699L103.991 21.7402H105.256L102.508 29H101.359ZM111.312 26.6621L112.584 26.8193C112.383 27.5622 112.012 28.1387 111.47 28.5488C110.927 28.959 110.235 29.1641 109.392 29.1641C108.33 29.1641 107.487 28.8382 106.862 28.1865C106.243 27.5303 105.933 26.612 105.933 25.4316C105.933 24.2103 106.247 23.2624 106.876 22.5879C107.505 21.9134 108.321 21.5762 109.323 21.5762C110.294 21.5762 111.087 21.9066 111.702 22.5674C112.317 23.2282 112.625 24.1579 112.625 25.3564C112.625 25.4294 112.623 25.5387 112.618 25.6846H107.204C107.25 26.4821 107.475 27.0928 107.881 27.5166C108.286 27.9404 108.792 28.1523 109.398 28.1523C109.85 28.1523 110.235 28.0339 110.554 27.7969C110.873 27.5599 111.126 27.1816 111.312 26.6621ZM107.272 24.6729H111.326C111.271 24.0622 111.117 23.6042 110.861 23.2988C110.469 22.8249 109.961 22.5879 109.337 22.5879C108.772 22.5879 108.296 22.777 107.908 23.1553C107.525 23.5335 107.313 24.0394 107.272 24.6729ZM114.122 29V21.7402H115.229V22.8408C115.512 22.3258 115.772 21.9863 116.009 21.8223C116.25 21.6582 116.515 21.5762 116.802 21.5762C117.216 21.5762 117.638 21.7083 118.066 21.9727L117.643 23.1143C117.342 22.9365 117.041 22.8477 116.74 22.8477C116.471 22.8477 116.23 22.9297 116.016 23.0938C115.801 23.2533 115.649 23.4766 115.558 23.7637C115.421 24.2012 115.353 24.6797 115.353 25.1992V29H114.122ZM118.306 26.833L119.522 26.6416C119.591 27.1292 119.78 27.5029 120.09 27.7627C120.404 28.0225 120.842 28.1523 121.402 28.1523C121.967 28.1523 122.387 28.0384 122.66 27.8105C122.934 27.5781 123.07 27.307 123.07 26.9971C123.07 26.7191 122.95 26.5003 122.708 26.3408C122.539 26.2314 122.12 26.0924 121.45 25.9238C120.548 25.696 119.921 25.5 119.57 25.3359C119.224 25.1673 118.96 24.9372 118.777 24.6455C118.6 24.3493 118.511 24.0234 118.511 23.668C118.511 23.3444 118.584 23.0459 118.729 22.7725C118.88 22.4945 119.083 22.2643 119.338 22.082C119.529 21.9408 119.789 21.8223 120.117 21.7266C120.45 21.6263 120.805 21.5762 121.184 21.5762C121.753 21.5762 122.252 21.6582 122.681 21.8223C123.114 21.9863 123.433 22.2096 123.638 22.4922C123.843 22.7702 123.984 23.1439 124.062 23.6133L122.858 23.7773C122.804 23.4036 122.644 23.112 122.38 22.9023C122.12 22.6927 121.751 22.5879 121.272 22.5879C120.707 22.5879 120.304 22.6813 120.062 22.8682C119.821 23.055 119.7 23.2738 119.7 23.5244C119.7 23.6839 119.75 23.8275 119.851 23.9551C119.951 24.0872 120.108 24.1966 120.322 24.2832C120.445 24.3288 120.808 24.4336 121.409 24.5977C122.28 24.8301 122.886 25.0215 123.228 25.1719C123.574 25.3177 123.845 25.5319 124.041 25.8145C124.237 26.097 124.335 26.4479 124.335 26.8672C124.335 27.2773 124.214 27.6647 123.973 28.0293C123.736 28.3893 123.392 28.6696 122.94 28.8701C122.489 29.0661 121.979 29.1641 121.409 29.1641C120.466 29.1641 119.746 28.9681 119.249 28.5762C118.757 28.1842 118.442 27.6032 118.306 26.833ZM125.805 20.3936V18.9785H127.035V20.3936H125.805ZM125.805 29V21.7402H127.035V29H125.805ZM128.457 25.3701C128.457 24.0257 128.831 23.0299 129.578 22.3828C130.202 21.8451 130.964 21.5762 131.861 21.5762C132.859 21.5762 133.675 21.9043 134.309 22.5605C134.942 23.2122 135.259 24.1146 135.259 25.2676C135.259 26.2018 135.118 26.9378 134.835 27.4756C134.557 28.0088 134.149 28.4235 133.611 28.7197C133.078 29.016 132.495 29.1641 131.861 29.1641C130.845 29.1641 130.022 28.8382 129.394 28.1865C128.769 27.5348 128.457 26.596 128.457 25.3701ZM129.722 25.3701C129.722 26.2998 129.924 26.9971 130.33 27.4619C130.736 27.9222 131.246 28.1523 131.861 28.1523C132.472 28.1523 132.98 27.9199 133.386 27.4551C133.791 26.9902 133.994 26.2816 133.994 25.3291C133.994 24.4313 133.789 23.7523 133.379 23.292C132.973 22.8271 132.467 22.5947 131.861 22.5947C131.246 22.5947 130.736 22.8249 130.33 23.2852C129.924 23.7454 129.722 24.4404 129.722 25.3701ZM136.708 29V21.7402H137.815V22.7725C138.349 21.9749 139.119 21.5762 140.126 21.5762C140.563 21.5762 140.965 21.6559 141.329 21.8154C141.698 21.9704 141.974 22.1755 142.156 22.4307C142.339 22.6859 142.466 22.9889 142.539 23.3398C142.585 23.5677 142.607 23.9665 142.607 24.5361V29H141.377V24.584C141.377 24.0827 141.329 23.709 141.233 23.4629C141.138 23.2122 140.967 23.014 140.721 22.8682C140.479 22.7178 140.194 22.6426 139.866 22.6426C139.342 22.6426 138.889 22.8089 138.506 23.1416C138.128 23.4743 137.938 24.1055 137.938 25.0352V29H136.708Z" fill="white"/>
<path d="M14.6306 47V40.6865H12.2722V39.8418H17.946V40.6865H15.5779V47H14.6306ZM17.3699 44.4072C17.3699 43.4469 17.6368 42.7357 18.1707 42.2734C18.6166 41.8893 19.1602 41.6973 19.8015 41.6973C20.5144 41.6973 21.0971 41.9316 21.5496 42.4004C22.002 42.8659 22.2283 43.5104 22.2283 44.334C22.2283 45.0013 22.1274 45.527 21.9255 45.9111C21.727 46.292 21.4356 46.5882 21.0515 46.7998C20.6707 47.0114 20.254 47.1172 19.8015 47.1172C19.0756 47.1172 18.488 46.8844 18.0388 46.4189C17.5929 45.9535 17.3699 45.2829 17.3699 44.4072ZM18.2732 44.4072C18.2732 45.0713 18.4181 45.5693 18.7078 45.9014C18.9975 46.2301 19.3621 46.3945 19.8015 46.3945C20.2377 46.3945 20.6007 46.2285 20.8904 45.8965C21.1801 45.5645 21.325 45.0583 21.325 44.3779C21.325 43.7367 21.1785 43.2516 20.8855 42.9229C20.5958 42.5908 20.2345 42.4248 19.8015 42.4248C19.3621 42.4248 18.9975 42.5892 18.7078 42.918C18.4181 43.2467 18.2732 43.7432 18.2732 44.4072ZM26.2566 47V42.498H25.4802V41.8145H26.2566V41.2627C26.2566 40.9144 26.2875 40.6556 26.3494 40.4863C26.434 40.2585 26.5821 40.0745 26.7937 39.9346C27.0085 39.7913 27.308 39.7197 27.6921 39.7197C27.9395 39.7197 28.213 39.749 28.5125 39.8076L28.3806 40.5742C28.1983 40.5417 28.0258 40.5254 27.863 40.5254C27.5961 40.5254 27.4073 40.5824 27.2966 40.6963C27.186 40.8102 27.1306 41.0234 27.1306 41.3359V41.8145H28.1414V42.498H27.1306V47H26.2566ZM28.8347 40.8525V39.8418H29.7136V40.8525H28.8347ZM28.8347 47V41.8145H29.7136V47H28.8347ZM34.4402 46.3604C34.1147 46.637 33.8005 46.8324 33.4978 46.9463C33.1983 47.0602 32.8761 47.1172 32.531 47.1172C31.9613 47.1172 31.5235 46.9788 31.2175 46.7021C30.9115 46.4222 30.7585 46.0658 30.7585 45.6328C30.7585 45.3789 30.8155 45.1478 30.9294 44.9395C31.0466 44.7279 31.198 44.5586 31.3835 44.4316C31.5723 44.3047 31.7839 44.2087 32.0183 44.1436C32.1908 44.098 32.4513 44.054 32.7996 44.0117C33.5092 43.9271 34.0317 43.8262 34.3669 43.709C34.3702 43.5885 34.3718 43.512 34.3718 43.4795C34.3718 43.1214 34.2888 42.8691 34.1228 42.7227C33.8982 42.5241 33.5645 42.4248 33.1218 42.4248C32.7084 42.4248 32.4024 42.498 32.2039 42.6445C32.0085 42.7878 31.8637 43.0433 31.7693 43.4111L30.9099 43.2939C30.988 42.9261 31.1166 42.6299 31.2957 42.4053C31.4747 42.1774 31.7335 42.0033 32.072 41.8828C32.4106 41.7591 32.8028 41.6973 33.2488 41.6973C33.6915 41.6973 34.0512 41.7493 34.3279 41.8535C34.6046 41.9577 34.808 42.0895 34.9382 42.249C35.0684 42.4053 35.1596 42.6038 35.2117 42.8447C35.241 42.9945 35.2556 43.2646 35.2556 43.6553V44.8271C35.2556 45.6442 35.2735 46.1618 35.3093 46.3799C35.3484 46.5947 35.4233 46.8014 35.5339 47H34.616C34.5248 46.8177 34.4662 46.6045 34.4402 46.3604ZM34.3669 44.3975C34.0479 44.5277 33.5694 44.6383 32.9314 44.7295C32.5701 44.7816 32.3145 44.8402 32.1648 44.9053C32.0151 44.9704 31.8995 45.0664 31.8181 45.1934C31.7367 45.3171 31.696 45.4554 31.696 45.6084C31.696 45.8428 31.7839 46.0381 31.9597 46.1943C32.1388 46.3506 32.3992 46.4287 32.741 46.4287C33.0795 46.4287 33.3806 46.3555 33.6443 46.209C33.908 46.0592 34.1016 45.8558 34.2253 45.5986C34.3197 45.4001 34.3669 45.1071 34.3669 44.7197V44.3975ZM38.5417 46.2139L38.6687 46.9902C38.4213 47.0423 38.2 47.0684 38.0046 47.0684C37.6856 47.0684 37.4382 47.0179 37.2625 46.917C37.0867 46.8161 36.963 46.6842 36.8914 46.5215C36.8197 46.3555 36.7839 46.0088 36.7839 45.4814V42.498H36.1394V41.8145H36.7839V40.5303L37.658 40.0029V41.8145H38.5417V42.498H37.658V45.5303C37.658 45.7809 37.6726 45.9421 37.7019 46.0137C37.7345 46.0853 37.7849 46.1423 37.8533 46.1846C37.9249 46.2269 38.0258 46.248 38.156 46.248C38.2537 46.248 38.3822 46.2367 38.5417 46.2139ZM46.9988 39.8418H47.946V43.9775C47.946 44.6969 47.8647 45.2682 47.7019 45.6914C47.5391 46.1146 47.2445 46.4596 46.8181 46.7266C46.3949 46.9902 45.8383 47.1221 45.1482 47.1221C44.4776 47.1221 43.9291 47.0065 43.5027 46.7754C43.0763 46.5443 42.7719 46.2106 42.5896 45.7744C42.4073 45.335 42.3162 44.736 42.3162 43.9775V39.8418H43.2634V43.9727C43.2634 44.5944 43.3204 45.0534 43.4343 45.3496C43.5515 45.6426 43.7501 45.8688 44.03 46.0283C44.3132 46.1878 44.6583 46.2676 45.0652 46.2676C45.7618 46.2676 46.2582 46.1097 46.5544 45.7939C46.8507 45.4782 46.9988 44.8711 46.9988 43.9727V39.8418ZM49.2058 44.7002L50.0994 44.6221C50.1417 44.9801 50.2393 45.2747 50.3923 45.5059C50.5486 45.7337 50.7895 45.9193 51.115 46.0625C51.4405 46.2025 51.8067 46.2725 52.2136 46.2725C52.575 46.2725 52.894 46.2188 53.1707 46.1113C53.4473 46.0039 53.6524 45.8574 53.7859 45.6719C53.9226 45.4831 53.991 45.278 53.991 45.0566C53.991 44.832 53.9259 44.6367 53.7957 44.4707C53.6654 44.3014 53.4506 44.1598 53.1511 44.0459C52.9591 43.971 52.5343 43.8555 51.8767 43.6992C51.2192 43.5397 50.7585 43.39 50.4949 43.25C50.1531 43.071 49.8975 42.8496 49.7283 42.5859C49.5623 42.319 49.4792 42.0212 49.4792 41.6924C49.4792 41.3311 49.5818 40.9941 49.7869 40.6816C49.9919 40.3659 50.2914 40.1266 50.6853 39.9639C51.0792 39.8011 51.517 39.7197 51.9988 39.7197C52.5294 39.7197 52.9965 39.806 53.4001 39.9785C53.807 40.1478 54.1195 40.3984 54.3376 40.7305C54.5557 41.0625 54.6729 41.4385 54.6892 41.8584L53.781 41.9268C53.7322 41.4743 53.5662 41.1325 53.283 40.9014C53.003 40.6702 52.588 40.5547 52.0378 40.5547C51.4649 40.5547 51.0466 40.6605 50.783 40.8721C50.5225 41.0804 50.3923 41.3327 50.3923 41.6289C50.3923 41.8861 50.4851 42.0977 50.6707 42.2637C50.8529 42.4297 51.3282 42.6006 52.0964 42.7764C52.8679 42.9489 53.3969 43.1003 53.6833 43.2305C54.1 43.4225 54.4076 43.6667 54.6062 43.9629C54.8048 44.2559 54.9041 44.5944 54.9041 44.9785C54.9041 45.3594 54.795 45.7191 54.5769 46.0576C54.3588 46.3929 54.0447 46.6549 53.6345 46.8438C53.2276 47.0293 52.7686 47.1221 52.2576 47.1221C51.6098 47.1221 51.0662 47.0277 50.6267 46.8389C50.1905 46.6501 49.8471 46.3669 49.5964 45.9893C49.349 45.6084 49.2188 45.1787 49.2058 44.7002ZM56.198 47V39.8418H58.6638C59.2205 39.8418 59.6453 39.876 59.9382 39.9443C60.3484 40.0387 60.6983 40.2096 60.988 40.457C61.3656 40.776 61.6472 41.1846 61.8328 41.6826C62.0216 42.1774 62.116 42.7438 62.116 43.3818C62.116 43.9255 62.0525 44.4072 61.9255 44.8271C61.7986 45.2471 61.6358 45.5954 61.4373 45.8721C61.2387 46.1455 61.0206 46.362 60.783 46.5215C60.5486 46.6777 60.2638 46.7965 59.9285 46.8779C59.5964 46.9593 59.2139 47 58.781 47H56.198ZM57.1453 46.1553H58.6736C59.1456 46.1553 59.5151 46.1113 59.782 46.0234C60.0522 45.9355 60.267 45.8118 60.4265 45.6523C60.6511 45.4277 60.8253 45.1266 60.949 44.749C61.0759 44.3682 61.1394 43.9076 61.1394 43.3672C61.1394 42.6185 61.0157 42.0439 60.7683 41.6436C60.5242 41.2399 60.2263 40.9697 59.8748 40.833C59.6208 40.7354 59.2123 40.6865 58.6492 40.6865H57.1453V46.1553Z" fill="#9A9A9A"/>
<defs>
<filter id="filter0_i_199_96" x="0" y="0" width="162" height="84" filterUnits="userSpaceOnUse" color-interpolation-filters="sRGB">
<feFlood flood-opacity="0" result="BackgroundImageFix"/>
<feBlend mode="normal" in="SourceGraphic" in2="BackgroundImageFix" result="shape"/>
<feColorMatrix in="SourceAlpha" type="matrix" values="0 0 0 0 0 0 0 0 0 0 0 0 0 0 0 0 0 0 127 0" result="hardAlpha"/>
<feOffset dx="3" dy="3"/>
<feGaussianBlur stdDeviation="7.5"/>
<feComposite in2="hardAlpha" operator="arithmetic" k2="-1" k3="1"/>
<feColorMatrix type="matrix" values="0 0 0 0 0 0 0 0 0 0.616667 0 0 0 0 1 0 0 0 0.6 0"/>
<feBlend mode="normal" in2="shape" result="effect1_innerShadow_199_96"/>
</filter>
<linearGradient id="paint0_linear_199_96" x1="79.5" y1="0" x2="79.5" y2="74" gradientUnits="userSpaceOnUse">
<stop stop-color="#0065FE" stop-opacity="0.5"/>
<stop offset="1" stop-color="#024D9D" stop-opacity="0.5"/>
</linearGradient>
</defs>
</svg>
