<svg width="191" height="30" viewBox="0 0 191 30" fill="none" xmlns="http://www.w3.org/2000/svg">
<path d="M1.088 11V0.327999H3.36V11H1.088ZM5.4775 3.208H9.6055C10.2242 3.208 10.6935 3.256 11.0135 3.352C11.3442 3.43733 11.6428 3.59733 11.9095 3.832C12.4535 4.33333 12.7255 5.12267 12.7255 6.2V11H10.5815V5.96C10.5815 5.576 10.4962 5.29867 10.3255 5.128C10.1548 4.95733 9.87217 4.872 9.4775 4.872H7.6215V11H5.4775V3.208ZM21.4955 3.208V4.872H17.7035C17.2662 4.872 16.9888 4.89333 16.8715 4.936C16.6262 5.02133 16.5035 5.22933 16.5035 5.56C16.5035 5.83733 16.6208 6.05067 16.8555 6.2C16.9835 6.28533 17.3302 6.328 17.8955 6.328H19.1595C19.9702 6.328 20.6102 6.49867 21.0795 6.84C21.6022 7.224 21.8635 7.78933 21.8635 8.536C21.8635 9.10133 21.7035 9.61867 21.3835 10.088C21.1488 10.4613 20.8608 10.7067 20.5195 10.824C20.1888 10.9413 19.6288 11 18.8395 11H14.4075V9.336H18.2315C18.7008 9.336 19.0208 9.33067 19.1915 9.32C19.5755 9.27733 19.7675 9.05867 19.7675 8.664C19.7675 8.344 19.6395 8.12533 19.3835 8.008C19.2555 7.944 18.9462 7.912 18.4555 7.912H17.1595C16.6475 7.912 16.2528 7.88 15.9755 7.816C15.7088 7.752 15.4582 7.63467 15.2235 7.464C14.9355 7.26133 14.7062 6.984 14.5355 6.632C14.3755 6.26933 14.2955 5.88533 14.2955 5.48C14.2955 4.70133 14.5782 4.08267 15.1435 3.624C15.4848 3.34667 16.0768 3.208 16.9195 3.208H21.4955ZM24.0691 3.208V0.327999H26.2131V3.208H28.1971V4.872H26.2131V7.704C26.2131 8.36533 26.2718 8.78133 26.3891 8.952C26.5705 9.208 26.8905 9.336 27.3491 9.336H28.1971V11H26.6451C25.7171 11 25.0558 10.776 24.6611 10.328C24.2665 9.88 24.0691 9.128 24.0691 8.072V4.872H22.7091V3.208H24.0691ZM29.6494 3.208H31.7934V11H29.6494V3.208ZM29.6494 2.408V0.327999H31.7934V2.408H29.6494ZM34.4754 3.208V0.327999H36.6194V3.208H38.6034V4.872H36.6194V7.704C36.6194 8.36533 36.678 8.78133 36.7954 8.952C36.9767 9.208 37.2967 9.336 37.7554 9.336H38.6034V11H37.0514C36.1234 11 35.462 10.776 35.0674 10.328C34.6727 9.88 34.4754 9.128 34.4754 8.072V4.872H33.1154V3.208H34.4754ZM45.1436 9.336V3.208H47.2876V11H43.0636C42.4556 11 41.9863 10.9573 41.6556 10.872C41.325 10.776 41.0316 10.6107 40.7756 10.376C40.2316 9.88533 39.9596 9.09067 39.9596 7.992V3.208H42.0876V8.216C42.0876 8.568 42.1783 8.84533 42.3596 9.048C42.5516 9.24 42.8076 9.336 43.1276 9.336H45.1436ZM49.9598 3.208V0.327999H52.1038V3.208H54.0878V4.872H52.1038V7.704C52.1038 8.36533 52.1624 8.78133 52.2798 8.952C52.4611 9.208 52.7811 9.336 53.2398 9.336H54.0878V11H52.5358C51.6078 11 50.9464 10.776 50.5518 10.328C50.1571 9.88 49.9598 9.128 49.9598 8.072V4.872H48.5998V3.208H49.9598ZM55.54 3.208H57.684V11H55.54V3.208ZM55.54 2.408V0.327999H57.684V2.408H55.54ZM63.39 3.096C64.83 3.096 65.8913 3.512 66.574 4.344C67.2033 5.10133 67.518 6.056 67.518 7.208C67.518 8.424 67.1233 9.39467 66.334 10.12C65.6087 10.7813 64.6167 11.112 63.358 11.112C62.0567 11.112 61.038 10.7387 60.302 9.992C59.6193 9.32 59.278 8.33867 59.278 7.048C59.278 5.96 59.6033 5.05333 60.254 4.328C60.9793 3.51733 62.0247 3.10667 63.39 3.096ZM63.406 4.728C62.1153 4.728 61.47 5.528 61.47 7.128C61.47 7.77867 61.5767 8.27467 61.79 8.616C62.142 9.192 62.686 9.48 63.422 9.48C64.6913 9.48 65.326 8.68533 65.326 7.096C65.326 5.53867 64.686 4.74933 63.406 4.728ZM69.1025 3.208H73.2305C73.8492 3.208 74.3185 3.256 74.6385 3.352C74.9692 3.43733 75.2678 3.59733 75.5345 3.832C76.0785 4.33333 76.3505 5.12267 76.3505 6.2V11H74.2065V5.96C74.2065 5.576 74.1212 5.29867 73.9505 5.128C73.7798 4.95733 73.4972 4.872 73.1025 4.872H71.2465V11H69.1025V3.208ZM83.7285 6.264C83.7285 5.72 83.6165 5.352 83.3925 5.16C83.1792 4.968 82.7472 4.872 82.0965 4.872H78.4805V3.208H82.0965C82.7472 3.208 83.1952 3.224 83.4405 3.256C83.6858 3.27733 83.9365 3.32533 84.1925 3.4C85.3765 3.848 85.9365 4.92 85.8725 6.616V11H81.3605C80.5498 11 79.9898 10.9787 79.6805 10.936C79.3712 10.8827 79.0992 10.7813 78.8645 10.632C78.2352 10.2053 77.9205 9.56 77.9205 8.696C77.9205 8.17333 78.0432 7.70933 78.2885 7.304C78.5445 6.888 78.8805 6.60533 79.2965 6.456C79.6592 6.328 80.2618 6.264 81.1045 6.264H83.7285ZM83.7285 7.928H81.2645H80.8965C80.6512 7.928 80.4538 7.992 80.3045 8.12C80.1658 8.248 80.0965 8.424 80.0965 8.648C80.0965 8.89333 80.1818 9.06933 80.3525 9.176C80.5338 9.28267 80.8378 9.336 81.2645 9.336H83.7285V7.928ZM90.0121 11H87.8681V0.327999H90.0121V11ZM108.278 9.096V11H104.55C103.846 11 103.307 10.9627 102.934 10.888C101.622 10.632 100.689 9.90133 100.134 8.696C99.7715 7.88533 99.5901 6.88267 99.5901 5.688C99.5901 4.25867 99.8675 3.096 100.422 2.2C100.827 1.54933 101.366 1.07467 102.038 0.775999C102.721 0.477332 103.595 0.327999 104.662 0.327999H108.278V2.232H104.918C103.905 2.232 103.163 2.504 102.694 3.048C102.299 3.496 102.102 4.30667 102.102 5.48C102.102 7.05867 102.406 8.09333 103.014 8.584C103.441 8.92533 104.107 9.096 105.014 9.096H108.278ZM114.909 9.336V3.208H117.053V11H112.829C112.221 11 111.752 10.9573 111.421 10.872C111.091 10.776 110.797 10.6107 110.541 10.376C109.997 9.88533 109.725 9.09067 109.725 7.992V3.208H111.853V8.216C111.853 8.568 111.944 8.84533 112.125 9.048C112.317 9.24 112.573 9.336 112.893 9.336H114.909ZM125.917 3.208V4.872H122.125C121.688 4.872 121.411 4.89333 121.293 4.936C121.048 5.02133 120.925 5.22933 120.925 5.56C120.925 5.83733 121.043 6.05067 121.277 6.2C121.405 6.28533 121.752 6.328 122.317 6.328H123.581C124.392 6.328 125.032 6.49867 125.501 6.84C126.024 7.224 126.285 7.78933 126.285 8.536C126.285 9.10133 126.125 9.61867 125.805 10.088C125.571 10.4613 125.283 10.7067 124.941 10.824C124.611 10.9413 124.051 11 123.261 11H118.829V9.336H122.653C123.123 9.336 123.443 9.33067 123.613 9.32C123.997 9.27733 124.189 9.05867 124.189 8.664C124.189 8.344 124.061 8.12533 123.805 8.008C123.677 7.944 123.368 7.912 122.877 7.912H121.581C121.069 7.912 120.675 7.88 120.397 7.816C120.131 7.752 119.88 7.63467 119.645 7.464C119.357 7.26133 119.128 6.984 118.957 6.632C118.797 6.26933 118.717 5.88533 118.717 5.48C118.717 4.70133 119 4.08267 119.565 3.624C119.907 3.34667 120.499 3.208 121.341 3.208H125.917ZM128.491 3.208V0.327999H130.635V3.208H132.619V4.872H130.635V7.704C130.635 8.36533 130.694 8.78133 130.811 8.952C130.992 9.208 131.312 9.336 131.771 9.336H132.619V11H131.067C130.139 11 129.478 10.776 129.083 10.328C128.688 9.88 128.491 9.128 128.491 8.072V4.872H127.131V3.208H128.491ZM137.671 3.096C139.111 3.096 140.173 3.512 140.855 4.344C141.485 5.10133 141.799 6.056 141.799 7.208C141.799 8.424 141.405 9.39467 140.615 10.12C139.89 10.7813 138.898 11.112 137.639 11.112C136.338 11.112 135.319 10.7387 134.583 9.992C133.901 9.32 133.559 8.33867 133.559 7.048C133.559 5.96 133.885 5.05333 134.535 4.328C135.261 3.51733 136.306 3.10667 137.671 3.096ZM137.687 4.728C136.397 4.728 135.751 5.528 135.751 7.128C135.751 7.77867 135.858 8.27467 136.071 8.616C136.423 9.192 136.967 9.48 137.703 9.48C138.973 9.48 139.607 8.68533 139.607 7.096C139.607 5.53867 138.967 4.74933 137.687 4.728ZM148.616 3.208V0.327999H150.744V11H147.064C146.317 11 145.752 10.9413 145.368 10.824C144.461 10.536 143.784 9.97067 143.336 9.128C143.026 8.56267 142.872 7.86933 142.872 7.048C142.872 5.71467 143.32 4.68 144.216 3.944C144.802 3.45333 145.597 3.208 146.6 3.208H148.616ZM148.616 9.336V4.872H147.064C146.381 4.872 145.864 5.10133 145.512 5.56C145.202 5.944 145.048 6.44 145.048 7.048C145.048 7.93333 145.304 8.568 145.816 8.952C146.168 9.208 146.584 9.336 147.064 9.336H148.616ZM157.941 9.336V3.208H160.085V10.84C160.085 11.8533 159.818 12.5947 159.285 13.064C158.752 13.5333 157.904 13.768 156.741 13.768H152.917V12.104H156.741C157.2 12.104 157.498 12.056 157.637 11.96C157.744 11.896 157.813 11.8107 157.845 11.704C157.877 11.608 157.909 11.3733 157.941 11H156.037C153.84 11.0533 152.8 9.90667 152.917 7.56V3.208H155.061V7.352C155.061 8.16267 155.13 8.696 155.269 8.952C155.418 9.208 155.722 9.336 156.181 9.336H157.941ZM5.504 27.336V21.208H7.648V27.336H9.952V21.208H12.08V29H4.208C3.49333 29 2.94933 28.9467 2.576 28.84C2.20267 28.7333 1.89333 28.5467 1.648 28.28C1.17867 27.768 0.944 27.064 0.944 26.168V21.208H3.072V25.832C3.072 26.2053 3.088 26.4667 3.12 26.616C3.16267 26.7653 3.23733 26.8987 3.344 27.016C3.568 27.2293 3.904 27.336 4.352 27.336H5.504ZM14.1963 21.208H16.3403V29H14.1963V21.208ZM14.1963 20.408V18.328H16.3403V20.408H14.1963ZM19.0223 21.208V18.328H21.1663V21.208H23.1503V22.872H21.1663V25.704C21.1663 26.3653 21.2249 26.7813 21.3423 26.952C21.5236 27.208 21.8436 27.336 22.3023 27.336H23.1503V29H21.5983C20.6703 29 20.0089 28.776 19.6143 28.328C19.2196 27.88 19.0223 27.128 19.0223 26.072V22.872H17.6623V21.208H19.0223ZM26.7465 18.328V21.208H28.9385C29.5892 21.208 30.0958 21.2613 30.4585 21.368C30.8318 21.464 31.1465 21.64 31.4025 21.896C31.8932 22.344 32.1385 23.096 32.1385 24.152V29H29.9945V24.568C29.9945 24.152 29.9732 23.8587 29.9305 23.688C29.8985 23.5067 29.8238 23.352 29.7065 23.224C29.4932 23 29.0878 22.8827 28.4905 22.872H26.7465V29H24.6025V18.328H26.7465ZM42.1818 29V18.328H44.4538V29H42.1818ZM46.5713 21.208H50.6993C51.3179 21.208 51.7873 21.256 52.1073 21.352C52.4379 21.4373 52.7366 21.5973 53.0033 21.832C53.5473 22.3333 53.8193 23.1227 53.8193 24.2V29H51.6753V23.96C51.6753 23.576 51.5899 23.2987 51.4193 23.128C51.2486 22.9573 50.9659 22.872 50.5713 22.872H48.7153V29H46.5713V21.208ZM56.3973 21.208V18.328H58.5413V21.208H60.5253V22.872H58.5413V25.704C58.5413 26.3653 58.5999 26.7813 58.7173 26.952C58.8986 27.208 59.2186 27.336 59.6773 27.336H60.5253V29H58.9733C58.0453 29 57.3839 28.776 56.9893 28.328C56.5946 27.88 56.3973 27.128 56.3973 26.072V22.872H55.0373V21.208H56.3973ZM68.3455 24.264V25.928H63.8335C63.8762 26.44 64.0415 26.8027 64.3295 27.016C64.6175 27.2293 65.0868 27.336 65.7375 27.336H68.3455V29H65.4975C64.8788 29 64.3722 28.9467 63.9775 28.84C63.5935 28.7227 63.2308 28.536 62.8895 28.28C61.9402 27.544 61.4655 26.4507 61.4655 25C61.4655 24.0613 61.7162 23.24 62.2175 22.536C62.5588 22.056 62.9695 21.7147 63.4495 21.512C63.9295 21.3093 64.5588 21.208 65.3375 21.208H68.3455V22.872H65.4975C64.9108 22.872 64.5002 22.9733 64.2655 23.176C64.0308 23.368 63.8868 23.7307 63.8335 24.264H68.3455ZM70.0869 21.208H73.2549C73.9055 21.208 74.4069 21.256 74.7589 21.352C75.1215 21.4373 75.4202 21.5867 75.6549 21.8C75.8895 22.0133 76.0549 22.28 76.1509 22.6C76.2469 22.92 76.2949 23.3787 76.2949 23.976V24.728H74.2309V24.312C74.2309 23.7573 74.1349 23.3787 73.9429 23.176C73.7509 22.9733 73.3829 22.872 72.8389 22.872H72.2309V29H70.0869V21.208ZM82.9473 24.264C82.9473 23.72 82.8353 23.352 82.6113 23.16C82.3979 22.968 81.9659 22.872 81.3153 22.872H77.6993V21.208H81.3153C81.9659 21.208 82.4139 21.224 82.6593 21.256C82.9046 21.2773 83.1553 21.3253 83.4113 21.4C84.5953 21.848 85.1553 22.92 85.0913 24.616V29H80.5793C79.7686 29 79.2086 28.9787 78.8993 28.936C78.5899 28.8827 78.3179 28.7813 78.0833 28.632C77.4539 28.2053 77.1393 27.56 77.1393 26.696C77.1393 26.1733 77.2619 25.7093 77.5073 25.304C77.7633 24.888 78.0993 24.6053 78.5153 24.456C78.8779 24.328 79.4806 24.264 80.3233 24.264H82.9473ZM82.9473 25.928H80.4833H80.1153C79.8699 25.928 79.6726 25.992 79.5233 26.12C79.3846 26.248 79.3153 26.424 79.3153 26.648C79.3153 26.8933 79.4006 27.0693 79.5713 27.176C79.7526 27.2827 80.0566 27.336 80.4833 27.336H82.9473V25.928ZM93.5989 21.208V22.872H91.0389C90.1749 22.872 89.5775 23.064 89.2469 23.448C88.9269 23.8107 88.7669 24.3653 88.7669 25.112C88.7669 25.944 89.0282 26.552 89.5509 26.936C89.7642 27.0853 89.9935 27.192 90.2389 27.256C90.4949 27.3093 90.8469 27.336 91.2949 27.336H93.5989V29H90.6709C89.8815 29 89.2575 28.92 88.7989 28.76C88.3402 28.6 87.9349 28.3227 87.5829 27.928C86.9109 27.1813 86.5749 26.232 86.5749 25.08C86.5749 23.6933 86.9749 22.6587 87.7749 21.976C88.0949 21.6987 88.4789 21.5013 88.9269 21.384C89.3749 21.2667 89.9562 21.208 90.6709 21.208H93.5989ZM95.8035 21.208V18.328H97.9475V21.208H99.9315V22.872H97.9475V25.704C97.9475 26.3653 98.0062 26.7813 98.1235 26.952C98.3048 27.208 98.6248 27.336 99.0835 27.336H99.9315V29H98.3795C97.4515 29 96.7902 28.776 96.3955 28.328C96.0008 27.88 95.8035 27.128 95.8035 26.072V22.872H94.4435V21.208H95.8035ZM101.384 21.208H103.528V29H101.384V21.208ZM101.384 20.408V18.328H103.528V20.408H101.384ZM109.01 26.568L111.186 21.208H113.458L110.098 29H107.794L104.69 21.208H107.026L109.01 26.568ZM120.971 24.264V25.928H116.459C116.501 26.44 116.667 26.8027 116.955 27.016C117.243 27.2293 117.712 27.336 118.363 27.336H120.971V29H118.123C117.504 29 116.997 28.9467 116.603 28.84C116.219 28.7227 115.856 28.536 115.515 28.28C114.565 27.544 114.09 26.4507 114.09 25C114.09 24.0613 114.341 23.24 114.843 22.536C115.184 22.056 115.595 21.7147 116.075 21.512C116.555 21.3093 117.184 21.208 117.963 21.208H120.971V22.872H118.123C117.536 22.872 117.125 22.9733 116.891 23.176C116.656 23.368 116.512 23.7307 116.459 24.264H120.971ZM130.76 29V18.328H136.792C137.741 18.328 138.429 18.44 138.856 18.664C139.357 18.9093 139.736 19.32 139.992 19.896C140.173 20.2907 140.264 20.7013 140.264 21.128C140.264 21.6827 140.115 22.2 139.816 22.68C139.528 23.16 139.16 23.4907 138.712 23.672C139.747 24.1413 140.264 24.9787 140.264 26.184C140.264 26.8773 140.099 27.4587 139.768 27.928C139.48 28.3333 139.112 28.616 138.664 28.776C138.216 28.9253 137.549 29 136.664 29H130.76ZM133.032 22.712H136.12C136.451 22.712 136.685 22.696 136.824 22.664C136.973 22.632 137.117 22.5627 137.256 22.456C137.587 22.2 137.752 21.848 137.752 21.4C137.752 20.9733 137.597 20.6587 137.288 20.456C137.064 20.3067 136.691 20.232 136.168 20.232H133.032V22.712ZM133.032 27.096H136.12C136.451 27.096 136.691 27.08 136.84 27.048C136.989 27.016 137.128 26.9467 137.256 26.84C137.587 26.584 137.752 26.232 137.752 25.784C137.752 25.3573 137.597 25.0427 137.288 24.84C137.064 24.6907 136.691 24.616 136.168 24.616H133.032V27.096ZM141.884 21.208H145.052C145.702 21.208 146.204 21.256 146.556 21.352C146.918 21.4373 147.217 21.5867 147.452 21.8C147.686 22.0133 147.852 22.28 147.948 22.6C148.044 22.92 148.092 23.3787 148.092 23.976V24.728H146.028V24.312C146.028 23.7573 145.932 23.3787 145.74 23.176C145.548 22.9733 145.18 22.872 144.636 22.872H144.028V29H141.884V21.208ZM152.968 21.096C154.408 21.096 155.469 21.512 156.152 22.344C156.781 23.1013 157.096 24.056 157.096 25.208C157.096 26.424 156.701 27.3947 155.912 28.12C155.187 28.7813 154.195 29.112 152.936 29.112C151.635 29.112 150.616 28.7387 149.88 27.992C149.197 27.32 148.856 26.3387 148.856 25.048C148.856 23.96 149.181 23.0533 149.832 22.328C150.557 21.5173 151.603 21.1067 152.968 21.096ZM152.984 22.728C151.693 22.728 151.048 23.528 151.048 25.128C151.048 25.7787 151.155 26.2747 151.368 26.616C151.72 27.192 152.264 27.48 153 27.48C154.269 27.48 154.904 26.6853 154.904 25.096C154.904 23.5387 154.264 22.7493 152.984 22.728ZM160.825 18.328V24.296L163.689 21.208H166.089L163.049 24.296H163.625C164.371 24.296 164.889 24.5147 165.177 24.952C165.465 25.3893 165.609 26.1627 165.609 27.272V29H163.465V27.176C163.465 26.6853 163.385 26.36 163.225 26.2C163.065 26.0293 162.75 25.944 162.281 25.944H160.825V29H158.681V18.328H160.825ZM173.736 24.264V25.928H169.224C169.267 26.44 169.432 26.8027 169.72 27.016C170.008 27.2293 170.477 27.336 171.128 27.336H173.736V29H170.888C170.269 29 169.763 28.9467 169.368 28.84C168.984 28.7227 168.621 28.536 168.28 28.28C167.331 27.544 166.856 26.4507 166.856 25C166.856 24.0613 167.107 23.24 167.608 22.536C167.949 22.056 168.36 21.7147 168.84 21.512C169.32 21.3093 169.949 21.208 170.728 21.208H173.736V22.872H170.888C170.301 22.872 169.891 22.9733 169.656 23.176C169.421 23.368 169.277 23.7307 169.224 24.264H173.736ZM175.478 21.208H178.646C179.296 21.208 179.798 21.256 180.15 21.352C180.512 21.4373 180.811 21.5867 181.046 21.8C181.28 22.0133 181.446 22.28 181.542 22.6C181.638 22.92 181.686 23.3787 181.686 23.976V24.728H179.622V24.312C179.622 23.7573 179.526 23.3787 179.334 23.176C179.142 22.9733 178.774 22.872 178.23 22.872H177.622V29H175.478V21.208ZM189.73 21.208V22.872H185.938C185.501 22.872 185.223 22.8933 185.106 22.936C184.861 23.0213 184.738 23.2293 184.738 23.56C184.738 23.8373 184.855 24.0507 185.09 24.2C185.218 24.2853 185.565 24.328 186.13 24.328H187.394C188.205 24.328 188.845 24.4987 189.314 24.84C189.837 25.224 190.098 25.7893 190.098 26.536C190.098 27.1013 189.938 27.6187 189.618 28.088C189.383 28.4613 189.095 28.7067 188.754 28.824C188.423 28.9413 187.863 29 187.074 29H182.642V27.336H186.466C186.935 27.336 187.255 27.3307 187.426 27.32C187.81 27.2773 188.002 27.0587 188.002 26.664C188.002 26.344 187.874 26.1253 187.618 26.008C187.49 25.944 187.181 25.912 186.69 25.912H185.394C184.882 25.912 184.487 25.88 184.21 25.816C183.943 25.752 183.693 25.6347 183.458 25.464C183.17 25.2613 182.941 24.984 182.77 24.632C182.61 24.2693 182.53 23.8853 182.53 23.48C182.53 22.7013 182.813 22.0827 183.378 21.624C183.719 21.3467 184.311 21.208 185.154 21.208H189.73Z" fill="url(#paint0_linear_199_75)"/>
<defs>
<linearGradient id="paint0_linear_199_75" x1="43.5" y1="-8" x2="43.244" y2="26.6861" gradientUnits="userSpaceOnUse">
<stop stop-color="#1BFFE4"/>
<stop offset="1" stop-color="#3183FF"/>
</linearGradient>
</defs>
</svg>
