<svg width="158" height="81" viewBox="0 0 158 81" fill="none" xmlns="http://www.w3.org/2000/svg">
<g filter="url(#filter0_i_199_111)">
<path d="M0 4C0 1.79086 1.79086 0 4 0H154C156.209 0 158 1.79086 158 4V77C158 79.2091 156.209 81 154 81H4C1.79086 81 0 79.2091 0 77V4Z" fill="url(#paint0_linear_199_111)"/>
</g>
<path d="M133.756 55.528C135.748 55.528 137.308 56.344 138.436 58.024C139.492 59.608 140.02 61.744 140.02 64.432C140.02 67.12 139.492 69.256 138.436 70.84C137.308 72.496 135.748 73.336 133.756 73.336C131.74 73.336 130.18 72.496 129.076 70.84C128.02 69.256 127.492 67.12 127.492 64.432C127.492 61.744 128.02 59.608 129.076 58.024C130.18 56.344 131.74 55.528 133.756 55.528ZM133.756 57.904C132.388 57.904 131.428 58.648 130.876 60.184C130.492 61.216 130.3 62.632 130.3 64.432C130.3 66.208 130.492 67.624 130.876 68.68C131.428 70.192 132.388 70.96 133.756 70.96C135.1 70.96 136.06 70.192 136.636 68.68C137.02 67.624 137.212 66.208 137.212 64.432C137.212 62.632 137.02 61.216 136.636 60.184C136.06 58.648 135.1 57.904 133.756 57.904ZM148.314 55.528C150.042 55.528 151.458 55.936 152.514 56.776C153.546 57.616 154.074 58.768 154.074 60.256C154.074 62.128 153.114 63.376 151.218 64C152.226 64.312 153.018 64.768 153.546 65.392C154.122 66.04 154.41 66.88 154.41 67.888C154.41 69.472 153.858 70.768 152.754 71.776C151.602 72.808 150.09 73.336 148.218 73.336C146.442 73.336 145.002 72.88 143.922 71.968C142.722 70.96 142.05 69.472 141.906 67.552H144.762C144.81 68.656 145.146 69.52 145.818 70.12C146.418 70.672 147.21 70.96 148.194 70.96C149.274 70.96 150.138 70.648 150.762 70.048C151.314 69.496 151.602 68.824 151.602 68.008C151.602 67.024 151.29 66.304 150.714 65.848C150.138 65.368 149.298 65.152 148.194 65.152H146.994V63.04H148.194C149.202 63.04 149.97 62.824 150.498 62.392C151.002 61.96 151.266 61.312 151.266 60.472C151.266 59.632 151.026 59.008 150.57 58.576C150.066 58.144 149.322 57.928 148.338 57.928C147.33 57.928 146.562 58.168 146.01 58.672C145.434 59.176 145.098 59.944 145.002 60.976H142.242C142.386 59.248 143.01 57.904 144.162 56.944C145.242 55.984 146.634 55.528 148.314 55.528Z" fill="#93CBFF" fill-opacity="0.5"/>
<path d="M12.5911 25.7803L13.842 25.6709C13.9013 26.1722 14.038 26.5846 14.2522 26.9082C14.4709 27.2272 14.8082 27.487 15.2639 27.6875C15.7196 27.8835 16.2323 27.9814 16.802 27.9814C17.3079 27.9814 17.7545 27.9062 18.1418 27.7559C18.5292 27.6055 18.8163 27.4004 19.0032 27.1406C19.1946 26.8763 19.2903 26.5892 19.2903 26.2793C19.2903 25.9648 19.1991 25.6914 19.0168 25.459C18.8346 25.222 18.5338 25.0238 18.1145 24.8643C17.8456 24.7594 17.2509 24.5977 16.3303 24.3789C15.4097 24.1556 14.7649 23.946 14.3958 23.75C13.9172 23.4993 13.5595 23.1895 13.3225 22.8203C13.0901 22.4466 12.9739 22.0296 12.9739 21.5693C12.9739 21.0635 13.1174 20.5918 13.4045 20.1543C13.6917 19.7122 14.1109 19.3773 14.6624 19.1494C15.2138 18.9215 15.8267 18.8076 16.5012 18.8076C17.2441 18.8076 17.898 18.9284 18.4631 19.1699C19.0328 19.4069 19.4703 19.7578 19.7756 20.2227C20.081 20.6875 20.245 21.2139 20.2678 21.8018L18.9963 21.8975C18.928 21.264 18.6956 20.7855 18.2991 20.4619C17.9071 20.1383 17.3261 19.9766 16.5559 19.9766C15.7538 19.9766 15.1682 20.1247 14.7991 20.4209C14.4345 20.7126 14.2522 21.0658 14.2522 21.4805C14.2522 21.8405 14.3821 22.1367 14.6418 22.3691C14.8971 22.6016 15.5624 22.8408 16.6379 23.0869C17.718 23.3285 18.4586 23.5404 18.8596 23.7227C19.443 23.9915 19.8736 24.3333 20.1516 24.748C20.4296 25.1582 20.5686 25.6322 20.5686 26.1699C20.5686 26.7031 20.4159 27.2067 20.1106 27.6807C19.8053 28.1501 19.3655 28.5169 18.7913 28.7812C18.2216 29.041 17.579 29.1709 16.8635 29.1709C15.9566 29.1709 15.1956 29.0387 14.5803 28.7744C13.9696 28.5101 13.4889 28.1136 13.1379 27.585C12.7916 27.0518 12.6093 26.4502 12.5911 25.7803ZM24.9094 27.8994L25.0872 28.9863C24.7408 29.0592 24.4309 29.0957 24.1575 29.0957C23.7109 29.0957 23.3645 29.0251 23.1184 28.8838C22.8723 28.7425 22.6991 28.5579 22.5989 28.3301C22.4986 28.0977 22.4485 27.6123 22.4485 26.874V22.6973H21.5461V21.7402H22.4485V19.9424L23.6721 19.2041V21.7402H24.9094V22.6973H23.6721V26.9424C23.6721 27.2933 23.6926 27.5189 23.7336 27.6191C23.7792 27.7194 23.8499 27.7992 23.9456 27.8584C24.0458 27.9176 24.1871 27.9473 24.3694 27.9473C24.5061 27.9473 24.6861 27.9313 24.9094 27.8994ZM25.6614 25.3701C25.6614 24.0257 26.0351 23.0299 26.7825 22.3828C27.4068 21.8451 28.1679 21.5762 29.0657 21.5762C30.0637 21.5762 30.8795 21.9043 31.5129 22.5605C32.1464 23.2122 32.4631 24.1146 32.4631 25.2676C32.4631 26.2018 32.3219 26.9378 32.0393 27.4756C31.7613 28.0088 31.3534 28.4235 30.8157 28.7197C30.2825 29.016 29.6991 29.1641 29.0657 29.1641C28.0494 29.1641 27.2268 28.8382 26.5979 28.1865C25.9736 27.5348 25.6614 26.596 25.6614 25.3701ZM26.926 25.3701C26.926 26.2998 27.1288 26.9971 27.5344 27.4619C27.94 27.9222 28.4504 28.1523 29.0657 28.1523C29.6764 28.1523 30.1845 27.9199 30.5901 27.4551C30.9957 26.9902 31.1985 26.2816 31.1985 25.3291C31.1985 24.4313 30.9934 23.7523 30.5833 23.292C30.1777 22.8271 29.6718 22.5947 29.0657 22.5947C28.4504 22.5947 27.94 22.8249 27.5344 23.2852C27.1288 23.7454 26.926 24.4404 26.926 25.3701ZM38.6497 26.3408L39.8596 26.498C39.7275 27.332 39.3879 27.986 38.8411 28.46C38.2987 28.9294 37.6311 29.1641 36.8381 29.1641C35.8446 29.1641 35.0448 28.8405 34.4387 28.1934C33.8372 27.5417 33.5364 26.6097 33.5364 25.3975C33.5364 24.6136 33.6663 23.9277 33.926 23.3398C34.1858 22.752 34.58 22.3122 35.1086 22.0205C35.6418 21.7243 36.2206 21.5762 36.845 21.5762C37.6334 21.5762 38.2782 21.7767 38.7795 22.1777C39.2808 22.5742 39.6021 23.1393 39.7434 23.873L38.5471 24.0576C38.4332 23.57 38.2304 23.2031 37.9387 22.957C37.6516 22.7109 37.303 22.5879 36.8928 22.5879C36.273 22.5879 35.7694 22.8112 35.3821 23.2578C34.9947 23.6999 34.801 24.4017 34.801 25.3633C34.801 26.3385 34.9879 27.0472 35.3616 27.4893C35.7353 27.9313 36.2229 28.1523 36.8245 28.1523C37.3075 28.1523 37.7109 28.0042 38.0344 27.708C38.358 27.4118 38.5631 26.9561 38.6497 26.3408ZM40.9192 29V18.9785H42.1497V24.6934L45.0618 21.7402H46.6545L43.8792 24.4336L46.9348 29H45.4172L43.0178 25.2881L42.1497 26.1221V29H40.9192ZM51.9661 29V18.9785H55.7463C56.4117 18.9785 56.9198 19.0104 57.2708 19.0742C57.7629 19.1562 58.1754 19.3135 58.5081 19.5459C58.8407 19.7738 59.1073 20.0951 59.3079 20.5098C59.5129 20.9245 59.6155 21.3802 59.6155 21.877C59.6155 22.7292 59.3443 23.4515 58.802 24.0439C58.2597 24.6318 57.2799 24.9258 55.8625 24.9258H53.2922V29H51.9661ZM53.2922 23.7432H55.8831C56.7398 23.7432 57.3482 23.5837 57.7083 23.2646C58.0683 22.9456 58.2483 22.4967 58.2483 21.918C58.2483 21.4987 58.1412 21.141 57.927 20.8447C57.7174 20.5439 57.4394 20.3457 57.093 20.25C56.8697 20.1908 56.4573 20.1611 55.8557 20.1611H53.2922V23.7432ZM65.9045 29V27.9336C65.3394 28.7539 64.5715 29.1641 63.6008 29.1641C63.1724 29.1641 62.7714 29.082 62.3977 28.918C62.0286 28.7539 61.7528 28.5488 61.5706 28.3027C61.3928 28.0521 61.2675 27.7467 61.1946 27.3867C61.1444 27.1452 61.1194 26.7624 61.1194 26.2383V21.7402H62.3499V25.7666C62.3499 26.4092 62.3749 26.8421 62.425 27.0654C62.5025 27.389 62.6666 27.6442 62.9172 27.8311C63.1679 28.0133 63.4778 28.1045 63.8469 28.1045C64.2161 28.1045 64.5624 28.0111 64.886 27.8242C65.2096 27.6328 65.4374 27.3753 65.5696 27.0518C65.7063 26.7236 65.7747 26.2497 65.7747 25.6299V21.7402H67.0051V29H65.9045ZM68.926 29V21.7402H70.0334V22.8408C70.316 22.3258 70.5758 21.9863 70.8127 21.8223C71.0543 21.6582 71.3186 21.5762 71.6057 21.5762C72.0204 21.5762 72.442 21.7083 72.8704 21.9727L72.4465 23.1143C72.1458 22.9365 71.845 22.8477 71.5442 22.8477C71.2753 22.8477 71.0338 22.9297 70.8196 23.0938C70.6054 23.2533 70.4527 23.4766 70.3616 23.7637C70.2249 24.2012 70.1565 24.6797 70.1565 25.1992V29H68.926ZM78.3391 26.3408L79.5491 26.498C79.4169 27.332 79.0774 27.986 78.5305 28.46C77.9882 28.9294 77.3206 29.1641 76.5276 29.1641C75.5341 29.1641 74.7343 28.8405 74.1282 28.1934C73.5266 27.5417 73.2258 26.6097 73.2258 25.3975C73.2258 24.6136 73.3557 23.9277 73.6155 23.3398C73.8752 22.752 74.2694 22.3122 74.7981 22.0205C75.3313 21.7243 75.9101 21.5762 76.5344 21.5762C77.3228 21.5762 77.9677 21.7767 78.469 22.1777C78.9703 22.5742 79.2916 23.1393 79.4329 23.873L78.2366 24.0576C78.1226 23.57 77.9198 23.2031 77.6282 22.957C77.3411 22.7109 76.9924 22.5879 76.5823 22.5879C75.9625 22.5879 75.4589 22.8112 75.0715 23.2578C74.6842 23.6999 74.4905 24.4017 74.4905 25.3633C74.4905 26.3385 74.6773 27.0472 75.051 27.4893C75.4247 27.9313 75.9124 28.1523 76.5139 28.1523C76.997 28.1523 77.4003 28.0042 77.7239 27.708C78.0474 27.4118 78.2525 26.9561 78.3391 26.3408ZM80.6018 29V18.9785H81.8323V22.5742C82.4065 21.9089 83.1311 21.5762 84.0061 21.5762C84.5439 21.5762 85.011 21.6833 85.4075 21.8975C85.804 22.1071 86.0865 22.3988 86.2551 22.7725C86.4283 23.1462 86.5149 23.6885 86.5149 24.3994V29H85.2844V24.3994C85.2844 23.7842 85.15 23.3376 84.8811 23.0596C84.6168 22.777 84.2408 22.6357 83.7532 22.6357C83.3886 22.6357 83.0445 22.7314 82.7209 22.9229C82.4019 23.1097 82.1741 23.3649 82.0374 23.6885C81.9006 24.012 81.8323 24.4587 81.8323 25.0283V29H80.6018ZM93.1321 28.1045C92.6764 28.4919 92.2366 28.7653 91.8127 28.9248C91.3935 29.0843 90.9423 29.1641 90.4592 29.1641C89.6617 29.1641 89.0487 28.9704 88.6204 28.583C88.192 28.1911 87.9778 27.6921 87.9778 27.0859C87.9778 26.7305 88.0575 26.4069 88.217 26.1152C88.3811 25.819 88.593 25.582 88.8528 25.4043C89.1171 25.2266 89.4133 25.0921 89.7415 25.001C89.983 24.9372 90.3476 24.8757 90.8352 24.8164C91.8287 24.6979 92.5601 24.5566 93.0295 24.3926C93.0341 24.224 93.0364 24.1169 93.0364 24.0713C93.0364 23.57 92.9202 23.2168 92.6877 23.0117C92.3733 22.7337 91.9062 22.5947 91.2864 22.5947C90.7076 22.5947 90.2792 22.6973 90.0012 22.9023C89.7278 23.1029 89.525 23.4606 89.3928 23.9756L88.1897 23.8115C88.2991 23.2965 88.4791 22.8818 88.7297 22.5674C88.9804 22.2484 89.3427 22.0046 89.8167 21.8359C90.2906 21.6628 90.8398 21.5762 91.4641 21.5762C92.0839 21.5762 92.5875 21.6491 92.9749 21.7949C93.3622 21.9408 93.6471 22.1253 93.8293 22.3486C94.0116 22.5674 94.1392 22.8454 94.2122 23.1826C94.2532 23.3923 94.2737 23.7705 94.2737 24.3174V25.958C94.2737 27.1019 94.2987 27.8265 94.3489 28.1318C94.4036 28.4326 94.5084 28.722 94.6633 29H93.3782C93.2506 28.7448 93.1685 28.4463 93.1321 28.1045ZM93.0295 25.3564C92.5829 25.5387 91.913 25.6937 91.0198 25.8213C90.5139 25.8942 90.1562 25.9762 89.9465 26.0674C89.7369 26.1585 89.5751 26.293 89.4612 26.4707C89.3472 26.6439 89.2903 26.8376 89.2903 27.0518C89.2903 27.3799 89.4133 27.6533 89.6594 27.8721C89.9101 28.0908 90.2747 28.2002 90.7532 28.2002C91.2271 28.2002 91.6487 28.0977 92.0178 27.8926C92.387 27.6829 92.6581 27.3981 92.8313 27.0381C92.9635 26.7601 93.0295 26.3499 93.0295 25.8076V25.3564ZM95.6956 26.833L96.9124 26.6416C96.9807 27.1292 97.1698 27.5029 97.4797 27.7627C97.7942 28.0225 98.2317 28.1523 98.7922 28.1523C99.3573 28.1523 99.7766 28.0384 100.05 27.8105C100.323 27.5781 100.46 27.307 100.46 26.9971C100.46 26.7191 100.339 26.5003 100.098 26.3408C99.9293 26.2314 99.51 26.0924 98.8401 25.9238C97.9377 25.696 97.3111 25.5 96.9602 25.3359C96.6139 25.1673 96.3495 24.9372 96.1672 24.6455C95.9895 24.3493 95.9006 24.0234 95.9006 23.668C95.9006 23.3444 95.9736 23.0459 96.1194 22.7725C96.2698 22.4945 96.4726 22.2643 96.7278 22.082C96.9192 21.9408 97.179 21.8223 97.5071 21.7266C97.8398 21.6263 98.1952 21.5762 98.5735 21.5762C99.1431 21.5762 99.6422 21.6582 100.071 21.8223C100.503 21.9863 100.823 22.2096 101.028 22.4922C101.233 22.7702 101.374 23.1439 101.451 23.6133L100.248 23.7773C100.194 23.4036 100.034 23.112 99.7698 22.9023C99.51 22.6927 99.1409 22.5879 98.6624 22.5879C98.0972 22.5879 97.6939 22.6813 97.4524 22.8682C97.2109 23.055 97.0901 23.2738 97.0901 23.5244C97.0901 23.6839 97.1402 23.8275 97.2405 23.9551C97.3407 24.0872 97.498 24.1966 97.7122 24.2832C97.8352 24.3288 98.1975 24.4336 98.7991 24.5977C99.6695 24.8301 100.276 25.0215 100.617 25.1719C100.964 25.3177 101.235 25.5319 101.431 25.8145C101.627 26.097 101.725 26.4479 101.725 26.8672C101.725 27.2773 101.604 27.6647 101.363 28.0293C101.126 28.3893 100.781 28.6696 100.33 28.8701C99.8792 29.0661 99.3687 29.1641 98.7991 29.1641C97.8557 29.1641 97.1357 28.9681 96.6389 28.5762C96.1467 28.1842 95.8323 27.6032 95.6956 26.833ZM108.157 26.6621L109.429 26.8193C109.228 27.5622 108.857 28.1387 108.315 28.5488C107.772 28.959 107.08 29.1641 106.237 29.1641C105.175 29.1641 104.332 28.8382 103.707 28.1865C103.087 27.5303 102.778 26.612 102.778 25.4316C102.778 24.2103 103.092 23.2624 103.721 22.5879C104.35 21.9134 105.166 21.5762 106.168 21.5762C107.139 21.5762 107.932 21.9066 108.547 22.5674C109.162 23.2282 109.47 24.1579 109.47 25.3564C109.47 25.4294 109.468 25.5387 109.463 25.6846H104.049C104.095 26.4821 104.32 27.0928 104.726 27.5166C105.131 27.9404 105.637 28.1523 106.243 28.1523C106.695 28.1523 107.08 28.0339 107.399 27.7969C107.718 27.5599 107.971 27.1816 108.157 26.6621ZM104.117 24.6729H108.171C108.116 24.0622 107.962 23.6042 107.706 23.2988C107.314 22.8249 106.806 22.5879 106.182 22.5879C105.617 22.5879 105.141 22.777 104.753 23.1553C104.37 23.5335 104.158 24.0394 104.117 24.6729Z" fill="white"/>
<path d="M12.7483 47V39.8418H15.9221C16.5601 39.8418 17.0452 39.9069 17.3772 40.0371C17.7092 40.1641 17.9745 40.3903 18.1731 40.7158C18.3717 41.0413 18.4709 41.401 18.4709 41.7949C18.4709 42.3027 18.3066 42.7308 17.9778 43.0791C17.649 43.4274 17.1412 43.6488 16.4543 43.7432C16.705 43.8636 16.8954 43.9824 17.0256 44.0996C17.3023 44.3535 17.5644 44.6709 17.8118 45.0518L19.0569 47H17.8655L16.9182 45.5107C16.6415 45.0811 16.4137 44.7523 16.2346 44.5244C16.0556 44.2965 15.8944 44.137 15.7512 44.0459C15.6112 43.9548 15.468 43.8913 15.3215 43.8555C15.2141 43.8327 15.0383 43.8213 14.7942 43.8213H13.6956V47H12.7483ZM13.6956 43.001H15.7317C16.1646 43.001 16.5032 42.957 16.7473 42.8691C16.9915 42.778 17.177 42.6348 17.304 42.4395C17.4309 42.2409 17.4944 42.026 17.4944 41.7949C17.4944 41.4564 17.3707 41.1781 17.1233 40.96C16.8792 40.7419 16.4918 40.6328 15.9612 40.6328H13.6956V43.001ZM23.3977 45.3301L24.3059 45.4424C24.1627 45.973 23.8974 46.3848 23.51 46.6777C23.1226 46.9707 22.6278 47.1172 22.0256 47.1172C21.2672 47.1172 20.665 46.8844 20.219 46.4189C19.7763 45.9502 19.5549 45.2943 19.5549 44.4512C19.5549 43.5788 19.7795 42.9017 20.2288 42.4199C20.678 41.9382 21.2607 41.6973 21.9768 41.6973C22.6702 41.6973 23.2366 41.9333 23.676 42.4053C24.1155 42.8773 24.3352 43.5413 24.3352 44.3975C24.3352 44.4495 24.3336 44.5277 24.3303 44.6318H20.4631C20.4957 45.2015 20.6568 45.6377 20.9465 45.9404C21.2362 46.2432 21.5976 46.3945 22.0305 46.3945C22.3528 46.3945 22.6278 46.3099 22.8557 46.1406C23.0836 45.9714 23.2642 45.7012 23.3977 45.3301ZM20.512 43.9092H23.4075C23.3684 43.473 23.2577 43.1458 23.0754 42.9277C22.7955 42.5892 22.4325 42.4199 21.9866 42.4199C21.5829 42.4199 21.2428 42.555 20.9661 42.8252C20.6926 43.0954 20.5413 43.4567 20.512 43.9092ZM28.7981 46.3604C28.4726 46.637 28.1584 46.8324 27.8557 46.9463C27.5562 47.0602 27.234 47.1172 26.8889 47.1172C26.3193 47.1172 25.8814 46.9788 25.5754 46.7021C25.2694 46.4222 25.1165 46.0658 25.1165 45.6328C25.1165 45.3789 25.1734 45.1478 25.2874 44.9395C25.4045 44.7279 25.5559 44.5586 25.7415 44.4316C25.9303 44.3047 26.1418 44.2087 26.3762 44.1436C26.5487 44.098 26.8092 44.054 27.1575 44.0117C27.8671 43.9271 28.3896 43.8262 28.7249 43.709C28.7281 43.5885 28.7297 43.512 28.7297 43.4795C28.7297 43.1214 28.6467 42.8691 28.4807 42.7227C28.2561 42.5241 27.9224 42.4248 27.4797 42.4248C27.0663 42.4248 26.7603 42.498 26.5618 42.6445C26.3665 42.7878 26.2216 43.0433 26.1272 43.4111L25.2678 43.2939C25.3459 42.9261 25.4745 42.6299 25.6536 42.4053C25.8326 42.1774 26.0914 42.0033 26.4299 41.8828C26.7685 41.7591 27.1607 41.6973 27.6067 41.6973C28.0494 41.6973 28.4091 41.7493 28.6858 41.8535C28.9625 41.9577 29.1659 42.0895 29.2961 42.249C29.4264 42.4053 29.5175 42.6038 29.5696 42.8447C29.5989 42.9945 29.6135 43.2646 29.6135 43.6553V44.8271C29.6135 45.6442 29.6314 46.1618 29.6672 46.3799C29.7063 46.5947 29.7812 46.8014 29.8918 47H28.9739C28.8827 46.8177 28.8241 46.6045 28.7981 46.3604ZM28.7249 44.3975C28.4058 44.5277 27.9273 44.6383 27.2893 44.7295C26.928 44.7816 26.6724 44.8402 26.5227 44.9053C26.373 44.9704 26.2574 45.0664 26.176 45.1934C26.0946 45.3171 26.054 45.4554 26.054 45.6084C26.054 45.8428 26.1418 46.0381 26.3176 46.1943C26.4967 46.3506 26.7571 46.4287 27.0989 46.4287C27.4374 46.4287 27.7385 46.3555 28.0022 46.209C28.2659 46.0592 28.4596 45.8558 28.5833 45.5986C28.6777 45.4001 28.7249 45.1071 28.7249 44.7197V44.3975ZM30.9612 47V39.8418H31.8401V47H30.9612ZM35.9905 47V41.8145H36.7766V42.542C36.9394 42.2881 37.1558 42.0846 37.426 41.9316C37.6962 41.7754 38.0038 41.6973 38.3489 41.6973C38.733 41.6973 39.0471 41.777 39.2913 41.9365C39.5387 42.096 39.7128 42.319 39.8137 42.6055C40.2239 42 40.7577 41.6973 41.4153 41.6973C41.9296 41.6973 42.3251 41.8405 42.6018 42.127C42.8785 42.4102 43.0168 42.848 43.0168 43.4404V47H42.1428V43.7334C42.1428 43.3818 42.1135 43.1296 42.0549 42.9766C41.9996 42.8203 41.8971 42.695 41.7473 42.6006C41.5976 42.5062 41.4218 42.459 41.22 42.459C40.8554 42.459 40.5527 42.5811 40.3118 42.8252C40.0709 43.0661 39.9504 43.4535 39.9504 43.9873V47H39.0715V43.6309C39.0715 43.2402 38.9999 42.9473 38.8567 42.752C38.7135 42.5566 38.4791 42.459 38.1536 42.459C37.9062 42.459 37.6767 42.5241 37.4651 42.6543C37.2568 42.7845 37.1054 42.9749 37.011 43.2256C36.9166 43.4762 36.8694 43.8376 36.8694 44.3096V47H35.9905ZM47.7043 46.3604C47.3788 46.637 47.0647 46.8324 46.762 46.9463C46.4625 47.0602 46.1402 47.1172 45.7952 47.1172C45.2255 47.1172 44.7877 46.9788 44.4817 46.7021C44.1757 46.4222 44.0227 46.0658 44.0227 45.6328C44.0227 45.3789 44.0797 45.1478 44.1936 44.9395C44.3108 44.7279 44.4622 44.5586 44.6477 44.4316C44.8365 44.3047 45.0481 44.2087 45.2825 44.1436C45.455 44.098 45.7154 44.054 46.0637 44.0117C46.7734 43.9271 47.2958 43.8262 47.6311 43.709C47.6344 43.5885 47.636 43.512 47.636 43.4795C47.636 43.1214 47.553 42.8691 47.387 42.7227C47.1624 42.5241 46.8287 42.4248 46.386 42.4248C45.9726 42.4248 45.6666 42.498 45.468 42.6445C45.2727 42.7878 45.1278 43.0433 45.0334 43.4111L44.1741 43.2939C44.2522 42.9261 44.3808 42.6299 44.5598 42.4053C44.7389 42.1774 44.9976 42.0033 45.3362 41.8828C45.6747 41.7591 46.067 41.6973 46.5129 41.6973C46.9556 41.6973 47.3153 41.7493 47.592 41.8535C47.8687 41.9577 48.0722 42.0895 48.2024 42.249C48.3326 42.4053 48.4237 42.6038 48.4758 42.8447C48.5051 42.9945 48.5198 43.2646 48.5198 43.6553V44.8271C48.5198 45.6442 48.5377 46.1618 48.5735 46.3799C48.6125 46.5947 48.6874 46.8014 48.7981 47H47.8801C47.789 46.8177 47.7304 46.6045 47.7043 46.3604ZM47.6311 44.3975C47.3121 44.5277 46.8336 44.6383 46.1956 44.7295C45.8342 44.7816 45.5787 44.8402 45.429 44.9053C45.2792 44.9704 45.1637 45.0664 45.0823 45.1934C45.0009 45.3171 44.9602 45.4554 44.9602 45.6084C44.9602 45.8428 45.0481 46.0381 45.2239 46.1943C45.4029 46.3506 45.6633 46.4287 46.0051 46.4287C46.3437 46.4287 46.6448 46.3555 46.9084 46.209C47.1721 46.0592 47.3658 45.8558 47.4895 45.5986C47.5839 45.4001 47.6311 45.1071 47.6311 44.7197V44.3975ZM49.8772 47V41.8145H50.6682V42.6006C50.87 42.2327 51.0556 41.9902 51.2249 41.873C51.3974 41.7559 51.5862 41.6973 51.7913 41.6973C52.0875 41.6973 52.3886 41.7917 52.6946 41.9805L52.3918 42.7959C52.177 42.6689 51.9622 42.6055 51.7473 42.6055C51.5553 42.6055 51.3827 42.6641 51.2297 42.7812C51.0767 42.8952 50.9677 43.0547 50.9026 43.2598C50.8049 43.5723 50.7561 43.9141 50.7561 44.2852V47H49.8772ZM53.2219 47V39.8418H54.1008V43.9238L56.1809 41.8145H57.3186L55.3362 43.7383L57.5188 47H56.4348L54.7209 44.3486L54.1008 44.9443V47H53.2219ZM61.7668 45.3301L62.675 45.4424C62.5318 45.973 62.2665 46.3848 61.8792 46.6777C61.4918 46.9707 60.997 47.1172 60.3948 47.1172C59.6363 47.1172 59.0341 46.8844 58.5881 46.4189C58.1454 45.9502 57.9241 45.2943 57.9241 44.4512C57.9241 43.5788 58.1487 42.9017 58.5979 42.4199C59.0471 41.9382 59.6298 41.6973 60.3459 41.6973C61.0393 41.6973 61.6057 41.9333 62.0452 42.4053C62.4846 42.8773 62.7043 43.5413 62.7043 44.3975C62.7043 44.4495 62.7027 44.5277 62.6995 44.6318H58.8323C58.8648 45.2015 59.026 45.6377 59.3157 45.9404C59.6054 46.2432 59.9667 46.3945 60.3997 46.3945C60.7219 46.3945 60.997 46.3099 61.2249 46.1406C61.4527 45.9714 61.6334 45.7012 61.7668 45.3301ZM58.8811 43.9092H61.7766C61.7375 43.473 61.6269 43.1458 61.4446 42.9277C61.1646 42.5892 60.8017 42.4199 60.3557 42.4199C59.9521 42.4199 59.6119 42.555 59.3352 42.8252C59.0618 43.0954 58.9104 43.4567 58.8811 43.9092ZM65.7024 46.2139L65.8293 46.9902C65.5819 47.0423 65.3606 47.0684 65.1653 47.0684C64.8463 47.0684 64.5989 47.0179 64.4231 46.917C64.2473 46.8161 64.1236 46.6842 64.052 46.5215C63.9804 46.3555 63.9446 46.0088 63.9446 45.4814V42.498H63.3V41.8145H63.9446V40.5303L64.8186 40.0029V41.8145H65.7024V42.498H64.8186V45.5303C64.8186 45.7809 64.8333 45.9421 64.8625 46.0137C64.8951 46.0853 64.9456 46.1423 65.0139 46.1846C65.0855 46.2269 65.1864 46.248 65.3167 46.248C65.4143 46.248 65.5429 46.2367 65.7024 46.2139ZM72.8997 45.3301L73.8079 45.4424C73.6646 45.973 73.3993 46.3848 73.012 46.6777C72.6246 46.9707 72.1298 47.1172 71.5276 47.1172C70.7691 47.1172 70.1669 46.8844 69.7209 46.4189C69.2782 45.9502 69.0569 45.2943 69.0569 44.4512C69.0569 43.5788 69.2815 42.9017 69.7307 42.4199C70.1799 41.9382 70.7626 41.6973 71.4788 41.6973C72.1721 41.6973 72.7385 41.9333 73.178 42.4053C73.6174 42.8773 73.8372 43.5413 73.8372 44.3975C73.8372 44.4495 73.8355 44.5277 73.8323 44.6318H69.9651C69.9976 45.2015 70.1588 45.6377 70.4485 45.9404C70.7382 46.2432 71.0995 46.3945 71.5325 46.3945C71.8547 46.3945 72.1298 46.3099 72.3577 46.1406C72.5855 45.9714 72.7662 45.7012 72.8997 45.3301ZM70.0139 43.9092H72.9094C72.8704 43.473 72.7597 43.1458 72.5774 42.9277C72.2974 42.5892 71.9345 42.4199 71.4885 42.4199C71.0849 42.4199 70.7447 42.555 70.468 42.8252C70.1946 43.0954 70.0432 43.4567 70.0139 43.9092ZM74.3303 47L76.2249 44.3047L74.4719 41.8145H75.5706L76.3665 43.0303C76.5162 43.2614 76.6366 43.4551 76.7278 43.6113C76.871 43.3965 77.0028 43.2061 77.1233 43.04L77.9973 41.8145H79.0471L77.2551 44.2559L79.1838 47H78.1047L77.0403 45.3887L76.7571 44.9541L75.3948 47H74.3303ZM83.4661 45.3301L84.3743 45.4424C84.231 45.973 83.9657 46.3848 83.5784 46.6777C83.191 46.9707 82.6962 47.1172 82.094 47.1172C81.3355 47.1172 80.7333 46.8844 80.2874 46.4189C79.8446 45.9502 79.6233 45.2943 79.6233 44.4512C79.6233 43.5788 79.8479 42.9017 80.2971 42.4199C80.7463 41.9382 81.329 41.6973 82.0452 41.6973C82.7385 41.6973 83.3049 41.9333 83.7444 42.4053C84.1838 42.8773 84.4036 43.5413 84.4036 44.3975C84.4036 44.4495 84.4019 44.5277 84.3987 44.6318H80.5315C80.564 45.2015 80.7252 45.6377 81.0149 45.9404C81.3046 46.2432 81.6659 46.3945 82.0989 46.3945C82.4211 46.3945 82.6962 46.3099 82.9241 46.1406C83.1519 45.9714 83.3326 45.7012 83.4661 45.3301ZM80.5803 43.9092H83.4758C83.4368 43.473 83.3261 43.1458 83.1438 42.9277C82.8639 42.5892 82.5009 42.4199 82.0549 42.4199C81.6513 42.4199 81.3111 42.555 81.0344 42.8252C80.761 43.0954 80.6096 43.4567 80.5803 43.9092ZM88.8665 45.1006L89.7307 45.2129C89.6363 45.8086 89.3938 46.2757 89.0032 46.6143C88.6158 46.9495 88.1389 47.1172 87.5725 47.1172C86.8629 47.1172 86.2916 46.8861 85.8586 46.4238C85.429 45.9583 85.2141 45.2926 85.2141 44.4268C85.2141 43.8669 85.3069 43.377 85.4924 42.957C85.678 42.5371 85.9596 42.223 86.3372 42.0146C86.718 41.8031 87.1314 41.6973 87.5774 41.6973C88.1405 41.6973 88.6012 41.8405 88.9592 42.127C89.3173 42.4102 89.5468 42.8138 89.6477 43.3379L88.7932 43.4697C88.7118 43.1214 88.567 42.8594 88.3586 42.6836C88.1536 42.5078 87.9045 42.4199 87.6116 42.4199C87.1689 42.4199 86.8092 42.5794 86.5325 42.8984C86.2558 43.2142 86.1174 43.7155 86.1174 44.4023C86.1174 45.099 86.2509 45.6051 86.5178 45.9209C86.7847 46.2367 87.1331 46.3945 87.5627 46.3945C87.9078 46.3945 88.1959 46.2887 88.427 46.0771C88.6581 45.8656 88.8046 45.54 88.8665 45.1006ZM93.8811 47V46.2383C93.4775 46.8242 92.929 47.1172 92.2356 47.1172C91.9296 47.1172 91.6431 47.0586 91.3762 46.9414C91.1125 46.8242 90.9156 46.6777 90.7854 46.502C90.6584 46.3229 90.5689 46.1048 90.5168 45.8477C90.481 45.6751 90.4631 45.4017 90.4631 45.0273V41.8145H91.342V44.6904C91.342 45.1494 91.3599 45.4587 91.3958 45.6182C91.4511 45.8493 91.5683 46.0316 91.7473 46.165C91.9264 46.2952 92.1477 46.3604 92.4114 46.3604C92.675 46.3604 92.9224 46.2936 93.1536 46.1602C93.3847 46.0234 93.5474 45.8395 93.6418 45.6084C93.7395 45.374 93.7883 45.0355 93.7883 44.5928V41.8145H94.6672V47H93.8811ZM97.968 46.2139L98.095 46.9902C97.8476 47.0423 97.6262 47.0684 97.4309 47.0684C97.1119 47.0684 96.8645 47.0179 96.6887 46.917C96.5129 46.8161 96.3892 46.6842 96.3176 46.5215C96.246 46.3555 96.2102 46.0088 96.2102 45.4814V42.498H95.5657V41.8145H96.2102V40.5303L97.0842 40.0029V41.8145H97.968V42.498H97.0842V45.5303C97.0842 45.7809 97.0989 45.9421 97.1282 46.0137C97.1607 46.0853 97.2112 46.1423 97.2795 46.1846C97.3512 46.2269 97.4521 46.248 97.5823 46.248C97.6799 46.248 97.8085 46.2367 97.968 46.2139ZM98.8372 40.8525V39.8418H99.7161V40.8525H98.8372ZM98.8372 47V41.8145H99.7161V47H98.8372ZM100.732 44.4072C100.732 43.4469 100.999 42.7357 101.532 42.2734C101.978 41.8893 102.522 41.6973 103.163 41.6973C103.876 41.6973 104.459 41.9316 104.911 42.4004C105.364 42.8659 105.59 43.5104 105.59 44.334C105.59 45.0013 105.489 45.527 105.287 45.9111C105.089 46.292 104.797 46.5882 104.413 46.7998C104.032 47.0114 103.616 47.1172 103.163 47.1172C102.437 47.1172 101.85 46.8844 101.401 46.4189C100.955 45.9535 100.732 45.2829 100.732 44.4072ZM101.635 44.4072C101.635 45.0713 101.78 45.5693 102.07 45.9014C102.359 46.2301 102.724 46.3945 103.163 46.3945C103.6 46.3945 103.962 46.2285 104.252 45.8965C104.542 45.5645 104.687 45.0583 104.687 44.3779C104.687 43.7367 104.54 43.2516 104.247 42.9229C103.958 42.5908 103.596 42.4248 103.163 42.4248C102.724 42.4248 102.359 42.5892 102.07 42.918C101.78 43.2467 101.635 43.7432 101.635 44.4072ZM106.625 47V41.8145H107.416V42.5518C107.797 41.9821 108.347 41.6973 109.067 41.6973C109.379 41.6973 109.666 41.7542 109.926 41.8682C110.19 41.9788 110.387 42.1253 110.517 42.3076C110.647 42.4899 110.738 42.7064 110.79 42.957C110.823 43.1198 110.839 43.4046 110.839 43.8115V47H109.96V43.8457C109.96 43.4876 109.926 43.2207 109.858 43.0449C109.789 42.8659 109.667 42.7243 109.491 42.6201C109.319 42.5127 109.115 42.459 108.881 42.459C108.507 42.459 108.183 42.5778 107.909 42.8154C107.639 43.0531 107.504 43.5039 107.504 44.168V47H106.625Z" fill="#9A9A9A"/>
<defs>
<filter id="filter0_i_199_111" x="0" y="0" width="161" height="84" filterUnits="userSpaceOnUse" color-interpolation-filters="sRGB">
<feFlood flood-opacity="0" result="BackgroundImageFix"/>
<feBlend mode="normal" in="SourceGraphic" in2="BackgroundImageFix" result="shape"/>
<feColorMatrix in="SourceAlpha" type="matrix" values="0 0 0 0 0 0 0 0 0 0 0 0 0 0 0 0 0 0 127 0" result="hardAlpha"/>
<feOffset dx="3" dy="3"/>
<feGaussianBlur stdDeviation="7.5"/>
<feComposite in2="hardAlpha" operator="arithmetic" k2="-1" k3="1"/>
<feColorMatrix type="matrix" values="0 0 0 0 0 0 0 0 0 0.616667 0 0 0 0 1 0 0 0 0.6 0"/>
<feBlend mode="normal" in2="shape" result="effect1_innerShadow_199_111"/>
</filter>
<linearGradient id="paint0_linear_199_111" x1="79" y1="0" x2="79" y2="74" gradientUnits="userSpaceOnUse">
<stop stop-color="#0065FE" stop-opacity="0.5"/>
<stop offset="1" stop-color="#024D9D" stop-opacity="0.5"/>
</linearGradient>
</defs>
</svg>
