<svg width="183" height="34" viewBox="0 0 183 34" fill="none" xmlns="http://www.w3.org/2000/svg">
<path d="M55.2411 7.36C62.4611 7.36 66.0711 10.8 66.0711 17.68C66.0711 24.56 62.4611 28 55.2411 28H46.3011V7.36H55.2411ZM52.9311 23.05H55.1211C57.9011 23.05 59.2911 21.56 59.2911 18.58V16.78C59.2911 13.8 57.9011 12.31 55.1211 12.31H52.9311V23.05ZM77.4207 11.8C80.3207 11.8 82.5307 12.48 84.0507 13.84C85.5907 15.2 86.3607 17.28 86.3607 20.08V21.1H74.4807C74.4807 22.24 74.7307 23.1 75.2307 23.68C75.7507 24.26 76.5607 24.55 77.6607 24.55C78.6607 24.55 79.3907 24.34 79.8507 23.92C80.3307 23.5 80.5707 22.94 80.5707 22.24H86.3607C86.3607 24.16 85.6307 25.66 84.1707 26.74C82.7107 27.82 80.5807 28.36 77.7807 28.36C74.8407 28.36 72.5607 27.68 70.9407 26.32C69.3207 24.94 68.5107 22.86 68.5107 20.08C68.5107 17.36 69.3007 15.3 70.8807 13.9C72.4607 12.5 74.6407 11.8 77.4207 11.8ZM77.6607 15.61C75.7807 15.61 74.7307 16.5 74.5107 18.28H80.3307C80.3307 17.46 80.0907 16.81 79.6107 16.33C79.1507 15.85 78.5007 15.61 77.6607 15.61ZM98.3304 7C100.97 7 103.14 7.54 104.84 8.62C106.54 9.68 107.41 11.26 107.45 13.36V13.72H101.24V13.6C101.24 13 101.02 12.5 100.58 12.1C100.14 11.7 99.4704 11.5 98.5704 11.5C97.6904 11.5 97.0104 11.63 96.5304 11.89C96.0704 12.15 95.8404 12.47 95.8404 12.85C95.8404 13.39 96.1604 13.79 96.8004 14.05C97.4404 14.31 98.4704 14.58 99.8904 14.86C101.55 15.2 102.91 15.56 103.97 15.94C105.05 16.3 105.99 16.9 106.79 17.74C107.59 18.58 108 19.72 108.02 21.16C108.02 23.6 107.19 25.41 105.53 26.59C103.89 27.77 101.69 28.36 98.9304 28.36C95.7104 28.36 93.2004 27.82 91.4004 26.74C89.6204 25.66 88.7304 23.75 88.7304 21.01H95.0004C95.0004 22.05 95.2704 22.75 95.8104 23.11C96.3504 23.45 97.1904 23.62 98.3304 23.62C99.1704 23.62 99.8604 23.53 100.4 23.35C100.96 23.17 101.24 22.8 101.24 22.24C101.24 21.74 100.93 21.37 100.31 21.13C99.7104 20.87 98.7204 20.6 97.3404 20.32C95.6604 19.96 94.2704 19.59 93.1704 19.21C92.0704 18.81 91.1104 18.16 90.2904 17.26C89.4704 16.36 89.0604 15.14 89.0604 13.6C89.0604 11.34 89.9304 9.68 91.6704 8.62C93.4304 7.54 95.6504 7 98.3304 7ZM116.861 13.81C117.501 13.17 118.251 12.68 119.111 12.34C119.971 11.98 120.871 11.8 121.811 11.8C123.651 11.8 125.031 12.31 125.951 13.33C126.871 14.35 127.331 15.82 127.331 17.74V28H121.361V18.46C121.361 17.78 121.181 17.24 120.821 16.84C120.481 16.42 119.991 16.21 119.351 16.21C118.611 16.21 118.011 16.45 117.551 16.93C117.091 17.41 116.861 18 116.861 18.7V28H110.891V6.25H116.861V13.81ZM138.731 11.8C141.151 11.8 143.121 12.21 144.641 13.03C146.161 13.83 146.921 15.14 146.921 16.96V23.14C146.921 23.48 147.001 23.76 147.161 23.98C147.321 24.2 147.561 24.31 147.881 24.31H148.961V27.76C148.901 27.8 148.741 27.87 148.481 27.97C148.241 28.05 147.891 28.13 147.431 28.21C146.971 28.31 146.441 28.36 145.841 28.36C144.681 28.36 143.721 28.19 142.961 27.85C142.221 27.49 141.711 27 141.431 26.38C140.671 26.98 139.821 27.46 138.881 27.82C137.941 28.18 136.841 28.36 135.581 28.36C131.861 28.36 130.001 26.88 130.001 23.92C130.001 22.38 130.411 21.21 131.231 20.41C132.071 19.59 133.271 19.03 134.831 18.73C136.391 18.43 138.431 18.28 140.951 18.28V17.5C140.951 16.88 140.731 16.41 140.291 16.09C139.871 15.77 139.321 15.61 138.641 15.61C138.021 15.61 137.481 15.72 137.021 15.94C136.581 16.16 136.361 16.51 136.361 16.99V17.11H130.481C130.461 17.01 130.451 16.87 130.451 16.69C130.451 15.19 131.161 14 132.581 13.12C134.021 12.24 136.071 11.8 138.731 11.8ZM140.951 21.1C139.251 21.1 137.991 21.29 137.171 21.67C136.371 22.03 135.971 22.52 135.971 23.14C135.971 24.14 136.651 24.64 138.011 24.64C138.791 24.64 139.471 24.43 140.051 24.01C140.651 23.59 140.951 23.07 140.951 22.45V21.1ZM160.54 11.77C161 11.77 161.41 11.83 161.77 11.95C162.13 12.05 162.31 12.11 162.31 12.13V17.14H160.39C159.15 17.14 158.25 17.46 157.69 18.1C157.15 18.74 156.88 19.69 156.88 20.95V28H150.91V12.16H155.8L156.19 14.56C156.55 13.64 157.12 12.95 157.9 12.49C158.68 12.01 159.56 11.77 160.54 11.77ZM172.899 11.8C175.799 11.8 178.009 12.48 179.529 13.84C181.069 15.2 181.839 17.28 181.839 20.08V21.1H169.959C169.959 22.24 170.209 23.1 170.709 23.68C171.229 24.26 172.039 24.55 173.139 24.55C174.139 24.55 174.869 24.34 175.329 23.92C175.809 23.5 176.049 22.94 176.049 22.24H181.839C181.839 24.16 181.109 25.66 179.649 26.74C178.189 27.82 176.059 28.36 173.259 28.36C170.319 28.36 168.039 27.68 166.419 26.32C164.799 24.94 163.989 22.86 163.989 20.08C163.989 17.36 164.779 15.3 166.359 13.9C167.939 12.5 170.119 11.8 172.899 11.8ZM173.139 15.61C171.259 15.61 170.209 16.5 169.989 18.28H175.809C175.809 17.46 175.569 16.81 175.089 16.33C174.629 15.85 173.979 15.61 173.139 15.61Z" fill="white"/>
<circle cx="17" cy="17" r="17" fill="url(#paint0_linear_169_52)"/>
<rect x="10.5172" y="9.65518" width="14.8966" height="13.0345" rx="3" fill="white" fill-opacity="0.3"/>
<path d="M22.4191 13.0001L23.1306 13.5851H23.1295L20.0489 17.0001L14.7888 12.8461C14.6933 12.7405 14.5763 12.6565 14.4456 12.5995C14.3149 12.5426 14.1735 12.5141 14.0309 12.5159C13.8883 12.5177 13.7477 12.5498 13.6185 12.61C13.4893 12.6702 13.3744 12.7572 13.2816 12.8651L9.00691 16.9551V9.00014C9.00693 8.86881 8.98099 8.73876 8.93057 8.61742C8.88015 8.49608 8.80624 8.38582 8.71306 8.29294C8.61988 8.20007 8.50925 8.1264 8.3875 8.07613C8.26574 8.02587 8.13524 8 8.00346 8C7.87167 8 7.74117 8.02587 7.61941 8.07613C7.49766 8.1264 7.38703 8.20007 7.29385 8.29294C7.20067 8.38582 7.12676 8.49608 7.07634 8.61742C7.02592 8.73876 6.99998 8.86881 7 9.00014V24C7 25.1046 7.90235 26 9.00691 26H26.0657C26.3318 26 26.587 25.8946 26.7751 25.7071C26.9633 25.5195 27.069 25.2652 27.069 25C27.069 24.7348 26.9633 24.4805 26.7751 24.293C26.587 24.1054 26.3318 24.0001 26.0657 24H11.0069C9.90234 24 9.00691 23.1046 9.00691 22V19.8431C9.07098 19.796 9.12895 19.7413 9.17951 19.6801L14.0242 15.0001C17.1409 17.4191 18.9231 18.8041 19.3716 19.1541C20.0449 19.6791 20.5356 19.5001 20.8798 19.1351C22.1594 17.7209 23.4325 16.3009 24.699 14.8751L25.3984 15.4511C25.4662 15.5066 25.5475 15.5434 25.6342 15.5578C25.7208 15.5722 25.8097 15.5636 25.8919 15.5331C25.9742 15.5025 26.047 15.451 26.103 15.3836C26.159 15.3162 26.1963 15.2353 26.2112 15.1491L26.9337 10.9491C26.9491 10.8589 26.9394 10.7662 26.9057 10.6811C26.8719 10.596 26.8154 10.5218 26.7422 10.4665C26.669 10.4112 26.582 10.377 26.4907 10.3676C26.3994 10.3582 26.3072 10.3739 26.2242 10.4131L22.5235 12.1631C22.4473 12.1992 22.3814 12.2538 22.332 12.322C22.2826 12.3902 22.2513 12.4696 22.2409 12.5531C22.2305 12.6365 22.2413 12.7212 22.2725 12.7994C22.3037 12.8775 22.3541 12.9465 22.4191 13.0001Z" fill="white"/>
<defs>
<linearGradient id="paint0_linear_169_52" x1="7.44324" y1="3.95135" x2="26.8324" y2="29.6811" gradientUnits="userSpaceOnUse">
<stop stop-color="#00F2FF"/>
<stop offset="1" stop-color="#3183FF"/>
</linearGradient>
</defs>
</svg>
