<svg width="938" height="179" viewBox="0 0 938 179" fill="none" xmlns="http://www.w3.org/2000/svg">
<path d="M4.76 18.31H24.57C29.5167 18.31 33.3433 18.8 36.05 19.78C41.0433 21.6 44.38 24.9367 46.06 29.79C47.32 33.5233 47.95 37.5133 47.95 41.76C47.95 45.96 47.3433 49.9267 46.13 53.66C44.9167 57.4867 42.91 60.31 40.11 62.13C38.3367 63.25 36.3767 64.02 34.23 64.44C32.13 64.8133 28.91 65 24.57 65H4.76V18.31ZM14.7 26.64V56.67H24.57C28.91 56.67 31.92 55.7133 33.6 53.8C34.6267 52.5867 35.4433 50.8833 36.05 48.69C36.7033 46.4967 37.03 44.1633 37.03 41.69C37.03 38.9367 36.6567 36.4167 35.91 34.13C35.1633 31.8433 34.1833 30.14 32.97 29.02C31.1967 27.4333 28.3967 26.64 24.57 26.64H14.7ZM82.5174 44.28V51.56H62.7774C62.9641 53.8 63.6874 55.3867 64.9474 56.32C66.2074 57.2533 68.2608 57.72 71.1074 57.72H82.5174V65H70.0574C67.3508 65 65.1341 64.7667 63.4074 64.3C61.7274 63.7867 60.1408 62.97 58.6474 61.85C54.4941 58.63 52.4174 53.8467 52.4174 47.5C52.4174 43.3933 53.5141 39.8 55.7074 36.72C57.2008 34.62 58.9974 33.1267 61.0974 32.24C63.1974 31.3533 65.9508 30.91 69.3574 30.91H82.5174V38.19H70.0574C67.4908 38.19 65.6941 38.6333 64.6674 39.52C63.6408 40.36 63.0108 41.9467 62.7774 44.28H82.5174ZM118.626 30.91V38.19H107.426C103.646 38.19 101.033 39.03 99.5859 40.71C98.1859 42.2967 97.4859 44.7233 97.4859 47.99C97.4859 51.63 98.6293 54.29 100.916 55.97C101.849 56.6233 102.853 57.09 103.926 57.37C105.046 57.6033 106.586 57.72 108.546 57.72H118.626V65H105.816C102.363 65 99.6326 64.65 97.6259 63.95C95.6193 63.25 93.8459 62.0367 92.3059 60.31C89.3659 57.0433 87.8959 52.89 87.8959 47.85C87.8959 41.7833 89.6459 37.2567 93.1459 34.27C94.5459 33.0567 96.2259 32.1933 98.1859 31.68C100.146 31.1667 102.689 30.91 105.816 30.91H118.626ZM153.611 44.28V51.56H133.871C134.058 53.8 134.781 55.3867 136.041 56.32C137.301 57.2533 139.355 57.72 142.201 57.72H153.611V65H141.151C138.445 65 136.228 64.7667 134.501 64.3C132.821 63.7867 131.235 62.97 129.741 61.85C125.588 58.63 123.511 53.8467 123.511 47.5C123.511 43.3933 124.608 39.8 126.801 36.72C128.295 34.62 130.091 33.1267 132.191 32.24C134.291 31.3533 137.045 30.91 140.451 30.91H153.611V38.19H141.151C138.585 38.19 136.788 38.6333 135.761 39.52C134.735 40.36 134.105 41.9467 133.871 44.28H153.611ZM161.23 30.91H179.29C181.996 30.91 184.05 31.12 185.45 31.54C186.896 31.9133 188.203 32.6133 189.37 33.64C191.75 35.8333 192.94 39.2867 192.94 44V65H183.56V42.95C183.56 41.27 183.186 40.0567 182.44 39.31C181.693 38.5633 180.456 38.19 178.73 38.19H170.61V65H161.23V30.91ZM204.218 30.91V18.31H213.598V30.91H222.278V38.19H213.598V50.58C213.598 53.4733 213.855 55.2933 214.368 56.04C215.162 57.16 216.562 57.72 218.568 57.72H222.278V65H215.488C211.428 65 208.535 64.02 206.808 62.06C205.082 60.1 204.218 56.81 204.218 52.19V38.19H198.268V30.91H204.218ZM228.632 30.91H238.012V65H228.632V30.91ZM228.632 27.41V18.31H238.012V27.41H228.632ZM247.226 30.91H261.086C263.932 30.91 266.126 31.12 267.666 31.54C269.252 31.9133 270.559 32.5667 271.586 33.5C272.612 34.4333 273.336 35.6 273.756 37C274.176 38.4 274.386 40.4067 274.386 43.02V46.31H265.356V44.49C265.356 42.0633 264.936 40.4067 264.096 39.52C263.256 38.6333 261.646 38.19 259.266 38.19H256.606V65H247.226V30.91ZM303.49 44.28C303.49 41.9 303 40.29 302.02 39.45C301.087 38.61 299.197 38.19 296.35 38.19H280.53V30.91H296.35C299.197 30.91 301.157 30.98 302.23 31.12C303.303 31.2133 304.4 31.4233 305.52 31.75C310.7 33.71 313.15 38.4 312.87 45.82V65H293.13C289.583 65 287.133 64.9067 285.78 64.72C284.427 64.4867 283.237 64.0433 282.21 63.39C279.457 61.5233 278.08 58.7 278.08 54.92C278.08 52.6333 278.617 50.6033 279.69 48.83C280.81 47.01 282.28 45.7733 284.1 45.12C285.687 44.56 288.323 44.28 292.01 44.28H303.49ZM303.49 51.56H292.71H291.1C290.027 51.56 289.163 51.84 288.51 52.4C287.903 52.96 287.6 53.73 287.6 54.71C287.6 55.7833 287.973 56.5533 288.72 57.02C289.513 57.4867 290.843 57.72 292.71 57.72H303.49V51.56ZM330.981 65H321.601V18.31H330.981V65ZM340.195 30.91H349.575V65H340.195V30.91ZM340.195 27.41V18.31H349.575V27.41H340.195ZM376.078 38.19H356.338V30.91H388.468V37.98L368.728 57.72H388.468V65H356.338V57.93L376.078 38.19ZM423.494 44.28V51.56H403.754C403.941 53.8 404.664 55.3867 405.924 56.32C407.184 57.2533 409.237 57.72 412.084 57.72H423.494V65H411.034C408.327 65 406.111 64.7667 404.384 64.3C402.704 63.7867 401.117 62.97 399.624 61.85C395.471 58.63 393.394 53.8467 393.394 47.5C393.394 43.3933 394.491 39.8 396.684 36.72C398.177 34.62 399.974 33.1267 402.074 32.24C404.174 31.3533 406.927 30.91 410.334 30.91H423.494V38.19H411.034C408.467 38.19 406.671 38.6333 405.644 39.52C404.617 40.36 403.987 41.9467 403.754 44.28H423.494ZM454.003 30.91V18.31H463.313V65H447.213C443.946 65 441.473 64.7433 439.793 64.23C435.826 62.97 432.863 60.4967 430.903 56.81C429.549 54.3367 428.872 51.3033 428.872 47.71C428.872 41.8767 430.833 37.35 434.753 34.13C437.319 31.9833 440.796 30.91 445.183 30.91H454.003ZM454.003 57.72V38.19H447.213C444.226 38.19 441.963 39.1933 440.423 41.2C439.069 42.88 438.393 45.05 438.393 47.71C438.393 51.5833 439.513 54.36 441.753 56.04C443.293 57.16 445.113 57.72 447.213 57.72H454.003Z" fill="white"/>
<path d="M525.096 37.28H547.986V65H527.126C523.532 65 520.662 64.7433 518.516 64.23C516.416 63.67 514.502 62.7133 512.776 61.36C507.876 57.58 505.426 51.07 505.426 41.83C505.426 35.81 506.592 30.7933 508.926 26.78C510.652 23.84 513.009 21.6933 515.996 20.34C518.982 18.9867 522.856 18.31 527.616 18.31H547.986V26.64H528.736C524.582 26.64 521.572 27.55 519.706 29.37C517.466 31.5167 516.346 35.3667 516.346 40.92C516.346 43.7667 516.626 46.3333 517.186 48.62C517.792 50.9067 518.609 52.61 519.636 53.73C520.522 54.7567 521.736 55.5033 523.276 55.97C524.862 56.4367 526.799 56.67 529.086 56.67H538.116V45.61H525.096V37.28ZM565.514 65H556.134V18.31H565.514V65ZM590.478 30.42C596.778 30.42 601.421 32.24 604.408 35.88C607.161 39.1933 608.538 43.37 608.538 48.41C608.538 53.73 606.811 57.9767 603.358 61.15C600.184 64.0433 595.844 65.49 590.338 65.49C584.644 65.49 580.188 63.8567 576.968 60.59C573.981 57.65 572.488 53.3567 572.488 47.71C572.488 42.95 573.911 38.9833 576.758 35.81C579.931 32.2633 584.504 30.4667 590.478 30.42ZM590.548 37.56C584.901 37.56 582.078 41.06 582.078 48.06C582.078 50.9067 582.544 53.0767 583.478 54.57C585.018 57.09 587.398 58.35 590.618 58.35C596.171 58.35 598.948 54.8733 598.948 47.92C598.948 41.1067 596.148 37.6533 590.548 37.56ZM624.85 30.91H633.11C636.75 30.91 639.713 31.47 642 32.59C645.127 34.13 647.39 36.4867 648.79 39.66C649.77 42.04 650.26 44.6533 650.26 47.5C650.26 54.4067 647.763 59.4 642.77 62.48C641.183 63.46 639.55 64.1367 637.87 64.51C636.19 64.8367 633.81 65 630.73 65H615.47V18.31H624.85V30.91ZM624.85 38.19V57.72H631.78C634.72 57.72 636.937 56.81 638.43 54.99C639.923 53.03 640.67 50.6267 640.67 47.78C640.67 41.3867 637.707 38.19 631.78 38.19H624.85ZM680.689 44.28C680.689 41.9 680.199 40.29 679.219 39.45C678.286 38.61 676.396 38.19 673.549 38.19H657.729V30.91H673.549C676.396 30.91 678.356 30.98 679.429 31.12C680.502 31.2133 681.599 31.4233 682.719 31.75C687.899 33.71 690.349 38.4 690.069 45.82V65H670.329C666.782 65 664.332 64.9067 662.979 64.72C661.626 64.4867 660.436 64.0433 659.409 63.39C656.656 61.5233 655.279 58.7 655.279 54.92C655.279 52.6333 655.816 50.6033 656.889 48.83C658.009 47.01 659.479 45.7733 661.299 45.12C662.886 44.56 665.522 44.28 669.209 44.28H680.689ZM680.689 51.56H669.909H668.299C667.226 51.56 666.362 51.84 665.709 52.4C665.102 52.96 664.799 53.73 664.799 54.71C664.799 55.7833 665.172 56.5533 665.919 57.02C666.712 57.4867 668.042 57.72 669.909 57.72H680.689V51.56ZM708.18 65H698.8V18.31H708.18V65ZM752.394 65V56.67H773.744C777.15 56.67 779.414 56.3433 780.534 55.69C782.167 54.71 782.984 53.24 782.984 51.28C782.984 48.9933 782.027 47.3367 780.114 46.31C779.04 45.7033 777.314 45.4 774.934 45.4H766.254C760.98 45.4 757.177 44.4433 754.844 42.53C753.397 41.3167 752.254 39.8 751.414 37.98C750.62 36.16 750.224 34.2 750.224 32.1C750.224 28.8333 751.18 25.8467 753.094 23.14C754.96 20.5267 757.947 18.9867 762.054 18.52C763.454 18.38 765.53 18.31 768.284 18.31H791.454V26.64H770.524C767.397 26.6867 765.32 26.8267 764.294 27.06C762.194 27.5733 761.144 29.16 761.144 31.82C761.144 34.06 762.03 35.5533 763.804 36.3C764.97 36.86 766.93 37.14 769.684 37.14H777.174C781 37.14 783.847 37.4667 785.714 38.12C789.027 39.24 791.314 41.2 792.574 44C793.554 46.24 794.044 48.6433 794.044 51.21C794.044 54.0567 793.39 56.6 792.084 58.84C790.264 62.0133 787.534 63.9267 783.894 64.58C782.12 64.86 779.437 65 775.844 65H752.394ZM803.586 30.91V18.31H812.966V30.91H821.646V38.19H812.966V50.58C812.966 53.4733 813.222 55.2933 813.736 56.04C814.529 57.16 815.929 57.72 817.936 57.72H821.646V65H814.856C810.796 65 807.902 64.02 806.176 62.06C804.449 60.1 803.586 56.81 803.586 52.19V38.19H797.636V30.91H803.586ZM843.749 30.42C850.049 30.42 854.693 32.24 857.679 35.88C860.433 39.1933 861.809 43.37 861.809 48.41C861.809 53.73 860.083 57.9767 856.629 61.15C853.456 64.0433 849.116 65.49 843.609 65.49C837.916 65.49 833.459 63.8567 830.239 60.59C827.253 57.65 825.759 53.3567 825.759 47.71C825.759 42.95 827.183 38.9833 830.029 35.81C833.203 32.2633 837.776 30.4667 843.749 30.42ZM843.819 37.56C838.173 37.56 835.349 41.06 835.349 48.06C835.349 50.9067 835.816 53.0767 836.749 54.57C838.289 57.09 840.669 58.35 843.889 58.35C849.443 58.35 852.219 54.8733 852.219 47.92C852.219 41.1067 849.419 37.6533 843.819 37.56ZM897.231 30.91V38.19H886.031C882.251 38.19 879.638 39.03 878.191 40.71C876.791 42.2967 876.091 44.7233 876.091 47.99C876.091 51.63 877.235 54.29 879.521 55.97C880.455 56.6233 881.458 57.09 882.531 57.37C883.651 57.6033 885.191 57.72 887.151 57.72H897.231V65H884.421C880.968 65 878.238 64.65 876.231 63.95C874.225 63.25 872.451 62.0367 870.911 60.31C867.971 57.0433 866.501 52.89 866.501 47.85C866.501 41.7833 868.251 37.2567 871.751 34.27C873.151 33.0567 874.831 32.1933 876.791 31.68C878.751 31.1667 881.295 30.91 884.421 30.91H897.231ZM913.737 18.31V44.42L926.267 30.91H936.767L923.467 44.42H925.987C929.253 44.42 931.517 45.3767 932.777 47.29C934.037 49.2033 934.667 52.5867 934.667 57.44V65H925.287V57.02C925.287 54.8733 924.937 53.45 924.237 52.75C923.537 52.0033 922.16 51.63 920.107 51.63H913.737V65H904.357V18.31H913.737Z" fill="url(#paint0_linear_170_58)"/>
<path d="M195.349 125.64H180.509V117.31H220.759V125.64H205.289V164H195.349V125.64ZM225.657 129.91H239.517C242.364 129.91 244.557 130.12 246.097 130.54C247.684 130.913 248.991 131.567 250.017 132.5C251.044 133.433 251.767 134.6 252.187 136C252.607 137.4 252.817 139.407 252.817 142.02V145.31H243.787V143.49C243.787 141.063 243.367 139.407 242.527 138.52C241.687 137.633 240.077 137.19 237.697 137.19H235.037V164H225.657V129.91ZM281.922 143.28C281.922 140.9 281.432 139.29 280.452 138.45C279.518 137.61 277.628 137.19 274.782 137.19H258.962V129.91H274.782C277.628 129.91 279.588 129.98 280.662 130.12C281.735 130.213 282.832 130.423 283.952 130.75C289.132 132.71 291.582 137.4 291.302 144.82V164H271.562C268.015 164 265.565 163.907 264.212 163.72C262.858 163.487 261.668 163.043 260.642 162.39C257.888 160.523 256.512 157.7 256.512 153.92C256.512 151.633 257.048 149.603 258.122 147.83C259.242 146.01 260.712 144.773 262.532 144.12C264.118 143.56 266.755 143.28 270.442 143.28H281.922ZM281.922 150.56H271.142H269.532C268.458 150.56 267.595 150.84 266.942 151.4C266.335 151.96 266.032 152.73 266.032 153.71C266.032 154.783 266.405 155.553 267.152 156.02C267.945 156.487 269.275 156.72 271.142 156.72H281.922V150.56ZM322.922 129.91V117.31H332.232V164H316.132C312.866 164 310.392 163.743 308.712 163.23C304.746 161.97 301.782 159.497 299.822 155.81C298.469 153.337 297.792 150.303 297.792 146.71C297.792 140.877 299.752 136.35 303.672 133.13C306.239 130.983 309.716 129.91 314.102 129.91H322.922ZM322.922 156.72V137.19H316.132C313.146 137.19 310.882 138.193 309.342 140.2C307.989 141.88 307.312 144.05 307.312 146.71C307.312 150.583 308.432 153.36 310.672 155.04C312.212 156.16 314.032 156.72 316.132 156.72H322.922ZM341.39 129.91H350.77V164H341.39V129.91ZM341.39 126.41V117.31H350.77V126.41H341.39ZM359.984 129.91H378.044C380.75 129.91 382.804 130.12 384.204 130.54C385.65 130.913 386.957 131.613 388.124 132.64C390.504 134.833 391.694 138.287 391.694 143V164H382.314V141.95C382.314 140.27 381.94 139.057 381.194 138.31C380.447 137.563 379.21 137.19 377.484 137.19H369.364V164H359.984V129.91ZM433.142 129.91V163.79C433.142 165.703 432.909 167.407 432.442 168.9C432.022 170.393 431.392 171.653 430.552 172.68C429.479 173.987 428.172 174.873 426.632 175.34C425.139 175.853 422.946 176.11 420.052 176.11H401.362V168.83H418.792C420.846 168.83 422.176 168.503 422.782 167.85C423.436 167.243 423.762 165.96 423.762 164H415.152C412.399 164 410.112 163.72 408.292 163.16C406.519 162.553 404.909 161.573 403.462 160.22C400.056 157 398.352 152.567 398.352 146.92C398.352 140.48 400.429 135.79 404.582 132.85C406.076 131.777 407.639 131.03 409.272 130.61C410.952 130.143 413.076 129.91 415.642 129.91H433.142ZM423.762 137.19H415.992C410.579 137.19 407.872 140.457 407.872 146.99C407.872 150.163 408.596 152.59 410.042 154.27C411.536 155.903 413.682 156.72 416.482 156.72H423.762V137.19ZM487.438 147.69V164H477.498V117.31H500.808C505.055 117.31 508.088 117.613 509.908 118.22C512.988 119.247 515.415 121.37 517.188 124.59C518.495 127.017 519.148 129.653 519.148 132.5C519.148 134.88 518.705 137.143 517.818 139.29C516.978 141.39 515.788 143.117 514.248 144.47C512.848 145.683 511.355 146.523 509.768 146.99C508.228 147.457 506.105 147.69 503.398 147.69H487.438ZM487.438 139.36H500.948C503.375 139.36 505.078 138.987 506.058 138.24C507.505 137.073 508.228 135.043 508.228 132.15C508.228 129.023 507.132 127.017 504.938 126.13C504.145 125.803 502.885 125.64 501.158 125.64H487.438V139.36ZM525.208 129.91H539.068C541.915 129.91 544.108 130.12 545.648 130.54C547.235 130.913 548.542 131.567 549.568 132.5C550.595 133.433 551.318 134.6 551.738 136C552.158 137.4 552.368 139.407 552.368 142.02V145.31H543.338V143.49C543.338 141.063 542.918 139.407 542.078 138.52C541.238 137.633 539.628 137.19 537.248 137.19H534.588V164H525.208V129.91ZM573.702 129.42C580.002 129.42 584.646 131.24 587.632 134.88C590.386 138.193 591.762 142.37 591.762 147.41C591.762 152.73 590.036 156.977 586.582 160.15C583.409 163.043 579.069 164.49 573.562 164.49C567.869 164.49 563.412 162.857 560.192 159.59C557.206 156.65 555.712 152.357 555.712 146.71C555.712 141.95 557.136 137.983 559.982 134.81C563.156 131.263 567.729 129.467 573.702 129.42ZM573.772 136.56C568.126 136.56 565.302 140.06 565.302 147.06C565.302 149.907 565.769 152.077 566.702 153.57C568.242 156.09 570.622 157.35 573.842 157.35C579.396 157.35 582.172 153.873 582.172 146.92C582.172 140.107 579.372 136.653 573.772 136.56ZM601.215 129.91V117.31H610.595V129.91H619.275V137.19H610.595V149.58C610.595 152.473 610.851 154.293 611.365 155.04C612.158 156.16 613.558 156.72 615.565 156.72H619.275V164H612.485C608.425 164 605.531 163.02 603.805 161.06C602.078 159.1 601.215 155.81 601.215 151.19V137.19H595.265V129.91H601.215ZM641.378 129.42C647.678 129.42 652.321 131.24 655.308 134.88C658.061 138.193 659.438 142.37 659.438 147.41C659.438 152.73 657.711 156.977 654.258 160.15C651.085 163.043 646.745 164.49 641.238 164.49C635.545 164.49 631.088 162.857 627.868 159.59C624.881 156.65 623.388 152.357 623.388 146.71C623.388 141.95 624.811 137.983 627.658 134.81C630.831 131.263 635.405 129.467 641.378 129.42ZM641.448 136.56C635.801 136.56 632.978 140.06 632.978 147.06C632.978 149.907 633.445 152.077 634.378 153.57C635.918 156.09 638.298 157.35 641.518 157.35C647.071 157.35 649.848 153.873 649.848 146.92C649.848 140.107 647.048 136.653 641.448 136.56ZM694.86 129.91V137.19H683.66C679.88 137.19 677.267 138.03 675.82 139.71C674.42 141.297 673.72 143.723 673.72 146.99C673.72 150.63 674.864 153.29 677.15 154.97C678.084 155.623 679.087 156.09 680.16 156.37C681.28 156.603 682.82 156.72 684.78 156.72H694.86V164H682.05C678.597 164 675.867 163.65 673.86 162.95C671.854 162.25 670.08 161.037 668.54 159.31C665.6 156.043 664.13 151.89 664.13 146.85C664.13 140.783 665.88 136.257 669.38 133.27C670.78 132.057 672.46 131.193 674.42 130.68C676.38 130.167 678.924 129.91 682.05 129.91H694.86ZM717.736 129.42C724.036 129.42 728.679 131.24 731.666 134.88C734.419 138.193 735.796 142.37 735.796 147.41C735.796 152.73 734.069 156.977 730.616 160.15C727.442 163.043 723.102 164.49 717.596 164.49C711.902 164.49 707.446 162.857 704.226 159.59C701.239 156.65 699.746 152.357 699.746 146.71C699.746 141.95 701.169 137.983 704.016 134.81C707.189 131.263 711.762 129.467 717.736 129.42ZM717.806 136.56C712.159 136.56 709.336 140.06 709.336 147.06C709.336 149.907 709.802 152.077 710.736 153.57C712.276 156.09 714.656 157.35 717.876 157.35C723.429 157.35 726.206 153.873 726.206 146.92C726.206 140.107 723.406 136.653 717.806 136.56ZM752.108 164H742.728V117.31H752.108V164Z" fill="white"/>
<defs>
<linearGradient id="paint0_linear_170_58" x1="720.5" y1="0" x2="720.5" y2="80" gradientUnits="userSpaceOnUse">
<stop stop-color="#1AFDE4"/>
<stop offset="1" stop-color="#3183FF"/>
</linearGradient>
</defs>
</svg>
