<svg width="770" height="42" viewBox="0 0 770 42" fill="none" xmlns="http://www.w3.org/2000/svg">
<path d="M6.792 9.528V33H0.264V0.983997H9L21.72 24.84V0.983997H28.2V33H19.848L6.792 9.528ZM53.6771 18.792V23.784H40.1411C40.2691 25.32 40.7651 26.408 41.6291 27.048C42.4931 27.688 43.9011 28.008 45.8531 28.008H53.6771V33H45.1331C43.2771 33 41.7571 32.84 40.5731 32.52C39.4211 32.168 38.3331 31.608 37.3091 30.84C34.4611 28.632 33.0371 25.352 33.0371 21C33.0371 18.184 33.7891 15.72 35.2931 13.608C36.3171 12.168 37.5491 11.144 38.9891 10.536C40.4291 9.928 42.3171 9.624 44.6531 9.624H53.6771V14.616H45.1331C43.3731 14.616 42.1411 14.92 41.4371 15.528C40.7331 16.104 40.3011 17.192 40.1411 18.792H53.6771ZM64.7093 21.432L56.2613 9.624H63.4613L68.4053 16.536L73.1573 9.624H80.7413L72.0053 21.432L80.7413 33H73.1573L68.4053 26.328L63.4613 33H55.9253L64.7093 21.432ZM85.848 9.624V0.983997H92.28V9.624H98.232V14.616H92.28V23.112C92.28 25.096 92.456 26.344 92.808 26.856C93.352 27.624 94.312 28.008 95.688 28.008H98.232V33H93.576C90.792 33 88.808 32.328 87.624 30.984C86.44 29.64 85.848 27.384 85.848 24.216V14.616H81.768V9.624H85.848ZM110.653 17.736V23.496H99.4688V17.736H110.653ZM125.696 13.992H141.392V33H127.088C124.624 33 122.656 32.824 121.184 32.472C119.744 32.088 118.432 31.432 117.248 30.504C113.888 27.912 112.208 23.448 112.208 17.112C112.208 12.984 113.008 9.544 114.608 6.792C115.792 4.776 117.408 3.304 119.456 2.376C121.504 1.448 124.16 0.983997 127.424 0.983997H141.392V6.696H128.192C125.344 6.696 123.28 7.32 122 8.568C120.464 10.04 119.696 12.68 119.696 16.488C119.696 18.44 119.888 20.2 120.272 21.768C120.688 23.336 121.248 24.504 121.952 25.272C122.56 25.976 123.392 26.488 124.448 26.808C125.536 27.128 126.864 27.288 128.432 27.288H134.624V19.704H125.696V13.992ZM166.083 18.792V23.784H152.547C152.675 25.32 153.171 26.408 154.035 27.048C154.899 27.688 156.307 28.008 158.259 28.008H166.083V33H157.539C155.683 33 154.163 32.84 152.979 32.52C151.827 32.168 150.739 31.608 149.715 30.84C146.867 28.632 145.443 25.352 145.443 21C145.443 18.184 146.195 15.72 147.699 13.608C148.723 12.168 149.955 11.144 151.395 10.536C152.835 9.928 154.723 9.624 157.059 9.624H166.083V14.616H157.539C155.779 14.616 154.547 14.92 153.843 15.528C153.139 16.104 152.707 17.192 152.547 18.792H166.083ZM171.308 9.624H183.692C185.548 9.624 186.956 9.768 187.916 10.056C188.908 10.312 189.804 10.792 190.604 11.496C192.236 13 193.052 15.368 193.052 18.6V33H186.62V17.88C186.62 16.728 186.364 15.896 185.852 15.384C185.34 14.872 184.492 14.616 183.308 14.616H177.74V33H171.308V9.624ZM247.538 27.288V33H236.354C234.242 33 232.626 32.888 231.506 32.664C227.57 31.896 224.77 29.704 223.105 26.088C222.018 23.656 221.474 20.648 221.474 17.064C221.474 12.776 222.306 9.288 223.97 6.6C225.186 4.648 226.802 3.224 228.818 2.328C230.866 1.432 233.49 0.983997 236.69 0.983997H247.538V6.696H237.458C234.418 6.696 232.194 7.512 230.786 9.144C229.602 10.488 229.01 12.92 229.01 16.44C229.01 21.176 229.922 24.28 231.746 25.752C233.026 26.776 235.026 27.288 237.746 27.288H247.538ZM252.167 9.624H261.671C263.623 9.624 265.127 9.768 266.183 10.056C267.271 10.312 268.167 10.76 268.871 11.4C269.575 12.04 270.071 12.84 270.359 13.8C270.647 14.76 270.791 16.136 270.791 17.928V20.184H264.599V18.936C264.599 17.272 264.311 16.136 263.735 15.528C263.159 14.92 262.055 14.616 260.423 14.616H258.599V33H252.167V9.624ZM289.932 28.008V9.624H296.364V32.52C296.364 35.56 295.564 37.784 293.964 39.192C292.364 40.6 289.82 41.304 286.332 41.304H274.86V36.312H286.332C287.708 36.312 288.604 36.168 289.02 35.88C289.34 35.688 289.548 35.432 289.644 35.112C289.74 34.824 289.836 34.12 289.932 33H284.22C277.628 33.16 274.508 29.72 274.86 22.68V9.624H281.292V22.056C281.292 24.488 281.5 26.088 281.916 26.856C282.364 27.624 283.276 28.008 284.652 28.008H289.932ZM302.136 9.624H313.368C315.544 9.624 317.192 9.768 318.312 10.056C319.432 10.312 320.504 10.84 321.528 11.64C324.312 13.816 325.704 17.16 325.704 21.672C325.704 25.096 324.68 27.864 322.632 29.976C321.608 31.032 320.424 31.8 319.08 32.28C317.768 32.76 316.152 33 314.232 33H308.568V41.784H302.136V9.624ZM308.568 14.616V28.008H312.504C314.584 28.008 316.104 27.56 317.064 26.664C318.408 25.48 319.08 23.656 319.08 21.192C319.08 19.08 318.552 17.464 317.496 16.344C316.44 15.192 314.92 14.616 312.936 14.616H308.568ZM332.129 9.624V0.983997H338.561V9.624H344.513V14.616H338.561V23.112C338.561 25.096 338.737 26.344 339.089 26.856C339.633 27.624 340.593 28.008 341.969 28.008H344.513V33H339.857C337.073 33 335.089 32.328 333.905 30.984C332.721 29.64 332.129 27.384 332.129 24.216V14.616H328.049V9.624H332.129ZM359.67 9.288C363.99 9.288 367.174 10.536 369.222 13.032C371.11 15.304 372.054 18.168 372.054 21.624C372.054 25.272 370.87 28.184 368.502 30.36C366.326 32.344 363.35 33.336 359.574 33.336C355.67 33.336 352.614 32.216 350.406 29.976C348.358 27.96 347.334 25.016 347.334 21.144C347.334 17.88 348.31 15.16 350.262 12.984C352.438 10.552 355.574 9.32 359.67 9.288ZM359.718 14.184C355.846 14.184 353.91 16.584 353.91 21.384C353.91 23.336 354.23 24.824 354.87 25.848C355.926 27.576 357.558 28.44 359.766 28.44C363.574 28.44 365.478 26.056 365.478 21.288C365.478 16.616 363.558 14.248 359.718 14.184ZM400.952 33V0.983997H419.048C421.896 0.983997 423.96 1.32 425.24 1.992C426.744 2.728 427.88 3.96 428.648 5.688C429.192 6.872 429.464 8.104 429.464 9.384C429.464 11.048 429.016 12.6 428.12 14.04C427.256 15.48 426.152 16.472 424.807 17.016C427.912 18.424 429.464 20.936 429.464 24.552C429.464 26.632 428.968 28.376 427.976 29.784C427.112 31 426.008 31.848 424.664 32.328C423.32 32.776 421.32 33 418.664 33H400.952ZM407.768 14.136H417.032C418.024 14.136 418.728 14.088 419.144 13.992C419.592 13.896 420.024 13.688 420.44 13.368C421.432 12.6 421.927 11.544 421.927 10.2C421.927 8.92 421.464 7.976 420.536 7.368C419.864 6.92 418.744 6.696 417.176 6.696H407.768V14.136ZM407.768 27.288H417.032C418.024 27.288 418.744 27.24 419.192 27.144C419.64 27.048 420.056 26.84 420.44 26.52C421.432 25.752 421.927 24.696 421.927 23.352C421.927 22.072 421.464 21.128 420.536 20.52C419.864 20.072 418.744 19.848 417.176 19.848H407.768V27.288ZM434.323 9.624H443.827C445.779 9.624 447.283 9.768 448.339 10.056C449.427 10.312 450.323 10.76 451.027 11.4C451.731 12.04 452.227 12.84 452.515 13.8C452.803 14.76 452.947 16.136 452.947 17.928V20.184H446.755V18.936C446.755 17.272 446.467 16.136 445.891 15.528C445.315 14.92 444.211 14.616 442.579 14.616H440.755V33H434.323V9.624ZM467.576 9.288C471.896 9.288 475.08 10.536 477.128 13.032C479.016 15.304 479.96 18.168 479.96 21.624C479.96 25.272 478.776 28.184 476.408 30.36C474.232 32.344 471.256 33.336 467.48 33.336C463.576 33.336 460.52 32.216 458.312 29.976C456.264 27.96 455.24 25.016 455.24 21.144C455.24 17.88 456.216 15.16 458.168 12.984C460.344 10.552 463.48 9.32 467.576 9.288ZM467.624 14.184C463.752 14.184 461.816 16.584 461.816 21.384C461.816 23.336 462.136 24.824 462.776 25.848C463.832 27.576 465.464 28.44 467.672 28.44C471.48 28.44 473.384 26.056 473.384 21.288C473.384 16.616 471.464 14.248 467.624 14.184ZM491.146 0.983997V18.888L499.738 9.624H506.938L497.818 18.888H499.546C501.786 18.888 503.338 19.544 504.202 20.856C505.066 22.168 505.498 24.488 505.498 27.816V33H499.066V27.528C499.066 26.056 498.826 25.08 498.346 24.6C497.866 24.088 496.922 23.832 495.514 23.832H491.146V33H484.714V0.983997H491.146ZM529.88 18.792V23.784H516.344C516.472 25.32 516.968 26.408 517.832 27.048C518.696 27.688 520.104 28.008 522.056 28.008H529.88V33H521.336C519.48 33 517.96 32.84 516.776 32.52C515.624 32.168 514.536 31.608 513.512 30.84C510.664 28.632 509.24 25.352 509.24 21C509.24 18.184 509.992 15.72 511.496 13.608C512.52 12.168 513.752 11.144 515.192 10.536C516.632 9.928 518.52 9.624 520.856 9.624H529.88V14.616H521.336C519.576 14.616 518.344 14.92 517.64 15.528C516.936 16.104 516.504 17.192 516.344 18.792H529.88ZM535.104 9.624H544.608C546.56 9.624 548.064 9.768 549.12 10.056C550.208 10.312 551.104 10.76 551.808 11.4C552.512 12.04 553.008 12.84 553.296 13.8C553.584 14.76 553.728 16.136 553.728 17.928V20.184H547.536V18.936C547.536 17.272 547.248 16.136 546.672 15.528C546.096 14.92 544.992 14.616 543.36 14.616H541.536V33H535.104V9.624ZM588.518 21.816V33H581.702V0.983997H597.686C600.598 0.983997 602.678 1.192 603.926 1.608C606.038 2.312 607.702 3.768 608.918 5.976C609.814 7.64 610.262 9.448 610.262 11.4C610.262 13.032 609.958 14.584 609.35 16.056C608.774 17.496 607.958 18.68 606.902 19.608C605.942 20.44 604.918 21.016 603.83 21.336C602.774 21.656 601.318 21.816 599.462 21.816H588.518ZM588.518 16.104H597.782C599.446 16.104 600.614 15.848 601.286 15.336C602.278 14.536 602.774 13.144 602.774 11.16C602.774 9.016 602.022 7.64 600.518 7.032C599.974 6.808 599.11 6.696 597.926 6.696H588.518V16.104ZM614.417 9.624H623.921C625.873 9.624 627.377 9.768 628.433 10.056C629.521 10.312 630.417 10.76 631.121 11.4C631.825 12.04 632.321 12.84 632.609 13.8C632.897 14.76 633.041 16.136 633.041 17.928V20.184H626.849V18.936C626.849 17.272 626.561 16.136 625.985 15.528C625.409 14.92 624.305 14.616 622.673 14.616H620.849V33H614.417V9.624ZM647.67 9.288C651.99 9.288 655.174 10.536 657.222 13.032C659.11 15.304 660.054 18.168 660.054 21.624C660.054 25.272 658.87 28.184 656.502 30.36C654.326 32.344 651.35 33.336 647.574 33.336C643.67 33.336 640.614 32.216 638.406 29.976C636.358 27.96 635.334 25.016 635.334 21.144C635.334 17.88 636.31 15.16 638.262 12.984C640.438 10.552 643.574 9.32 647.67 9.288ZM647.718 14.184C643.846 14.184 641.91 16.584 641.91 21.384C641.91 23.336 642.23 24.824 642.87 25.848C643.926 27.576 645.558 28.44 647.766 28.44C651.574 28.44 653.478 26.056 653.478 21.288C653.478 16.616 651.558 14.248 647.718 14.184ZM666.536 9.624V0.983997H672.968V9.624H678.92V14.616H672.968V23.112C672.968 25.096 673.144 26.344 673.496 26.856C674.04 27.624 675 28.008 676.376 28.008H678.92V33H674.264C671.48 33 669.496 32.328 668.312 30.984C667.128 29.64 666.536 27.384 666.536 24.216V14.616H662.456V9.624H666.536ZM694.076 9.288C698.396 9.288 701.58 10.536 703.628 13.032C705.516 15.304 706.46 18.168 706.46 21.624C706.46 25.272 705.276 28.184 702.908 30.36C700.732 32.344 697.756 33.336 693.98 33.336C690.076 33.336 687.02 32.216 684.812 29.976C682.764 27.96 681.74 25.016 681.74 21.144C681.74 17.88 682.716 15.16 684.668 12.984C686.844 10.552 689.98 9.32 694.076 9.288ZM694.124 14.184C690.252 14.184 688.316 16.584 688.316 21.384C688.316 23.336 688.636 24.824 689.276 25.848C690.332 27.576 691.964 28.44 694.172 28.44C697.98 28.44 699.884 26.056 699.884 21.288C699.884 16.616 697.964 14.248 694.124 14.184ZM730.75 9.624V14.616H723.07C720.478 14.616 718.686 15.192 717.694 16.344C716.734 17.432 716.254 19.096 716.254 21.336C716.254 23.832 717.038 25.656 718.606 26.808C719.246 27.256 719.934 27.576 720.67 27.768C721.438 27.928 722.494 28.008 723.838 28.008H730.75V33H721.966C719.598 33 717.726 32.76 716.35 32.28C714.974 31.8 713.758 30.968 712.702 29.784C710.686 27.544 709.678 24.696 709.678 21.24C709.678 17.08 710.878 13.976 713.278 11.928C714.238 11.096 715.39 10.504 716.734 10.152C718.078 9.8 719.822 9.624 721.966 9.624H730.75ZM746.436 9.288C750.756 9.288 753.94 10.536 755.988 13.032C757.876 15.304 758.82 18.168 758.82 21.624C758.82 25.272 757.636 28.184 755.268 30.36C753.092 32.344 750.116 33.336 746.34 33.336C742.436 33.336 739.38 32.216 737.172 29.976C735.124 27.96 734.1 25.016 734.1 21.144C734.1 17.88 735.076 15.16 737.028 12.984C739.204 10.552 742.34 9.32 746.436 9.288ZM746.484 14.184C742.612 14.184 740.676 16.584 740.676 21.384C740.676 23.336 740.996 24.824 741.636 25.848C742.692 27.576 744.324 28.44 746.532 28.44C750.34 28.44 752.244 26.056 752.244 21.288C752.244 16.616 750.324 14.248 746.484 14.184ZM770.005 33H763.573V0.983997H770.005V33Z" fill="url(#paint0_linear_132_249)"/>
<defs>
<linearGradient id="paint0_linear_132_249" x1="172.919" y1="4.78649" x2="172.919" y2="34.8815" gradientUnits="userSpaceOnUse">
<stop stop-color="#1BFFE4"/>
<stop offset="1" stop-color="#3183FF"/>
</linearGradient>
</defs>
</svg>
