<svg width="213" height="85" viewBox="0 0 213 85" fill="none" xmlns="http://www.w3.org/2000/svg">
<path d="M109.925 0.259351C112.531 0.367817 115.136 0.50702 117.743 0.673148C121.106 0.887867 124.455 1.15334 127.798 1.44745C133.26 1.92945 138.705 2.49499 144.144 3.13094C147.321 3.38894 150.358 3.63519 153.165 3.89216C156.179 4.16837 158.953 4.45947 161.387 4.79313C162.159 4.89939 162.884 5.00807 163.577 5.12186C170.039 6.05072 178.19 8.69027 183.267 11.6456C183.639 11.8417 183.997 12.0315 184.343 12.2153C185.173 12.6582 186.017 13.1099 186.741 13.5013C190.992 15.5654 195.217 17.6628 199.463 20.2055C199.725 20.4312 199.979 20.6578 200.229 20.8854C202.561 23.2265 207.187 25.8049 209.816 32.1701C210.448 33.5987 210.948 35.1442 211.32 36.7846C211.96 39.571 212.202 42.6877 212.206 45.8949C212.218 47.6577 211.835 49.2652 211.322 50.7103C209.995 54.1582 208.809 55.2653 207.957 56.3134C207.698 56.6103 207.453 56.8854 207.218 57.1624C206.406 58.1187 205.839 59.2831 205.161 60.6365C204.655 61.6439 204.09 62.7496 203.328 63.9364C202.334 65.4314 200.888 66.5638 199.384 67.288C188.651 71.1287 185.162 71.3731 181.98 72.8517C181.084 73.1972 180.278 73.5055 179.425 73.7627C179.418 73.7649 179.41 73.7671 179.402 73.7694C176.543 74.6316 172.381 75.072 169.249 75.1452C166.757 75.2241 161.871 75.989 158.155 76.5549C156.749 76.7741 154.835 76.8939 152.579 76.9927C150.248 77.0952 147.549 77.1738 144.658 77.3295C144.198 77.3544 143.75 77.3775 143.314 77.3982C136.829 77.6839 133.241 77.6113 130.318 77.5807C129.431 77.5674 128.604 77.5502 127.776 77.5311C125.245 77.474 122.12 77.3178 118.955 77.1117C119.816 77.7492 120.331 78.3979 120.802 78.8993C120.567 80.5485 119.051 81.754 116.192 82.7555C113.38 83.7255 109.572 84.2375 105.668 84.2434C104.574 84.2442 103.511 84.2435 102.405 84.2389C96.9824 84.2061 91.6959 83.991 86.3986 83.7325C86.0626 83.7316 85.7235 83.7293 85.3908 83.7257C82.8991 83.6974 80.5722 83.8553 78.2439 84.0074C77.7094 84.0424 77.1726 84.0768 76.636 84.1086C72.5515 84.3549 64.825 83.3334 60.5936 82.7536C60.5162 82.7433 60.4399 82.7335 60.3614 82.7231C59.348 82.5854 58.3943 82.4779 57.2846 82.3526C55.8924 82.1955 54.2376 82.0078 51.9314 81.696C49.7275 81.3963 46.9496 80.983 43.2003 80.1899C40.9047 79.8314 38.5629 79.3944 36.2008 78.8228C31.9396 77.8414 27.1711 76.0228 23.4837 74.0892C12.5192 67.912 6.63309 60.1626 1.13362 49.9084C-1.59394 43.2334 1.27588 38.7702 2.71072 35.9172C4.41232 32.9478 6.2827 30.6268 7.7522 28.603C9.60049 26.1543 10.9509 25.5007 12.1721 24.6471C13.3907 23.8688 14.5032 23.2511 15.6211 22.6497C17.8325 21.4685 19.9845 20.4204 22.1398 19.3903C22.405 19.2519 22.6863 19.1058 22.9647 18.9614C23.5484 18.6588 24.1507 18.3492 24.7757 18.0298C30.0764 15.3454 35.9616 12.9682 39.9254 11.607C45.5736 9.69028 49.4247 8.53906 52.5828 7.59257C54.0066 7.09905 55.4301 6.60648 56.8381 6.11678C65.7992 2.80114 76.2006 0.770467 85.5953 0.383028C93.7857 -0.146044 101.864 -0.0673565 109.925 0.259351ZM118.267 8.26574C117.957 8.2985 117.634 8.33406 117.296 8.36935C116.079 8.49424 114.664 8.62012 113.004 8.66004C109.641 8.74245 106.71 8.52197 103.61 8.34217C101.199 8.20405 98.6869 8.0904 95.8142 8.21018C93.8602 8.29203 91.6407 8.48708 89.455 8.72899C88.3963 8.84592 87.3457 8.97347 86.3409 9.1008C84.2073 9.36759 82.2735 9.60374 80.7856 9.71277C79.9581 9.77279 79.2378 9.70271 78.5216 9.64132C78.5185 9.64079 78.515 9.64038 78.5119 9.63985C78.4636 9.63569 78.4151 9.63153 78.3668 9.6275C73.1013 10.4692 68.0861 11.9848 63.0245 13.94C62.6004 14.134 62.1611 14.3358 61.7365 14.5338C61.2356 14.766 60.7616 14.991 60.2752 15.2243C58.6865 15.9854 57.2203 16.7067 56.2227 17.3031C54.8064 18.1501 51.045 19.7425 47.1303 21.4549C44.5666 22.5756 41.9332 23.754 39.8379 24.7918C38.6131 25.398 37.3591 25.7438 36.0788 26.1092C34.8846 26.4504 33.6627 26.8102 32.4464 27.4156C31.8338 27.7207 31.2056 28.0924 30.5495 28.4954C30.4072 28.5828 30.2658 28.6713 30.1253 28.7591C29.6401 29.0554 29.1577 29.349 28.6373 29.6467C27.9993 30.0127 26.5096 30.661 24.6285 31.5215C23.4805 32.0468 22.1655 32.6626 20.8873 33.3258C20.0674 33.8309 19.2836 34.3391 18.6409 34.814C18.0118 35.2506 17.5078 35.8322 17.8024 35.5277C16.5837 37.3711 15.472 38.9526 14.5654 40.4774C14.2909 41.1829 14.1541 41.7988 14.1597 42.2998C14.164 42.6588 14.2377 42.9761 14.3294 43.2795C14.457 43.6866 14.6136 44.0831 14.7531 44.4151C14.7542 44.4179 14.7554 44.4212 14.7565 44.4241C14.8071 44.326 14.8365 44.1885 14.7874 43.9954C14.7458 43.8371 14.6849 43.6667 14.6082 43.5051C15.0476 44.432 15.8948 45.9116 16.7672 47.2527C17.9075 49.015 19.1801 50.7133 20.2795 51.952C21.509 53.3458 23.1634 55.4144 24.9436 57.2063C26.1793 58.4592 27.4681 59.5669 28.5863 60.3018C29.0211 60.5893 29.4748 60.8351 29.9186 61.0333C30.8918 61.4827 31.7992 61.8524 32.6628 62.1669C34.3778 62.7951 35.9898 63.2306 37.4001 63.8108C37.6901 63.9299 37.9965 64.2248 38.4023 64.5918C38.6941 64.853 39.0256 65.1479 39.4421 65.4413C41.4048 65.9166 43.4561 66.3157 45.5434 66.6674C45.622 66.6526 45.7034 66.6377 45.7853 66.6221C45.7866 66.6217 45.7881 66.6218 45.7893 66.6214C47.6095 66.2646 50.0671 65.7367 53.4031 66.6159C53.4452 66.6269 53.4868 66.6384 53.5275 66.6497C54.3151 66.8697 54.8467 67.1579 55.2952 67.4153C55.7712 67.6824 56.1988 67.9213 56.8429 68.0298C57.5905 68.1546 58.4687 68.1134 59.4321 68.0691C60.7995 68.0083 62.3004 67.9365 63.7825 68.2996C63.8826 68.3243 63.9905 68.3514 64.1031 68.3787C65.1819 68.6394 66.7525 69.0214 68.3132 69.6249C73.0422 70.2168 77.7721 70.8106 82.4955 71.383C85.9223 71.7944 89.3559 72.2051 92.7748 72.5795C89.7628 71.4672 86.8554 70.1856 84.1059 68.8187C81.2656 67.4235 78.7525 65.7536 76.8083 64.1008L76.8426 64.1182C76.2603 63.6266 75.7358 63.1422 75.2656 62.6671C73.3038 60.6613 72.2605 58.8627 72.8245 57.6562C73.3812 56.4783 75.2669 55.866 78.3277 56.2319C79.0305 56.315 79.7651 56.4424 80.5336 56.6152C80.539 56.6181 80.5556 56.6264 80.5612 56.6294C83.0292 57.1896 85.7884 58.1593 88.4771 59.307C94.4016 61.8627 100.229 63.6907 106.33 64.4769L106.189 64.4569C107.457 64.5934 108.731 64.7255 110.004 64.8526C119.542 65.7981 129.091 66.5058 138.538 66.7551C140.132 66.7956 141.723 66.8188 143.307 66.8214C148.326 66.8291 153.346 66.68 158.346 66.3559C159.023 66.3119 159.703 66.2646 160.378 66.214C165.874 65.4339 171.276 64.3897 174.958 63.5784C175.732 63.41 176.46 63.2579 177.126 63.1228C179.223 62.695 180.912 62.451 182.402 62.2246C183.78 62.0152 184.989 61.8215 186.166 61.5117C186.799 61.3444 187.649 61.106 188.647 60.8013C189.882 60.4222 191.363 59.9394 192.71 59.3635C194.068 58.8288 195.161 57.9705 195.017 58.0359C196.624 55.7861 198.306 53.5226 199.716 51.4796C201.177 49.4413 202.572 46.893 202.707 46.0068C202.729 45.6847 202.75 45.3715 202.768 45.0633C203.075 40.8803 202.598 37.4014 201.782 35.7357C201.679 35.5102 201.585 35.3183 201.497 35.153C200.328 32.6098 197.435 30.3454 194.038 28.0457C190.896 25.9439 187.869 24.2248 186.042 23.5099C183.848 22.6593 182.125 21.6638 179.512 20.1965C179.396 20.1315 179.278 20.0657 179.157 19.9983C177.417 19.0341 175.42 17.9026 172.626 16.8736C169.172 15.6262 166.499 14.8955 164.239 14.2636C162.717 13.8487 161.344 13.5044 159.926 13.2224C158.367 12.9134 156.744 12.6795 154.757 12.5361C150.543 12.2318 146.147 11.8641 142.714 11.3349C141.151 11.0935 139.351 10.892 137.479 10.6951C134.999 10.4339 132.391 10.1806 130.021 9.83341C128.068 9.54716 126.467 9.15058 125.049 8.80617C124.605 8.69868 124.183 8.5969 123.769 8.50467C122.204 8.3843 120.637 8.27625 119.072 8.18295C118.817 8.20777 118.549 8.23603 118.267 8.26574Z" fill="#21D2D2"/>
</svg>
