<svg width="285" height="312" viewBox="0 0 285 312" fill="none" xmlns="http://www.w3.org/2000/svg">
<g filter="url(#filter0_i_132_310)">
<path d="M0 16C0 7.16344 7.16344 0 16 0H269C277.837 0 285 7.16344 285 16V296C285 304.837 277.837 312 269 312H16C7.16345 312 0 304.837 0 296V16Z" fill="url(#paint0_linear_132_310)"/>
</g>
<path d="M124.023 60.32C129.003 60.32 132.903 62.36 135.723 66.56C138.363 70.52 139.683 75.86 139.683 82.58C139.683 89.3 138.363 94.64 135.723 98.6C132.903 102.74 129.003 104.84 124.023 104.84C118.983 104.84 115.083 102.74 112.323 98.6C109.683 94.64 108.363 89.3 108.363 82.58C108.363 75.86 109.683 70.52 112.323 66.56C115.083 62.36 118.983 60.32 124.023 60.32ZM124.023 66.26C120.603 66.26 118.203 68.12 116.823 71.96C115.863 74.54 115.383 78.08 115.383 82.58C115.383 87.02 115.863 90.56 116.823 93.2C118.203 96.98 120.603 98.9 124.023 98.9C127.383 98.9 129.783 96.98 131.223 93.2C132.183 90.56 132.663 87.02 132.663 82.58C132.663 78.08 132.183 74.54 131.223 71.96C129.783 68.12 127.383 66.26 124.023 66.26ZM164.08 61.16H170.5V89.24H176.86V94.82H170.5V104H163.84V94.82H143.14V88.16L164.08 61.16ZM163.66 70.04L148.84 89.24H163.84V70.04H163.66Z" fill="white"/>
<path d="M101.959 146.021L104.282 145.817C104.392 146.748 104.646 147.514 105.044 148.115C105.45 148.708 106.076 149.19 106.923 149.562C107.769 149.926 108.721 150.108 109.779 150.108C110.719 150.108 111.548 149.969 112.268 149.689C112.987 149.41 113.52 149.029 113.867 148.547C114.223 148.056 114.4 147.523 114.4 146.947C114.4 146.363 114.231 145.855 113.893 145.424C113.554 144.984 112.995 144.616 112.217 144.319C111.717 144.125 110.613 143.824 108.903 143.418C107.194 143.003 105.996 142.614 105.311 142.25C104.422 141.785 103.757 141.209 103.317 140.523C102.886 139.829 102.67 139.055 102.67 138.2C102.67 137.261 102.937 136.385 103.47 135.572C104.003 134.751 104.782 134.129 105.806 133.706C106.83 133.283 107.968 133.071 109.221 133.071C110.6 133.071 111.815 133.296 112.864 133.744C113.922 134.184 114.735 134.836 115.302 135.699C115.869 136.562 116.174 137.54 116.216 138.632L113.854 138.81C113.728 137.633 113.296 136.744 112.56 136.144C111.832 135.543 110.753 135.242 109.322 135.242C107.833 135.242 106.745 135.517 106.06 136.067C105.382 136.609 105.044 137.265 105.044 138.035C105.044 138.704 105.285 139.254 105.768 139.686C106.242 140.117 107.477 140.562 109.475 141.019C111.48 141.467 112.856 141.861 113.601 142.199C114.684 142.699 115.484 143.333 116 144.104C116.516 144.865 116.774 145.745 116.774 146.744C116.774 147.734 116.491 148.67 115.924 149.55C115.357 150.422 114.54 151.103 113.474 151.594C112.416 152.076 111.222 152.317 109.894 152.317C108.209 152.317 106.796 152.072 105.653 151.581C104.519 151.09 103.626 150.354 102.975 149.372C102.331 148.382 101.993 147.265 101.959 146.021ZM129.076 147.658L131.438 147.95C131.065 149.33 130.375 150.4 129.368 151.162C128.361 151.924 127.075 152.305 125.509 152.305C123.537 152.305 121.971 151.7 120.812 150.489C119.66 149.271 119.085 147.565 119.085 145.373C119.085 143.105 119.669 141.344 120.837 140.092C122.005 138.839 123.52 138.213 125.382 138.213C127.185 138.213 128.657 138.826 129.8 140.054C130.942 141.281 131.514 143.007 131.514 145.233C131.514 145.369 131.509 145.572 131.501 145.843H121.446C121.531 147.324 121.95 148.458 122.703 149.245C123.456 150.032 124.396 150.426 125.521 150.426C126.359 150.426 127.075 150.206 127.667 149.766C128.259 149.326 128.729 148.623 129.076 147.658ZM121.573 143.964H129.102C129 142.83 128.712 141.979 128.238 141.412C127.51 140.532 126.567 140.092 125.407 140.092C124.358 140.092 123.473 140.443 122.754 141.146C122.043 141.848 121.649 142.787 121.573 143.964ZM143.117 147.062L145.364 147.354C145.119 148.902 144.488 150.117 143.473 150.997C142.465 151.869 141.226 152.305 139.753 152.305C137.908 152.305 136.423 151.704 135.297 150.502C134.18 149.292 133.621 147.561 133.621 145.31C133.621 143.854 133.862 142.58 134.345 141.488C134.827 140.396 135.559 139.58 136.541 139.038C137.531 138.488 138.606 138.213 139.766 138.213C141.23 138.213 142.427 138.585 143.358 139.33C144.289 140.066 144.886 141.116 145.148 142.479L142.927 142.821C142.715 141.916 142.339 141.234 141.797 140.777C141.264 140.32 140.616 140.092 139.854 140.092C138.703 140.092 137.768 140.507 137.049 141.336C136.329 142.157 135.97 143.46 135.97 145.246C135.97 147.057 136.317 148.373 137.011 149.194C137.705 150.015 138.61 150.426 139.728 150.426C140.625 150.426 141.374 150.151 141.975 149.601C142.576 149.05 142.956 148.204 143.117 147.062ZM156.155 152V150.02C155.106 151.543 153.68 152.305 151.877 152.305C151.081 152.305 150.337 152.152 149.643 151.848C148.957 151.543 148.445 151.162 148.106 150.705C147.776 150.24 147.544 149.673 147.408 149.004C147.315 148.555 147.269 147.844 147.269 146.871V138.518H149.554V145.995C149.554 147.188 149.6 147.993 149.693 148.407C149.837 149.008 150.142 149.482 150.607 149.829C151.073 150.168 151.648 150.337 152.334 150.337C153.02 150.337 153.663 150.163 154.264 149.816C154.865 149.461 155.288 148.983 155.533 148.382C155.787 147.772 155.914 146.892 155.914 145.741V138.518H158.199V152H156.155ZM161.767 152V138.518H163.823V140.562C164.348 139.605 164.83 138.975 165.271 138.67C165.719 138.365 166.21 138.213 166.743 138.213C167.513 138.213 168.296 138.458 169.092 138.949L168.305 141.069C167.746 140.739 167.188 140.574 166.629 140.574C166.13 140.574 165.681 140.727 165.283 141.031C164.885 141.327 164.602 141.742 164.433 142.275C164.179 143.088 164.052 143.977 164.052 144.941V152H161.767ZM179.68 147.658L182.041 147.95C181.669 149.33 180.979 150.4 179.972 151.162C178.965 151.924 177.678 152.305 176.112 152.305C174.14 152.305 172.575 151.7 171.415 150.489C170.264 149.271 169.688 147.565 169.688 145.373C169.688 143.105 170.272 141.344 171.44 140.092C172.608 138.839 174.123 138.213 175.985 138.213C177.788 138.213 179.261 138.826 180.403 140.054C181.546 141.281 182.117 143.007 182.117 145.233C182.117 145.369 182.113 145.572 182.104 145.843H172.05C172.134 147.324 172.553 148.458 173.307 149.245C174.06 150.032 174.999 150.426 176.125 150.426C176.963 150.426 177.678 150.206 178.271 149.766C178.863 149.326 179.333 148.623 179.68 147.658ZM172.177 143.964H179.705C179.604 142.83 179.316 141.979 178.842 141.412C178.114 140.532 177.17 140.092 176.011 140.092C174.961 140.092 174.077 140.443 173.357 141.146C172.646 141.848 172.253 142.787 172.177 143.964ZM109.563 175.475L112.026 176.097C111.51 178.119 110.579 179.664 109.233 180.73C107.896 181.788 106.258 182.317 104.32 182.317C102.314 182.317 100.681 181.911 99.4199 181.099C98.1673 180.278 97.2109 179.093 96.5508 177.544C95.8991 175.995 95.5732 174.332 95.5732 172.555C95.5732 170.617 95.9414 168.928 96.6777 167.489C97.4225 166.042 98.4762 164.946 99.8389 164.201C101.21 163.448 102.716 163.071 104.358 163.071C106.22 163.071 107.786 163.545 109.056 164.493C110.325 165.441 111.21 166.774 111.709 168.492L109.284 169.063C108.853 167.709 108.226 166.723 107.405 166.105C106.584 165.488 105.552 165.179 104.308 165.179C102.877 165.179 101.68 165.521 100.715 166.207C99.7585 166.893 99.0856 167.815 98.6963 168.975C98.307 170.126 98.1123 171.315 98.1123 172.542C98.1123 174.125 98.3408 175.508 98.7979 176.693C99.2633 177.87 99.9827 178.75 100.956 179.334C101.929 179.918 102.983 180.21 104.117 180.21C105.497 180.21 106.665 179.812 107.621 179.017C108.577 178.221 109.225 177.04 109.563 175.475ZM123.617 182V180.02C122.568 181.543 121.142 182.305 119.339 182.305C118.543 182.305 117.799 182.152 117.104 181.848C116.419 181.543 115.907 181.162 115.568 180.705C115.238 180.24 115.006 179.673 114.87 179.004C114.777 178.555 114.73 177.844 114.73 176.871V168.518H117.016V175.995C117.016 177.188 117.062 177.993 117.155 178.407C117.299 179.008 117.604 179.482 118.069 179.829C118.535 180.168 119.11 180.337 119.796 180.337C120.481 180.337 121.125 180.163 121.726 179.816C122.326 179.461 122.75 178.983 122.995 178.382C123.249 177.772 123.376 176.892 123.376 175.741V168.518H125.661V182H123.617ZM128.34 177.976L130.6 177.62C130.727 178.526 131.078 179.22 131.653 179.702C132.237 180.185 133.05 180.426 134.091 180.426C135.14 180.426 135.919 180.214 136.427 179.791C136.935 179.359 137.188 178.856 137.188 178.28C137.188 177.764 136.964 177.358 136.516 177.062C136.202 176.858 135.424 176.6 134.18 176.287C132.504 175.864 131.34 175.5 130.688 175.195C130.045 174.882 129.554 174.455 129.216 173.913C128.886 173.363 128.721 172.758 128.721 172.098C128.721 171.497 128.856 170.942 129.127 170.435C129.406 169.918 129.783 169.491 130.257 169.152C130.612 168.89 131.095 168.67 131.704 168.492C132.322 168.306 132.982 168.213 133.685 168.213C134.743 168.213 135.669 168.365 136.465 168.67C137.269 168.975 137.861 169.389 138.242 169.914C138.623 170.43 138.885 171.124 139.029 171.996L136.795 172.301C136.693 171.607 136.397 171.065 135.906 170.676C135.424 170.286 134.738 170.092 133.85 170.092C132.8 170.092 132.051 170.265 131.603 170.612C131.154 170.959 130.93 171.366 130.93 171.831C130.93 172.127 131.023 172.394 131.209 172.631C131.395 172.876 131.687 173.079 132.085 173.24C132.313 173.325 132.986 173.52 134.104 173.824C135.72 174.256 136.846 174.611 137.48 174.891C138.124 175.161 138.627 175.559 138.991 176.084C139.355 176.609 139.537 177.26 139.537 178.039C139.537 178.801 139.313 179.52 138.864 180.197C138.424 180.866 137.785 181.386 136.947 181.759C136.109 182.123 135.161 182.305 134.104 182.305C132.352 182.305 131.014 181.941 130.092 181.213C129.178 180.485 128.594 179.406 128.34 177.976ZM147.243 179.956L147.573 181.975C146.93 182.11 146.354 182.178 145.847 182.178C145.017 182.178 144.374 182.047 143.917 181.784C143.46 181.522 143.138 181.179 142.952 180.756C142.766 180.324 142.673 179.423 142.673 178.052V170.295H140.997V168.518H142.673V165.179L144.945 163.808V168.518H147.243V170.295H144.945V178.179C144.945 178.83 144.983 179.249 145.06 179.436C145.144 179.622 145.275 179.77 145.453 179.88C145.639 179.99 145.902 180.045 146.24 180.045C146.494 180.045 146.828 180.015 147.243 179.956ZM148.64 175.259C148.64 172.762 149.334 170.913 150.722 169.711C151.881 168.712 153.295 168.213 154.962 168.213C156.815 168.213 158.33 168.822 159.507 170.041C160.683 171.251 161.271 172.927 161.271 175.068C161.271 176.803 161.009 178.17 160.484 179.169C159.968 180.159 159.211 180.929 158.212 181.479C157.222 182.03 156.138 182.305 154.962 182.305C153.075 182.305 151.547 181.7 150.379 180.489C149.219 179.279 148.64 177.535 148.64 175.259ZM150.988 175.259C150.988 176.985 151.365 178.28 152.118 179.144C152.871 179.998 153.819 180.426 154.962 180.426C156.096 180.426 157.04 179.994 157.793 179.131C158.546 178.268 158.923 176.951 158.923 175.183C158.923 173.515 158.542 172.254 157.78 171.399C157.027 170.536 156.088 170.104 154.962 170.104C153.819 170.104 152.871 170.532 152.118 171.387C151.365 172.242 150.988 173.532 150.988 175.259ZM172.71 182V180.299C171.855 181.636 170.598 182.305 168.939 182.305C167.865 182.305 166.874 182.008 165.969 181.416C165.072 180.824 164.373 179.998 163.874 178.94C163.383 177.874 163.138 176.651 163.138 175.271C163.138 173.926 163.362 172.707 163.811 171.615C164.259 170.515 164.932 169.673 165.829 169.089C166.726 168.505 167.729 168.213 168.838 168.213C169.65 168.213 170.374 168.386 171.009 168.733C171.644 169.072 172.16 169.516 172.558 170.066V163.389H174.83V182H172.71ZM165.486 175.271C165.486 176.998 165.85 178.289 166.578 179.144C167.306 179.998 168.165 180.426 169.155 180.426C170.154 180.426 171 180.02 171.694 179.207C172.397 178.386 172.748 177.138 172.748 175.462C172.748 173.617 172.393 172.263 171.682 171.399C170.971 170.536 170.095 170.104 169.054 170.104C168.038 170.104 167.188 170.519 166.502 171.349C165.825 172.178 165.486 173.486 165.486 175.271ZM178.334 187.192L178.08 185.047C178.579 185.182 179.015 185.25 179.388 185.25C179.896 185.25 180.302 185.165 180.606 184.996C180.911 184.827 181.161 184.59 181.355 184.285C181.499 184.057 181.732 183.49 182.054 182.584C182.096 182.457 182.164 182.271 182.257 182.025L177.141 168.518H179.604L182.409 176.325C182.773 177.315 183.099 178.356 183.387 179.448C183.649 178.399 183.962 177.375 184.326 176.376L187.208 168.518H189.493L184.364 182.229C183.814 183.71 183.387 184.729 183.082 185.288C182.676 186.041 182.21 186.591 181.686 186.938C181.161 187.294 180.535 187.472 179.807 187.472C179.367 187.472 178.876 187.379 178.334 187.192Z" fill="white"/>
<path d="M48.3184 237.4L50.1055 237.244C50.1901 237.96 50.3854 238.549 50.6914 239.012C51.0039 239.467 51.4857 239.839 52.1367 240.125C52.7878 240.405 53.5202 240.545 54.334 240.545C55.0566 240.545 55.6947 240.438 56.248 240.223C56.8014 240.008 57.2116 239.715 57.4785 239.344C57.752 238.966 57.8887 238.556 57.8887 238.113C57.8887 237.664 57.7585 237.273 57.498 236.941C57.2376 236.603 56.8079 236.32 56.209 236.092C55.8249 235.942 54.9753 235.711 53.6602 235.398C52.3451 235.079 51.4238 234.78 50.8965 234.5C50.2129 234.142 49.7018 233.699 49.3633 233.172C49.0312 232.638 48.8652 232.042 48.8652 231.385C48.8652 230.662 49.0703 229.988 49.4805 229.363C49.8906 228.732 50.4896 228.253 51.2773 227.928C52.0651 227.602 52.9408 227.439 53.9043 227.439C54.9655 227.439 55.8997 227.612 56.707 227.957C57.5208 228.296 58.1458 228.797 58.582 229.461C59.0182 230.125 59.2526 230.877 59.2852 231.717L57.4688 231.854C57.3711 230.949 57.0391 230.265 56.4727 229.803C55.9128 229.34 55.0827 229.109 53.9824 229.109C52.8366 229.109 52 229.321 51.4727 229.744C50.9518 230.161 50.6914 230.665 50.6914 231.258C50.6914 231.772 50.877 232.195 51.248 232.527C51.6126 232.859 52.5632 233.201 54.0996 233.553C55.6426 233.898 56.7005 234.201 57.2734 234.461C58.1068 234.845 58.722 235.333 59.1191 235.926C59.5163 236.512 59.7148 237.189 59.7148 237.957C59.7148 238.719 59.4967 239.438 59.0605 240.115C58.6243 240.786 57.9961 241.31 57.1758 241.688C56.362 242.059 55.444 242.244 54.4219 242.244C53.1263 242.244 52.0391 242.055 51.1602 241.678C50.2878 241.3 49.6009 240.734 49.0996 239.979C48.6048 239.217 48.3444 238.357 48.3184 237.4ZM69.1777 238.66L70.9941 238.885C70.7077 239.946 70.1771 240.77 69.4023 241.355C68.6276 241.941 67.638 242.234 66.4336 242.234C64.9167 242.234 63.7122 241.769 62.8203 240.838C61.9349 239.9 61.4922 238.589 61.4922 236.902C61.4922 235.158 61.9414 233.803 62.8398 232.84C63.7383 231.876 64.9036 231.395 66.3359 231.395C67.7227 231.395 68.8555 231.867 69.7344 232.811C70.6133 233.755 71.0527 235.083 71.0527 236.795C71.0527 236.899 71.0495 237.055 71.043 237.264H63.3086C63.3737 238.403 63.696 239.275 64.2754 239.881C64.8548 240.486 65.5775 240.789 66.4434 240.789C67.0879 240.789 67.638 240.62 68.0938 240.281C68.5495 239.943 68.9108 239.402 69.1777 238.66ZM63.4062 235.818H69.1973C69.1191 234.946 68.8978 234.292 68.5332 233.855C67.9733 233.178 67.2474 232.84 66.3555 232.84C65.5482 232.84 64.8678 233.11 64.3145 233.65C63.7676 234.191 63.4648 234.913 63.4062 235.818ZM72.8887 242.859L74.5977 243.113C74.6693 243.641 74.8678 244.025 75.1934 244.266C75.6296 244.591 76.2253 244.754 76.9805 244.754C77.7943 244.754 78.4225 244.591 78.8652 244.266C79.3079 243.94 79.6074 243.484 79.7637 242.898C79.8548 242.54 79.8971 241.788 79.8906 240.643C79.1224 241.548 78.1654 242 77.0195 242C75.5938 242 74.4902 241.486 73.709 240.457C72.9277 239.428 72.5371 238.195 72.5371 236.756C72.5371 235.766 72.7161 234.855 73.0742 234.021C73.4323 233.182 73.9499 232.534 74.627 232.078C75.3105 231.622 76.1113 231.395 77.0293 231.395C78.2533 231.395 79.2624 231.889 80.0566 232.879V231.629H81.6777V240.594C81.6777 242.208 81.5117 243.351 81.1797 244.021C80.8542 244.699 80.3333 245.232 79.6172 245.623C78.9076 246.014 78.0319 246.209 76.9902 246.209C75.7533 246.209 74.7539 245.929 73.9922 245.369C73.2305 244.816 72.8626 243.979 72.8887 242.859ZM74.3438 236.629C74.3438 237.99 74.6139 238.982 75.1543 239.607C75.6947 240.232 76.3717 240.545 77.1855 240.545C77.9928 240.545 78.6699 240.236 79.2168 239.617C79.7637 238.992 80.0371 238.016 80.0371 236.688C80.0371 235.418 79.7539 234.461 79.1875 233.816C78.6276 233.172 77.9505 232.85 77.1562 232.85C76.375 232.85 75.7109 233.169 75.1641 233.807C74.6172 234.438 74.3438 235.379 74.3438 236.629ZM84.3242 242V231.629H85.9062V233.201C86.3099 232.465 86.681 231.98 87.0195 231.746C87.3646 231.512 87.7422 231.395 88.1523 231.395C88.7448 231.395 89.347 231.583 89.959 231.961L89.3535 233.592C88.9238 233.338 88.4941 233.211 88.0645 233.211C87.6803 233.211 87.3353 233.328 87.0293 233.562C86.7233 233.79 86.5052 234.109 86.375 234.52C86.1797 235.145 86.082 235.828 86.082 236.57V242H84.3242ZM98.1035 238.66L99.9199 238.885C99.6335 239.946 99.1029 240.77 98.3281 241.355C97.5534 241.941 96.5638 242.234 95.3594 242.234C93.8424 242.234 92.638 241.769 91.7461 240.838C90.8607 239.9 90.418 238.589 90.418 236.902C90.418 235.158 90.8672 233.803 91.7656 232.84C92.6641 231.876 93.8294 231.395 95.2617 231.395C96.6484 231.395 97.7812 231.867 98.6602 232.811C99.5391 233.755 99.9785 235.083 99.9785 236.795C99.9785 236.899 99.9753 237.055 99.9688 237.264H92.2344C92.2995 238.403 92.6217 239.275 93.2012 239.881C93.7806 240.486 94.5033 240.789 95.3691 240.789C96.0137 240.789 96.5638 240.62 97.0195 240.281C97.4753 239.943 97.8366 239.402 98.1035 238.66ZM92.332 235.818H98.123C98.0449 234.946 97.8236 234.292 97.459 233.855C96.8991 233.178 96.1732 232.84 95.2812 232.84C94.474 232.84 93.7936 233.11 93.2402 233.65C92.6934 234.191 92.3906 234.913 92.332 235.818ZM101.814 242.859L103.523 243.113C103.595 243.641 103.794 244.025 104.119 244.266C104.555 244.591 105.151 244.754 105.906 244.754C106.72 244.754 107.348 244.591 107.791 244.266C108.234 243.94 108.533 243.484 108.689 242.898C108.781 242.54 108.823 241.788 108.816 240.643C108.048 241.548 107.091 242 105.945 242C104.52 242 103.416 241.486 102.635 240.457C101.854 239.428 101.463 238.195 101.463 236.756C101.463 235.766 101.642 234.855 102 234.021C102.358 233.182 102.876 232.534 103.553 232.078C104.236 231.622 105.037 231.395 105.955 231.395C107.179 231.395 108.188 231.889 108.982 232.879V231.629H110.604V240.594C110.604 242.208 110.438 243.351 110.105 244.021C109.78 244.699 109.259 245.232 108.543 245.623C107.833 246.014 106.958 246.209 105.916 246.209C104.679 246.209 103.68 245.929 102.918 245.369C102.156 244.816 101.788 243.979 101.814 242.859ZM103.27 236.629C103.27 237.99 103.54 238.982 104.08 239.607C104.62 240.232 105.298 240.545 106.111 240.545C106.919 240.545 107.596 240.236 108.143 239.617C108.689 238.992 108.963 238.016 108.963 236.688C108.963 235.418 108.68 234.461 108.113 233.816C107.553 233.172 106.876 232.85 106.082 232.85C105.301 232.85 104.637 233.169 104.09 233.807C103.543 234.438 103.27 235.379 103.27 236.629ZM120.037 240.721C119.386 241.274 118.758 241.665 118.152 241.893C117.553 242.12 116.909 242.234 116.219 242.234C115.079 242.234 114.204 241.958 113.592 241.404C112.98 240.844 112.674 240.132 112.674 239.266C112.674 238.758 112.788 238.296 113.016 237.879C113.25 237.456 113.553 237.117 113.924 236.863C114.301 236.609 114.725 236.417 115.193 236.287C115.538 236.196 116.059 236.108 116.756 236.023C118.175 235.854 119.22 235.652 119.891 235.418C119.897 235.177 119.9 235.024 119.9 234.959C119.9 234.243 119.734 233.738 119.402 233.445C118.953 233.048 118.286 232.85 117.4 232.85C116.574 232.85 115.962 232.996 115.564 233.289C115.174 233.576 114.884 234.087 114.695 234.822L112.977 234.588C113.133 233.852 113.39 233.26 113.748 232.811C114.106 232.355 114.624 232.007 115.301 231.766C115.978 231.518 116.762 231.395 117.654 231.395C118.54 231.395 119.259 231.499 119.812 231.707C120.366 231.915 120.773 232.179 121.033 232.498C121.294 232.811 121.476 233.208 121.58 233.689C121.639 233.989 121.668 234.529 121.668 235.311V237.654C121.668 239.288 121.704 240.324 121.775 240.76C121.854 241.189 122.003 241.603 122.225 242H120.389C120.206 241.635 120.089 241.209 120.037 240.721ZM119.891 236.795C119.253 237.055 118.296 237.277 117.02 237.459C116.297 237.563 115.786 237.68 115.486 237.811C115.187 237.941 114.956 238.133 114.793 238.387C114.63 238.634 114.549 238.911 114.549 239.217C114.549 239.686 114.725 240.076 115.076 240.389C115.434 240.701 115.955 240.857 116.639 240.857C117.316 240.857 117.918 240.711 118.445 240.418C118.973 240.118 119.36 239.712 119.607 239.197C119.796 238.8 119.891 238.214 119.891 237.439V236.795ZM128.24 240.428L128.494 241.98C127.999 242.085 127.557 242.137 127.166 242.137C126.528 242.137 126.033 242.036 125.682 241.834C125.33 241.632 125.083 241.368 124.939 241.043C124.796 240.711 124.725 240.018 124.725 238.963V232.996H123.436V231.629H124.725V229.061L126.473 228.006V231.629H128.24V232.996H126.473V239.061C126.473 239.562 126.502 239.884 126.561 240.027C126.626 240.171 126.727 240.285 126.863 240.369C127.007 240.454 127.208 240.496 127.469 240.496C127.664 240.496 127.921 240.473 128.24 240.428ZM137.068 238.66L138.885 238.885C138.598 239.946 138.068 240.77 137.293 241.355C136.518 241.941 135.529 242.234 134.324 242.234C132.807 242.234 131.603 241.769 130.711 240.838C129.826 239.9 129.383 238.589 129.383 236.902C129.383 235.158 129.832 233.803 130.73 232.84C131.629 231.876 132.794 231.395 134.227 231.395C135.613 231.395 136.746 231.867 137.625 232.811C138.504 233.755 138.943 235.083 138.943 236.795C138.943 236.899 138.94 237.055 138.934 237.264H131.199C131.264 238.403 131.587 239.275 132.166 239.881C132.745 240.486 133.468 240.789 134.334 240.789C134.979 240.789 135.529 240.62 135.984 240.281C136.44 239.943 136.801 239.402 137.068 238.66ZM131.297 235.818H137.088C137.01 234.946 136.788 234.292 136.424 233.855C135.864 233.178 135.138 232.84 134.246 232.84C133.439 232.84 132.758 233.11 132.205 233.65C131.658 234.191 131.355 234.913 131.297 235.818ZM147.83 242V240.691C147.173 241.72 146.206 242.234 144.93 242.234C144.103 242.234 143.341 242.007 142.645 241.551C141.954 241.095 141.417 240.46 141.033 239.646C140.656 238.826 140.467 237.885 140.467 236.824C140.467 235.789 140.639 234.852 140.984 234.012C141.329 233.165 141.847 232.518 142.537 232.068C143.227 231.619 143.999 231.395 144.852 231.395C145.477 231.395 146.033 231.528 146.521 231.795C147.01 232.055 147.407 232.397 147.713 232.82V227.684H149.461V242H147.83ZM142.273 236.824C142.273 238.152 142.553 239.145 143.113 239.803C143.673 240.46 144.334 240.789 145.096 240.789C145.864 240.789 146.515 240.477 147.049 239.852C147.589 239.22 147.859 238.26 147.859 236.971C147.859 235.551 147.586 234.51 147.039 233.846C146.492 233.182 145.818 232.85 145.018 232.85C144.236 232.85 143.582 233.169 143.055 233.807C142.534 234.445 142.273 235.451 142.273 236.824ZM164.568 240.721C163.917 241.274 163.289 241.665 162.684 241.893C162.085 242.12 161.44 242.234 160.75 242.234C159.611 242.234 158.735 241.958 158.123 241.404C157.511 240.844 157.205 240.132 157.205 239.266C157.205 238.758 157.319 238.296 157.547 237.879C157.781 237.456 158.084 237.117 158.455 236.863C158.833 236.609 159.256 236.417 159.725 236.287C160.07 236.196 160.59 236.108 161.287 236.023C162.706 235.854 163.751 235.652 164.422 235.418C164.428 235.177 164.432 235.024 164.432 234.959C164.432 234.243 164.266 233.738 163.934 233.445C163.484 233.048 162.817 232.85 161.932 232.85C161.105 232.85 160.493 232.996 160.096 233.289C159.705 233.576 159.415 234.087 159.227 234.822L157.508 234.588C157.664 233.852 157.921 233.26 158.279 232.811C158.637 232.355 159.155 232.007 159.832 231.766C160.509 231.518 161.294 231.395 162.186 231.395C163.071 231.395 163.79 231.499 164.344 231.707C164.897 231.915 165.304 232.179 165.564 232.498C165.825 232.811 166.007 233.208 166.111 233.689C166.17 233.989 166.199 234.529 166.199 235.311V237.654C166.199 239.288 166.235 240.324 166.307 240.76C166.385 241.189 166.535 241.603 166.756 242H164.92C164.738 241.635 164.62 241.209 164.568 240.721ZM164.422 236.795C163.784 237.055 162.827 237.277 161.551 237.459C160.828 237.563 160.317 237.68 160.018 237.811C159.718 237.941 159.487 238.133 159.324 238.387C159.161 238.634 159.08 238.911 159.08 239.217C159.08 239.686 159.256 240.076 159.607 240.389C159.965 240.701 160.486 240.857 161.17 240.857C161.847 240.857 162.449 240.711 162.977 240.418C163.504 240.118 163.891 239.712 164.139 239.197C164.327 238.8 164.422 238.214 164.422 237.439V236.795ZM175.701 238.201L177.43 238.426C177.241 239.617 176.756 240.551 175.975 241.229C175.2 241.899 174.246 242.234 173.113 242.234C171.694 242.234 170.551 241.772 169.686 240.848C168.826 239.917 168.396 238.585 168.396 236.854C168.396 235.734 168.582 234.754 168.953 233.914C169.324 233.074 169.887 232.446 170.643 232.029C171.404 231.606 172.231 231.395 173.123 231.395C174.249 231.395 175.171 231.681 175.887 232.254C176.603 232.82 177.062 233.628 177.264 234.676L175.555 234.939C175.392 234.243 175.102 233.719 174.686 233.367C174.275 233.016 173.777 232.84 173.191 232.84C172.306 232.84 171.587 233.159 171.033 233.797C170.48 234.428 170.203 235.431 170.203 236.805C170.203 238.198 170.47 239.21 171.004 239.842C171.538 240.473 172.234 240.789 173.094 240.789C173.784 240.789 174.36 240.577 174.822 240.154C175.285 239.731 175.577 239.08 175.701 238.201ZM185.701 238.201L187.43 238.426C187.241 239.617 186.756 240.551 185.975 241.229C185.2 241.899 184.246 242.234 183.113 242.234C181.694 242.234 180.551 241.772 179.686 240.848C178.826 239.917 178.396 238.585 178.396 236.854C178.396 235.734 178.582 234.754 178.953 233.914C179.324 233.074 179.887 232.446 180.643 232.029C181.404 231.606 182.231 231.395 183.123 231.395C184.249 231.395 185.171 231.681 185.887 232.254C186.603 232.82 187.062 233.628 187.264 234.676L185.555 234.939C185.392 234.243 185.102 233.719 184.686 233.367C184.275 233.016 183.777 232.84 183.191 232.84C182.306 232.84 181.587 233.159 181.033 233.797C180.48 234.428 180.203 235.431 180.203 236.805C180.203 238.198 180.47 239.21 181.004 239.842C181.538 240.473 182.234 240.789 183.094 240.789C183.784 240.789 184.36 240.577 184.822 240.154C185.285 239.731 185.577 239.08 185.701 238.201ZM188.279 236.814C188.279 234.894 188.813 233.471 189.881 232.547C190.773 231.779 191.86 231.395 193.143 231.395C194.568 231.395 195.734 231.863 196.639 232.801C197.544 233.732 197.996 235.021 197.996 236.668C197.996 238.003 197.794 239.054 197.391 239.822C196.993 240.584 196.411 241.176 195.643 241.6C194.881 242.023 194.048 242.234 193.143 242.234C191.691 242.234 190.516 241.769 189.617 240.838C188.725 239.907 188.279 238.566 188.279 236.814ZM190.086 236.814C190.086 238.143 190.376 239.139 190.955 239.803C191.535 240.46 192.264 240.789 193.143 240.789C194.015 240.789 194.741 240.457 195.32 239.793C195.9 239.129 196.189 238.117 196.189 236.756C196.189 235.473 195.896 234.503 195.311 233.846C194.731 233.182 194.008 232.85 193.143 232.85C192.264 232.85 191.535 233.178 190.955 233.836C190.376 234.493 190.086 235.486 190.086 236.814ZM206.863 242V240.477C206.056 241.648 204.959 242.234 203.572 242.234C202.96 242.234 202.387 242.117 201.854 241.883C201.326 241.648 200.932 241.355 200.672 241.004C200.418 240.646 200.239 240.21 200.135 239.695C200.063 239.35 200.027 238.803 200.027 238.055V231.629H201.785V237.381C201.785 238.299 201.821 238.917 201.893 239.236C202.003 239.699 202.238 240.063 202.596 240.33C202.954 240.59 203.396 240.721 203.924 240.721C204.451 240.721 204.946 240.587 205.408 240.32C205.87 240.047 206.196 239.679 206.385 239.217C206.58 238.748 206.678 238.071 206.678 237.186V231.629H208.436V242H206.863ZM211.199 242V231.629H212.781V233.104C213.543 231.964 214.643 231.395 216.082 231.395C216.707 231.395 217.28 231.508 217.801 231.736C218.328 231.958 218.722 232.251 218.982 232.615C219.243 232.98 219.425 233.413 219.529 233.914C219.594 234.24 219.627 234.809 219.627 235.623V242H217.869V235.691C217.869 234.975 217.801 234.441 217.664 234.09C217.527 233.732 217.283 233.449 216.932 233.24C216.587 233.025 216.18 232.918 215.711 232.918C214.962 232.918 214.314 233.156 213.768 233.631C213.227 234.106 212.957 235.008 212.957 236.336V242H211.199ZM226.17 240.428L226.424 241.98C225.929 242.085 225.486 242.137 225.096 242.137C224.458 242.137 223.963 242.036 223.611 241.834C223.26 241.632 223.012 241.368 222.869 241.043C222.726 240.711 222.654 240.018 222.654 238.963V232.996H221.365V231.629H222.654V229.061L224.402 228.006V231.629H226.17V232.996H224.402V239.061C224.402 239.562 224.432 239.884 224.49 240.027C224.555 240.171 224.656 240.285 224.793 240.369C224.936 240.454 225.138 240.496 225.398 240.496C225.594 240.496 225.851 240.473 226.17 240.428ZM227.195 238.904L228.934 238.631C229.031 239.327 229.301 239.861 229.744 240.232C230.193 240.604 230.818 240.789 231.619 240.789C232.426 240.789 233.025 240.626 233.416 240.301C233.807 239.969 234.002 239.581 234.002 239.139C234.002 238.742 233.829 238.429 233.484 238.201C233.243 238.045 232.645 237.846 231.688 237.605C230.398 237.28 229.503 237 229.002 236.766C228.507 236.525 228.13 236.196 227.869 235.779C227.615 235.356 227.488 234.891 227.488 234.383C227.488 233.921 227.592 233.494 227.801 233.104C228.016 232.706 228.305 232.378 228.67 232.117C228.943 231.915 229.314 231.746 229.783 231.609C230.258 231.466 230.766 231.395 231.307 231.395C232.12 231.395 232.833 231.512 233.445 231.746C234.064 231.98 234.52 232.299 234.812 232.703C235.105 233.1 235.307 233.634 235.418 234.305L233.699 234.539C233.621 234.005 233.393 233.589 233.016 233.289C232.645 232.99 232.117 232.84 231.434 232.84C230.626 232.84 230.05 232.973 229.705 233.24C229.36 233.507 229.188 233.82 229.188 234.178C229.188 234.406 229.259 234.611 229.402 234.793C229.546 234.982 229.77 235.138 230.076 235.262C230.252 235.327 230.77 235.477 231.629 235.711C232.872 236.043 233.738 236.316 234.227 236.531C234.721 236.74 235.109 237.046 235.389 237.449C235.669 237.853 235.809 238.354 235.809 238.953C235.809 239.539 235.636 240.092 235.291 240.613C234.952 241.128 234.461 241.528 233.816 241.814C233.172 242.094 232.443 242.234 231.629 242.234C230.281 242.234 229.253 241.954 228.543 241.395C227.84 240.835 227.391 240.005 227.195 238.904Z" fill="#9A9A9A"/>
<defs>
<filter id="filter0_i_132_310" x="0" y="0" width="285" height="320" filterUnits="userSpaceOnUse" color-interpolation-filters="sRGB">
<feFlood flood-opacity="0" result="BackgroundImageFix"/>
<feBlend mode="normal" in="SourceGraphic" in2="BackgroundImageFix" result="shape"/>
<feColorMatrix in="SourceAlpha" type="matrix" values="0 0 0 0 0 0 0 0 0 0 0 0 0 0 0 0 0 0 127 0" result="hardAlpha"/>
<feOffset dy="8"/>
<feGaussianBlur stdDeviation="7.5"/>
<feComposite in2="hardAlpha" operator="arithmetic" k2="-1" k3="1"/>
<feColorMatrix type="matrix" values="0 0 0 0 0 0 0 0 0 1 0 0 0 0 0.916667 0 0 0 0.6 0"/>
<feBlend mode="normal" in2="shape" result="effect1_innerShadow_132_310"/>
</filter>
<linearGradient id="paint0_linear_132_310" x1="142.5" y1="0" x2="142.5" y2="312" gradientUnits="userSpaceOnUse">
<stop stop-color="#0065FE" stop-opacity="0.7"/>
<stop offset="1" stop-color="#0A223B" stop-opacity="0.5"/>
</linearGradient>
</defs>
</svg>
