<svg width="285" height="312" viewBox="0 0 285 312" fill="none" xmlns="http://www.w3.org/2000/svg">
<g filter="url(#filter0_i_132_300)">
<path d="M0 16C0 7.16344 7.16344 0 16 0H269C277.837 0 285 7.16344 285 16V296C285 304.837 277.837 312 269 312H16C7.16345 312 0 304.837 0 296V16Z" fill="url(#paint0_linear_132_300)"/>
</g>
<path d="M124.023 60.32C129.003 60.32 132.903 62.36 135.723 66.56C138.363 70.52 139.683 75.86 139.683 82.58C139.683 89.3 138.363 94.64 135.723 98.6C132.903 102.74 129.003 104.84 124.023 104.84C118.983 104.84 115.083 102.74 112.323 98.6C109.683 94.64 108.363 89.3 108.363 82.58C108.363 75.86 109.683 70.52 112.323 66.56C115.083 62.36 118.983 60.32 124.023 60.32ZM124.023 66.26C120.603 66.26 118.203 68.12 116.823 71.96C115.863 74.54 115.383 78.08 115.383 82.58C115.383 87.02 115.863 90.56 116.823 93.2C118.203 96.98 120.603 98.9 124.023 98.9C127.383 98.9 129.783 96.98 131.223 93.2C132.183 90.56 132.663 87.02 132.663 82.58C132.663 78.08 132.183 74.54 131.223 71.96C129.783 68.12 127.383 66.26 124.023 66.26ZM160.42 60.32C164.74 60.32 168.28 61.34 170.92 63.44C173.5 65.54 174.82 68.42 174.82 72.14C174.82 76.82 172.42 79.94 167.68 81.5C170.2 82.28 172.18 83.42 173.5 84.98C174.94 86.6 175.66 88.7 175.66 91.22C175.66 95.18 174.28 98.42 171.52 100.94C168.64 103.52 164.86 104.84 160.18 104.84C155.74 104.84 152.14 103.7 149.44 101.42C146.44 98.9 144.76 95.18 144.4 90.38H151.54C151.66 93.14 152.5 95.3 154.18 96.8C155.68 98.18 157.66 98.9 160.12 98.9C162.82 98.9 164.98 98.12 166.54 96.62C167.92 95.24 168.64 93.56 168.64 91.52C168.64 89.06 167.86 87.26 166.42 86.12C164.98 84.92 162.88 84.38 160.12 84.38H157.12V79.1H160.12C162.64 79.1 164.56 78.56 165.88 77.48C167.14 76.4 167.8 74.78 167.8 72.68C167.8 70.58 167.2 69.02 166.06 67.94C164.8 66.86 162.94 66.32 160.48 66.32C157.96 66.32 156.04 66.92 154.66 68.18C153.22 69.44 152.38 71.36 152.14 73.94H145.24C145.6 69.62 147.16 66.26 150.04 63.86C152.74 61.46 156.22 60.32 160.42 60.32Z" fill="white"/>
<path d="M110.643 146.021L112.966 145.817C113.076 146.748 113.33 147.514 113.728 148.115C114.134 148.708 114.76 149.19 115.606 149.562C116.453 149.926 117.405 150.108 118.463 150.108C119.402 150.108 120.232 149.969 120.951 149.689C121.671 149.41 122.204 149.029 122.551 148.547C122.906 148.056 123.084 147.523 123.084 146.947C123.084 146.363 122.915 145.855 122.576 145.424C122.238 144.984 121.679 144.616 120.9 144.319C120.401 144.125 119.297 143.824 117.587 143.418C115.877 143.003 114.68 142.614 113.994 142.25C113.105 141.785 112.441 141.209 112.001 140.523C111.569 139.829 111.354 139.055 111.354 138.2C111.354 137.261 111.62 136.385 112.153 135.572C112.687 134.751 113.465 134.129 114.489 133.706C115.513 133.283 116.652 133.071 117.904 133.071C119.284 133.071 120.498 133.296 121.548 133.744C122.606 134.184 123.418 134.836 123.985 135.699C124.552 136.562 124.857 137.54 124.899 138.632L122.538 138.81C122.411 137.633 121.979 136.744 121.243 136.144C120.515 135.543 119.436 135.242 118.006 135.242C116.516 135.242 115.429 135.517 114.743 136.067C114.066 136.609 113.728 137.265 113.728 138.035C113.728 138.704 113.969 139.254 114.451 139.686C114.925 140.117 116.161 140.562 118.158 141.019C120.164 141.467 121.539 141.861 122.284 142.199C123.368 142.699 124.167 143.333 124.684 144.104C125.2 144.865 125.458 145.745 125.458 146.744C125.458 147.734 125.174 148.67 124.607 149.55C124.04 150.422 123.224 151.103 122.157 151.594C121.099 152.076 119.906 152.317 118.577 152.317C116.893 152.317 115.479 152.072 114.337 151.581C113.203 151.09 112.31 150.354 111.658 149.372C111.015 148.382 110.676 147.265 110.643 146.021ZM133.52 149.956L133.85 151.975C133.206 152.11 132.631 152.178 132.123 152.178C131.294 152.178 130.65 152.047 130.193 151.784C129.736 151.522 129.415 151.179 129.229 150.756C129.042 150.324 128.949 149.423 128.949 148.052V140.295H127.273V138.518H128.949V135.179L131.222 133.808V138.518H133.52V140.295H131.222V148.179C131.222 148.83 131.26 149.249 131.336 149.436C131.421 149.622 131.552 149.77 131.729 149.88C131.916 149.99 132.178 150.045 132.517 150.045C132.771 150.045 133.105 150.015 133.52 149.956ZM134.916 145.259C134.916 142.762 135.61 140.913 136.998 139.711C138.158 138.712 139.571 138.213 141.238 138.213C143.092 138.213 144.607 138.822 145.783 140.041C146.96 141.251 147.548 142.927 147.548 145.068C147.548 146.803 147.285 148.17 146.761 149.169C146.244 150.159 145.487 150.929 144.488 151.479C143.498 152.03 142.415 152.305 141.238 152.305C139.351 152.305 137.823 151.7 136.655 150.489C135.496 149.279 134.916 147.535 134.916 145.259ZM137.265 145.259C137.265 146.985 137.641 148.28 138.395 149.144C139.148 149.998 140.096 150.426 141.238 150.426C142.372 150.426 143.316 149.994 144.069 149.131C144.823 148.268 145.199 146.951 145.199 145.183C145.199 143.515 144.818 142.254 144.057 141.399C143.303 140.536 142.364 140.104 141.238 140.104C140.096 140.104 139.148 140.532 138.395 141.387C137.641 142.242 137.265 143.532 137.265 145.259ZM159.037 147.062L161.284 147.354C161.039 148.902 160.408 150.117 159.393 150.997C158.385 151.869 157.146 152.305 155.673 152.305C153.828 152.305 152.342 151.704 151.217 150.502C150.1 149.292 149.541 147.561 149.541 145.31C149.541 143.854 149.782 142.58 150.265 141.488C150.747 140.396 151.479 139.58 152.461 139.038C153.451 138.488 154.526 138.213 155.686 138.213C157.15 138.213 158.347 138.585 159.278 139.33C160.209 140.066 160.806 141.116 161.068 142.479L158.847 142.821C158.635 141.916 158.258 141.234 157.717 140.777C157.184 140.32 156.536 140.092 155.774 140.092C154.623 140.092 153.688 140.507 152.969 141.336C152.249 142.157 151.89 143.46 151.89 145.246C151.89 147.057 152.237 148.373 152.931 149.194C153.625 150.015 154.53 150.426 155.647 150.426C156.545 150.426 157.294 150.151 157.895 149.601C158.495 149.05 158.876 148.204 159.037 147.062ZM163.252 152V133.389H165.537V144.002L170.945 138.518H173.903L168.749 143.52L174.424 152H171.605L167.149 145.106L165.537 146.655V152H163.252ZM89.0605 182V163.389H96.0811C97.3167 163.389 98.2604 163.448 98.9121 163.566C99.8262 163.719 100.592 164.011 101.21 164.442C101.828 164.866 102.323 165.462 102.695 166.232C103.076 167.003 103.267 167.849 103.267 168.771C103.267 170.354 102.763 171.696 101.756 172.796C100.749 173.888 98.929 174.434 96.2969 174.434H91.5234V182H89.0605ZM91.5234 172.237H96.335C97.9261 172.237 99.056 171.941 99.7246 171.349C100.393 170.756 100.728 169.923 100.728 168.848C100.728 168.069 100.529 167.405 100.131 166.854C99.7415 166.296 99.2253 165.928 98.582 165.75C98.1673 165.64 97.4014 165.585 96.2842 165.585H91.5234V172.237ZM114.946 182V180.02C113.897 181.543 112.471 182.305 110.668 182.305C109.872 182.305 109.128 182.152 108.434 181.848C107.748 181.543 107.236 181.162 106.897 180.705C106.567 180.24 106.335 179.673 106.199 179.004C106.106 178.555 106.06 177.844 106.06 176.871V168.518H108.345V175.995C108.345 177.188 108.391 177.993 108.484 178.407C108.628 179.008 108.933 179.482 109.398 179.829C109.864 180.168 110.439 180.337 111.125 180.337C111.811 180.337 112.454 180.163 113.055 179.816C113.656 179.461 114.079 178.983 114.324 178.382C114.578 177.772 114.705 176.892 114.705 175.741V168.518H116.99V182H114.946ZM120.558 182V168.518H122.614V170.562C123.139 169.605 123.621 168.975 124.062 168.67C124.51 168.365 125.001 168.213 125.534 168.213C126.304 168.213 127.087 168.458 127.883 168.949L127.096 171.069C126.537 170.739 125.979 170.574 125.42 170.574C124.921 170.574 124.472 170.727 124.074 171.031C123.676 171.327 123.393 171.742 123.224 172.275C122.97 173.088 122.843 173.977 122.843 174.941V182H120.558ZM138.039 177.062L140.286 177.354C140.041 178.902 139.41 180.117 138.395 180.997C137.387 181.869 136.147 182.305 134.675 182.305C132.83 182.305 131.344 181.704 130.219 180.502C129.102 179.292 128.543 177.561 128.543 175.31C128.543 173.854 128.784 172.58 129.267 171.488C129.749 170.396 130.481 169.58 131.463 169.038C132.453 168.488 133.528 168.213 134.688 168.213C136.152 168.213 137.349 168.585 138.28 169.33C139.211 170.066 139.808 171.116 140.07 172.479L137.849 172.821C137.637 171.916 137.26 171.234 136.719 170.777C136.186 170.32 135.538 170.092 134.776 170.092C133.625 170.092 132.69 170.507 131.971 171.336C131.251 172.157 130.892 173.46 130.892 175.246C130.892 177.057 131.239 178.373 131.933 179.194C132.627 180.015 133.532 180.426 134.649 180.426C135.547 180.426 136.296 180.151 136.896 179.601C137.497 179.05 137.878 178.204 138.039 177.062ZM142.241 182V163.389H144.526V170.066C145.593 168.831 146.938 168.213 148.563 168.213C149.562 168.213 150.43 168.412 151.166 168.81C151.902 169.199 152.427 169.741 152.74 170.435C153.062 171.129 153.223 172.136 153.223 173.456V182H150.938V173.456C150.938 172.313 150.688 171.484 150.188 170.968C149.698 170.443 148.999 170.181 148.094 170.181C147.417 170.181 146.778 170.358 146.177 170.714C145.584 171.061 145.161 171.535 144.907 172.136C144.653 172.737 144.526 173.566 144.526 174.624V182H142.241ZM165.512 180.337C164.665 181.056 163.849 181.564 163.062 181.86C162.283 182.157 161.445 182.305 160.548 182.305C159.067 182.305 157.928 181.945 157.133 181.226C156.337 180.498 155.939 179.571 155.939 178.445C155.939 177.785 156.088 177.184 156.384 176.643C156.688 176.092 157.082 175.652 157.564 175.322C158.055 174.992 158.605 174.743 159.215 174.573C159.663 174.455 160.34 174.34 161.246 174.23C163.091 174.01 164.45 173.748 165.321 173.443C165.33 173.13 165.334 172.931 165.334 172.847C165.334 171.916 165.118 171.26 164.687 170.879C164.103 170.363 163.235 170.104 162.084 170.104C161.009 170.104 160.214 170.295 159.697 170.676C159.189 171.048 158.813 171.713 158.567 172.669L156.333 172.364C156.536 171.408 156.87 170.638 157.336 170.054C157.801 169.461 158.474 169.008 159.354 168.695C160.235 168.374 161.255 168.213 162.414 168.213C163.565 168.213 164.5 168.348 165.22 168.619C165.939 168.89 166.468 169.233 166.807 169.647C167.145 170.054 167.382 170.57 167.518 171.196C167.594 171.586 167.632 172.288 167.632 173.304V176.351C167.632 178.475 167.678 179.821 167.771 180.388C167.873 180.946 168.068 181.484 168.355 182H165.969C165.732 181.526 165.579 180.972 165.512 180.337ZM165.321 175.233C164.492 175.572 163.248 175.86 161.589 176.097C160.649 176.232 159.985 176.384 159.596 176.554C159.206 176.723 158.906 176.973 158.694 177.303C158.483 177.624 158.377 177.984 158.377 178.382C158.377 178.991 158.605 179.499 159.062 179.905C159.528 180.312 160.205 180.515 161.094 180.515C161.974 180.515 162.757 180.324 163.442 179.943C164.128 179.554 164.632 179.025 164.953 178.356C165.199 177.84 165.321 177.078 165.321 176.071V175.233ZM170.272 177.976L172.532 177.62C172.659 178.526 173.01 179.22 173.586 179.702C174.17 180.185 174.982 180.426 176.023 180.426C177.073 180.426 177.852 180.214 178.359 179.791C178.867 179.359 179.121 178.856 179.121 178.28C179.121 177.764 178.897 177.358 178.448 177.062C178.135 176.858 177.356 176.6 176.112 176.287C174.437 175.864 173.273 175.5 172.621 175.195C171.978 174.882 171.487 174.455 171.148 173.913C170.818 173.363 170.653 172.758 170.653 172.098C170.653 171.497 170.789 170.942 171.06 170.435C171.339 169.918 171.715 169.491 172.189 169.152C172.545 168.89 173.027 168.67 173.637 168.492C174.255 168.306 174.915 168.213 175.617 168.213C176.675 168.213 177.602 168.365 178.397 168.67C179.201 168.975 179.794 169.389 180.175 169.914C180.556 170.43 180.818 171.124 180.962 171.996L178.728 172.301C178.626 171.607 178.33 171.065 177.839 170.676C177.356 170.286 176.671 170.092 175.782 170.092C174.733 170.092 173.984 170.265 173.535 170.612C173.087 170.959 172.862 171.366 172.862 171.831C172.862 172.127 172.955 172.394 173.142 172.631C173.328 172.876 173.62 173.079 174.018 173.24C174.246 173.325 174.919 173.52 176.036 173.824C177.653 174.256 178.778 174.611 179.413 174.891C180.056 175.161 180.56 175.559 180.924 176.084C181.288 176.609 181.47 177.26 181.47 178.039C181.47 178.801 181.245 179.52 180.797 180.197C180.357 180.866 179.718 181.386 178.88 181.759C178.042 182.123 177.094 182.305 176.036 182.305C174.284 182.305 172.947 181.941 172.024 181.213C171.11 180.485 170.526 179.406 170.272 177.976ZM193.416 177.658L195.777 177.95C195.405 179.33 194.715 180.4 193.708 181.162C192.701 181.924 191.414 182.305 189.849 182.305C187.877 182.305 186.311 181.7 185.151 180.489C184 179.271 183.425 177.565 183.425 175.373C183.425 173.105 184.009 171.344 185.177 170.092C186.345 168.839 187.86 168.213 189.722 168.213C191.524 168.213 192.997 168.826 194.14 170.054C195.282 171.281 195.854 173.007 195.854 175.233C195.854 175.369 195.849 175.572 195.841 175.843H185.786C185.871 177.324 186.29 178.458 187.043 179.245C187.796 180.032 188.736 180.426 189.861 180.426C190.699 180.426 191.414 180.206 192.007 179.766C192.599 179.326 193.069 178.623 193.416 177.658ZM185.913 173.964H193.441C193.34 172.83 193.052 171.979 192.578 171.412C191.85 170.532 190.907 170.092 189.747 170.092C188.698 170.092 187.813 170.443 187.094 171.146C186.383 171.848 185.989 172.787 185.913 173.964Z" fill="white"/>
<path d="M44.002 242V227.684H50.3496C51.6257 227.684 52.5957 227.814 53.2598 228.074C53.9238 228.328 54.4544 228.781 54.8516 229.432C55.2487 230.083 55.4473 230.802 55.4473 231.59C55.4473 232.605 55.1185 233.462 54.4609 234.158C53.8034 234.855 52.7878 235.298 51.4141 235.486C51.9154 235.727 52.2962 235.965 52.5566 236.199C53.11 236.707 53.6341 237.342 54.1289 238.104L56.6191 242H54.2363L52.3418 239.021C51.7884 238.162 51.3327 237.505 50.9746 237.049C50.6165 236.593 50.2943 236.274 50.0078 236.092C49.7279 235.91 49.4414 235.783 49.1484 235.711C48.9336 235.665 48.582 235.643 48.0938 235.643H45.8965V242H44.002ZM45.8965 234.002H49.9688C50.8346 234.002 51.5117 233.914 52 233.738C52.4883 233.556 52.8594 233.27 53.1133 232.879C53.3672 232.482 53.4941 232.052 53.4941 231.59C53.4941 230.913 53.2467 230.356 52.752 229.92C52.2637 229.484 51.4889 229.266 50.4277 229.266H45.8965V234.002ZM65.3008 238.66L67.1172 238.885C66.8307 239.946 66.3001 240.77 65.5254 241.355C64.7507 241.941 63.7611 242.234 62.5566 242.234C61.0397 242.234 59.8353 241.769 58.9434 240.838C58.0579 239.9 57.6152 238.589 57.6152 236.902C57.6152 235.158 58.0645 233.803 58.9629 232.84C59.8613 231.876 61.0267 231.395 62.459 231.395C63.8457 231.395 64.9785 231.867 65.8574 232.811C66.7363 233.755 67.1758 235.083 67.1758 236.795C67.1758 236.899 67.1725 237.055 67.166 237.264H59.4316C59.4967 238.403 59.819 239.275 60.3984 239.881C60.9779 240.486 61.7005 240.789 62.5664 240.789C63.2109 240.789 63.7611 240.62 64.2168 240.281C64.6725 239.943 65.0339 239.402 65.3008 238.66ZM59.5293 235.818H65.3203C65.2422 234.946 65.0208 234.292 64.6562 233.855C64.0964 233.178 63.3704 232.84 62.4785 232.84C61.6712 232.84 60.9909 233.11 60.4375 233.65C59.8906 234.191 59.5879 234.913 59.5293 235.818ZM76.1016 240.721C75.4505 241.274 74.8223 241.665 74.2168 241.893C73.6178 242.12 72.9733 242.234 72.2832 242.234C71.1439 242.234 70.2682 241.958 69.6562 241.404C69.0443 240.844 68.7383 240.132 68.7383 239.266C68.7383 238.758 68.8522 238.296 69.0801 237.879C69.3145 237.456 69.6172 237.117 69.9883 236.863C70.3659 236.609 70.7891 236.417 71.2578 236.287C71.6029 236.196 72.1237 236.108 72.8203 236.023C74.2396 235.854 75.2845 235.652 75.9551 235.418C75.9616 235.177 75.9648 235.024 75.9648 234.959C75.9648 234.243 75.7988 233.738 75.4668 233.445C75.0176 233.048 74.3503 232.85 73.4648 232.85C72.638 232.85 72.026 232.996 71.6289 233.289C71.2383 233.576 70.9486 234.087 70.7598 234.822L69.041 234.588C69.1973 233.852 69.4544 233.26 69.8125 232.811C70.1706 232.355 70.6882 232.007 71.3652 231.766C72.0423 231.518 72.8268 231.395 73.7188 231.395C74.6042 231.395 75.3236 231.499 75.877 231.707C76.4303 231.915 76.8372 232.179 77.0977 232.498C77.3581 232.811 77.5404 233.208 77.6445 233.689C77.7031 233.989 77.7324 234.529 77.7324 235.311V237.654C77.7324 239.288 77.7682 240.324 77.8398 240.76C77.918 241.189 78.0677 241.603 78.2891 242H76.4531C76.2708 241.635 76.1536 241.209 76.1016 240.721ZM75.9551 236.795C75.3171 237.055 74.36 237.277 73.084 237.459C72.3613 237.563 71.8503 237.68 71.5508 237.811C71.2513 237.941 71.0202 238.133 70.8574 238.387C70.6947 238.634 70.6133 238.911 70.6133 239.217C70.6133 239.686 70.7891 240.076 71.1406 240.389C71.4987 240.701 72.0195 240.857 72.7031 240.857C73.3802 240.857 73.9824 240.711 74.5098 240.418C75.0371 240.118 75.4245 239.712 75.6719 239.197C75.8607 238.8 75.9551 238.214 75.9551 237.439V236.795ZM80.4277 242V227.684H82.1855V242H80.4277ZM90.4863 242V231.629H92.0586V233.084C92.3841 232.576 92.8171 232.169 93.3574 231.863C93.8978 231.551 94.513 231.395 95.2031 231.395C95.9714 231.395 96.5996 231.554 97.0879 231.873C97.5827 232.192 97.931 232.638 98.1328 233.211C98.9531 232 100.021 231.395 101.336 231.395C102.365 231.395 103.156 231.681 103.709 232.254C104.262 232.82 104.539 233.696 104.539 234.881V242H102.791V235.467C102.791 234.764 102.732 234.259 102.615 233.953C102.505 233.641 102.299 233.39 102 233.201C101.701 233.012 101.349 232.918 100.945 232.918C100.216 232.918 99.6107 233.162 99.1289 233.65C98.6471 234.132 98.4062 234.907 98.4062 235.975V242H96.6484V235.262C96.6484 234.48 96.5052 233.895 96.2188 233.504C95.9323 233.113 95.4635 232.918 94.8125 232.918C94.3177 232.918 93.8587 233.048 93.4355 233.309C93.0189 233.569 92.7161 233.95 92.5273 234.451C92.3385 234.952 92.2441 235.675 92.2441 236.619V242H90.4863ZM113.914 240.721C113.263 241.274 112.635 241.665 112.029 241.893C111.43 242.12 110.786 242.234 110.096 242.234C108.956 242.234 108.081 241.958 107.469 241.404C106.857 240.844 106.551 240.132 106.551 239.266C106.551 238.758 106.665 238.296 106.893 237.879C107.127 237.456 107.43 237.117 107.801 236.863C108.178 236.609 108.602 236.417 109.07 236.287C109.415 236.196 109.936 236.108 110.633 236.023C112.052 235.854 113.097 235.652 113.768 235.418C113.774 235.177 113.777 235.024 113.777 234.959C113.777 234.243 113.611 233.738 113.279 233.445C112.83 233.048 112.163 232.85 111.277 232.85C110.451 232.85 109.839 232.996 109.441 233.289C109.051 233.576 108.761 234.087 108.572 234.822L106.854 234.588C107.01 233.852 107.267 233.26 107.625 232.811C107.983 232.355 108.501 232.007 109.178 231.766C109.855 231.518 110.639 231.395 111.531 231.395C112.417 231.395 113.136 231.499 113.689 231.707C114.243 231.915 114.65 232.179 114.91 232.498C115.171 232.811 115.353 233.208 115.457 233.689C115.516 233.989 115.545 234.529 115.545 235.311V237.654C115.545 239.288 115.581 240.324 115.652 240.76C115.73 241.189 115.88 241.603 116.102 242H114.266C114.083 241.635 113.966 241.209 113.914 240.721ZM113.768 236.795C113.13 237.055 112.173 237.277 110.896 237.459C110.174 237.563 109.663 237.68 109.363 237.811C109.064 237.941 108.833 238.133 108.67 238.387C108.507 238.634 108.426 238.911 108.426 239.217C108.426 239.686 108.602 240.076 108.953 240.389C109.311 240.701 109.832 240.857 110.516 240.857C111.193 240.857 111.795 240.711 112.322 240.418C112.85 240.118 113.237 239.712 113.484 239.197C113.673 238.8 113.768 238.214 113.768 237.439V236.795ZM118.26 242V231.629H119.842V233.201C120.245 232.465 120.617 231.98 120.955 231.746C121.3 231.512 121.678 231.395 122.088 231.395C122.68 231.395 123.283 231.583 123.895 231.961L123.289 233.592C122.859 233.338 122.43 233.211 122 233.211C121.616 233.211 121.271 233.328 120.965 233.562C120.659 233.79 120.441 234.109 120.311 234.52C120.115 235.145 120.018 235.828 120.018 236.57V242H118.26ZM124.949 242V227.684H126.707V235.848L130.867 231.629H133.143L129.178 235.477L133.543 242H131.375L127.947 236.697L126.707 237.889V242H124.949ZM142.039 238.66L143.855 238.885C143.569 239.946 143.038 240.77 142.264 241.355C141.489 241.941 140.499 242.234 139.295 242.234C137.778 242.234 136.574 241.769 135.682 240.838C134.796 239.9 134.354 238.589 134.354 236.902C134.354 235.158 134.803 233.803 135.701 232.84C136.6 231.876 137.765 231.395 139.197 231.395C140.584 231.395 141.717 231.867 142.596 232.811C143.475 233.755 143.914 235.083 143.914 236.795C143.914 236.899 143.911 237.055 143.904 237.264H136.17C136.235 238.403 136.557 239.275 137.137 239.881C137.716 240.486 138.439 240.789 139.305 240.789C139.949 240.789 140.499 240.62 140.955 240.281C141.411 239.943 141.772 239.402 142.039 238.66ZM136.268 235.818H142.059C141.98 234.946 141.759 234.292 141.395 233.855C140.835 233.178 140.109 232.84 139.217 232.84C138.41 232.84 137.729 233.11 137.176 233.65C136.629 234.191 136.326 234.913 136.268 235.818ZM149.91 240.428L150.164 241.98C149.669 242.085 149.227 242.137 148.836 242.137C148.198 242.137 147.703 242.036 147.352 241.834C147 241.632 146.753 241.368 146.609 241.043C146.466 240.711 146.395 240.018 146.395 238.963V232.996H145.105V231.629H146.395V229.061L148.143 228.006V231.629H149.91V232.996H148.143V239.061C148.143 239.562 148.172 239.884 148.23 240.027C148.296 240.171 148.396 240.285 148.533 240.369C148.676 240.454 148.878 240.496 149.139 240.496C149.334 240.496 149.591 240.473 149.91 240.428ZM164.305 238.66L166.121 238.885C165.835 239.946 165.304 240.77 164.529 241.355C163.755 241.941 162.765 242.234 161.561 242.234C160.044 242.234 158.839 241.769 157.947 240.838C157.062 239.9 156.619 238.589 156.619 236.902C156.619 235.158 157.068 233.803 157.967 232.84C158.865 231.876 160.031 231.395 161.463 231.395C162.85 231.395 163.982 231.867 164.861 232.811C165.74 233.755 166.18 235.083 166.18 236.795C166.18 236.899 166.176 237.055 166.17 237.264H158.436C158.501 238.403 158.823 239.275 159.402 239.881C159.982 240.486 160.704 240.789 161.57 240.789C162.215 240.789 162.765 240.62 163.221 240.281C163.676 239.943 164.038 239.402 164.305 238.66ZM158.533 235.818H164.324C164.246 234.946 164.025 234.292 163.66 233.855C163.1 233.178 162.374 232.84 161.482 232.84C160.675 232.84 159.995 233.11 159.441 233.65C158.895 234.191 158.592 234.913 158.533 235.818ZM167.166 242L170.955 236.609L167.449 231.629H169.646L171.238 234.061C171.538 234.523 171.779 234.91 171.961 235.223C172.247 234.793 172.511 234.412 172.752 234.08L174.5 231.629H176.6L173.016 236.512L176.873 242H174.715L172.586 238.777L172.02 237.908L169.295 242H167.166ZM185.438 238.66L187.254 238.885C186.967 239.946 186.437 240.77 185.662 241.355C184.887 241.941 183.898 242.234 182.693 242.234C181.176 242.234 179.972 241.769 179.08 240.838C178.195 239.9 177.752 238.589 177.752 236.902C177.752 235.158 178.201 233.803 179.1 232.84C179.998 231.876 181.163 231.395 182.596 231.395C183.982 231.395 185.115 231.867 185.994 232.811C186.873 233.755 187.312 235.083 187.312 236.795C187.312 236.899 187.309 237.055 187.303 237.264H179.568C179.633 238.403 179.956 239.275 180.535 239.881C181.115 240.486 181.837 240.789 182.703 240.789C183.348 240.789 183.898 240.62 184.354 240.281C184.809 239.943 185.171 239.402 185.438 238.66ZM179.666 235.818H185.457C185.379 234.946 185.158 234.292 184.793 233.855C184.233 233.178 183.507 232.84 182.615 232.84C181.808 232.84 181.128 233.11 180.574 233.65C180.027 234.191 179.725 234.913 179.666 235.818ZM196.238 238.201L197.967 238.426C197.778 239.617 197.293 240.551 196.512 241.229C195.737 241.899 194.783 242.234 193.65 242.234C192.231 242.234 191.089 241.772 190.223 240.848C189.363 239.917 188.934 238.585 188.934 236.854C188.934 235.734 189.119 234.754 189.49 233.914C189.861 233.074 190.424 232.446 191.18 232.029C191.941 231.606 192.768 231.395 193.66 231.395C194.786 231.395 195.708 231.681 196.424 232.254C197.14 232.82 197.599 233.628 197.801 234.676L196.092 234.939C195.929 234.243 195.639 233.719 195.223 233.367C194.812 233.016 194.314 232.84 193.729 232.84C192.843 232.84 192.124 233.159 191.57 233.797C191.017 234.428 190.74 235.431 190.74 236.805C190.74 238.198 191.007 239.21 191.541 239.842C192.075 240.473 192.771 240.789 193.631 240.789C194.321 240.789 194.897 240.577 195.359 240.154C195.822 239.731 196.115 239.08 196.238 238.201ZM206.268 242V240.477C205.46 241.648 204.363 242.234 202.977 242.234C202.365 242.234 201.792 242.117 201.258 241.883C200.73 241.648 200.337 241.355 200.076 241.004C199.822 240.646 199.643 240.21 199.539 239.695C199.467 239.35 199.432 238.803 199.432 238.055V231.629H201.189V237.381C201.189 238.299 201.225 238.917 201.297 239.236C201.408 239.699 201.642 240.063 202 240.33C202.358 240.59 202.801 240.721 203.328 240.721C203.855 240.721 204.35 240.587 204.812 240.32C205.275 240.047 205.6 239.679 205.789 239.217C205.984 238.748 206.082 238.071 206.082 237.186V231.629H207.84V242H206.268ZM214.441 240.428L214.695 241.98C214.201 242.085 213.758 242.137 213.367 242.137C212.729 242.137 212.234 242.036 211.883 241.834C211.531 241.632 211.284 241.368 211.141 241.043C210.997 240.711 210.926 240.018 210.926 238.963V232.996H209.637V231.629H210.926V229.061L212.674 228.006V231.629H214.441V232.996H212.674V239.061C212.674 239.562 212.703 239.884 212.762 240.027C212.827 240.171 212.928 240.285 213.064 240.369C213.208 240.454 213.41 240.496 213.67 240.496C213.865 240.496 214.122 240.473 214.441 240.428ZM216.18 229.705V227.684H217.938V229.705H216.18ZM216.18 242V231.629H217.938V242H216.18ZM219.969 236.814C219.969 234.894 220.503 233.471 221.57 232.547C222.462 231.779 223.549 231.395 224.832 231.395C226.258 231.395 227.423 231.863 228.328 232.801C229.233 233.732 229.686 235.021 229.686 236.668C229.686 238.003 229.484 239.054 229.08 239.822C228.683 240.584 228.1 241.176 227.332 241.6C226.57 242.023 225.737 242.234 224.832 242.234C223.38 242.234 222.205 241.769 221.307 240.838C220.415 239.907 219.969 238.566 219.969 236.814ZM221.775 236.814C221.775 238.143 222.065 239.139 222.645 239.803C223.224 240.46 223.953 240.789 224.832 240.789C225.704 240.789 226.43 240.457 227.01 239.793C227.589 239.129 227.879 238.117 227.879 236.756C227.879 235.473 227.586 234.503 227 233.846C226.421 233.182 225.698 232.85 224.832 232.85C223.953 232.85 223.224 233.178 222.645 233.836C222.065 234.493 221.775 235.486 221.775 236.814ZM231.756 242V231.629H233.338V233.104C234.1 231.964 235.2 231.395 236.639 231.395C237.264 231.395 237.837 231.508 238.357 231.736C238.885 231.958 239.279 232.251 239.539 232.615C239.799 232.98 239.982 233.413 240.086 233.914C240.151 234.24 240.184 234.809 240.184 235.623V242H238.426V235.691C238.426 234.975 238.357 234.441 238.221 234.09C238.084 233.732 237.84 233.449 237.488 233.24C237.143 233.025 236.736 232.918 236.268 232.918C235.519 232.918 234.871 233.156 234.324 233.631C233.784 234.106 233.514 235.008 233.514 236.336V242H231.756Z" fill="#9A9A9A"/>
<defs>
<filter id="filter0_i_132_300" x="0" y="0" width="285" height="320" filterUnits="userSpaceOnUse" color-interpolation-filters="sRGB">
<feFlood flood-opacity="0" result="BackgroundImageFix"/>
<feBlend mode="normal" in="SourceGraphic" in2="BackgroundImageFix" result="shape"/>
<feColorMatrix in="SourceAlpha" type="matrix" values="0 0 0 0 0 0 0 0 0 0 0 0 0 0 0 0 0 0 127 0" result="hardAlpha"/>
<feOffset dy="8"/>
<feGaussianBlur stdDeviation="7.5"/>
<feComposite in2="hardAlpha" operator="arithmetic" k2="-1" k3="1"/>
<feColorMatrix type="matrix" values="0 0 0 0 0 0 0 0 0 1 0 0 0 0 0.916667 0 0 0 0.6 0"/>
<feBlend mode="normal" in2="shape" result="effect1_innerShadow_132_300"/>
</filter>
<linearGradient id="paint0_linear_132_300" x1="142.5" y1="0" x2="142.5" y2="312" gradientUnits="userSpaceOnUse">
<stop stop-color="#0065FE" stop-opacity="0.7"/>
<stop offset="1" stop-color="#0A223B" stop-opacity="0.5"/>
</linearGradient>
</defs>
</svg>
