<svg width="285" height="312" viewBox="0 0 285 312" fill="none" xmlns="http://www.w3.org/2000/svg">
<g filter="url(#filter0_i_132_305)">
<path d="M0 16C0 7.16344 7.16344 0 16 0H269C277.837 0 285 7.16344 285 16V296C285 304.837 277.837 312 269 312H16C7.16345 312 0 304.837 0 296V16Z" fill="url(#paint0_linear_132_305)"/>
</g>
<path d="M124.023 60.32C129.003 60.32 132.903 62.36 135.723 66.56C138.363 70.52 139.683 75.86 139.683 82.58C139.683 89.3 138.363 94.64 135.723 98.6C132.903 102.74 129.003 104.84 124.023 104.84C118.983 104.84 115.083 102.74 112.323 98.6C109.683 94.64 108.363 89.3 108.363 82.58C108.363 75.86 109.683 70.52 112.323 66.56C115.083 62.36 118.983 60.32 124.023 60.32ZM124.023 66.26C120.603 66.26 118.203 68.12 116.823 71.96C115.863 74.54 115.383 78.08 115.383 82.58C115.383 87.02 115.863 90.56 116.823 93.2C118.203 96.98 120.603 98.9 124.023 98.9C127.383 98.9 129.783 96.98 131.223 93.2C132.183 90.56 132.663 87.02 132.663 82.58C132.663 78.08 132.183 74.54 131.223 71.96C129.783 68.12 127.383 66.26 124.023 66.26ZM160.66 60.32C164.8 60.32 168.22 61.52 170.92 63.92C173.56 66.32 174.88 69.38 174.88 73.22C174.88 76.94 173.44 80.3 170.68 83.36C169 85.16 166 87.44 161.8 90.26C157.42 93.14 154.78 95.66 153.82 97.82H174.94V104H145.06C145.06 99.62 146.44 95.84 149.32 92.6C150.88 90.8 154.18 88.16 159.16 84.74C161.92 82.82 163.84 81.2 165.04 79.94C166.9 77.84 167.86 75.56 167.86 73.16C167.86 70.82 167.2 69.08 166 67.94C164.74 66.8 162.88 66.26 160.42 66.26C157.78 66.26 155.8 67.16 154.48 68.96C153.16 70.64 152.44 73.22 152.32 76.58H145.3C145.36 71.78 146.74 67.94 149.5 65C152.32 61.88 156.04 60.32 160.66 60.32Z" fill="white"/>
<path d="M104.523 145.475L106.986 146.097C106.47 148.119 105.539 149.664 104.193 150.73C102.856 151.788 101.218 152.317 99.2803 152.317C97.2744 152.317 95.641 151.911 94.3799 151.099C93.1273 150.278 92.1709 149.093 91.5107 147.544C90.859 145.995 90.5332 144.332 90.5332 142.555C90.5332 140.617 90.9014 138.928 91.6377 137.489C92.3825 136.042 93.4362 134.946 94.7988 134.201C96.1699 133.448 97.6764 133.071 99.3184 133.071C101.18 133.071 102.746 133.545 104.016 134.493C105.285 135.441 106.17 136.774 106.669 138.492L104.244 139.063C103.812 137.709 103.186 136.723 102.365 136.105C101.544 135.488 100.512 135.179 99.2676 135.179C97.8372 135.179 96.6396 135.521 95.6748 136.207C94.7184 136.893 94.0456 137.815 93.6562 138.975C93.2669 140.126 93.0723 141.315 93.0723 142.542C93.0723 144.125 93.3008 145.508 93.7578 146.693C94.2233 147.87 94.9427 148.75 95.916 149.334C96.8893 149.918 97.943 150.21 99.0771 150.21C100.457 150.21 101.625 149.812 102.581 149.017C103.537 148.221 104.185 147.04 104.523 145.475ZM118.577 152V150.02C117.528 151.543 116.102 152.305 114.299 152.305C113.503 152.305 112.758 152.152 112.064 151.848C111.379 151.543 110.867 151.162 110.528 150.705C110.198 150.24 109.965 149.673 109.83 149.004C109.737 148.555 109.69 147.844 109.69 146.871V138.518H111.976V145.995C111.976 147.188 112.022 147.993 112.115 148.407C112.259 149.008 112.564 149.482 113.029 149.829C113.495 150.168 114.07 150.337 114.756 150.337C115.441 150.337 116.085 150.163 116.686 149.816C117.286 149.461 117.71 148.983 117.955 148.382C118.209 147.772 118.336 146.892 118.336 145.741V138.518H120.621V152H118.577ZM124.188 152V138.518H126.245V140.562C126.77 139.605 127.252 138.975 127.692 138.67C128.141 138.365 128.632 138.213 129.165 138.213C129.935 138.213 130.718 138.458 131.514 138.949L130.727 141.069C130.168 140.739 129.609 140.574 129.051 140.574C128.551 140.574 128.103 140.727 127.705 141.031C127.307 141.327 127.024 141.742 126.854 142.275C126.601 143.088 126.474 143.977 126.474 144.941V152H124.188ZM132.847 152V138.518H134.903V140.562C135.428 139.605 135.91 138.975 136.351 138.67C136.799 138.365 137.29 138.213 137.823 138.213C138.593 138.213 139.376 138.458 140.172 138.949L139.385 141.069C138.826 140.739 138.268 140.574 137.709 140.574C137.21 140.574 136.761 140.727 136.363 141.031C135.965 141.327 135.682 141.742 135.513 142.275C135.259 143.088 135.132 143.977 135.132 144.941V152H132.847ZM150.76 147.658L153.121 147.95C152.749 149.33 152.059 150.4 151.052 151.162C150.045 151.924 148.758 152.305 147.192 152.305C145.22 152.305 143.655 151.7 142.495 150.489C141.344 149.271 140.769 147.565 140.769 145.373C140.769 143.105 141.353 141.344 142.521 140.092C143.688 138.839 145.203 138.213 147.065 138.213C148.868 138.213 150.341 138.826 151.483 140.054C152.626 141.281 153.197 143.007 153.197 145.233C153.197 145.369 153.193 145.572 153.185 145.843H143.13C143.215 147.324 143.633 148.458 144.387 149.245C145.14 150.032 146.079 150.426 147.205 150.426C148.043 150.426 148.758 150.206 149.351 149.766C149.943 149.326 150.413 148.623 150.76 147.658ZM143.257 143.964H150.785C150.684 142.83 150.396 141.979 149.922 141.412C149.194 140.532 148.25 140.092 147.091 140.092C146.041 140.092 145.157 140.443 144.438 141.146C143.727 141.848 143.333 142.787 143.257 143.964ZM156.003 152V138.518H158.06V140.435C159.05 138.953 160.48 138.213 162.351 138.213C163.163 138.213 163.908 138.361 164.585 138.657C165.271 138.945 165.783 139.326 166.121 139.8C166.46 140.274 166.697 140.837 166.832 141.488C166.917 141.911 166.959 142.652 166.959 143.71V152H164.674V143.799C164.674 142.868 164.585 142.174 164.407 141.717C164.229 141.251 163.912 140.883 163.455 140.612C163.007 140.333 162.478 140.193 161.868 140.193C160.895 140.193 160.053 140.502 159.342 141.12C158.639 141.738 158.288 142.91 158.288 144.637V152H156.003ZM179.273 147.062L181.521 147.354C181.275 148.902 180.645 150.117 179.629 150.997C178.622 151.869 177.382 152.305 175.909 152.305C174.064 152.305 172.579 151.704 171.453 150.502C170.336 149.292 169.777 147.561 169.777 145.31C169.777 143.854 170.019 142.58 170.501 141.488C170.983 140.396 171.715 139.58 172.697 139.038C173.688 138.488 174.762 138.213 175.922 138.213C177.386 138.213 178.584 138.585 179.515 139.33C180.446 140.066 181.042 141.116 181.305 142.479L179.083 142.821C178.871 141.916 178.495 141.234 177.953 140.777C177.42 140.32 176.772 140.092 176.011 140.092C174.86 140.092 173.924 140.507 173.205 141.336C172.486 142.157 172.126 143.46 172.126 145.246C172.126 147.057 172.473 148.373 173.167 149.194C173.861 150.015 174.767 150.426 175.884 150.426C176.781 150.426 177.53 150.151 178.131 149.601C178.732 149.05 179.113 148.204 179.273 147.062ZM183.374 157.192L183.12 155.047C183.619 155.182 184.055 155.25 184.428 155.25C184.936 155.25 185.342 155.165 185.646 154.996C185.951 154.827 186.201 154.59 186.396 154.285C186.539 154.057 186.772 153.49 187.094 152.584C187.136 152.457 187.204 152.271 187.297 152.025L182.181 138.518H184.644L187.449 146.325C187.813 147.315 188.139 148.356 188.427 149.448C188.689 148.399 189.002 147.375 189.366 146.376L192.248 138.518H194.533L189.404 152.229C188.854 153.71 188.427 154.729 188.122 155.288C187.716 156.041 187.25 156.591 186.726 156.938C186.201 157.294 185.575 157.472 184.847 157.472C184.407 157.472 183.916 157.379 183.374 157.192ZM91.4854 175.475L93.9482 176.097C93.432 178.119 92.501 179.664 91.1553 180.73C89.818 181.788 88.1803 182.317 86.2422 182.317C84.2363 182.317 82.6029 181.911 81.3418 181.099C80.0892 180.278 79.1328 179.093 78.4727 177.544C77.821 175.995 77.4951 174.332 77.4951 172.555C77.4951 170.617 77.8633 168.928 78.5996 167.489C79.3444 166.042 80.3981 164.946 81.7607 164.201C83.1318 163.448 84.6383 163.071 86.2803 163.071C88.1423 163.071 89.708 163.545 90.9775 164.493C92.2471 165.441 93.1315 166.774 93.6309 168.492L91.2061 169.063C90.7744 167.709 90.1481 166.723 89.3271 166.105C88.5062 165.488 87.4736 165.179 86.2295 165.179C84.7992 165.179 83.6016 165.521 82.6367 166.207C81.6803 166.893 81.0075 167.815 80.6182 168.975C80.2288 170.126 80.0342 171.315 80.0342 172.542C80.0342 174.125 80.2627 175.508 80.7197 176.693C81.1852 177.87 81.9046 178.75 82.8779 179.334C83.8512 179.918 84.9049 180.21 86.0391 180.21C87.4186 180.21 88.5866 179.812 89.543 179.017C90.4993 178.221 91.1468 177.04 91.4854 175.475ZM95.8525 175.259C95.8525 172.762 96.5465 170.913 97.9346 169.711C99.0941 168.712 100.507 168.213 102.175 168.213C104.028 168.213 105.543 168.822 106.72 170.041C107.896 171.251 108.484 172.927 108.484 175.068C108.484 176.803 108.222 178.17 107.697 179.169C107.181 180.159 106.424 180.929 105.425 181.479C104.435 182.03 103.351 182.305 102.175 182.305C100.287 182.305 98.7598 181.7 97.5918 180.489C96.4323 179.279 95.8525 177.535 95.8525 175.259ZM98.2012 175.259C98.2012 176.985 98.5778 178.28 99.3311 179.144C100.084 179.998 101.032 180.426 102.175 180.426C103.309 180.426 104.253 179.994 105.006 179.131C105.759 178.268 106.136 176.951 106.136 175.183C106.136 173.515 105.755 172.254 104.993 171.399C104.24 170.536 103.3 170.104 102.175 170.104C101.032 170.104 100.084 170.532 99.3311 171.387C98.5778 172.242 98.2012 173.532 98.2012 175.259ZM111.176 182V168.518H113.232V170.435C114.223 168.953 115.653 168.213 117.523 168.213C118.336 168.213 119.081 168.361 119.758 168.657C120.443 168.945 120.955 169.326 121.294 169.8C121.632 170.274 121.869 170.837 122.005 171.488C122.09 171.911 122.132 172.652 122.132 173.71V182H119.847V173.799C119.847 172.868 119.758 172.174 119.58 171.717C119.402 171.251 119.085 170.883 118.628 170.612C118.179 170.333 117.65 170.193 117.041 170.193C116.068 170.193 115.226 170.502 114.515 171.12C113.812 171.738 113.461 172.91 113.461 174.637V182H111.176ZM129.394 182L124.265 168.518H126.677L129.571 176.592C129.884 177.464 130.172 178.369 130.435 179.309C130.638 178.598 130.921 177.743 131.285 176.744L134.281 168.518H136.63L131.526 182H129.394ZM147.878 177.658L150.239 177.95C149.867 179.33 149.177 180.4 148.17 181.162C147.163 181.924 145.876 182.305 144.311 182.305C142.339 182.305 140.773 181.7 139.613 180.489C138.462 179.271 137.887 177.565 137.887 175.373C137.887 173.105 138.471 171.344 139.639 170.092C140.807 168.839 142.322 168.213 144.184 168.213C145.986 168.213 147.459 168.826 148.602 170.054C149.744 171.281 150.315 173.007 150.315 175.233C150.315 175.369 150.311 175.572 150.303 175.843H140.248C140.333 177.324 140.752 178.458 141.505 179.245C142.258 180.032 143.198 180.426 144.323 180.426C145.161 180.426 145.876 180.206 146.469 179.766C147.061 179.326 147.531 178.623 147.878 177.658ZM140.375 173.964H147.903C147.802 172.83 147.514 171.979 147.04 171.412C146.312 170.532 145.368 170.092 144.209 170.092C143.16 170.092 142.275 170.443 141.556 171.146C140.845 171.848 140.451 172.787 140.375 173.964ZM153.096 182V168.518H155.152V170.562C155.677 169.605 156.16 168.975 156.6 168.67C157.048 168.365 157.539 168.213 158.072 168.213C158.842 168.213 159.625 168.458 160.421 168.949L159.634 171.069C159.075 170.739 158.517 170.574 157.958 170.574C157.459 170.574 157.01 170.727 156.612 171.031C156.215 171.327 155.931 171.742 155.762 172.275C155.508 173.088 155.381 173.977 155.381 174.941V182H153.096ZM160.865 177.976L163.125 177.62C163.252 178.526 163.603 179.22 164.179 179.702C164.763 180.185 165.575 180.426 166.616 180.426C167.666 180.426 168.444 180.214 168.952 179.791C169.46 179.359 169.714 178.856 169.714 178.28C169.714 177.764 169.49 177.358 169.041 177.062C168.728 176.858 167.949 176.6 166.705 176.287C165.029 175.864 163.866 175.5 163.214 175.195C162.571 174.882 162.08 174.455 161.741 173.913C161.411 173.363 161.246 172.758 161.246 172.098C161.246 171.497 161.382 170.942 161.652 170.435C161.932 169.918 162.308 169.491 162.782 169.152C163.138 168.89 163.62 168.67 164.229 168.492C164.847 168.306 165.507 168.213 166.21 168.213C167.268 168.213 168.195 168.365 168.99 168.67C169.794 168.975 170.387 169.389 170.768 169.914C171.148 170.43 171.411 171.124 171.555 171.996L169.32 172.301C169.219 171.607 168.923 171.065 168.432 170.676C167.949 170.286 167.264 170.092 166.375 170.092C165.326 170.092 164.576 170.265 164.128 170.612C163.679 170.959 163.455 171.366 163.455 171.831C163.455 172.127 163.548 172.394 163.734 172.631C163.921 172.876 164.213 173.079 164.61 173.24C164.839 173.325 165.512 173.52 166.629 173.824C168.245 174.256 169.371 174.611 170.006 174.891C170.649 175.161 171.153 175.559 171.517 176.084C171.881 176.609 172.062 177.26 172.062 178.039C172.062 178.801 171.838 179.52 171.39 180.197C170.95 180.866 170.311 181.386 169.473 181.759C168.635 182.123 167.687 182.305 166.629 182.305C164.877 182.305 163.54 181.941 162.617 181.213C161.703 180.485 161.119 179.406 160.865 177.976ZM174.792 166.017V163.389H177.077V166.017H174.792ZM174.792 182V168.518H177.077V182H174.792ZM179.718 175.259C179.718 172.762 180.412 170.913 181.8 169.711C182.959 168.712 184.373 168.213 186.04 168.213C187.894 168.213 189.409 168.822 190.585 170.041C191.761 171.251 192.35 172.927 192.35 175.068C192.35 176.803 192.087 178.17 191.562 179.169C191.046 180.159 190.289 180.929 189.29 181.479C188.3 182.03 187.216 182.305 186.04 182.305C184.153 182.305 182.625 181.7 181.457 180.489C180.298 179.279 179.718 177.535 179.718 175.259ZM182.066 175.259C182.066 176.985 182.443 178.28 183.196 179.144C183.95 179.998 184.897 180.426 186.04 180.426C187.174 180.426 188.118 179.994 188.871 179.131C189.624 178.268 190.001 176.951 190.001 175.183C190.001 173.515 189.62 172.254 188.858 171.399C188.105 170.536 187.166 170.104 186.04 170.104C184.897 170.104 183.95 170.532 183.196 171.387C182.443 172.242 182.066 173.532 182.066 175.259ZM195.041 182V168.518H197.098V170.435C198.088 168.953 199.518 168.213 201.389 168.213C202.201 168.213 202.946 168.361 203.623 168.657C204.309 168.945 204.821 169.326 205.159 169.8C205.498 170.274 205.735 170.837 205.87 171.488C205.955 171.911 205.997 172.652 205.997 173.71V182H203.712V173.799C203.712 172.868 203.623 172.174 203.445 171.717C203.268 171.251 202.95 170.883 202.493 170.612C202.045 170.333 201.516 170.193 200.906 170.193C199.933 170.193 199.091 170.502 198.38 171.12C197.677 171.738 197.326 172.91 197.326 174.637V182H195.041Z" fill="white"/>
<path d="M96.5703 242V229.373H91.8535V227.684H103.201V229.373H98.4648V242H96.5703ZM102.049 236.814C102.049 234.894 102.583 233.471 103.65 232.547C104.542 231.779 105.63 231.395 106.912 231.395C108.338 231.395 109.503 231.863 110.408 232.801C111.313 233.732 111.766 235.021 111.766 236.668C111.766 238.003 111.564 239.054 111.16 239.822C110.763 240.584 110.18 241.176 109.412 241.6C108.65 242.023 107.817 242.234 106.912 242.234C105.46 242.234 104.285 241.769 103.387 240.838C102.495 239.907 102.049 238.566 102.049 236.814ZM103.855 236.814C103.855 238.143 104.145 239.139 104.725 239.803C105.304 240.46 106.033 240.789 106.912 240.789C107.785 240.789 108.51 240.457 109.09 239.793C109.669 239.129 109.959 238.117 109.959 236.756C109.959 235.473 109.666 234.503 109.08 233.846C108.501 233.182 107.778 232.85 106.912 232.85C106.033 232.85 105.304 233.178 104.725 233.836C104.145 234.493 103.855 235.486 103.855 236.814ZM119.822 242V232.996H118.27V231.629H119.822V230.525C119.822 229.829 119.884 229.311 120.008 228.973C120.177 228.517 120.473 228.149 120.896 227.869C121.326 227.583 121.925 227.439 122.693 227.439C123.188 227.439 123.735 227.498 124.334 227.615L124.07 229.148C123.706 229.083 123.361 229.051 123.035 229.051C122.501 229.051 122.124 229.165 121.902 229.393C121.681 229.62 121.57 230.047 121.57 230.672V231.629H123.592V232.996H121.57V242H119.822ZM124.979 229.705V227.684H126.736V229.705H124.979ZM124.979 242V231.629H126.736V242H124.979ZM136.189 240.721C135.538 241.274 134.91 241.665 134.305 241.893C133.706 242.12 133.061 242.234 132.371 242.234C131.232 242.234 130.356 241.958 129.744 241.404C129.132 240.844 128.826 240.132 128.826 239.266C128.826 238.758 128.94 238.296 129.168 237.879C129.402 237.456 129.705 237.117 130.076 236.863C130.454 236.609 130.877 236.417 131.346 236.287C131.691 236.196 132.212 236.108 132.908 236.023C134.327 235.854 135.372 235.652 136.043 235.418C136.049 235.177 136.053 235.024 136.053 234.959C136.053 234.243 135.887 233.738 135.555 233.445C135.105 233.048 134.438 232.85 133.553 232.85C132.726 232.85 132.114 232.996 131.717 233.289C131.326 233.576 131.036 234.087 130.848 234.822L129.129 234.588C129.285 233.852 129.542 233.26 129.9 232.811C130.258 232.355 130.776 232.007 131.453 231.766C132.13 231.518 132.915 231.395 133.807 231.395C134.692 231.395 135.411 231.499 135.965 231.707C136.518 231.915 136.925 232.179 137.186 232.498C137.446 232.811 137.628 233.208 137.732 233.689C137.791 233.989 137.82 234.529 137.82 235.311V237.654C137.82 239.288 137.856 240.324 137.928 240.76C138.006 241.189 138.156 241.603 138.377 242H136.541C136.359 241.635 136.242 241.209 136.189 240.721ZM136.043 236.795C135.405 237.055 134.448 237.277 133.172 237.459C132.449 237.563 131.938 237.68 131.639 237.811C131.339 237.941 131.108 238.133 130.945 238.387C130.783 238.634 130.701 238.911 130.701 239.217C130.701 239.686 130.877 240.076 131.229 240.389C131.587 240.701 132.107 240.857 132.791 240.857C133.468 240.857 134.07 240.711 134.598 240.418C135.125 240.118 135.512 239.712 135.76 239.197C135.949 238.8 136.043 238.214 136.043 237.439V236.795ZM144.393 240.428L144.646 241.98C144.152 242.085 143.709 242.137 143.318 242.137C142.68 242.137 142.186 242.036 141.834 241.834C141.482 241.632 141.235 241.368 141.092 241.043C140.949 240.711 140.877 240.018 140.877 238.963V232.996H139.588V231.629H140.877V229.061L142.625 228.006V231.629H144.393V232.996H142.625V239.061C142.625 239.562 142.654 239.884 142.713 240.027C142.778 240.171 142.879 240.285 143.016 240.369C143.159 240.454 143.361 240.496 143.621 240.496C143.816 240.496 144.074 240.473 144.393 240.428ZM161.307 227.684H163.201V235.955C163.201 237.394 163.038 238.536 162.713 239.383C162.387 240.229 161.798 240.919 160.945 241.453C160.099 241.98 158.986 242.244 157.605 242.244C156.264 242.244 155.167 242.013 154.314 241.551C153.462 241.089 152.853 240.421 152.488 239.549C152.124 238.67 151.941 237.472 151.941 235.955V227.684H153.836V235.945C153.836 237.189 153.95 238.107 154.178 238.699C154.412 239.285 154.809 239.738 155.369 240.057C155.936 240.376 156.626 240.535 157.439 240.535C158.833 240.535 159.826 240.219 160.418 239.588C161.01 238.956 161.307 237.742 161.307 235.945V227.684ZM165.721 237.4L167.508 237.244C167.592 237.96 167.788 238.549 168.094 239.012C168.406 239.467 168.888 239.839 169.539 240.125C170.19 240.405 170.923 240.545 171.736 240.545C172.459 240.545 173.097 240.438 173.65 240.223C174.204 240.008 174.614 239.715 174.881 239.344C175.154 238.966 175.291 238.556 175.291 238.113C175.291 237.664 175.161 237.273 174.9 236.941C174.64 236.603 174.21 236.32 173.611 236.092C173.227 235.942 172.378 235.711 171.062 235.398C169.747 235.079 168.826 234.78 168.299 234.5C167.615 234.142 167.104 233.699 166.766 233.172C166.434 232.638 166.268 232.042 166.268 231.385C166.268 230.662 166.473 229.988 166.883 229.363C167.293 228.732 167.892 228.253 168.68 227.928C169.467 227.602 170.343 227.439 171.307 227.439C172.368 227.439 173.302 227.612 174.109 227.957C174.923 228.296 175.548 228.797 175.984 229.461C176.421 230.125 176.655 230.877 176.688 231.717L174.871 231.854C174.773 230.949 174.441 230.265 173.875 229.803C173.315 229.34 172.485 229.109 171.385 229.109C170.239 229.109 169.402 229.321 168.875 229.744C168.354 230.161 168.094 230.665 168.094 231.258C168.094 231.772 168.279 232.195 168.65 232.527C169.015 232.859 169.965 233.201 171.502 233.553C173.045 233.898 174.103 234.201 174.676 234.461C175.509 234.845 176.124 235.333 176.521 235.926C176.919 236.512 177.117 237.189 177.117 237.957C177.117 238.719 176.899 239.438 176.463 240.115C176.027 240.786 175.398 241.31 174.578 241.688C173.764 242.059 172.846 242.244 171.824 242.244C170.529 242.244 169.441 242.055 168.562 241.678C167.69 241.3 167.003 240.734 166.502 239.979C166.007 239.217 165.747 238.357 165.721 237.4ZM179.705 242V227.684H184.637C185.75 227.684 186.6 227.752 187.186 227.889C188.006 228.077 188.706 228.419 189.285 228.914C190.04 229.552 190.604 230.369 190.975 231.365C191.352 232.355 191.541 233.488 191.541 234.764C191.541 235.851 191.414 236.814 191.16 237.654C190.906 238.494 190.581 239.191 190.184 239.744C189.786 240.291 189.35 240.724 188.875 241.043C188.406 241.355 187.837 241.593 187.166 241.756C186.502 241.919 185.737 242 184.871 242H179.705ZM181.6 240.311H184.656C185.6 240.311 186.339 240.223 186.873 240.047C187.413 239.871 187.843 239.624 188.162 239.305C188.611 238.855 188.96 238.253 189.207 237.498C189.461 236.736 189.588 235.815 189.588 234.734C189.588 233.237 189.34 232.088 188.846 231.287C188.357 230.48 187.762 229.939 187.059 229.666C186.551 229.471 185.734 229.373 184.607 229.373H181.6V240.311Z" fill="#9A9A9A"/>
<defs>
<filter id="filter0_i_132_305" x="0" y="0" width="285" height="320" filterUnits="userSpaceOnUse" color-interpolation-filters="sRGB">
<feFlood flood-opacity="0" result="BackgroundImageFix"/>
<feBlend mode="normal" in="SourceGraphic" in2="BackgroundImageFix" result="shape"/>
<feColorMatrix in="SourceAlpha" type="matrix" values="0 0 0 0 0 0 0 0 0 0 0 0 0 0 0 0 0 0 127 0" result="hardAlpha"/>
<feOffset dy="8"/>
<feGaussianBlur stdDeviation="7.5"/>
<feComposite in2="hardAlpha" operator="arithmetic" k2="-1" k3="1"/>
<feColorMatrix type="matrix" values="0 0 0 0 0 0 0 0 0 1 0 0 0 0 0.916667 0 0 0 0.6 0"/>
<feBlend mode="normal" in2="shape" result="effect1_innerShadow_132_305"/>
</filter>
<linearGradient id="paint0_linear_132_305" x1="142.5" y1="0" x2="142.5" y2="312" gradientUnits="userSpaceOnUse">
<stop stop-color="#0065FE" stop-opacity="0.7"/>
<stop offset="1" stop-color="#0A223B" stop-opacity="0.5"/>
</linearGradient>
</defs>
</svg>
