<svg width="10" height="10" viewBox="0 0 10 10" fill="none" xmlns="http://www.w3.org/2000/svg">
<path d="M5 0C2.23661 0 0 2.23661 0 5C0 7.76339 2.23661 10 5 10C7.76339 10 10 7.76339 10 5C9.99554 2.24107 7.75893 0.00446429 5 0ZM5 9.28571C2.63393 9.28571 0.714286 7.36607 0.714286 5C0.714286 2.63393 2.63393 0.714286 5 0.714286C7.36607 0.714286 9.28571 2.63393 9.28571 5C9.28125 7.36607 7.36607 9.28125 5 9.28571Z" fill="#808080"/>
<path d="M7.1875 5.71425H6.8125C6.73661 5.71425 6.66964 5.76336 6.64286 5.83479C6.375 6.60264 5.73661 7.14282 5 7.14282C4.01339 7.14282 3.21429 6.183 3.21429 4.99996C3.21429 3.81693 4.01339 2.85711 5 2.85711C5.73661 2.85711 6.375 3.39729 6.64286 4.16514C6.66964 4.23657 6.73661 4.28568 6.8125 4.28568H7.1875C7.28571 4.28568 7.36607 4.20532 7.36607 4.10711C7.36607 4.08925 7.36161 4.07139 7.35714 4.05354C7.01786 2.94193 6.08929 2.14282 5 2.14282C3.62054 2.14282 2.5 3.42407 2.5 4.99996C2.5 6.57586 3.62054 7.85711 5 7.85711C6.08929 7.85711 7.01786 7.058 7.35714 5.94639C7.38839 5.85264 7.33482 5.74996 7.24107 5.72318C7.22321 5.71871 7.20536 5.71425 7.1875 5.71425Z" fill="#808080"/>
</svg>
