<svg width="285" height="312" viewBox="0 0 285 312" fill="none" xmlns="http://www.w3.org/2000/svg">
<g filter="url(#filter0_i_847_337)">
<path d="M0 16C0 7.16344 7.16344 0 16 0H269C277.837 0 285 7.16344 285 16V296C285 304.837 277.837 312 269 312H16C7.16345 312 0 304.837 0 296V16Z" fill="url(#paint0_linear_847_337)"/>
</g>
<path d="M124.023 60.32C129.003 60.32 132.903 62.36 135.723 66.56C138.363 70.52 139.683 75.86 139.683 82.58C139.683 89.3 138.363 94.64 135.723 98.6C132.903 102.74 129.003 104.84 124.023 104.84C118.983 104.84 115.083 102.74 112.323 98.6C109.683 94.64 108.363 89.3 108.363 82.58C108.363 75.86 109.683 70.52 112.323 66.56C115.083 62.36 118.983 60.32 124.023 60.32ZM124.023 66.26C120.603 66.26 118.203 68.12 116.823 71.96C115.863 74.54 115.383 78.08 115.383 82.58C115.383 87.02 115.863 90.56 116.823 93.2C118.203 96.98 120.603 98.9 124.023 98.9C127.383 98.9 129.783 96.98 131.223 93.2C132.183 90.56 132.663 87.02 132.663 82.58C132.663 78.08 132.183 74.54 131.223 71.96C129.783 68.12 127.383 66.26 124.023 66.26ZM160.66 60.32C164.8 60.32 168.22 61.52 170.92 63.92C173.56 66.32 174.88 69.38 174.88 73.22C174.88 76.94 173.44 80.3 170.68 83.36C169 85.16 166 87.44 161.8 90.26C157.42 93.14 154.78 95.66 153.82 97.82H174.94V104H145.06C145.06 99.62 146.44 95.84 149.32 92.6C150.88 90.8 154.18 88.16 159.16 84.74C161.92 82.82 163.84 81.2 165.04 79.94C166.9 77.84 167.86 75.56 167.86 73.16C167.86 70.82 167.2 69.08 166 67.94C164.74 66.8 162.88 66.26 160.42 66.26C157.78 66.26 155.8 67.16 154.48 68.96C153.16 70.64 152.44 73.22 152.32 76.58H145.3C145.36 71.78 146.74 67.94 149.5 65C152.32 61.88 156.04 60.32 160.66 60.32Z" fill="white"/>
<path d="M111.008 143.456H105.366C103.754 143.456 102.974 142.728 102.974 141.298V140.206C101.908 140.518 100.816 140.83 99.724 141.142L98.71 139.66C100.218 139.27 101.648 138.854 102.974 138.438V133.888H104.794V137.84C107.758 136.748 110.176 135.578 112.074 134.278L113.27 135.526C110.878 137.086 108.07 138.464 104.794 139.608V140.934C104.794 141.532 105.132 141.844 105.86 141.844H110.67C111.242 141.844 111.658 141.714 111.892 141.506C112.204 141.246 112.412 140.44 112.516 139.14L114.232 139.686C114.05 141.48 113.686 142.572 113.166 142.962C112.698 143.274 111.996 143.456 111.008 143.456ZM111.45 144.938V152.686H109.526V146.654H97.02V153.05H95.122V144.938H111.45ZM104.924 152.712C108.278 153.648 111.32 154.818 114.076 156.17L113.036 157.756C110.098 156.222 107.082 155.026 103.988 154.142L104.924 152.712ZM102.376 147.798L104.196 147.954C103.832 151.334 103.026 153.622 101.804 154.818C100.452 156.274 97.436 157.21 92.73 157.6L91.976 155.91C96.162 155.702 98.918 154.974 100.27 153.726C101.466 152.556 102.168 150.58 102.376 147.798ZM95.434 138.958C94.394 139.686 93.25 140.388 92.002 141.038L91.43 139.218C94.628 137.58 96.968 135.708 98.424 133.628L99.958 134.382C99.23 135.5 98.32 136.54 97.254 137.502V143.794H95.434V138.958ZM136.228 154.454H133.888L133.368 152.582L135.604 152.66C136.28 152.66 136.618 152.296 136.618 151.62V143.378H130.014V157.652H128.09V143.378H121.46V154.506H119.588V141.558H128.09V137.476C125.074 137.71 121.824 137.84 118.288 137.84L117.716 136.098C126.192 136.072 133.212 135.37 138.802 133.966L139.738 135.604C136.956 136.358 133.706 136.93 130.014 137.32V141.558H138.49V152.036C138.49 153.648 137.736 154.454 136.228 154.454ZM147.096 139.296H156.612C157.808 137.528 158.822 135.656 159.706 133.628L161.604 134.278C160.72 136.15 159.706 137.814 158.614 139.296H162.982V147.98H158.978V154.22C158.978 155.052 159.316 155.468 160.018 155.468H163.424C163.866 155.468 164.178 155.312 164.36 155C164.594 154.636 164.75 153.596 164.802 151.88L166.596 152.452C166.44 154.74 166.128 156.118 165.66 156.612C165.27 157.028 164.646 157.236 163.762 157.236H159.42C157.86 157.236 157.106 156.352 157.106 154.61V147.98H153.206C152.842 152.452 150.034 155.676 144.73 157.704L143.664 156.04C148.5 154.402 151.1 151.724 151.438 147.98H147.096V139.296ZM161.162 146.238V141.064H148.916V146.238H161.162ZM150.086 133.784C151.074 135.188 151.984 136.696 152.868 138.36L151.204 139.192C150.346 137.476 149.436 135.916 148.448 134.564L150.086 133.784ZM191.322 140.934V148.006H192.96V149.722H186.408C187.786 152.374 190.022 154.428 193.09 155.936L192.232 157.704C188.8 155.78 186.33 153.232 184.874 150.112C183.782 153.128 181.312 155.65 177.464 157.678L176.242 156.118C179.778 154.454 182.066 152.322 183.106 149.722H177.048V148.006H178.894V140.934H184.822C185.576 139.894 186.33 138.698 187.058 137.32H182.534C181.442 138.828 180.012 140.18 178.296 141.35L177.204 139.894C179.804 138.178 181.572 136.072 182.508 133.602L184.328 133.836C184.094 134.486 183.834 135.11 183.522 135.708H189.034V137.06C188.28 138.568 187.5 139.868 186.72 140.934H191.322ZM180.558 148.006H183.626C183.938 146.498 184.12 144.678 184.172 142.572H180.558V148.006ZM185.42 148.006H189.658V142.572H185.888C185.836 144.73 185.68 146.55 185.42 148.006ZM172.082 157.314H169.872L169.482 155.52C170.158 155.598 170.808 155.65 171.432 155.65C172.108 155.65 172.472 155.26 172.472 154.532V148.266C171.432 148.682 170.392 149.046 169.352 149.384L168.884 147.512C170.106 147.2 171.302 146.836 172.472 146.394V140.336H169.378V138.542H172.472V133.784H174.344V138.542H176.996V140.336H174.344V145.64C175.28 145.224 176.19 144.756 177.1 144.236V146.134C176.19 146.602 175.28 147.07 174.344 147.486V155C174.344 156.534 173.59 157.314 172.082 157.314Z" fill="white"/>
<path d="M39.7 238.36H47.3V236.34H48.74V238.36H51.16V239.74H48.74V245.14C48.74 246.34 48.1 246.94 46.82 246.94H44.16L43.86 245.56C44.72 245.62 45.54 245.66 46.32 245.66C46.96 245.66 47.3 245.36 47.3 244.78V239.74H39.7V238.36ZM37.06 228.66H38.52V246.98H37.06V240.36C35.74 241.6 34.52 242.58 33.4 243.32L32.76 241.94C33.96 241.22 35.38 240.1 37.06 238.62V228.66ZM42.24 240.56C43.36 241.78 44.2 242.84 44.8 243.76L43.68 244.56C43.06 243.56 42.22 242.44 41.18 241.22L42.24 240.56ZM43.64 231.46C42.72 232.52 41.58 233.4 40.2 234.12L39.28 233C41.46 231.92 42.92 230.46 43.68 228.64L45.16 228.92C44.98 229.34 44.78 229.74 44.56 230.14H50.4V231.38C49.26 234.3 46.1 236.36 40.94 237.54L40.22 236.26C41.8 235.92 43.18 235.5 44.38 235.02C43.74 234.42 43.1 233.92 42.48 233.48L43.5 232.7C44.24 233.24 44.94 233.82 45.6 234.44C47.1 233.62 48.18 232.62 48.84 231.46H43.64ZM34.02 231C34.96 232.36 35.76 233.82 36.44 235.36L35.18 235.88C34.46 234.2 33.66 232.74 32.78 231.5L34.02 231ZM53.42 231.76L53.14 230.38C55.44 230.14 57.48 229.7 59.24 229.04L59.76 230.38C58.98 230.64 58.16 230.88 57.3 231.08V234.14H59.66V235.52H57.3V236.56C58.18 237.44 59.06 238.42 59.96 239.52L59.16 240.74C58.44 239.54 57.82 238.58 57.3 237.86V247H55.92V237.98C55.28 239.78 54.42 241.42 53.38 242.9L52.78 241.34C54.2 239.62 55.2 237.68 55.8 235.52H53.04V234.14H55.92V231.38C55.1 231.52 54.26 231.64 53.42 231.76ZM69.62 240.42H60.72V239.18H68.24V237.66H61V236.46H68.24V234.98H60.84V233.84C60.64 234 60.42 234.16 60.22 234.3L59.38 233.22C61.3 231.94 62.6 230.4 63.28 228.58L64.7 228.74C64.54 229.2 64.34 229.64 64.12 230.04H68.64V231.1C68.04 232.14 67.44 233 66.84 233.7H69.62V240.42ZM63.34 231.3C62.7 232.18 61.94 232.98 61.04 233.7H65.28C65.88 233.02 66.46 232.22 67.04 231.3H63.34ZM69.4 241.38C70.12 242.62 70.74 243.94 71.28 245.34L70.1 245.86C69.5 244.32 68.86 242.96 68.16 241.78L69.4 241.38ZM60.32 241.72L61.56 241.96C61.22 243.58 60.74 244.98 60.12 246.18L58.96 245.44C59.58 244.32 60.04 243.08 60.32 241.72ZM66.64 246.82H64.04C62.92 246.82 62.36 246.2 62.36 245V241.4H63.66V244.74C63.66 245.28 63.92 245.56 64.48 245.56H66.4C66.72 245.56 66.96 245.48 67.1 245.34C67.28 245.16 67.4 244.62 67.46 243.7L68.7 244.08C68.58 245.38 68.36 246.18 68.02 246.46C67.74 246.7 67.28 246.82 66.64 246.82ZM65.32 241.06C66.08 241.96 66.66 242.76 67.06 243.44L66.02 244.16C65.6 243.42 65.02 242.6 64.28 241.72L65.32 241.06ZM76.14 234.6H87.9V235.96H82.82V239.48H88.78V240.84H82.82V244.98C84.22 245.18 85.9 245.3 87.9 245.32C88.92 245.32 89.96 245.28 91.04 245.2L90.78 246.64H88.54C84.5 246.64 81.62 246.26 79.86 245.52C78.54 244.9 77.46 243.94 76.64 242.64C75.86 244.36 74.9 245.8 73.76 246.96L72.84 245.82C74.76 243.78 76.04 241.04 76.72 237.6L78.12 237.84C77.88 239.08 77.56 240.22 77.2 241.26C78.16 242.98 79.36 244.06 80.8 244.52C80.98 244.58 81.18 244.64 81.38 244.68V235.96H76.14V234.6ZM90.18 230.7V234.96H88.78V232.02H75.22V235.06H73.82V230.7H81.46C81.16 229.98 80.82 229.32 80.46 228.72L82 228.48C82.32 229.14 82.64 229.88 82.92 230.7H90.18ZM107.56 244.58H105.76L105.36 243.14L107.08 243.2C107.6 243.2 107.86 242.92 107.86 242.4V236.06H102.78V247.04H101.3V236.06H96.2V244.62H94.76V234.66H101.3V231.52C98.98 231.7 96.48 231.8 93.76 231.8L93.32 230.46C99.84 230.44 105.24 229.9 109.54 228.82L110.26 230.08C108.12 230.66 105.62 231.1 102.78 231.4V234.66H109.3V242.72C109.3 243.96 108.72 244.58 107.56 244.58ZM115.92 232.92H123.24C124.16 231.56 124.94 230.12 125.62 228.56L127.08 229.06C126.4 230.5 125.62 231.78 124.78 232.92H128.14V239.6H125.06V244.4C125.06 245.04 125.32 245.36 125.86 245.36H128.48C128.82 245.36 129.06 245.24 129.2 245C129.38 244.72 129.5 243.92 129.54 242.6L130.92 243.04C130.8 244.8 130.56 245.86 130.2 246.24C129.9 246.56 129.42 246.72 128.74 246.72H125.4C124.2 246.72 123.62 246.04 123.62 244.7V239.6H120.62C120.34 243.04 118.18 245.52 114.1 247.08L113.28 245.8C117 244.54 119 242.48 119.26 239.6H115.92V232.92ZM126.74 238.26V234.28H117.32V238.26H126.74ZM118.22 228.68C118.98 229.76 119.68 230.92 120.36 232.2L119.08 232.84C118.42 231.52 117.72 230.32 116.96 229.28L118.22 228.68ZM149.94 234.18V239.62H151.2V240.94H146.16C147.22 242.98 148.94 244.56 151.3 245.72L150.64 247.08C148 245.6 146.1 243.64 144.98 241.24C144.14 243.56 142.24 245.5 139.28 247.06L138.34 245.86C141.06 244.58 142.82 242.94 143.62 240.94H138.96V239.62H140.38V234.18H144.94C145.52 233.38 146.1 232.46 146.66 231.4H143.18C142.34 232.56 141.24 233.6 139.92 234.5L139.08 233.38C141.08 232.06 142.44 230.44 143.16 228.54L144.56 228.72C144.38 229.22 144.18 229.7 143.94 230.16H148.18V231.2C147.6 232.36 147 233.36 146.4 234.18H149.94ZM141.66 239.62H144.02C144.26 238.46 144.4 237.06 144.44 235.44H141.66V239.62ZM145.4 239.62H148.66V235.44H145.76C145.72 237.1 145.6 238.5 145.4 239.62ZM135.14 246.78H133.44L133.14 245.4C133.66 245.46 134.16 245.5 134.64 245.5C135.16 245.5 135.44 245.2 135.44 244.64V239.82C134.64 240.14 133.84 240.42 133.04 240.68L132.68 239.24C133.62 239 134.54 238.72 135.44 238.38V233.72H133.06V232.34H135.44V228.68H136.88V232.34H138.92V233.72H136.88V237.8C137.6 237.48 138.3 237.12 139 236.72V238.18C138.3 238.54 137.6 238.9 136.88 239.22V245C136.88 246.18 136.3 246.78 135.14 246.78ZM155.68 229.16C156.84 230.36 157.74 231.42 158.38 232.34L157.26 233.12C156.56 232.12 155.66 231.06 154.58 229.94L155.68 229.16ZM162.72 237.6C164.16 239.18 165.26 240.56 166.04 241.72L164.78 242.6C163.98 241.32 162.92 239.88 161.56 238.32L162.72 237.6ZM160.22 228.66H161.64V231.04C161.62 231.92 161.58 232.78 161.52 233.6H169.76C169.76 239.32 169.5 242.96 169 244.52C168.48 246.08 167.54 246.86 166.2 246.86C165.22 246.86 164.4 246.82 163.72 246.78L163.34 245.38C164.36 245.46 165.28 245.5 166.12 245.5C167.24 245.42 167.9 244.28 168.06 242.12C168.22 239.94 168.3 237.56 168.3 235H161.38C161.06 237.52 160.5 239.62 159.68 241.34C158.5 243.72 156.56 245.58 153.84 246.92L153.02 245.64C155.7 244.28 157.58 242.48 158.62 240.22C159.24 238.74 159.68 237 159.94 235H153.72V233.6H160.1C160.16 232.76 160.2 231.92 160.22 231.04V228.66ZM183.64 228.66H185.12V231.88H190.26V233.28H185.12V237.02H190.8V238.42H184.24C182.96 241.48 181.84 243.64 180.88 244.9C183.34 244.64 185.8 244.26 188.28 243.78C187.7 242.58 187.1 241.48 186.5 240.48L187.88 240.02C189.08 242.02 190.14 244.18 191.04 246.46L189.68 247.06C189.4 246.36 189.14 245.7 188.86 245.06C185.84 245.62 182.56 246.08 179.02 246.42L178.68 245.16C178.8 245.12 178.9 245.06 178.98 245.02C179.92 244.2 181.16 242 182.68 238.42H177.94V237.02H183.64V233.28H178.9V231.88H183.64V228.66ZM174.56 228.98C175.86 229.96 176.96 230.94 177.84 231.94L176.82 232.98C176.02 232.02 174.94 231.02 173.54 229.96L174.56 228.98ZM174.08 233.66C175.28 234.64 176.28 235.64 177.1 236.64L176.06 237.66C175.34 236.72 174.34 235.72 173.06 234.64L174.08 233.66ZM176.38 239.2L177.68 239.72C176.82 242.24 175.86 244.62 174.8 246.84L173.36 246.22C174.52 243.94 175.54 241.6 176.38 239.2ZM196.14 234.6H207.9V235.96H202.82V239.48H208.78V240.84H202.82V244.98C204.22 245.18 205.9 245.3 207.9 245.32C208.92 245.32 209.96 245.28 211.04 245.2L210.78 246.64H208.54C204.5 246.64 201.62 246.26 199.86 245.52C198.54 244.9 197.46 243.94 196.64 242.64C195.86 244.36 194.9 245.8 193.76 246.96L192.84 245.82C194.76 243.78 196.04 241.04 196.72 237.6L198.12 237.84C197.88 239.08 197.56 240.22 197.2 241.26C198.16 242.98 199.36 244.06 200.8 244.52C200.98 244.58 201.18 244.64 201.38 244.68V235.96H196.14V234.6ZM210.18 230.7V234.96H208.78V232.02H195.22V235.06H193.82V230.7H201.46C201.16 229.98 200.82 229.32 200.46 228.72L202 228.48C202.32 229.14 202.64 229.88 202.92 230.7H210.18ZM213.92 230.68H218.48C218.2 230 217.88 229.38 217.52 228.82L219.04 228.58C219.36 229.2 219.66 229.9 219.96 230.68H224.14C224.48 229.98 224.74 229.26 224.9 228.54L226.44 228.74C226.24 229.42 225.98 230.06 225.64 230.68H230.08V232H222.74V233.9H229.02V235.18H222.74V237.12H230.74V238.44H213.26V237.12H221.26V235.18H215.04V233.9H221.26V232H213.92V230.68ZM221.4 238.96L222.88 239.12C222.8 239.64 222.7 240.14 222.56 240.58H230.3V241.94H223.3C224.68 243.78 227.34 245.04 231.28 245.7L230.52 247.06C226.12 246.18 223.26 244.54 221.94 242.14C221.5 242.98 220.92 243.7 220.24 244.34C218.94 245.52 216.66 246.44 213.4 247.12L212.8 245.72C215.7 245.18 217.78 244.4 219.06 243.38C219.58 242.96 220 242.48 220.34 241.94H213.72V240.58H221C221.18 240.06 221.32 239.52 221.4 238.96ZM235 229.78H248.82V231.18H235V229.78ZM233.46 235.66H250.56V237.06H245.04V244.52C245.04 245.08 245.32 245.38 245.92 245.38H248.14C248.58 245.38 248.88 245.22 249.04 244.92C249.28 244.56 249.42 243.48 249.5 241.68L250.82 242.1C250.68 244.28 250.42 245.6 250.02 246.06C249.68 246.46 249.14 246.68 248.42 246.68H245.52C244.26 246.68 243.64 246.06 243.64 244.82V237.06H240.04V237.36C239.98 239.96 239.44 242.06 238.44 243.64C237.44 245.1 235.84 246.24 233.62 247.06L232.84 245.84C235 245.04 236.5 244 237.36 242.68C238.16 241.32 238.6 239.54 238.64 237.36V237.06H233.46V235.66Z" fill="#9A9A9A"/>
<defs>
<filter id="filter0_i_847_337" x="0" y="0" width="285" height="320" filterUnits="userSpaceOnUse" color-interpolation-filters="sRGB">
<feFlood flood-opacity="0" result="BackgroundImageFix"/>
<feBlend mode="normal" in="SourceGraphic" in2="BackgroundImageFix" result="shape"/>
<feColorMatrix in="SourceAlpha" type="matrix" values="0 0 0 0 0 0 0 0 0 0 0 0 0 0 0 0 0 0 127 0" result="hardAlpha"/>
<feOffset dy="8"/>
<feGaussianBlur stdDeviation="7.5"/>
<feComposite in2="hardAlpha" operator="arithmetic" k2="-1" k3="1"/>
<feColorMatrix type="matrix" values="0 0 0 0 0 0 0 0 0 1 0 0 0 0 0.916667 0 0 0 0.6 0"/>
<feBlend mode="normal" in2="shape" result="effect1_innerShadow_847_337"/>
</filter>
<linearGradient id="paint0_linear_847_337" x1="142.5" y1="0" x2="142.5" y2="312" gradientUnits="userSpaceOnUse">
<stop stop-color="#0065FE" stop-opacity="0.7"/>
<stop offset="1" stop-color="#0A223B" stop-opacity="0.5"/>
</linearGradient>
</defs>
</svg>
