<svg width="285" height="312" viewBox="0 0 285 312" fill="none" xmlns="http://www.w3.org/2000/svg">
<g filter="url(#filter0_i_847_327)">
<path d="M0 16C0 7.16344 7.16344 0 16 0H269C277.837 0 285 7.16344 285 16V296C285 304.837 277.837 312 269 312H16C7.16345 312 0 304.837 0 296V16Z" fill="url(#paint0_linear_847_327)"/>
</g>
<path d="M130.207 60.32C135.187 60.32 139.087 62.36 141.907 66.56C144.547 70.52 145.867 75.86 145.867 82.58C145.867 89.3 144.547 94.64 141.907 98.6C139.087 102.74 135.187 104.84 130.207 104.84C125.167 104.84 121.267 102.74 118.507 98.6C115.867 94.64 114.547 89.3 114.547 82.58C114.547 75.86 115.867 70.52 118.507 66.56C121.267 62.36 125.167 60.32 130.207 60.32ZM130.207 66.26C126.787 66.26 124.387 68.12 123.007 71.96C122.047 74.54 121.567 78.08 121.567 82.58C121.567 87.02 122.047 90.56 123.007 93.2C124.387 96.98 126.787 98.9 130.207 98.9C133.567 98.9 135.967 96.98 137.407 93.2C138.367 90.56 138.847 87.02 138.847 82.58C138.847 78.08 138.367 74.54 137.407 71.96C135.967 68.12 133.567 66.26 130.207 66.26ZM162.104 61.16H167.384V104H160.364V69.62C157.784 71.96 154.544 73.7 150.584 74.84V67.88C152.504 67.4 154.544 66.56 156.704 65.36C158.864 64.04 160.664 62.66 162.104 61.16Z" fill="white"/>
<path d="M96.038 142.832V147.382H102.642V142.832H96.038ZM95.934 149.098C95.648 152.426 94.686 155.182 93.022 157.366L91.592 156.092C93.256 153.778 94.114 150.84 94.166 147.278V134.798H113.536V154.272C113.536 156.092 112.626 157.002 110.806 157.002H107.816L107.322 155.156C108.362 155.208 109.324 155.26 110.208 155.26C111.144 155.26 111.638 154.714 111.638 153.622V149.098H104.566V156.716H102.642V149.098H95.934ZM111.638 147.382V142.832H104.566V147.382H111.638ZM111.638 141.09V136.618H104.566V141.09H111.638ZM102.642 136.618H96.038V141.09H102.642V136.618ZM137.274 138.802H122.428V143.872H137.274V138.802ZM122.428 145.692C122.298 150.346 121.076 154.35 118.736 157.704L117.358 156.456C119.464 153.544 120.53 149.748 120.582 145.094V136.956H129.058C128.59 135.864 128.096 134.85 127.55 133.914L129.552 133.602C130.02 134.59 130.488 135.708 130.956 136.956H139.172V145.692H122.428ZM144.502 136.41H151.574C151.912 135.5 152.224 134.59 152.484 133.654L154.382 133.888C154.122 134.746 153.862 135.578 153.576 136.41H166.888V138.23H152.874C151.912 140.466 150.716 142.52 149.312 144.392V157.626H147.492V146.628C146.608 147.59 145.698 148.5 144.71 149.384L143.54 147.902C146.712 145.12 149.13 141.896 150.82 138.23H144.502V136.41ZM151.34 148.5H158.88V146.082C160.362 145.25 161.766 144.288 163.118 143.144H153.342V141.402H165.51V143.144C164.106 144.444 162.52 145.692 160.752 146.862V148.5H167.252V150.294H160.752V155.208C160.752 156.742 159.972 157.522 158.438 157.522H155.188L154.694 155.754C155.63 155.78 156.618 155.806 157.684 155.806C158.464 155.806 158.88 155.39 158.88 154.61V150.294H151.34V148.5ZM180.356 139.79C179.16 137.606 177.73 135.942 176.066 134.746L177.626 133.758C179.94 135.37 181.89 138.308 183.502 142.52C185.946 148.734 189.196 153.128 193.304 155.702L192.134 157.21C187.922 154.662 184.49 149.93 181.812 143.066C181.656 142.65 181.526 142.286 181.396 141.974C179.68 148.604 176.092 153.7 170.632 157.236L169.514 155.65C175.078 152.01 178.692 146.706 180.356 139.79Z" fill="white"/>
<path d="M34.538 230.7H39.978C40.238 230 40.478 229.3 40.678 228.58L42.138 228.76C41.938 229.42 41.738 230.06 41.518 230.7H51.758V232.1H40.978C40.238 233.82 39.318 235.4 38.238 236.84V247.02H36.838V238.56C36.158 239.3 35.458 240 34.698 240.68L33.798 239.54C36.238 237.4 38.098 234.92 39.398 232.1H34.538V230.7ZM39.798 240H45.598V238.14C46.738 237.5 47.818 236.76 48.858 235.88H41.338V234.54H50.698V235.88C49.618 236.88 48.398 237.84 47.038 238.74V240H52.038V241.38H47.038V245.16C47.038 246.34 46.438 246.94 45.258 246.94H42.758L42.378 245.58C43.098 245.6 43.858 245.62 44.678 245.62C45.278 245.62 45.598 245.3 45.598 244.7V241.38H39.798V240ZM62.118 233.3C61.198 231.62 60.098 230.34 58.818 229.42L60.018 228.66C61.798 229.9 63.298 232.16 64.538 235.4C66.418 240.18 68.918 243.56 72.078 245.54L71.178 246.7C67.938 244.74 65.298 241.1 63.238 235.82C63.118 235.5 63.018 235.22 62.918 234.98C61.598 240.08 58.838 244 54.638 246.72L53.778 245.5C58.058 242.7 60.838 238.62 62.118 233.3ZM74.438 230.72H76.078V239.54C76.078 240.94 76.378 242 77.018 242.72C77.678 243.46 78.718 243.84 80.138 243.84C81.538 243.84 82.578 243.46 83.258 242.72C83.878 242 84.198 240.94 84.198 239.54V230.72H85.838V239.52C85.838 241.38 85.358 242.8 84.418 243.78C83.438 244.78 82.018 245.28 80.138 245.28C78.258 245.28 76.838 244.78 75.878 243.8C74.918 242.8 74.438 241.38 74.438 239.52V230.72ZM93.5154 230.44C95.1154 230.44 96.3954 230.8 97.3154 231.54C98.2754 232.3 98.8154 233.44 98.9554 234.94H97.3354C97.1554 233.9 96.7554 233.14 96.1354 232.64C95.4954 232.12 94.5954 231.88 93.4354 231.88C92.3754 231.88 91.5554 232.04 90.9554 232.4C90.2754 232.8 89.9354 233.4 89.9354 234.22C89.9354 234.94 90.3354 235.52 91.1554 235.96C91.5154 236.16 92.3954 236.46 93.7754 236.86C95.6554 237.42 96.8954 237.88 97.4954 238.24C98.6754 238.96 99.2754 239.96 99.2754 241.26C99.2754 242.5 98.7754 243.5 97.7754 244.22C96.7754 244.92 95.4354 245.28 93.7354 245.28C92.0554 245.28 90.7354 244.92 89.7754 244.2C88.6554 243.34 88.0354 242.04 87.9154 240.28H89.5354C89.6754 241.52 90.1154 242.44 90.8354 243.02C91.4954 243.54 92.4554 243.82 93.7354 243.82C94.8954 243.82 95.8554 243.6 96.5754 243.16C97.2954 242.72 97.6554 242.12 97.6554 241.36C97.6554 240.46 97.1754 239.76 96.2354 239.26C95.8354 239.02 94.8154 238.68 93.2154 238.22C91.4954 237.7 90.3954 237.3 89.9354 237.06C88.8354 236.42 88.2954 235.5 88.2954 234.3C88.2954 233.06 88.8154 232.08 89.8754 231.4C90.8154 230.76 92.0354 230.44 93.5154 230.44ZM101.352 230.72H106.472C108.732 230.72 110.432 231.36 111.592 232.68C112.652 233.88 113.192 235.62 113.192 237.86C113.192 240.06 112.612 241.8 111.472 243.04C110.272 244.34 108.552 245 106.312 245H101.352V230.72ZM102.992 232.14V243.58H106.032C107.892 243.58 109.292 243.08 110.232 242.1C111.112 241.14 111.572 239.72 111.572 237.86C111.572 235.94 111.152 234.52 110.332 233.6C109.452 232.62 108.092 232.14 106.212 232.14H102.992ZM114.373 230.72H126.073V232.14H121.033V245H119.413V232.14H114.373V230.72ZM134.256 228.6H135.676L128.596 247H127.156L134.256 228.6ZM137.856 230.72H139.496V239.54C139.496 240.94 139.796 242 140.436 242.72C141.096 243.46 142.136 243.84 143.556 243.84C144.956 243.84 145.996 243.46 146.676 242.72C147.296 242 147.616 240.94 147.616 239.54V230.72H149.256V239.52C149.256 241.38 148.776 242.8 147.836 243.78C146.856 244.78 145.436 245.28 143.556 245.28C141.676 245.28 140.256 244.78 139.296 243.8C138.336 242.8 137.856 241.38 137.856 239.52V230.72ZM156.933 230.44C158.533 230.44 159.813 230.8 160.733 231.54C161.693 232.3 162.233 233.44 162.373 234.94H160.753C160.573 233.9 160.173 233.14 159.553 232.64C158.913 232.12 158.013 231.88 156.853 231.88C155.793 231.88 154.973 232.04 154.373 232.4C153.693 232.8 153.353 233.4 153.353 234.22C153.353 234.94 153.753 235.52 154.573 235.96C154.933 236.16 155.813 236.46 157.193 236.86C159.073 237.42 160.313 237.88 160.913 238.24C162.093 238.96 162.693 239.96 162.693 241.26C162.693 242.5 162.193 243.5 161.193 244.22C160.193 244.92 158.853 245.28 157.153 245.28C155.473 245.28 154.153 244.92 153.193 244.2C152.073 243.34 151.453 242.04 151.333 240.28H152.953C153.093 241.52 153.533 242.44 154.253 243.02C154.913 243.54 155.873 243.82 157.153 243.82C158.313 243.82 159.273 243.6 159.993 243.16C160.713 242.72 161.073 242.12 161.073 241.36C161.073 240.46 160.593 239.76 159.653 239.26C159.253 239.02 158.233 238.68 156.633 238.22C154.913 237.7 153.813 237.3 153.353 237.06C152.253 236.42 151.713 235.5 151.713 234.3C151.713 233.06 152.233 232.08 153.293 231.4C154.233 230.76 155.453 230.44 156.933 230.44ZM164.77 230.72H169.89C172.15 230.72 173.85 231.36 175.01 232.68C176.07 233.88 176.61 235.62 176.61 237.86C176.61 240.06 176.03 241.8 174.89 243.04C173.69 244.34 171.97 245 169.73 245H164.77V230.72ZM166.41 232.14V243.58H169.45C171.31 243.58 172.71 243.08 173.65 242.1C174.53 241.14 174.99 239.72 174.99 237.86C174.99 235.94 174.57 234.52 173.75 233.6C172.87 232.62 171.51 232.14 169.63 232.14H166.41ZM185.051 230.44C186.631 230.44 187.971 230.86 189.051 231.7C190.131 232.54 190.771 233.68 190.971 235.1H189.391C189.191 234.06 188.671 233.26 187.871 232.7C187.091 232.16 186.151 231.9 185.031 231.9C183.371 231.9 182.091 232.48 181.191 233.64C180.351 234.72 179.931 236.14 179.931 237.92C179.931 239.7 180.331 241.12 181.171 242.16C182.051 243.26 183.311 243.82 184.991 243.82C186.131 243.82 187.091 243.52 187.891 242.92C188.731 242.28 189.311 241.34 189.591 240.1H191.171C190.851 241.76 190.111 243.06 188.931 243.98C187.831 244.84 186.511 245.28 184.991 245.28C182.771 245.28 181.071 244.54 179.891 243.08C178.811 241.76 178.291 240.04 178.291 237.92C178.291 235.8 178.831 234.06 179.931 232.7C181.131 231.18 182.851 230.44 185.051 230.44ZM193.422 231.76L193.142 230.38C195.442 230.14 197.482 229.7 199.242 229.04L199.762 230.38C198.982 230.64 198.162 230.88 197.302 231.08V234.14H199.662V235.52H197.302V236.56C198.182 237.44 199.062 238.42 199.962 239.52L199.162 240.74C198.442 239.54 197.822 238.58 197.302 237.86V247H195.922V237.98C195.282 239.78 194.422 241.42 193.382 242.9L192.782 241.34C194.202 239.62 195.202 237.68 195.802 235.52H193.042V234.14H195.922V231.38C195.102 231.52 194.262 231.64 193.422 231.76ZM209.622 240.42H200.722V239.18H208.242V237.66H201.002V236.46H208.242V234.98H200.842V233.84C200.642 234 200.422 234.16 200.222 234.3L199.382 233.22C201.302 231.94 202.602 230.4 203.282 228.58L204.702 228.74C204.542 229.2 204.342 229.64 204.122 230.04H208.642V231.1C208.042 232.14 207.442 233 206.842 233.7H209.622V240.42ZM203.342 231.3C202.702 232.18 201.942 232.98 201.042 233.7H205.282C205.882 233.02 206.462 232.22 207.042 231.3H203.342ZM209.402 241.38C210.122 242.62 210.742 243.94 211.282 245.34L210.102 245.86C209.502 244.32 208.862 242.96 208.162 241.78L209.402 241.38ZM200.322 241.72L201.562 241.96C201.222 243.58 200.742 244.98 200.122 246.18L198.962 245.44C199.582 244.32 200.042 243.08 200.322 241.72ZM206.642 246.82H204.042C202.922 246.82 202.362 246.2 202.362 245V241.4H203.662V244.74C203.662 245.28 203.922 245.56 204.482 245.56H206.402C206.722 245.56 206.962 245.48 207.102 245.34C207.282 245.16 207.402 244.62 207.462 243.7L208.702 244.08C208.582 245.38 208.362 246.18 208.022 246.46C207.742 246.7 207.282 246.82 206.642 246.82ZM205.322 241.06C206.082 241.96 206.662 242.76 207.062 243.44L206.022 244.16C205.602 243.42 205.022 242.6 204.282 241.72L205.322 241.06ZM216.142 234.6H227.902V235.96H222.822V239.48H228.782V240.84H222.822V244.98C224.222 245.18 225.902 245.3 227.902 245.32C228.922 245.32 229.962 245.28 231.042 245.2L230.782 246.64H228.542C224.502 246.64 221.622 246.26 219.862 245.52C218.542 244.9 217.462 243.94 216.642 242.64C215.862 244.36 214.902 245.8 213.762 246.96L212.842 245.82C214.762 243.78 216.042 241.04 216.722 237.6L218.122 237.84C217.882 239.08 217.562 240.22 217.202 241.26C218.162 242.98 219.362 244.06 220.802 244.52C220.982 244.58 221.182 244.64 221.382 244.68V235.96H216.142V234.6ZM230.182 230.7V234.96H228.782V232.02H215.222V235.06H213.822V230.7H221.462C221.162 229.98 220.822 229.32 220.462 228.72L222.002 228.48C222.322 229.14 222.642 229.88 222.922 230.7H230.182ZM247.562 244.58H245.762L245.362 243.14L247.082 243.2C247.602 243.2 247.862 242.92 247.862 242.4V236.06H242.782V247.04H241.302V236.06H236.202V244.62H234.762V234.66H241.302V231.52C238.982 231.7 236.482 231.8 233.762 231.8L233.322 230.46C239.842 230.44 245.242 229.9 249.542 228.82L250.262 230.08C248.122 230.66 245.622 231.1 242.782 231.4V234.66H249.302V242.72C249.302 243.96 248.722 244.58 247.562 244.58Z" fill="#9A9A9A"/>
<defs>
<filter id="filter0_i_847_327" x="0" y="0" width="285" height="320" filterUnits="userSpaceOnUse" color-interpolation-filters="sRGB">
<feFlood flood-opacity="0" result="BackgroundImageFix"/>
<feBlend mode="normal" in="SourceGraphic" in2="BackgroundImageFix" result="shape"/>
<feColorMatrix in="SourceAlpha" type="matrix" values="0 0 0 0 0 0 0 0 0 0 0 0 0 0 0 0 0 0 127 0" result="hardAlpha"/>
<feOffset dy="8"/>
<feGaussianBlur stdDeviation="7.5"/>
<feComposite in2="hardAlpha" operator="arithmetic" k2="-1" k3="1"/>
<feColorMatrix type="matrix" values="0 0 0 0 0 0 0 0 0 1 0 0 0 0 0.916667 0 0 0 0.6 0"/>
<feBlend mode="normal" in2="shape" result="effect1_innerShadow_847_327"/>
</filter>
<linearGradient id="paint0_linear_847_327" x1="142.5" y1="0" x2="142.5" y2="312" gradientUnits="userSpaceOnUse">
<stop stop-color="#0065FE" stop-opacity="0.7"/>
<stop offset="1" stop-color="#0A223B" stop-opacity="0.5"/>
</linearGradient>
</defs>
</svg>
