<svg width="285" height="312" viewBox="0 0 285 312" fill="none" xmlns="http://www.w3.org/2000/svg">
<g filter="url(#filter0_i_847_332)">
<path d="M0 16C0 7.16344 7.16344 0 16 0H269C277.837 0 285 7.16344 285 16V296C285 304.837 277.837 312 269 312H16C7.16345 312 0 304.837 0 296V16Z" fill="url(#paint0_linear_847_332)"/>
</g>
<path d="M124.023 60.32C129.003 60.32 132.903 62.36 135.723 66.56C138.363 70.52 139.683 75.86 139.683 82.58C139.683 89.3 138.363 94.64 135.723 98.6C132.903 102.74 129.003 104.84 124.023 104.84C118.983 104.84 115.083 102.74 112.323 98.6C109.683 94.64 108.363 89.3 108.363 82.58C108.363 75.86 109.683 70.52 112.323 66.56C115.083 62.36 118.983 60.32 124.023 60.32ZM124.023 66.26C120.603 66.26 118.203 68.12 116.823 71.96C115.863 74.54 115.383 78.08 115.383 82.58C115.383 87.02 115.863 90.56 116.823 93.2C118.203 96.98 120.603 98.9 124.023 98.9C127.383 98.9 129.783 96.98 131.223 93.2C132.183 90.56 132.663 87.02 132.663 82.58C132.663 78.08 132.183 74.54 131.223 71.96C129.783 68.12 127.383 66.26 124.023 66.26ZM160.42 60.32C164.74 60.32 168.28 61.34 170.92 63.44C173.5 65.54 174.82 68.42 174.82 72.14C174.82 76.82 172.42 79.94 167.68 81.5C170.2 82.28 172.18 83.42 173.5 84.98C174.94 86.6 175.66 88.7 175.66 91.22C175.66 95.18 174.28 98.42 171.52 100.94C168.64 103.52 164.86 104.84 160.18 104.84C155.74 104.84 152.14 103.7 149.44 101.42C146.44 98.9 144.76 95.18 144.4 90.38H151.54C151.66 93.14 152.5 95.3 154.18 96.8C155.68 98.18 157.66 98.9 160.12 98.9C162.82 98.9 164.98 98.12 166.54 96.62C167.92 95.24 168.64 93.56 168.64 91.52C168.64 89.06 167.86 87.26 166.42 86.12C164.98 84.92 162.88 84.38 160.12 84.38H157.12V79.1H160.12C162.64 79.1 164.56 78.56 165.88 77.48C167.14 76.4 167.8 74.78 167.8 72.68C167.8 70.58 167.2 69.02 166.06 67.94C164.8 66.86 162.94 66.32 160.48 66.32C157.96 66.32 156.04 66.92 154.66 68.18C153.22 69.44 152.38 71.36 152.14 73.94H145.24C145.6 69.62 147.16 66.26 150.04 63.86C152.74 61.46 156.22 60.32 160.42 60.32Z" fill="white"/>
<path d="M94.628 142.806V147.2H98.814V142.806H94.628ZM98.814 141.064V136.41H94.628V141.064H98.814ZM94.576 148.968C94.368 152.478 93.64 155.364 92.418 157.652L91.014 156.378C92.262 153.986 92.886 150.97 92.912 147.304V134.746H100.556V155.442C100.556 156.794 99.802 157.47 98.294 157.47H96.266L95.824 155.858C96.526 155.91 97.176 155.936 97.774 155.936C98.45 155.936 98.814 155.546 98.814 154.818V148.968H94.576ZM102.038 144.834H113.036V146.576C112.334 149.072 111.19 151.204 109.578 152.946C111.06 154.09 112.88 155.104 115.064 155.988L114.076 157.6C111.814 156.586 109.89 155.442 108.33 154.142C106.64 155.572 104.586 156.716 102.194 157.574L101.154 155.988C103.416 155.182 105.34 154.142 106.9 152.842C105.132 151.022 103.91 148.942 103.286 146.654H102.038V144.834ZM105.028 146.654C105.6 148.526 106.64 150.19 108.148 151.698C109.526 150.242 110.566 148.578 111.242 146.654H105.028ZM103.65 134.772H111.762V140.388C111.762 140.934 111.996 141.22 112.516 141.22H114.648V142.962H112.048C110.618 142.962 109.916 142.208 109.916 140.752V136.54H105.496V138.048C105.496 140.544 104.586 142.494 102.766 143.872L101.518 142.442C102.922 141.454 103.65 140.05 103.65 138.23V134.772ZM117.456 134.772H140.544V136.41H132.718V138.49H138.672V144.262H119.354V138.49H125.308V136.41H117.456V134.772ZM130.95 138.49V136.41H127.076V138.49H130.95ZM136.878 142.728V140.05H132.718V142.728H136.878ZM130.95 142.728V140.05H127.076V142.728H130.95ZM125.308 142.728V140.05H121.148V142.728H125.308ZM120.446 146.186H137.684V147.746H120.446V146.186ZM117.872 149.644H140.128V151.282H130.196V155.338C130.196 156.768 129.416 157.496 127.856 157.496H125.516L125.152 155.832C125.88 155.884 126.582 155.936 127.258 155.936C127.986 155.936 128.376 155.598 128.376 154.922V151.282H117.872V149.644ZM134.33 152.166C136.722 153.44 138.724 154.714 140.336 155.988L139.036 157.288C137.606 156.04 135.63 154.74 133.082 153.336L134.33 152.166ZM124.19 152.218L125.412 153.336C123.67 154.844 121.538 156.144 118.99 157.262L117.872 155.806C120.368 154.766 122.474 153.57 124.19 152.218ZM152.842 134.798V151.126H151.178V136.54H145.796V151.126H144.106V134.798H152.842ZM156.534 133.68L158.354 133.914C158.094 135.162 157.782 136.358 157.418 137.476H166.024C166.024 146.524 165.868 152.062 165.608 154.142C165.348 156.274 164.152 157.34 162.072 157.34C161.37 157.34 160.148 157.314 158.432 157.262L157.99 155.572C159.446 155.624 160.694 155.676 161.786 155.676C162.93 155.676 163.606 155 163.814 153.648C164.022 152.114 164.152 147.33 164.204 139.296H156.69C155.988 140.856 155.13 142.286 154.09 143.56L152.946 142.078C154.714 139.79 155.91 137.008 156.534 133.68ZM160.538 145.198C161.422 147.278 162.228 149.54 163.008 151.984L161.474 152.764C161.266 152.088 161.084 151.464 160.902 150.892C158.874 151.36 156.664 151.698 154.246 151.958L153.934 150.346C154.922 149.566 156.17 146.654 157.652 141.61L159.342 142.156C158.224 145.536 157.132 148.214 156.066 150.19C157.6 149.982 159.056 149.722 160.408 149.384C159.992 148.136 159.55 146.966 159.108 145.9L160.538 145.198ZM147.694 138.438H149.254V146.966C149.202 149.852 148.786 152.14 147.98 153.856C147.2 155.468 145.926 156.716 144.158 157.626L143.17 156.066C144.834 155.208 146.004 154.09 146.68 152.686C147.304 151.23 147.642 149.306 147.694 146.966V138.438ZM150.32 151.906C151.776 153.31 152.998 154.714 153.986 156.118L152.634 157.444C151.802 156.092 150.632 154.636 149.124 153.076L150.32 151.906ZM172.004 142.026C173.98 142.832 175.8 143.794 177.438 144.912L176.476 146.42C174.734 145.12 172.94 144.08 171.094 143.352L172.004 142.026ZM174.396 138.386C176.372 139.192 178.14 140.154 179.752 141.298L178.79 142.78C177.074 141.48 175.332 140.44 173.512 139.712L174.396 138.386ZM181.572 138.386H183.418V143.846C183.366 145.276 183.184 146.576 182.898 147.772H192.57V149.592H182.274C182.092 150.008 181.884 150.424 181.676 150.814C185.472 152.478 188.904 154.272 191.998 156.248L190.724 157.652C187.5 155.598 184.172 153.778 180.74 152.218C180.61 152.374 180.48 152.556 180.35 152.712C178.452 154.766 175.358 156.378 171.068 157.522L170.002 155.858C174.318 154.74 177.308 153.258 179.024 151.412C179.492 150.84 179.882 150.242 180.194 149.592H169.872V147.772H180.948C181.312 146.576 181.52 145.25 181.572 143.846V138.386ZM170.86 135.292H190.672V136.462C190.282 138.022 189.762 139.556 189.138 141.09L187.37 140.596C187.916 139.53 188.358 138.334 188.722 137.034H170.86V135.292Z" fill="white"/>
<path d="M29.18 237.98H33.76V234.26H35.22V237.98H40V239.38H35.22V244.9H40.9V246.32H28.36V244.9H33.76V239.38H29.18V237.98ZM25.96 238.86C25.22 239.62 24.44 240.36 23.6 241.06L22.7 239.88C25.2 237.82 27.14 235.46 28.54 232.8H23.4V231.38H29.22C29.62 230.46 29.98 229.5 30.26 228.52L31.76 228.7C31.48 229.62 31.18 230.52 30.82 231.38H40.88V232.8H30.18C29.4 234.38 28.46 235.86 27.38 237.22V247.06H25.96V238.86ZM43.9 230.12H51.52L51.7 228.6L53.16 228.8C53.12 229.24 53.06 229.68 53 230.12H60.1V231.38H52.78C52.7 231.82 52.6 232.26 52.5 232.7H58.2V242.12H60.84V243.42H54.88C56.96 244.12 58.86 244.96 60.56 245.94L59.82 247.08C57.98 245.92 56.1 245.02 54.16 244.38L54.8 243.42H49.08L49.92 244.38C48.4 245.46 46.52 246.36 44.24 247.06L43.64 245.84C45.84 245.22 47.64 244.42 49.04 243.42H43.16V242.12H46.12V232.7H51.04C51.14 232.26 51.24 231.82 51.32 231.38H43.9V230.12ZM47.5 242.12H56.82V240.84H47.5V242.12ZM47.5 239.74H56.82V238.52H47.5V239.74ZM47.5 237.44H56.82V236.22H47.5V237.44ZM47.5 235.12H56.82V233.86H47.5V235.12ZM72.1 243C70.48 244.72 67.84 246.06 64.18 247.02L63.38 245.8C67.1 244.84 69.7 243.54 71.18 241.94C71.42 241.66 71.62 241.36 71.82 241.04H63.56V239.68H72.52C73.04 238.44 73.32 237.02 73.38 235.44V233.08H74.78V235.44C74.72 237.02 74.48 238.44 74.04 239.68H80.46V241.04H73.44C73.26 241.36 73.08 241.66 72.9 241.94C75.74 243.06 78.36 244.36 80.72 245.88L79.94 247.12C77.38 245.4 74.78 244.04 72.1 243ZM66.22 235.82C67.68 236.44 69.02 237.18 70.22 238.02L69.48 239.16C68.2 238.2 66.86 237.44 65.5 236.9L66.22 235.82ZM68.02 232.96C69.52 233.58 70.9 234.34 72.14 235.24L71.4 236.38C70.06 235.38 68.68 234.6 67.28 234.04L68.02 232.96ZM80.12 230.62V234.46H78.72V231.96H65.24V234.46H63.84V230.62H71.44C71.2 229.94 70.92 229.34 70.62 228.78L72.1 228.54C72.36 229.14 72.62 229.84 72.88 230.62H80.12ZM83.14 230.96H91.22C90.9 230.12 90.54 229.38 90.18 228.7L91.72 228.46C92.04 229.2 92.36 230.04 92.68 230.96H100.86V232.34H92.74V234.96H99.24V242.22C99.24 243.42 98.62 244.04 97.42 244.04H95.42L95.06 242.66L96.96 242.74C97.52 242.74 97.8 242.46 97.8 241.9V236.34H92.74V246.96H91.26V236.34H86.44V244.18H85.02V234.96H91.26V232.34H83.14V230.96ZM113.28 236.94H110.34V235.6C112.76 234.2 114.98 232.7 117.02 231.12H110.58V229.8H119.12V231.06C117.2 232.7 115.08 234.22 112.8 235.66H120.48C120.36 240.32 120.14 243.32 119.82 244.66C119.48 246.02 118.58 246.7 117.1 246.74C116.44 246.74 115.8 246.72 115.18 246.7L114.78 245.3C115.5 245.34 116.2 245.38 116.88 245.38C117.66 245.36 118.2 245 118.48 244.28C118.74 243.64 118.92 241.18 119.04 236.94H117.6C117.12 239.36 116.4 241.26 115.48 242.66C114.44 244.16 112.88 245.5 110.8 246.7L109.92 245.58C111.82 244.52 113.26 243.34 114.24 242.06C115.14 240.78 115.8 239.06 116.22 236.94H114.64C113.9 239.46 112.62 241.42 110.82 242.82L109.92 241.72C111.52 240.48 112.64 238.9 113.28 236.94ZM103.02 234.2H105.42V229.1H106.9V234.2H109.4V235.58H106.9V242.56C107.78 242.3 108.62 242.02 109.44 241.7V243.2C107.5 243.94 105.4 244.56 103.16 245.06L102.78 243.54C103.68 243.38 104.56 243.18 105.42 242.98V235.58H103.02V234.2ZM131.26 228.58H132.74V232.18H139.92V241.58H138.48V240.32H132.74V247.14H131.26V240.32H125.54V241.58H124.1V232.18H131.26V228.58ZM125.54 238.92H131.26V233.58H125.54V238.92ZM132.74 238.92H138.48V233.58H132.74V238.92ZM159.32 246.88C158.44 246.86 157.78 246.3 157.36 245.22C156.92 244.12 156.72 241.88 156.72 238.5V233.46H153.9V235.66C153.88 236.78 153.8 237.82 153.66 238.8C154.6 239.48 155.5 240.2 156.34 240.98L155.52 242.22C154.8 241.52 154.08 240.9 153.38 240.36C152.7 243.2 151.44 245.4 149.56 247L148.48 246.06C150.34 244.5 151.54 242.28 152.1 239.4C151.26 238.8 150.42 238.3 149.58 237.86L150.36 236.7C151.04 237.06 151.68 237.46 152.32 237.86C152.38 237.14 152.42 236.42 152.44 235.66V233.46H149.88V232.06H152.44V228.7H153.9V232.06H158.14V238.5C158.14 241.36 158.22 243.18 158.42 243.96C158.58 244.76 158.82 245.16 159.18 245.16C159.38 245.16 159.58 244.78 159.74 244.04C159.86 243.4 159.98 242.6 160.1 241.66L161.32 242.24C161.04 244.08 160.74 245.34 160.4 245.98C160.08 246.58 159.72 246.88 159.32 246.88ZM145.26 246.82H143.34L143.04 245.42C143.64 245.46 144.2 245.5 144.76 245.5C145.32 245.5 145.62 245.22 145.62 244.68V239.78C144.78 240.08 143.94 240.36 143.06 240.62L142.7 239.26C143.7 239.02 144.68 238.74 145.62 238.4V233.88H143.08V232.5H145.62V228.72H147.08V232.5H148.96V233.88H147.08V237.84C147.76 237.56 148.42 237.24 149.08 236.9V238.34C148.42 238.66 147.76 238.94 147.08 239.22V245.04C147.08 246.22 146.46 246.82 145.26 246.82ZM170.5 229.94H180.08V231.36H170.5V229.94ZM169.96 235.02H180.96V236.44H177.72V245.18C177.72 246.34 177.06 246.92 175.78 246.92H172.84L172.54 245.5C173.5 245.56 174.4 245.6 175.28 245.6C175.92 245.6 176.26 245.34 176.26 244.82V236.44H169.96V235.02ZM167.34 228.84L168.64 229.44C167.52 231.66 165.72 233.62 163.24 235.32L162.82 233.88C164.9 232.4 166.4 230.72 167.34 228.84ZM168.28 233.4L169.58 234C169 235.12 168.28 236.2 167.4 237.2V247H165.98V238.66C165.18 239.38 164.32 240.08 163.36 240.74L162.94 239.3C165.38 237.58 167.16 235.62 168.28 233.4ZM185.56 235.62V239H188.78V235.62H185.56ZM188.78 234.28V230.7H185.56V234.28H188.78ZM185.52 240.36C185.36 243.06 184.8 245.28 183.86 247.04L182.78 246.06C183.74 244.22 184.22 241.9 184.24 239.08V229.42H190.12V245.34C190.12 246.38 189.54 246.9 188.38 246.9H186.82L186.48 245.66C187.02 245.7 187.52 245.72 187.98 245.72C188.5 245.72 188.78 245.42 188.78 244.86V240.36H185.52ZM191.26 237.18H199.72V238.52C199.18 240.44 198.3 242.08 197.06 243.42C198.2 244.3 199.6 245.08 201.28 245.76L200.52 247C198.78 246.22 197.3 245.34 196.1 244.34C194.8 245.44 193.22 246.32 191.38 246.98L190.58 245.76C192.32 245.14 193.8 244.34 195 243.34C193.64 241.94 192.7 240.34 192.22 238.58H191.26V237.18ZM193.56 238.58C194 240.02 194.8 241.3 195.96 242.46C197.02 241.34 197.82 240.06 198.34 238.58H193.56ZM192.5 229.44H198.74V233.76C198.74 234.18 198.92 234.4 199.32 234.4H200.96V235.74H198.96C197.86 235.74 197.32 235.16 197.32 234.04V230.8H193.92V231.96C193.92 233.88 193.22 235.38 191.82 236.44L190.86 235.34C191.94 234.58 192.5 233.5 192.5 232.1V229.44ZM203.12 229.44H220.88V230.7H214.86V232.3H219.44V236.74H204.58V232.3H209.16V230.7H203.12V229.44ZM213.5 232.3V230.7H210.52V232.3H213.5ZM218.06 235.56V233.5H214.86V235.56H218.06ZM213.5 235.56V233.5H210.52V235.56H213.5ZM209.16 235.56V233.5H205.96V235.56H209.16ZM205.42 238.22H218.68V239.42H205.42V238.22ZM203.44 240.88H220.56V242.14H212.92V245.26C212.92 246.36 212.32 246.92 211.12 246.92H209.32L209.04 245.64C209.6 245.68 210.14 245.72 210.66 245.72C211.22 245.72 211.52 245.46 211.52 244.94V242.14H203.44V240.88ZM216.1 242.82C217.94 243.8 219.48 244.78 220.72 245.76L219.72 246.76C218.62 245.8 217.1 244.8 215.14 243.72L216.1 242.82ZM208.3 242.86L209.24 243.72C207.9 244.88 206.26 245.88 204.3 246.74L203.44 245.62C205.36 244.82 206.98 243.9 208.3 242.86ZM223.16 231.04H231.42C231.06 230.22 230.66 229.48 230.22 228.8L231.82 228.52C232.22 229.28 232.62 230.12 232.98 231.04H240.86V232.42H223.16V231.04ZM235.16 233.02C237.38 234.78 239.24 236.52 240.74 238.28L239.68 239.34C238.36 237.66 236.52 235.88 234.18 233.96L235.16 233.02ZM235.36 236.76L236.68 237.34C235.72 239.18 234.56 240.76 233.18 242.1C235.34 243.66 237.96 244.82 241.08 245.62L240.18 246.96C236.94 246.04 234.24 244.76 232.08 243.08C229.84 244.88 227.12 246.2 223.92 247.04L223.04 245.72C226.2 244.92 228.82 243.72 230.92 242.12C229.46 240.8 228.26 239.28 227.32 237.6L228.56 236.9C229.44 238.54 230.6 239.96 232.02 241.18C233.38 239.9 234.5 238.44 235.36 236.76ZM228.72 233.04L229.76 233.96C228.24 235.94 226.36 237.68 224.12 239.16L223.2 237.94C225.38 236.54 227.22 234.92 228.72 233.04ZM248.7 236.44H245.92V229.4H258.18V236.44H250.32C249.96 237 249.52 237.54 249.04 238.06H259.64C259.58 240.2 259.46 241.94 259.28 243.26C259.08 244.56 258.78 245.48 258.36 246C257.94 246.48 257.26 246.76 256.3 246.8H253.72L253.34 245.46C254.14 245.5 254.9 245.52 255.62 245.52C256.6 245.52 257.24 245.14 257.56 244.38C257.88 243.58 258.08 241.9 258.18 239.34H256.26C254.54 243.18 251.8 245.7 248.02 246.94L247.2 245.74C250.72 244.62 253.26 242.5 254.8 239.34H252.16C250.76 241.58 248.5 243.32 245.36 244.56L244.46 243.46C247.34 242.4 249.4 241.02 250.66 239.34H247.6C246.62 240.08 245.48 240.76 244.16 241.36L243.38 240.08C245.8 239.12 247.58 237.92 248.7 236.44ZM256.76 235.22V233.5H247.34V235.22H256.76ZM247.34 232.34H256.76V230.64H247.34V232.34Z" fill="#9A9A9A"/>
<defs>
<filter id="filter0_i_847_332" x="0" y="0" width="285" height="320" filterUnits="userSpaceOnUse" color-interpolation-filters="sRGB">
<feFlood flood-opacity="0" result="BackgroundImageFix"/>
<feBlend mode="normal" in="SourceGraphic" in2="BackgroundImageFix" result="shape"/>
<feColorMatrix in="SourceAlpha" type="matrix" values="0 0 0 0 0 0 0 0 0 0 0 0 0 0 0 0 0 0 127 0" result="hardAlpha"/>
<feOffset dy="8"/>
<feGaussianBlur stdDeviation="7.5"/>
<feComposite in2="hardAlpha" operator="arithmetic" k2="-1" k3="1"/>
<feColorMatrix type="matrix" values="0 0 0 0 0 0 0 0 0 1 0 0 0 0 0.916667 0 0 0 0.6 0"/>
<feBlend mode="normal" in2="shape" result="effect1_innerShadow_847_332"/>
</filter>
<linearGradient id="paint0_linear_847_332" x1="142.5" y1="0" x2="142.5" y2="312" gradientUnits="userSpaceOnUse">
<stop stop-color="#0065FE" stop-opacity="0.7"/>
<stop offset="1" stop-color="#0A223B" stop-opacity="0.5"/>
</linearGradient>
</defs>
</svg>
