<svg width="333" height="46" viewBox="0 0 333 46" fill="none" xmlns="http://www.w3.org/2000/svg">
<path d="M1.05587 9.40837H7.63187V0.576373H12.6239V9.40837H17.9999V14.2564H12.6239V16.0324C14.7359 18.0964 16.8959 20.4004 19.0559 22.8964L16.1279 27.3124C14.7839 24.9124 13.6319 22.8484 12.6239 21.1684V44.7844H7.63187V23.0404C6.14387 26.9764 4.31987 30.6244 2.15987 33.9844L-0.00013274 28.5124C3.35987 24.3844 5.80787 19.6324 7.39187 14.2564H1.05587V9.40837ZM15.0239 41.7124C16.9439 38.8324 18.3359 35.7604 19.1039 32.5924C19.7279 29.8564 20.0639 25.7764 20.0639 20.3524V2.06437H36.9599V38.4964C36.9599 38.9284 37.1039 39.1684 37.4399 39.1684H38.8799C39.2639 39.1684 39.5519 39.0724 39.7439 38.8804C39.9359 38.6884 40.0319 38.4004 40.1279 38.0644C40.3199 37.3924 40.4159 34.4644 40.4159 29.3764L45.0239 30.8164C45.0239 34.4644 44.8799 37.2484 44.6879 39.0724C44.4959 40.8964 44.0159 42.1444 43.2479 42.9124C42.4799 43.5364 41.2319 43.8724 39.5519 43.8724H37.3919C33.6959 43.8724 31.8719 42.2404 31.8719 39.0724V6.76837H25.0559V20.3524C25.0559 25.7764 24.6239 30.3844 23.7599 34.2244C22.9439 38.0644 21.4079 41.8084 19.1519 45.3604L15.0239 41.7124ZM70.8959 0.624372L75.8399 1.24837C75.5039 3.26437 75.1199 5.18437 74.6399 7.05637H91.1999C91.1999 24.1444 90.9599 34.6564 90.4799 38.6884C89.9039 42.6244 87.4559 44.6404 83.0879 44.6404C82.0319 44.6404 80.3039 44.5444 77.8079 44.4004L76.6559 39.9364C78.8159 40.0804 80.6879 40.1764 82.2719 40.1764C84.3839 40.1764 85.5839 38.9764 85.9199 36.6244C86.2079 34.2724 86.3999 25.9684 86.4959 11.7124H73.1999C71.9039 15.2644 70.3199 18.4324 68.3999 21.2644L65.1359 17.0404C67.9679 12.5764 69.8879 7.10437 70.8959 0.624372ZM67.4879 35.0884L66.5759 30.9124C67.8719 30.1924 70.1759 25.1524 73.4879 15.8404L77.9039 17.4724C75.7919 22.9444 74.0639 27.0244 72.7199 29.7124C74.8319 29.2324 76.7519 28.8004 78.5279 28.4164C77.9519 26.7364 77.3759 25.1524 76.7999 23.7124L80.9279 22.2724C82.5599 25.9204 83.9519 29.8564 85.1519 34.0804L80.7839 36.0964C80.3999 34.7044 80.0639 33.3604 79.6799 32.1124C76.1279 33.1684 72.0479 34.1284 67.4879 35.0884ZM60.3359 22.1764V44.8324H55.3919V23.3284C53.9519 27.2644 52.2239 30.9124 50.2079 34.2724L48.0479 28.7044C51.2639 24.4804 53.6159 19.6804 55.0559 14.2564H49.0079V9.40837H55.3919V0.576373H60.3359V9.40837H65.6639V14.2564H60.3359V16.4164C62.4479 18.5284 64.5599 20.7844 66.6719 23.2804L63.7919 27.5524C62.4959 25.4404 61.3439 23.6644 60.3359 22.1764ZM111.168 33.9364V38.0644C115.392 31.1524 117.552 21.3604 117.648 8.59237V6.76837H113.472V2.06437H135.408V5.18437C134.688 9.07237 133.968 12.4324 133.248 15.3124H139.104V18.0964C138.048 24.5764 135.984 30.0004 132.912 34.4164C135.312 36.7684 138 38.8804 141.072 40.7524L137.904 45.0244C134.832 42.9604 132.144 40.6564 129.84 38.1604C127.008 41.0404 123.648 43.3444 119.808 45.1204L117.024 40.5604C120.768 38.7364 123.936 36.5284 126.48 33.9364C124.32 30.8164 122.592 27.4084 121.296 23.7124C119.76 32.7364 116.784 39.7924 112.416 44.8804L108.624 41.5684C109.344 40.7044 110.016 39.7924 110.688 38.8324C106.56 40.4164 101.952 41.7124 96.8159 42.6724L96.1439 37.7764C101.856 36.8164 106.848 35.5684 111.168 33.9364ZM129.408 30.4324C131.616 27.2644 133.2 23.6644 134.112 19.6804H127.488C128.304 16.7044 129.216 12.3844 130.272 6.76837H122.544V8.59237C122.544 10.7044 122.448 12.7684 122.352 14.6884C123.6 20.6404 125.952 25.9204 129.408 30.4324ZM104.496 0.384373L109.296 2.30437C106.992 7.68037 104.64 12.1444 102.24 15.6484C103.872 15.4564 105.504 15.2644 107.184 15.0244C108.048 13.4884 109.008 11.8084 109.968 10.0324L114.336 11.7124C110.304 18.6724 106.944 23.8084 104.208 27.1204C107.088 26.5444 110.016 25.8244 112.992 24.9124V29.4244C107.712 31.0084 102.768 32.0644 98.0639 32.5924L96.7679 28.0804C97.6319 27.7444 98.3999 27.2644 99.0239 26.6404C100.464 25.2964 102.288 22.8964 104.448 19.5364C102.24 19.8244 99.8879 20.1604 97.4879 20.4484L96.2879 15.8884C97.0559 15.6004 97.7279 14.9764 98.3519 14.0644C100.704 9.93637 102.768 5.37637 104.496 0.384373ZM148.512 1.10437C151.392 2.01637 154.032 3.12037 156.432 4.46437L153.744 8.49637C151.248 6.91237 148.656 5.66437 146.016 4.80037L148.512 1.10437ZM162.816 0.336373L167.76 0.960374C167.472 1.87237 167.136 2.73637 166.752 3.55237H185.424V6.52837C184.896 8.83237 184.224 11.1844 183.36 13.4884L178.56 12.0484C179.232 10.8484 179.808 9.45637 180.288 7.92037H173.808C173.616 8.78437 173.376 9.60037 173.136 10.3684C175.68 13.6324 180.432 15.9364 187.44 17.1844L185.664 21.5524C178.944 20.1604 174.096 17.7604 171.072 14.3044C170.592 14.8804 170.16 15.4084 169.728 15.8884C167.52 18.1924 163.632 19.9684 158.112 21.2644L156.24 16.8004C160.704 15.8884 163.92 14.5924 165.888 12.9604C167.328 11.6644 168.384 9.98438 169.008 7.92037H164.208C162.96 9.55237 161.472 11.0404 159.792 12.3844L156.816 8.49637C159.792 6.28837 161.76 3.60037 162.816 0.336373ZM182.256 21.7924V36.1444H177.216V26.4484H155.568V36.7204H150.576V21.7924H182.256ZM164.256 27.5524L169.296 27.9364C168.624 34.0804 167.136 38.1604 164.928 40.0804C162.576 42.6244 156.864 44.2564 147.792 45.0244L145.776 40.4644C153.264 40.1284 158.208 39.0244 160.608 37.1524C162.72 35.2804 163.92 32.0644 164.256 27.5524ZM154.368 10.3684L157.248 13.7764C154.848 16.1764 151.872 18.3844 148.32 20.4964L145.056 16.6084C148.752 14.6884 151.872 12.5764 154.368 10.3684ZM170.112 35.7604C176.304 37.2484 181.968 39.0724 187.056 41.2324L184.368 45.4084C178.896 42.9124 173.328 40.9444 167.568 39.5524L170.112 35.7604ZM215.28 0.000371933C215.952 1.48837 216.576 3.16837 217.152 5.04037H233.712V9.79237H225.744C225.264 11.8084 224.64 13.7284 223.872 15.6484H234.72V20.4964H200.832V26.7364C200.64 34.2724 198.96 40.3204 195.696 44.8804L191.904 41.4724C194.352 37.9204 195.648 33.0244 195.744 26.7364V15.6484H205.392L203.808 9.79237H195.36V5.04037H212.016C211.392 3.50437 210.72 2.11237 210 0.864372L215.28 0.000371933ZM210.336 15.6484H219.024C219.84 13.7284 220.464 11.8084 220.944 9.79237H208.752L210.336 15.6484ZM283.248 17.9044L284.016 22.7044L270.192 24.5764V37.5844C270.192 38.6884 270.72 39.2644 271.872 39.2644H277.872C278.544 39.2644 279.072 38.8804 279.36 38.1604C279.696 37.3924 279.936 35.0884 280.08 31.2484L284.832 32.7364C284.448 38.2084 283.824 41.4724 282.912 42.5284C281.952 43.4884 280.608 44.0164 278.832 44.0164H270.336C266.88 44.0164 265.152 42.1924 265.152 38.6404V25.2484L257.904 26.2564L257.184 21.5044L265.152 20.4004V9.60037C263.136 9.88837 261.072 10.1284 259.008 10.2724L257.424 5.80837C266.64 4.94437 273.984 3.31237 279.456 0.960374L281.856 5.13637C278.112 6.67237 274.224 7.87237 270.192 8.73637V19.7284L283.248 17.9044ZM246.816 44.5444H241.824L240.72 39.6964C242.256 39.8884 243.744 39.9844 245.088 39.9844C246.192 39.9844 246.768 39.4564 246.768 38.4004V28.5124C244.944 29.0404 243.12 29.5684 241.296 30.0484L240.048 25.2484C242.304 24.8164 244.56 24.2884 246.768 23.6164V14.0644H240.624V9.21637H246.768V0.768373H251.808V9.21637H256.08V14.0644H251.808V21.8884C253.104 21.3604 254.4 20.7844 255.696 20.2084V25.2484C254.4 25.7764 253.104 26.3044 251.808 26.7844V39.6484C251.808 42.9124 250.128 44.5444 246.816 44.5444ZM324.576 19.3924V29.7124H301.44V31.9684H326.832V45.0244H321.888V43.3924H301.44V44.9764H296.4V19.3924H324.576ZM301.44 38.9764H321.888V35.9044H301.44V38.9764ZM301.44 25.7764H319.728V23.3764H301.44V25.7764ZM331.2 13.2964V22.7044H326.304V17.5204H294.624V22.7044H289.728V13.2964H308.112C307.728 12.4324 307.344 11.6644 306.96 10.9444L311.184 10.2244L310.224 9.60037C312.432 6.72037 314.016 3.64837 314.976 0.384373L319.728 1.44037C319.488 2.16037 319.248 2.88037 319.008 3.55237H332.208V7.92037H324.624C325.296 8.88037 325.872 9.84037 326.352 10.7044L321.936 12.3844C321.168 10.8484 320.304 9.36037 319.296 7.92037H317.136C316.32 9.45637 315.408 10.8964 314.448 12.2404L312.24 10.8484C312.528 11.6164 312.864 12.4324 313.152 13.2964H331.2ZM296.496 7.92037C295.488 9.64837 294.384 11.2324 293.136 12.6724L288.768 9.88837C291.552 6.91237 293.472 3.69637 294.576 0.336373L299.424 1.39237C299.136 2.11237 298.896 2.83237 298.608 3.55237H310.416V7.92037H303.6C304.368 9.02437 305.04 10.0804 305.568 11.0884L301.008 12.8644C300.24 11.1364 299.328 9.50437 298.272 7.92037H296.496Z" fill="url(#paint0_linear_847_283)"/>
<defs>
<linearGradient id="paint0_linear_847_283" x1="74.5372" y1="9.43337" x2="74.5372" y2="46.0946" gradientUnits="userSpaceOnUse">
<stop stop-color="#1BFFE4"/>
<stop offset="1" stop-color="#3183FF"/>
</linearGradient>
</defs>
</svg>
