<svg width="285" height="312" viewBox="0 0 285 312" fill="none" xmlns="http://www.w3.org/2000/svg">
<g filter="url(#filter0_i_847_342)">
<path d="M0 16C0 7.16344 7.16344 0 16 0H269C277.837 0 285 7.16344 285 16V296C285 304.837 277.837 312 269 312H16C7.16345 312 0 304.837 0 296V16Z" fill="url(#paint0_linear_847_342)"/>
</g>
<path d="M124.023 60.32C129.003 60.32 132.903 62.36 135.723 66.56C138.363 70.52 139.683 75.86 139.683 82.58C139.683 89.3 138.363 94.64 135.723 98.6C132.903 102.74 129.003 104.84 124.023 104.84C118.983 104.84 115.083 102.74 112.323 98.6C109.683 94.64 108.363 89.3 108.363 82.58C108.363 75.86 109.683 70.52 112.323 66.56C115.083 62.36 118.983 60.32 124.023 60.32ZM124.023 66.26C120.603 66.26 118.203 68.12 116.823 71.96C115.863 74.54 115.383 78.08 115.383 82.58C115.383 87.02 115.863 90.56 116.823 93.2C118.203 96.98 120.603 98.9 124.023 98.9C127.383 98.9 129.783 96.98 131.223 93.2C132.183 90.56 132.663 87.02 132.663 82.58C132.663 78.08 132.183 74.54 131.223 71.96C129.783 68.12 127.383 66.26 124.023 66.26ZM164.08 61.16H170.5V89.24H176.86V94.82H170.5V104H163.84V94.82H143.14V88.16L164.08 61.16ZM163.66 70.04L148.84 89.24H163.84V70.04H163.66Z" fill="white"/>
<path d="M114.79 136.306V141.896H112.866V138.126H95.108V141.87H93.184V136.306H103.064C102.7 135.422 102.31 134.642 101.868 133.914L103.948 133.55C104.364 134.382 104.754 135.292 105.118 136.306H114.79ZM92.56 143.534H99.84C100.62 142.104 101.374 140.7 102.076 139.296L104 139.868C103.324 141.168 102.674 142.39 102.05 143.534H115.492V145.354H110.37C109.304 148.11 108.082 150.268 106.704 151.88C109.382 153.024 112.112 154.376 114.868 155.936L113.62 157.574C110.864 155.962 108.108 154.506 105.352 153.258C102.44 155.858 98.592 157.21 93.756 157.366L92.664 155.624C97.084 155.598 100.698 154.532 103.454 152.426C101.01 151.386 98.592 150.476 96.174 149.696C97.11 148.24 97.994 146.784 98.826 145.354H92.56V143.534ZM101.036 145.354C100.256 146.706 99.528 147.902 98.852 148.942C100.828 149.514 102.83 150.242 104.884 151.1C106.288 149.566 107.432 147.642 108.316 145.354H101.036ZM129.324 133.836H130.676C133.952 137.268 137.722 139.946 141.986 141.922L141.05 143.586C136.734 141.506 133.068 138.828 130 135.526C127.166 138.672 123.448 141.402 118.846 143.716L117.936 142.078C122.512 139.868 126.308 137.112 129.324 133.836ZM122.746 142.052H137.254V143.846H130.962V148.37H138.476V150.164H130.962V154.974H140.842V156.82H119.184V154.974H129.038V150.164H121.498V148.37H129.038V143.846H122.746V142.052ZM167.284 143.43L167.57 145.25L159.536 146.342V154.22C159.536 154.922 159.9 155.286 160.654 155.286H164.424C164.944 155.286 165.334 155.078 165.568 154.688C165.828 154.22 166.01 152.816 166.114 150.476L167.882 151.048C167.726 153.908 167.388 155.65 166.868 156.274C166.4 156.794 165.698 157.08 164.762 157.08H160.082C158.47 157.08 157.664 156.248 157.664 154.61V146.602L153.478 147.174L153.192 145.38L157.664 144.756V138.1C156.442 138.282 155.22 138.412 153.998 138.516L153.426 136.852C158.184 136.436 162.162 135.526 165.386 134.148L166.27 135.708C164.138 136.592 161.902 137.294 159.536 137.762V144.496L167.284 143.43ZM147.55 157.366H144.794L144.404 155.546C145.288 155.598 146.12 155.65 146.9 155.65C147.576 155.65 147.914 155.338 147.914 154.74V148.214C146.796 148.578 145.652 148.89 144.508 149.202L144.04 147.434C145.34 147.148 146.64 146.81 147.914 146.394V140.544H144.3V138.75H147.914V133.862H149.812V138.75H152.412V140.544H149.812V145.744C150.644 145.406 151.476 145.042 152.282 144.678V146.55C151.476 146.914 150.644 147.252 149.812 147.564V155.208C149.812 156.638 149.058 157.366 147.55 157.366ZM189.436 144.028V149.124H176.462V150.918H190.632V157.6H188.786V156.508H176.462V157.574H174.59V144.028H189.436ZM176.462 154.844H188.786V152.426H176.462V154.844ZM176.462 147.616H187.616V145.536H176.462V147.616ZM193.024 140.882V145.588H191.204V142.494H172.796V145.588H170.976V140.882H181.272C181.012 140.258 180.752 139.712 180.466 139.192L182.286 138.88L182.13 138.776C183.378 137.216 184.262 135.526 184.834 133.654L186.628 134.044C186.446 134.59 186.264 135.11 186.056 135.63H193.57V137.268H188.942C189.488 137.996 189.93 138.672 190.242 139.296L188.578 139.92C188.11 138.984 187.564 138.1 186.94 137.268H185.302C184.834 138.152 184.288 138.984 183.716 139.764L182.312 138.906C182.598 139.504 182.884 140.154 183.144 140.882H193.024ZM174.096 137.268C173.472 138.282 172.796 139.218 172.016 140.076L170.378 139.036C171.938 137.424 173.082 135.604 173.81 133.628L175.604 134.018C175.396 134.59 175.162 135.11 174.954 135.63H181.922V137.268H177.554C178.126 138.048 178.62 138.802 178.984 139.504L177.268 140.154C176.8 139.166 176.228 138.204 175.578 137.268H174.096Z" fill="white"/>
<path d="M44.36 229.08C45.56 229.46 46.68 229.92 47.68 230.48L46.92 231.64C45.84 231 44.76 230.52 43.66 230.16L44.36 229.08ZM50.8 228.6L52.22 228.78C52.06 229.22 51.9 229.66 51.7 230.06H59.76V230.92C59.52 231.9 59.2 232.88 58.8 233.84L57.42 233.42C57.76 232.8 58.04 232.1 58.28 231.32H54.88C54.8 231.8 54.68 232.24 54.52 232.64C55.56 234.18 57.62 235.24 60.7 235.82L60.18 237.1C57.26 236.5 55.18 235.42 53.94 233.82C53.7 234.18 53.44 234.52 53.14 234.84C52.16 235.76 50.56 236.5 48.32 237.02L47.78 235.74C49.74 235.32 51.16 234.74 52.04 233.98C52.76 233.32 53.26 232.44 53.5 231.32H50.94C50.38 232.04 49.72 232.7 48.96 233.3L48.12 232.18C49.44 231.22 50.32 230.02 50.8 228.6ZM58.4 237.56V243.5H56.96V238.9H46.98V243.66H45.54V237.56H58.4ZM51.4 239.66L52.84 239.78C52.56 242.32 51.96 244.02 51.02 244.9C49.98 245.98 47.66 246.68 44.06 246.96L43.5 245.68C46.68 245.5 48.78 244.96 49.8 244.04C50.7 243.18 51.24 241.72 51.4 239.66ZM47.14 232.84L47.98 233.82C46.98 234.86 45.74 235.84 44.26 236.76L43.3 235.64C44.82 234.78 46.1 233.84 47.14 232.84ZM53.3 243.44C55.9 244.12 58.26 244.94 60.4 245.9L59.62 247.1C57.34 246.02 54.98 245.16 52.56 244.54L53.3 243.44ZM72.04 228.4C72.36 229.08 72.68 229.86 72.98 230.72H80V232.1H76.52C76.28 233.16 75.96 234.18 75.54 235.14H80.42V236.52H66.06V239.48C65.98 242.6 65.26 245.1 63.88 246.98L62.78 246C63.94 244.44 64.56 242.26 64.6 239.48V235.14H68.7L67.86 232.1H64.2V230.72H71.52C71.24 229.96 70.9 229.28 70.54 228.66L72.04 228.4ZM70.12 235.14H74.16C74.6 234.18 74.94 233.16 75.14 232.1H69.28L70.12 235.14ZM83.54 230.7H88.98C89.24 230 89.48 229.3 89.68 228.58L91.14 228.76C90.94 229.42 90.74 230.06 90.52 230.7H100.76V232.1H89.98C89.24 233.82 88.32 235.4 87.24 236.84V247.02H85.84V238.56C85.16 239.3 84.46 240 83.7 240.68L82.8 239.54C85.24 237.4 87.1 234.92 88.4 232.1H83.54V230.7ZM88.8 240H94.6V238.14C95.74 237.5 96.82 236.76 97.86 235.88H90.34V234.54H99.7V235.88C98.62 236.88 97.4 237.84 96.04 238.74V240H101.04V241.38H96.04V245.16C96.04 246.34 95.44 246.94 94.26 246.94H91.76L91.38 245.58C92.1 245.6 92.86 245.62 93.68 245.62C94.28 245.62 94.6 245.3 94.6 244.7V241.38H88.8V240ZM111.12 233.3C110.2 231.62 109.1 230.34 107.82 229.42L109.02 228.66C110.8 229.9 112.3 232.16 113.54 235.4C115.42 240.18 117.92 243.56 121.08 245.54L120.18 246.7C116.94 244.74 114.3 241.1 112.24 235.82C112.12 235.5 112.02 235.22 111.92 234.98C110.6 240.08 107.84 244 103.64 246.72L102.78 245.5C107.06 242.7 109.84 238.62 111.12 233.3ZM129.84 229.48H140.86V230.8H129.84V229.48ZM130.86 232.06H139.68V236.26H130.86V232.06ZM138.32 235.16V233.22H132.22V235.16H138.32ZM131.98 242.08H135.48C135.88 241.14 136.22 240.16 136.52 239.14L137.74 239.58C137.44 240.5 137.1 241.34 136.74 242.08H138.32V243.24H135.82V246.84H134.5V243.24H131.98V242.08ZM133.54 239.3C133.9 239.94 134.24 240.7 134.52 241.54L133.44 241.8C133.16 241.06 132.84 240.34 132.44 239.66L133.54 239.3ZM138.96 246.88H137.34L136.98 245.58L138.54 245.64C138.96 245.64 139.18 245.42 139.18 245V238.76H131.16V246.98H129.84V237.52H140.48V245.28C140.48 246.34 139.96 246.88 138.96 246.88ZM123.68 229.48H129.14V230.58C128.7 232.4 128.16 234.3 127.56 236.28C128.44 238.06 128.9 239.68 128.98 241.12C128.98 241.96 128.8 242.56 128.46 242.92C127.98 243.38 127.16 243.62 125.98 243.64L125.54 242.2C125.82 242.24 126.08 242.28 126.3 242.28C126.82 242.24 127.16 242.14 127.34 241.98C127.5 241.82 127.6 241.52 127.6 241.12C127.6 239.74 127.1 238.2 126.14 236.5C126.82 234.4 127.34 232.5 127.72 230.8H125.04V247H123.68V229.48ZM157 236.78V232.44H158.38V237.98H151.96C151.8 238.48 151.64 238.94 151.48 239.38H159.62V245.34C159.62 246.42 159.06 246.98 157.94 246.98H156.26L155.9 245.62L157.48 245.68C157.98 245.68 158.24 245.46 158.24 245.04V240.68H154.58C155.38 241.9 156.14 243.22 156.84 244.62L155.68 245.2C155.5 244.8 155.32 244.44 155.16 244.1C153.62 244.38 151.18 244.72 147.84 245.1L147.5 243.8C147.82 243.76 148.02 243.68 148.12 243.56C148.64 242.76 149.12 241.8 149.6 240.68H145.8V246.98H144.42V239.38H150.1C150.26 238.94 150.4 238.46 150.56 237.98H145.64V232.44H147.02V236.78H157ZM154.14 240.68H150.98C150.5 241.84 150 242.82 149.52 243.66C151.28 243.48 152.96 243.26 154.56 242.98C154.16 242.28 153.78 241.64 153.4 241.04L154.14 240.68ZM148.78 232.04C150.04 232.5 151.24 233.02 152.4 233.58C153.22 233.06 153.96 232.5 154.64 231.86L155.66 232.48C154.96 233.12 154.26 233.68 153.58 234.16C154.44 234.6 155.26 235.08 156.06 235.58L155.4 236.58C154.42 235.94 153.44 235.36 152.46 234.86C151.42 235.44 150.12 236.02 148.52 236.58L147.88 235.54C149.12 235.18 150.22 234.76 151.22 234.24C150.2 233.76 149.18 233.32 148.16 232.96L148.78 232.04ZM152.28 228.52C152.52 229 152.74 229.56 152.94 230.18H160.58V231.52H143.42V230.18H151.5C151.28 229.66 151.04 229.2 150.8 228.76L152.28 228.52ZM180.68 236.1L180.9 237.5L174.72 238.34V244.4C174.72 244.94 175 245.22 175.58 245.22H178.48C178.88 245.22 179.18 245.06 179.36 244.76C179.56 244.4 179.7 243.32 179.78 241.52L181.14 241.96C181.02 244.16 180.76 245.5 180.36 245.98C180 246.38 179.46 246.6 178.74 246.6H175.14C173.9 246.6 173.28 245.96 173.28 244.7V238.54L170.06 238.98L169.84 237.6L173.28 237.12V232C172.34 232.14 171.4 232.24 170.46 232.32L170.02 231.04C173.68 230.72 176.74 230.02 179.22 228.96L179.9 230.16C178.26 230.84 176.54 231.38 174.72 231.74V236.92L180.68 236.1ZM165.5 246.82H163.38L163.08 245.42C163.76 245.46 164.4 245.5 165 245.5C165.52 245.5 165.78 245.26 165.78 244.8V239.78C164.92 240.06 164.04 240.3 163.16 240.54L162.8 239.18C163.8 238.96 164.8 238.7 165.78 238.38V233.88H163V232.5H165.78V228.74H167.24V232.5H169.24V233.88H167.24V237.88C167.88 237.62 168.52 237.34 169.14 237.06V238.5C168.52 238.78 167.88 239.04 167.24 239.28V245.16C167.24 246.26 166.66 246.82 165.5 246.82ZM197.72 236.56V240.48H187.74V241.86H198.64V247H197.22V246.16H187.74V246.98H186.3V236.56H197.72ZM187.74 244.88H197.22V243.02H187.74V244.88ZM187.74 239.32H196.32V237.72H187.74V239.32ZM200.48 234.14V237.76H199.08V235.38H184.92V237.76H183.52V234.14H191.44C191.24 233.66 191.04 233.24 190.82 232.84L192.22 232.6L192.1 232.52C193.06 231.32 193.74 230.02 194.18 228.58L195.56 228.88C195.42 229.3 195.28 229.7 195.12 230.1H200.9V231.36H197.34C197.76 231.92 198.1 232.44 198.34 232.92L197.06 233.4C196.7 232.68 196.28 232 195.8 231.36H194.54C194.18 232.04 193.76 232.68 193.32 233.28L192.24 232.62C192.46 233.08 192.68 233.58 192.88 234.14H200.48ZM185.92 231.36C185.44 232.14 184.92 232.86 184.32 233.52L183.06 232.72C184.26 231.48 185.14 230.08 185.7 228.56L187.08 228.86C186.92 229.3 186.74 229.7 186.58 230.1H191.94V231.36H188.58C189.02 231.96 189.4 232.54 189.68 233.08L188.36 233.58C188 232.82 187.56 232.08 187.06 231.36H185.92ZM210.54 229.46V242.02H209.26V230.8H204.94V242.02H203.62V229.46H210.54ZM206.44 232.26H207.68V238.76C207.64 241 207.32 242.8 206.68 244.14C206.06 245.38 205.06 246.36 203.66 247.06L202.88 245.86C204.2 245.2 205.14 244.32 205.66 243.22C206.14 242.06 206.4 240.58 206.44 238.76V232.26ZM208.36 242.58C209.48 243.7 210.4 244.8 211.14 245.88L210.12 246.9C209.48 245.82 208.58 244.68 207.44 243.48L208.36 242.58ZM215.98 238.34H214.22V245.14C215.1 244.8 216.02 244.34 216.94 243.76L217.2 245.04C215.96 245.82 214.56 246.46 212.96 246.96L212.36 245.68C212.66 245.54 212.82 245.34 212.82 245.06V238.34H211.38V236.94H212.82V228.68H214.22V236.94H220.86V238.34H217.24C218.16 241.54 219.5 243.98 221.24 245.7L220.26 246.82C218.38 244.9 216.94 242.06 215.98 238.34ZM219.46 229.58L220.56 230.48C219.16 232.72 217.5 234.4 215.62 235.48L214.84 234.36C216.64 233.32 218.18 231.72 219.46 229.58ZM237.98 232.54H226.56V236.44H237.98V232.54ZM226.56 237.84C226.46 241.42 225.52 244.5 223.72 247.08L222.66 246.12C224.28 243.88 225.1 240.96 225.14 237.38V231.12H231.66C231.3 230.28 230.92 229.5 230.5 228.78L232.04 228.54C232.4 229.3 232.76 230.16 233.12 231.12H239.44V237.84H226.56Z" fill="#9A9A9A"/>
<defs>
<filter id="filter0_i_847_342" x="0" y="0" width="285" height="320" filterUnits="userSpaceOnUse" color-interpolation-filters="sRGB">
<feFlood flood-opacity="0" result="BackgroundImageFix"/>
<feBlend mode="normal" in="SourceGraphic" in2="BackgroundImageFix" result="shape"/>
<feColorMatrix in="SourceAlpha" type="matrix" values="0 0 0 0 0 0 0 0 0 0 0 0 0 0 0 0 0 0 127 0" result="hardAlpha"/>
<feOffset dy="8"/>
<feGaussianBlur stdDeviation="7.5"/>
<feComposite in2="hardAlpha" operator="arithmetic" k2="-1" k3="1"/>
<feColorMatrix type="matrix" values="0 0 0 0 0 0 0 0 0 1 0 0 0 0 0.916667 0 0 0 0.6 0"/>
<feBlend mode="normal" in2="shape" result="effect1_innerShadow_847_342"/>
</filter>
<linearGradient id="paint0_linear_847_342" x1="142.5" y1="0" x2="142.5" y2="312" gradientUnits="userSpaceOnUse">
<stop stop-color="#0065FE" stop-opacity="0.7"/>
<stop offset="1" stop-color="#0A223B" stop-opacity="0.5"/>
</linearGradient>
</defs>
</svg>
