<svg width="381" height="46" viewBox="0 0 381 46" fill="none" xmlns="http://www.w3.org/2000/svg">
<path d="M6.52825 44.3517H2.35225L1.24825 39.5037C2.49625 39.6957 3.69625 39.7917 4.80025 39.7917C5.85625 39.7917 6.43225 39.2157 6.43225 38.1117V28.3197C4.70425 28.9917 3.02425 29.6637 1.29625 30.2877L0.000250041 25.1997C2.20825 24.6717 4.32025 23.9997 6.43225 23.1837V13.5837H1.15225V8.73569H6.43225V0.527693H11.4243V8.73569H16.3683V13.5837H11.4243V20.9757C13.0083 20.1597 14.5443 19.2957 16.0803 18.3837V23.5197C14.5443 24.3837 12.9603 25.2477 11.4243 26.0157V39.4077C11.4243 42.6717 9.79225 44.3517 6.52825 44.3517ZM17.4723 20.4477H41.1843V25.1037C39.8403 29.2797 37.6323 32.8797 34.5603 35.9037C37.5363 37.7277 41.0883 39.3117 45.3123 40.7037L42.6243 45.0237C38.0163 43.1997 34.1283 41.1837 30.9123 38.9757C27.2643 41.5677 22.8483 43.6317 17.6163 45.1677L14.8803 40.8957C19.5843 39.5517 23.5203 37.7757 26.7843 35.6637C23.4723 32.5437 21.2163 29.0877 20.0643 25.3437H17.4723V20.4477ZM24.6723 25.3437C25.7762 28.1277 27.6963 30.6717 30.3843 32.9277C32.8803 30.7197 34.8003 28.1757 36.1443 25.3437H24.6723ZM20.6403 1.96769H38.3043V11.8557C38.3043 12.8637 38.9283 13.3917 40.2723 13.3917H43.7763V18.0477H38.9283C35.1843 18.0477 33.3603 16.3677 33.3603 13.0557V6.67169H25.5843V8.63969C25.5843 13.2957 23.3282 16.9437 18.8643 19.5357L15.5043 15.6477C18.9123 14.1117 20.6403 11.9517 20.6403 9.16769V1.96769ZM52.7043 1.00769C55.5843 1.91969 58.2243 3.02369 60.6243 4.36769L57.9363 8.39969C55.4403 6.81569 52.8483 5.56769 50.2083 4.70369L52.7043 1.00769ZM67.0083 0.239694L71.9523 0.863694C71.6643 1.77569 71.3282 2.63969 70.9443 3.45569H89.6163V6.43169C89.0883 8.73569 88.4163 11.0877 87.5523 13.3917L82.7523 11.9517C83.4243 10.7517 84.0003 9.35969 84.4803 7.82369H78.0003C77.8083 8.68769 77.5683 9.50369 77.3283 10.2717C79.8723 13.5357 84.6243 15.8397 91.6323 17.0877L89.8563 21.4557C83.1363 20.0637 78.2883 17.6637 75.2643 14.2077C74.7843 14.7837 74.3523 15.3117 73.9203 15.7917C71.7123 18.0957 67.8243 19.8717 62.3043 21.1677L60.4323 16.7037C64.8963 15.7917 68.1123 14.4957 70.0803 12.8637C71.5203 11.5677 72.5763 9.8877 73.2003 7.82369H68.4003C67.1523 9.4557 65.6643 10.9437 63.9843 12.2877L61.0083 8.39969C63.9843 6.19169 65.9523 3.50369 67.0083 0.239694ZM86.4483 21.6957V36.0477H81.4083V26.3517H59.7603V36.6237H54.7683V21.6957H86.4483ZM68.4483 27.4557L73.4883 27.8397C72.8163 33.9837 71.3282 38.0637 69.1203 39.9837C66.7683 42.5277 61.0563 44.1597 51.9843 44.9277L49.9683 40.3677C57.4563 40.0317 62.4003 38.9277 64.8003 37.0557C66.9123 35.1837 68.1123 31.9677 68.4483 27.4557ZM58.5603 10.2717L61.4403 13.6797C59.0403 16.0797 56.0643 18.2877 52.5123 20.3997L49.2483 16.5117C52.9443 14.5917 56.0643 12.4797 58.5603 10.2717ZM74.3043 35.6637C80.4963 37.1517 86.1603 38.9757 91.2483 41.1357L88.5603 45.3117C83.0883 42.8157 77.5203 40.8477 71.7603 39.4557L74.3043 35.6637ZM101.04 4.94369H114.048V0.383695H119.136V4.94369H129.456V9.59969H119.136V13.8717H124.608C129.024 10.7037 132.816 7.24769 135.936 3.40769L139.728 6.19169C137.424 9.02369 134.928 11.5677 132.336 13.8717H140.352V18.5757H126.144L124.56 19.5837C122.928 20.5437 121.104 21.5037 119.088 22.5597H134.592V45.0237H129.552V43.2957H110.832V45.0237H105.744V28.3197C103.44 29.1837 101.04 30.0477 98.5443 30.9597L96.4323 26.3037C103.68 24.6237 110.544 22.0317 116.976 18.5757H97.2003V13.8717H114.048V9.59969H101.04V4.94369ZM110.832 34.9437V38.8797H129.552V34.9437H110.832ZM129.552 30.6237V26.8797H110.832V30.6237H129.552ZM152.976 0.287693L157.92 0.671694L157.344 6.43169H185.232V11.2317H156.864L156.192 17.6157H182.64C182.64 31.1517 181.68 38.9757 179.856 41.1357C178.032 43.1517 174.096 44.2077 168.096 44.2077C166.512 44.2077 164.88 44.1117 163.2 43.9677L161.808 39.4077C164.304 39.6477 166.08 39.7917 167.04 39.7917C172.032 39.7917 175.056 38.9757 176.016 37.3437C177.072 35.6157 177.6 30.5757 177.6 22.2717H150.624L152.976 0.287693ZM144.912 28.5117H171.936V33.3117H144.912V28.5117ZM212.832 0.335692H216.48C222.48 7.05569 229.392 12.3837 237.264 16.2237L234.528 21.0717C231.984 19.7277 229.584 18.2397 227.376 16.6557V19.9677H201.936V16.6077C199.632 18.1917 197.184 19.7277 194.592 21.1677L191.904 16.2717C200.304 11.9997 207.264 6.67169 212.832 0.335692ZM204 15.1197H225.264C221.328 12.0957 217.776 8.68769 214.656 4.89569C211.632 8.63969 208.08 12.0477 204 15.1197ZM230.496 24.6717V44.8317H225.648V42.3837H203.664V44.8317H198.816V24.6717H230.496ZM203.664 37.6317H225.648V29.3757H203.664V37.6317ZM262.56 11.6157C260.352 16.2237 257.904 20.1597 255.216 23.4237L251.616 19.1037C255.456 14.5917 258.816 8.25569 261.696 -0.000306129L266.784 1.15169C266.112 3.07169 265.44 4.89569 264.768 6.67169H284.112V11.6157H269.04V17.9997H282.288V22.8957H269.04V29.4717H282.288V34.3197H269.04V45.0237H263.952V11.6157H262.56ZM245.76 19.9197C244.464 21.4557 243.12 22.9437 241.68 24.3837L240 19.0077C244.848 13.6797 248.448 7.39169 250.8 0.191694L255.552 2.39969C254.352 5.99969 252.768 9.4557 250.848 12.7197V45.0237H245.76V19.9197ZM294.288 19.7277C292.992 21.3597 291.6 22.8957 290.112 24.4317L288.48 19.0557C293.232 13.7277 296.784 7.43969 299.088 0.239694L303.744 2.44769C302.544 6.09569 301.008 9.55169 299.088 12.8157V44.7837H294.288V19.7277ZM305.76 8.92769L310.32 9.50369C309.84 15.1677 308.64 20.1597 306.816 24.5277L302.352 23.0877C304.176 18.9597 305.328 14.2557 305.76 8.92769ZM319.584 0.815695C319.584 4.94369 319.488 9.02369 319.392 13.0557C319.344 14.7357 319.248 16.3677 319.056 17.9997C321.456 28.3197 326.112 36.0957 333.072 41.2797L329.664 45.0717C323.616 39.9357 319.44 33.7437 317.232 26.5437C314.832 33.7437 310.512 39.9357 304.272 45.1197L300.864 41.2797C309.936 34.2717 314.496 25.0557 314.496 13.5357C314.544 9.02369 314.592 4.7997 314.592 0.815695H319.584ZM327.024 8.06369L331.536 9.31169C330.384 14.9277 328.992 19.8717 327.264 24.0957L322.752 22.4637C324.384 18.7197 325.824 13.9197 327.024 8.06369ZM356.352 3.35969C357.744 6.09569 358.992 9.21569 360.048 12.7677L355.344 13.9677C354.336 10.8477 353.088 7.82369 351.6 4.89569L356.352 3.35969ZM373.824 2.39969L378.624 3.64769C377.568 7.6797 376.176 11.1837 374.496 14.2557L369.888 12.6237C371.424 9.93569 372.72 6.52769 373.824 2.39969ZM350.784 15.6477H362.4V0.527693H367.488V15.6477H379.488V20.3997H367.488V26.6877H380.784V31.5837H367.488V44.9277H362.4V31.5837H349.392V26.6877H362.4V20.3997H350.784V15.6477ZM346.272 0.0476933L350.976 2.30369C349.824 5.95169 348.288 9.4557 346.464 12.7197V44.9757H341.52V20.1597C340.32 21.6957 339.072 23.1837 337.728 24.6237L336.048 19.2477C340.656 13.8237 344.064 7.43969 346.272 0.0476933Z" fill="url(#paint0_linear_847_284)"/>
<defs>
<linearGradient id="paint0_linear_847_284" x1="85.5971" y1="9.33669" x2="85.5971" y2="45.9979" gradientUnits="userSpaceOnUse">
<stop stop-color="#1BFFE4"/>
<stop offset="1" stop-color="#3183FF"/>
</linearGradient>
</defs>
</svg>
