<svg width="1058" height="97" viewBox="0 0 1058 97" fill="none" xmlns="http://www.w3.org/2000/svg">
<path d="M47.549 53.128C54.587 62.098 59.969 69.826 63.695 76.45L57.554 80.728C56.519 78.865 55.415 77.002 54.311 75.139C38.441 76.519 23.399 77.623 9.185 78.382L8.012 72.517C13.601 69.55 19.259 62.512 25.055 51.403H3.665V44.365H30.989V33.67H7.943V26.701H30.989V16.489H38.303V26.701H61.211V33.67H38.303V44.365H65.558V51.403H33.128C28.85 60.235 24.503 66.928 20.225 71.62C34.232 70.654 44.306 69.826 50.516 69.136C47.894 65.203 44.996 61.132 41.753 56.854L47.549 53.128ZM99.92 16.006H107.372V27.805H131.867V61.477H124.622V57.682H107.372V80.728H99.92V57.682H82.739V61.477H75.494V27.805H99.92V16.006ZM82.739 50.644H99.92V34.843H82.739V50.644ZM107.372 50.644H124.622V34.843H107.372V50.644ZM181.892 77.968H166.574C160.916 77.968 158.156 75.139 158.156 69.619V30.772H165.401V68.032C165.401 69.964 166.505 70.93 168.782 70.93H180.512C181.754 70.93 182.651 70.24 183.203 68.86C183.893 67.411 184.307 62.926 184.583 55.405L191.414 57.682C190.862 67.549 189.827 73.414 188.309 75.277C186.929 77.071 184.79 77.968 181.892 77.968ZM147.599 37.396L154.568 38.845C152.705 51.334 150.083 62.098 146.702 71.137L140.423 67.204C143.804 57.82 146.219 47.884 147.599 37.396ZM194.726 35.671C198.659 44.986 202.109 54.922 205.076 65.479L198.452 68.515C195.278 56.923 191.69 46.78 187.826 37.948L194.726 35.671ZM170.369 16.006C176.372 23.044 180.995 29.254 184.169 34.567L178.166 38.707C174.716 32.98 170.162 26.632 164.435 19.732L170.369 16.006ZM229.847 15.661L236.609 18.835C234.332 24.424 231.296 29.737 227.57 34.774V80.314H220.394V43.192C217.703 45.883 214.805 48.505 211.769 51.058L209.423 43.537C218.6 35.671 225.431 26.356 229.847 15.661ZM263.036 79.072H250.202C244.406 79.072 241.508 76.174 241.508 70.447V51.748C239.162 52.99 236.747 54.163 234.332 55.336L231.089 48.505C234.746 46.849 238.196 45.124 241.508 43.33V16.834H248.684V38.914C255.239 34.498 261.035 29.53 266.072 24.01L271.109 29.737C264.485 36.499 257.033 42.433 248.684 47.608V69.412C248.684 71.275 249.719 72.241 251.858 72.241H261.794C263.312 72.241 264.416 71.689 265.106 70.723C265.796 69.688 266.21 66.1 266.348 59.959L272.972 62.236C272.489 70.171 271.592 75.001 270.281 76.657C268.97 78.244 266.555 79.072 263.036 79.072ZM637.782 31.807L638.955 38.638L616.944 41.674C617.289 45.124 617.703 48.16 618.255 50.782C619.773 57.958 621.843 63.478 624.465 67.204C626.88 70.792 629.157 72.655 631.296 72.793C632.814 72.655 633.987 68.584 634.746 60.511L641.025 64.168C640.059 69.826 638.817 73.966 637.23 76.726C635.85 78.934 633.987 80.038 631.71 80.107C628.26 80.107 624.672 77.83 620.946 73.414C616.875 68.584 613.839 62.236 611.838 54.37C611.01 51.196 610.389 47.263 609.906 42.64L595.692 44.641L594.588 37.81L609.285 35.74C608.871 30.013 608.595 23.458 608.457 16.144H615.771C615.771 23.182 615.978 29.392 616.392 34.774L637.782 31.807ZM585.342 44.296C583.41 46.573 581.409 48.85 579.27 51.058L576.924 43.537C583.893 35.74 589.068 26.563 592.38 15.937L599.142 19.111C597.486 24.217 595.278 29.047 592.656 33.601V80.314H585.342V44.296ZM623.016 16.42C627.087 19.801 630.537 23.182 633.435 26.563L628.536 31.393C626.19 28.15 622.878 24.631 618.462 20.836L623.016 16.42ZM697.881 71.896H691.326L689.463 64.651L695.466 64.996C696.777 64.996 697.467 64.237 697.467 62.857V43.192H682.149V80.314H674.835V43.192H659.448V72.034H652.272V36.292H674.835V27.598C667.245 28.081 659.103 28.357 650.271 28.357L647.994 21.595C670.005 21.595 688.635 19.87 703.953 16.558L707.61 22.837C700.296 24.631 691.809 26.011 682.149 26.977V36.292H704.643V64.444C704.643 69.412 702.366 71.896 697.881 71.896ZM735.555 15.661L742.317 18.835C740.04 24.424 737.004 29.737 733.278 34.774V80.314H726.102V43.192C723.411 45.883 720.513 48.505 717.477 51.058L715.131 43.537C724.308 35.671 731.139 26.356 735.555 15.661ZM768.744 79.072H755.91C750.114 79.072 747.216 76.174 747.216 70.447V51.748C744.87 52.99 742.455 54.163 740.04 55.336L736.797 48.505C740.454 46.849 743.904 45.124 747.216 43.33V16.834H754.392V38.914C760.947 34.498 766.743 29.53 771.78 24.01L776.817 29.737C770.193 36.499 762.741 42.433 754.392 47.608V69.412C754.392 71.275 755.427 72.241 757.566 72.241H767.502C769.02 72.241 770.124 71.689 770.814 70.723C771.504 69.688 771.918 66.1 772.056 59.959L778.68 62.236C778.197 70.171 777.3 75.001 775.989 76.657C774.678 78.244 772.263 79.072 768.744 79.072ZM785.58 23.803H812.559C811.455 21.457 810.213 19.249 808.833 17.179L816.906 15.799C818.148 18.214 819.39 20.905 820.563 23.803H847.197V30.634H785.58V23.803ZM827.946 31.048C835.536 36.913 842.022 42.778 847.266 48.643L841.953 54.025C837.537 48.367 831.189 42.295 823.047 35.74L827.946 31.048ZM826.911 44.089L833.535 47.056C830.43 52.99 826.635 58.165 822.219 62.581C829.257 67.342 837.951 70.999 848.163 73.552L843.678 80.314C833.052 77.347 824.013 73.069 816.63 67.549C809.04 73.483 800.001 77.761 789.375 80.521L784.89 73.897C795.102 71.413 803.727 67.618 810.765 62.65C806.211 58.372 802.347 53.473 799.311 48.022L805.521 44.503C808.281 49.609 811.869 54.094 816.354 58.027C820.632 53.956 824.151 49.333 826.911 44.089ZM804.279 31.117L809.523 35.671C804.279 42.571 797.724 48.505 789.996 53.611L785.373 47.539C792.825 42.847 799.173 37.396 804.279 31.117ZM871.83 44.434H863.688V18.421H907.365V44.434H880.248C879.282 45.814 878.247 47.194 877.143 48.436H912.609C912.402 56.026 911.988 62.167 911.367 66.859C910.677 71.482 909.573 74.725 908.124 76.588C906.675 78.382 904.329 79.348 901.017 79.486H891.15L889.356 72.724C892.185 72.931 894.945 73.069 897.567 73.069C900.534 73.069 902.466 71.896 903.432 69.688C904.398 67.342 905.019 62.374 905.295 54.784H900.396C894.462 67.48 885.078 75.967 872.382 80.107L868.311 74.035C879.489 70.585 887.7 64.168 892.944 54.784H886.251C881.421 62.098 873.762 67.894 863.274 72.103L858.72 66.514C867.552 63.409 874.107 59.476 878.385 54.784H870.105C866.793 57.13 863.136 59.269 859.065 61.201L855.132 54.853C862.515 52.093 868.104 48.574 871.83 44.434ZM900.258 38.362V34.222H870.795V38.362H900.258ZM870.795 28.564H900.258V24.493H870.795V28.564ZM981.609 42.778C983.541 47.746 985.335 53.059 986.853 58.717L981.471 61.201C980.16 56.233 978.78 51.817 977.4 47.815C977.262 59.752 976.917 67.549 976.503 71.275C975.813 76.795 972.363 79.624 966.222 79.624C965.118 79.624 963.324 79.486 960.771 79.21L958.977 72.655C961.254 72.862 963.255 73 964.911 73C967.602 73 969.189 71.275 969.672 67.894C970.017 64.789 970.224 53.818 970.362 34.981H963.738V35.05C963.462 55.75 958.011 70.861 947.316 80.383L941.865 75.553C951.594 67.135 956.562 53.68 956.7 35.05V34.981H945.798V27.943H956.7V16.903H963.738V27.943H977.538C977.538 33.946 977.469 39.328 977.469 44.158L981.609 42.778ZM946.35 42.571L952.008 44.02C950.076 52.3 947.316 58.579 943.728 62.995L938.829 58.441C942.417 53.956 944.901 48.643 946.35 42.571ZM922.407 31.876H929.652V16.765H936.483V31.876H943.452V38.569H936.483V80.176H929.652V38.569H922.407V31.876ZM1029.43 15.868C1033.57 21.457 1036.81 26.356 1039.02 30.565L1033.36 34.498C1031.01 30.082 1027.84 25.183 1023.98 19.801L1029.43 15.868ZM1045.16 19.732L1051.99 21.181C1049.78 37.189 1045.23 50.23 1038.47 60.235C1043.64 66.169 1049.57 70.792 1056.27 74.173L1051.99 80.452C1045.23 76.726 1039.29 71.896 1034.12 65.962C1028.6 72.172 1022.11 77.002 1014.66 80.452L1010.73 74.242C1018.11 70.861 1024.32 66.1 1029.43 60.028C1023.08 51.058 1018.04 40.018 1014.25 27.046L1020.39 23.527C1023.56 35.671 1027.98 45.883 1033.7 54.094C1039.43 44.986 1043.23 33.532 1045.16 19.732ZM1001.34 16.834C1005.62 20.215 1009.28 23.527 1012.31 26.839L1007.35 31.876C1004.72 28.633 1001.07 25.183 996.306 21.595L1001.34 16.834ZM991.545 36.706H1007.9V64.444L1013.35 59.2L1015.35 66.79C1011.14 70.792 1006.66 74.449 1001.9 77.692L999.135 71.137C1000.38 70.171 1001.07 68.998 1001.07 67.48V43.606H991.545V36.706Z" fill="white"/>
<path d="M322.947 16.144H328.053C336.678 24.976 346.614 31.945 357.861 37.051L354.273 43.468C350.961 41.881 347.787 40.156 344.751 38.293V44.503H329.157V54.163H348.339V61.132H329.157V71.344H354.618V78.382H296.451V71.344H321.843V61.132H302.592V54.163H321.843V44.503H306.249V38.224C303.144 40.156 299.901 41.95 296.451 43.606L292.932 37.189C304.938 31.531 314.943 24.562 322.947 16.144ZM307.353 37.534H343.578C336.747 33.256 330.744 28.288 325.5 22.699C320.463 28.15 314.391 33.118 307.353 37.534ZM386.082 27.529H401.055V16.489H408.024V27.529H416.511C414.717 25.459 412.44 23.32 409.68 21.112L413.751 17.179C417.201 19.732 420.03 22.285 422.307 24.838L419.685 27.529H423.618V34.429H408.024V40.57C408.852 43.123 409.818 45.538 410.922 47.884C413.544 44.779 415.89 41.398 418.098 37.672L423.48 41.674C420.375 46.504 417.201 50.575 414.027 53.887C417.408 59.614 421.548 64.651 426.447 68.998L421.617 74.725C416.028 69.205 411.474 62.65 408.024 55.198V72.655C408.024 77.209 405.609 79.555 400.917 79.555H393.672L392.154 72.793C394.362 73.069 396.501 73.276 398.502 73.276C400.158 73.276 401.055 72.448 401.055 70.861V57.958C396.846 63.754 392.085 68.722 386.841 72.724L383.115 66.514C389.877 61.96 395.811 55.957 401.055 48.436V34.429H386.082V27.529ZM391.395 38.293C394.362 42.778 396.708 46.711 398.364 50.023L393.396 53.542C391.533 49.954 389.049 46.09 385.875 41.812L391.395 38.293ZM363.933 41.053H371.04V26.977H363.243V20.284H385.668V26.977H378.354V41.053H384.219V47.815H378.354V59.131C380.838 58.096 383.253 56.992 385.668 55.75V62.719C378.837 66.1 371.523 68.998 363.795 71.344L362.001 64.168C365.037 63.547 368.073 62.788 371.04 61.822V47.815H363.933V41.053ZM442.455 41.536V50.989H451.218V41.536H442.455ZM451.218 34.843V24.7H442.455V34.843H451.218ZM442.248 57.751C441.696 66.859 439.833 74.38 436.728 80.383L431.346 75.484C434.313 69.55 435.831 61.96 435.9 52.714V18.214H457.911V73.069C457.911 77.623 455.496 79.969 450.735 79.969H445.629L443.973 73.621C445.698 73.828 447.285 73.966 448.803 73.966C450.39 73.966 451.218 72.862 451.218 70.723V57.751H442.248ZM461.292 44.917H491.169V51.61C489.513 57.751 486.822 62.995 483.027 67.411C486.615 69.895 490.893 72.172 495.792 74.104L491.928 80.383C486.477 77.899 481.854 75.139 478.128 72.103C473.781 75.553 468.606 78.382 462.672 80.452L458.739 74.38C464.19 72.448 468.813 70.033 472.677 67.135C468.468 62.581 465.639 57.475 464.121 51.955H461.292V44.917ZM470.814 51.955C472.125 55.888 474.333 59.476 477.438 62.719C480.336 59.545 482.544 55.957 484.131 51.955H470.814ZM464.673 18.214H488.064V32.29C488.064 33.808 488.754 34.567 490.272 34.567H494.757V41.26H488.202C483.372 41.26 480.957 38.776 480.957 33.877V24.976H471.78V27.874C471.78 34.774 469.089 40.156 463.845 44.02L459.015 38.5C462.741 36.154 464.673 32.911 464.673 28.633V18.214ZM501.588 18.352H563.412V24.562H543.333V28.564H558.651V45.124H506.349V28.564H521.667V24.562H501.588V18.352ZM536.502 28.564V24.562H528.498V28.564H536.502ZM551.751 39.328V34.36H543.333V39.328H551.751ZM536.502 39.328V34.36H528.498V39.328H536.502ZM521.667 39.328V34.36H513.249V39.328H521.667ZM509.592 48.712H555.891V54.646H509.592V48.712ZM502.692 57.889H562.308V64.03H536.709V72.862C536.709 77.554 534.294 79.9 529.533 79.9H523.185L521.736 73.552C523.668 73.759 525.531 73.897 527.256 73.897C528.912 73.897 529.809 73 529.809 71.275V64.03H502.692V57.889ZM547.473 64.996C553.614 68.17 558.789 71.275 563.067 74.38L558.03 79.417C554.442 76.381 549.405 73.069 542.781 69.55L547.473 64.996ZM518.907 65.134L523.53 69.343C518.976 73.207 513.387 76.519 506.763 79.417L502.416 73.759C508.971 71.275 514.491 68.446 518.907 65.134Z" fill="url(#paint0_linear_856_235)"/>
<defs>
<linearGradient id="paint0_linear_856_235" x1="429" y1="0" x2="429" y2="97" gradientUnits="userSpaceOnUse">
<stop stop-color="#1AFDE4"/>
<stop offset="1" stop-color="#3183FF"/>
</linearGradient>
</defs>
</svg>
