<svg width="429" height="46" viewBox="0 0 429 46" fill="none" xmlns="http://www.w3.org/2000/svg">
<path d="M-0.000242054 2.44799H43.0558V7.34399H22.7998V13.2C28.6558 15.984 34.5598 19.2 40.5598 22.752L37.5358 27.264C31.6318 23.52 26.7358 20.592 22.7998 18.576V44.784H17.7598V7.34399H-0.000242054V2.44799ZM47.7118 19.68H91.3438V24.672H47.7118V19.68ZM137.328 11.136L138.144 15.888L122.832 18C123.072 20.4 123.36 22.512 123.744 24.336C124.8 29.328 126.24 33.168 128.064 35.76C129.744 38.256 131.328 39.552 132.816 39.648C133.872 39.552 134.688 36.72 135.216 31.104L139.584 33.648C138.912 37.584 138.048 40.464 136.944 42.384C135.984 43.92 134.688 44.688 133.104 44.736C130.704 44.736 128.208 43.152 125.616 40.08C122.784 36.72 120.672 32.304 119.28 26.832C118.704 24.624 118.272 21.888 117.936 18.672L108.048 20.064L107.28 15.312L117.504 13.872C117.216 9.88799 117.024 5.32799 116.928 0.239989H122.016C122.016 5.13599 122.16 9.45599 122.448 13.2L137.328 11.136ZM100.848 19.824C99.5038 21.408 98.1118 22.992 96.6238 24.528L94.9918 19.296C99.8398 13.872 103.44 7.48799 105.744 0.0959911L110.448 2.30399C109.296 5.85599 107.76 9.21599 105.936 12.384V44.88H100.848V19.824ZM127.056 0.43199C129.888 2.78399 132.288 5.13599 134.304 7.48799L130.896 10.848C129.264 8.59199 126.96 6.14399 123.888 3.50399L127.056 0.43199ZM150.912 17.904V24.48H157.008V17.904H150.912ZM157.008 13.248V6.19199H150.912V13.248H157.008ZM150.768 29.184C150.384 35.52 149.088 40.752 146.928 44.928L143.184 41.52C145.248 37.392 146.304 32.112 146.352 25.68V1.67999H161.664V39.84C161.664 43.008 159.984 44.64 156.672 44.64H153.12L151.968 40.224C153.168 40.368 154.272 40.464 155.328 40.464C156.432 40.464 157.008 39.696 157.008 38.208V29.184H150.768ZM164.016 20.256H184.8V24.912C183.648 29.184 181.776 32.832 179.136 35.904C181.632 37.632 184.608 39.216 188.016 40.56L185.328 44.928C181.536 43.2 178.32 41.28 175.728 39.168C172.704 41.568 169.104 43.536 164.976 44.976L162.24 40.752C166.032 39.408 169.248 37.728 171.936 35.712C169.008 32.544 167.04 28.992 165.984 25.152H164.016V20.256ZM170.64 25.152C171.552 27.888 173.088 30.384 175.248 32.64C177.264 30.432 178.8 27.936 179.904 25.152H170.64ZM166.368 1.67999H182.64V11.472C182.64 12.528 183.12 13.056 184.176 13.056H187.296V17.712H182.736C179.376 17.712 177.696 15.984 177.696 12.576V6.38399H171.312V8.39999C171.312 13.2 169.44 16.944 165.792 19.632L162.432 15.792C165.024 14.16 166.368 11.904 166.368 8.92799V1.67999ZM192.048 1.77599H235.056V6.09599H221.088V8.87999H231.744V20.4H195.36V8.87999H206.016V6.09599H192.048V1.77599ZM216.336 8.87999V6.09599H210.768V8.87999H216.336ZM226.944 16.368V12.912H221.088V16.368H226.944ZM216.336 16.368V12.912H210.768V16.368H216.336ZM206.016 16.368V12.912H200.16V16.368H206.016ZM197.616 22.896H229.824V27.024H197.616V22.896ZM192.816 29.28H234.288V33.552H216.48V39.696C216.48 42.96 214.8 44.592 211.488 44.592H207.072L206.064 40.176C207.408 40.32 208.704 40.416 209.904 40.416C211.056 40.416 211.68 39.792 211.68 38.592V33.552H192.816V29.28ZM223.968 34.224C228.24 36.432 231.84 38.592 234.816 40.752L231.312 44.256C228.816 42.144 225.312 39.84 220.704 37.392L223.968 34.224ZM204.096 34.32L207.312 37.248C204.144 39.936 200.256 42.24 195.648 44.256L192.624 40.32C197.184 38.592 201.024 36.624 204.096 34.32ZM240.144 5.56799H258.912C258.144 3.93599 257.28 2.39999 256.32 0.959991L261.936 -1.04904e-05C262.8 1.67999 263.664 3.55199 264.48 5.56799H283.008V10.32H240.144V5.56799ZM269.616 10.608C274.896 14.688 279.408 18.768 283.056 22.848L279.36 26.592C276.288 22.656 271.872 18.432 266.208 13.872L269.616 10.608ZM268.896 19.68L273.504 21.744C271.344 25.872 268.704 29.472 265.632 32.544C270.528 35.856 276.576 38.4 283.68 40.176L280.56 44.88C273.168 42.816 266.88 39.84 261.744 36C256.464 40.128 250.176 43.104 242.784 45.024L239.664 40.416C246.768 38.688 252.768 36.048 257.664 32.592C254.496 29.616 251.808 26.208 249.696 22.416L254.016 19.968C255.936 23.52 258.432 26.64 261.552 29.376C264.528 26.544 266.976 23.328 268.896 19.68ZM253.152 10.656L256.8 13.824C253.152 18.624 248.592 22.752 243.216 26.304L240 22.08C245.184 18.816 249.6 15.024 253.152 10.656ZM300.144 19.92H294.48V1.82399H324.864V19.92H306C305.328 20.88 304.608 21.84 303.84 22.704H328.512C328.368 27.984 328.08 32.256 327.648 35.52C327.168 38.736 326.4 40.992 325.392 42.288C324.384 43.536 322.752 44.208 320.448 44.304H313.584L312.336 39.6C314.304 39.744 316.224 39.84 318.048 39.84C320.112 39.84 321.456 39.024 322.128 37.488C322.8 35.856 323.232 32.4 323.424 27.12H320.016C315.888 35.952 309.36 41.856 300.528 44.736L297.696 40.512C305.472 38.112 311.184 33.648 314.832 27.12H310.176C306.816 32.208 301.488 36.24 294.192 39.168L291.024 35.28C297.168 33.12 301.728 30.384 304.704 27.12H298.944C296.64 28.752 294.096 30.24 291.264 31.584L288.528 27.168C293.664 25.248 297.552 22.8 300.144 19.92ZM319.92 15.696V12.816H299.424V15.696H319.92ZM299.424 8.87999H319.92V6.04799H299.424V8.87999ZM376.512 18.768C377.856 22.224 379.104 25.92 380.16 29.856L376.416 31.584C375.504 28.128 374.544 25.056 373.584 22.272C373.488 30.576 373.248 36 372.96 38.592C372.48 42.432 370.08 44.4 365.808 44.4C365.04 44.4 363.792 44.304 362.016 44.112L360.768 39.552C362.352 39.696 363.744 39.792 364.896 39.792C366.768 39.792 367.872 38.592 368.208 36.24C368.448 34.08 368.592 26.448 368.688 13.344H364.08V13.392C363.888 27.792 360.096 38.304 352.656 44.928L348.864 41.568C355.632 35.712 359.088 26.352 359.184 13.392V13.344H351.6V8.44799H359.184V0.767991H364.08V8.44799H373.68C373.68 12.624 373.632 16.368 373.632 19.728L376.512 18.768ZM351.984 18.624L355.92 19.632C354.576 25.392 352.656 29.76 350.16 32.832L346.752 29.664C349.248 26.544 350.976 22.848 351.984 18.624ZM335.328 11.184H340.368V0.671989H345.12V11.184H349.968V15.84H345.12V44.784H340.368V15.84H335.328V11.184ZM409.776 0.0479889C412.656 3.93599 414.912 7.34399 416.448 10.272L412.512 13.008C410.88 9.93599 408.672 6.52799 405.984 2.78399L409.776 0.0479889ZM420.72 2.73599L425.472 3.74399C423.936 14.88 420.768 23.952 416.064 30.912C419.664 35.04 423.792 38.256 428.448 40.608L425.472 44.976C420.768 42.384 416.64 39.024 413.04 34.896C409.2 39.216 404.688 42.576 399.504 44.976L396.768 40.656C401.904 38.304 406.224 34.992 409.776 30.768C405.36 24.528 401.856 16.848 399.216 7.82399L403.488 5.37599C405.696 13.824 408.768 20.928 412.752 26.64C416.736 20.304 419.376 12.336 420.72 2.73599ZM390.24 0.719992C393.216 3.07199 395.76 5.37599 397.872 7.67999L394.416 11.184C392.592 8.92799 390.048 6.52799 386.736 4.03199L390.24 0.719992ZM383.424 14.544H394.8V33.84L398.592 30.192L399.984 35.472C397.056 38.256 393.936 40.8 390.624 43.056L388.704 38.496C389.568 37.824 390.048 37.008 390.048 35.952V19.344H383.424V14.544Z" fill="url(#paint0_linear_847_281)"/>
<defs>
<linearGradient id="paint0_linear_847_281" x1="97.0518" y1="-2.70801" x2="95.3603" y2="45.9022" gradientUnits="userSpaceOnUse">
<stop stop-color="#1BFFE4"/>
<stop offset="1" stop-color="#3183FF"/>
</linearGradient>
</defs>
</svg>
