<svg width="475" height="46" viewBox="0 0 475 46" fill="none" xmlns="http://www.w3.org/2000/svg">
<path d="M1.7762 3.40784H19.5362C19.6802 2.35184 19.8242 1.24784 19.9202 0.191842L25.0082 0.911841C24.9122 1.77584 24.7682 2.59184 24.6722 3.40784H41.0402V7.67984H23.9522C23.8082 8.44784 23.6642 9.16784 23.5202 9.83984H36.8162V32.1598H42.8162V36.5758H31.4402C35.3762 37.9198 39.0242 39.4558 42.3842 41.2798L39.8402 45.2158C35.4242 42.5278 30.9122 40.4638 26.3042 38.9278L27.8882 36.5758H14.6402L16.7042 38.8798C12.9602 41.4238 8.3522 43.5358 2.9762 45.2158L0.960203 40.9918C5.3282 39.7918 9.0242 38.3038 12.0002 36.5758H0.000203192V32.1598H6.7202V9.83984H18.3842C18.5762 9.07184 18.7202 8.35184 18.8642 7.67984H1.7762V3.40784ZM11.5202 32.1598H32.0642V30.2398H11.5202V32.1598ZM11.5202 26.5438H32.0642V24.7198H11.5202V26.5438ZM11.5202 21.0718H32.0642V19.2958H11.5202V21.0718ZM11.5202 15.5998H32.0642V13.7758H11.5202V15.5998ZM68.2562 7.39184H50.6402V2.49584H89.0402V7.39184H73.2962V19.6318H86.4482V24.4318H73.2962V38.2078H91.0562V43.1038H47.8082V38.2078H54.8162V16.0318H59.7122V38.2078H68.2562V7.39184ZM113.424 8.20784V41.8558H108.624V39.4558H101.52V43.2478H96.7202V8.20784H101.328C102.192 5.66384 102.816 3.02384 103.2 0.287841L108.24 0.959841C107.712 3.55184 106.992 5.99984 106.128 8.20784H113.424ZM101.52 34.8478H108.624V25.7758H101.52V34.8478ZM101.52 21.3118H108.624V12.9118H101.52V21.3118ZM122.16 19.8718C125.232 23.7598 127.584 27.1678 129.264 30.1438L125.232 32.9278C123.456 29.7598 121.056 26.2558 118.08 22.4158L122.16 19.8718ZM138.144 8.20784C138.144 25.0078 137.904 35.3758 137.424 39.3118C136.944 42.6718 134.64 44.3518 130.512 44.3518C129.552 44.3518 127.824 44.2558 125.328 44.0638L124.128 39.5038C126.24 39.6478 128.112 39.7438 129.696 39.7438C131.424 39.7438 132.432 38.7838 132.72 36.9118C133.008 34.6078 133.152 26.6878 133.248 13.1038H121.632C120.336 15.9838 118.8 18.5758 117.024 20.8798L114 16.8958C117.168 12.3838 119.28 6.81584 120.432 0.239841L125.376 0.863842C124.896 3.45584 124.272 5.90384 123.552 8.20784H138.144ZM157.248 0.431842H162.336V44.8798H157.248V34.0318H143.376V29.2798H157.248V23.0878H145.584V18.2878H157.248V12.2878H144.48V7.53584H157.248V0.431842ZM168.48 0.431842H173.568V7.53584H186.288V12.2878H173.568V18.2878H185.232V23.0878H173.568V29.2798H187.056V34.0318H173.568V44.8798H168.48V0.431842ZM234.192 17.7598L234.96 22.5598L221.136 24.4318V37.4398C221.136 38.5438 221.664 39.1198 222.816 39.1198H228.816C229.488 39.1198 230.016 38.7358 230.304 38.0158C230.64 37.2478 230.88 34.9438 231.024 31.1038L235.776 32.5918C235.392 38.0638 234.768 41.3278 233.856 42.3838C232.896 43.3438 231.552 43.8718 229.776 43.8718H221.28C217.824 43.8718 216.096 42.0478 216.096 38.4958V25.1038L208.848 26.1118L208.128 21.3598L216.096 20.2558V9.45584C214.08 9.74384 212.016 9.98384 209.952 10.1278L208.368 5.66384C217.584 4.79984 224.928 3.16784 230.4 0.815843L232.8 4.99184C229.056 6.52784 225.168 7.72784 221.136 8.59184V19.5838L234.192 17.7598ZM197.76 44.3998H192.768L191.664 39.5518C193.2 39.7438 194.688 39.8398 196.032 39.8398C197.136 39.8398 197.712 39.3118 197.712 38.2558V28.3678C195.888 28.8958 194.064 29.4238 192.24 29.9038L190.992 25.1038C193.248 24.6718 195.504 24.1438 197.712 23.4718V13.9198H191.568V9.07184H197.712V0.623842H202.752V9.07184H207.024V13.9198H202.752V21.7438C204.048 21.2158 205.344 20.6398 206.64 20.0638V25.1038C205.344 25.6318 204.048 26.1598 202.752 26.6398V39.5038C202.752 42.7678 201.072 44.3998 197.76 44.3998ZM275.52 19.2478V29.5678H252.384V31.8238H277.776V44.8798H272.832V43.2478H252.384V44.8318H247.344V19.2478H275.52ZM252.384 38.8318H272.832V35.7598H252.384V38.8318ZM252.384 25.6318H270.672V23.2318H252.384V25.6318ZM282.144 13.1518V22.5598H277.248V17.3758H245.568V22.5598H240.672V13.1518H259.056C258.672 12.2878 258.288 11.5198 257.904 10.7998L262.128 10.0798L261.168 9.45584C263.376 6.57584 264.96 3.50384 265.92 0.239841L270.672 1.29584C270.432 2.01584 270.192 2.73584 269.952 3.40784H283.152V7.77584H275.568C276.24 8.73584 276.816 9.69584 277.296 10.5598L272.88 12.2398C272.112 10.7038 271.248 9.21584 270.24 7.77584H268.08C267.264 9.31184 266.352 10.7518 265.392 12.0958L263.184 10.7038C263.472 11.4718 263.808 12.2878 264.096 13.1518H282.144ZM247.44 7.77584C246.432 9.50384 245.328 11.0878 244.08 12.5278L239.712 9.74384C242.496 6.76784 244.416 3.55184 245.52 0.191842L250.368 1.24784C250.08 1.96784 249.84 2.68784 249.552 3.40784H261.36V7.77584H254.544C255.312 8.87984 255.984 9.93584 256.512 10.9438L251.952 12.7198C251.184 10.9918 250.272 9.35984 249.216 7.77584H247.44ZM330.096 4.65584V15.7438H325.008V9.50384H293.76V15.6958H288.672V4.65584H306.432C305.856 3.31184 305.184 2.11184 304.464 0.959841L310.128 -0.00015831C310.8 1.39184 311.424 2.92784 312.096 4.65584H330.096ZM288.096 17.9518H301.296C302.64 15.4558 303.888 13.0078 305.088 10.6078L310.272 12.1918L307.248 17.9518H330.816V22.7518H321.696C319.824 27.3118 317.808 30.9598 315.648 33.7438C320.304 35.7118 325.104 38.0158 330.048 40.7038L326.64 45.1198C321.792 42.2398 316.944 39.6958 312.048 37.4878C306.624 42.1918 299.568 44.6398 290.88 44.8798L287.952 40.2238C295.728 40.2238 302.016 38.5438 306.816 35.1838C302.592 33.4078 298.32 31.8238 294.048 30.4798C295.68 27.8878 297.216 25.3438 298.656 22.7518H288.096V17.9518ZM304.56 22.7518C303.312 24.9118 302.16 26.8318 301.104 28.5118C304.224 29.3758 307.44 30.4798 310.704 31.7278C312.912 29.2318 314.736 26.2078 316.176 22.7518H304.56ZM355.632 0.287841H359.184C365.184 6.43184 372.096 11.2798 379.92 14.8318L377.424 19.2958C375.12 18.1918 372.912 16.9918 370.8 15.6958V20.0158H359.952V26.7358H373.296V31.5838H359.952V38.6878H377.664V43.5838H337.2V38.6878H354.864V31.5838H341.472V26.7358H354.864V20.0158H344.016V15.6478C341.856 16.9918 339.6 18.2398 337.2 19.3918L334.752 14.9278C343.104 10.9918 350.064 6.14384 355.632 0.287841ZM344.784 15.1678H369.984C365.232 12.1918 361.056 8.73584 357.408 4.84784C353.904 8.63984 349.68 12.0958 344.784 15.1678ZM408.384 3.21584H424.992V21.1198H408.384V3.21584ZM420.24 16.6078V7.67984H413.136V16.6078H420.24ZM390.816 0.575843H395.712V4.41584H405.408C405.312 13.1038 404.784 18.2878 403.728 20.0158C402.672 21.7438 400.8 22.6078 398.16 22.6078C397.392 22.6078 396.528 22.5118 395.472 22.3198L394.224 17.8078C395.376 17.9518 396.288 18.0478 397.008 18.0958C398.544 18.0478 399.504 17.5198 399.888 16.5598C400.272 15.5998 400.464 12.9598 400.512 8.73584H395.376C394.464 15.2638 391.632 20.2078 386.88 23.5678L383.184 20.2558C387.168 17.6638 389.568 13.8238 390.432 8.73584H384.576V4.41584H390.816V0.575843ZM384.192 26.0158H402.912V22.6078H407.904V26.0158H426.672V30.7198H412.176C415.44 33.9838 420.528 36.9118 427.344 39.5038L423.888 43.8718C416.496 39.9358 411.168 35.5678 407.904 30.8158V44.7838H402.912V30.8158C399.456 36.0478 393.936 40.4158 386.448 43.8718L383.568 39.2158C390.144 36.9118 395.136 34.0798 398.592 30.7198H384.192V26.0158ZM453.84 0.479841L458.784 1.10384C458.448 3.11984 458.064 5.03984 457.584 6.91184H474.144C474.144 23.9998 473.904 34.5118 473.424 38.5438C472.848 42.4798 470.4 44.4958 466.032 44.4958C464.976 44.4958 463.248 44.3998 460.752 44.2558L459.6 39.7918C461.76 39.9358 463.632 40.0318 465.216 40.0318C467.328 40.0318 468.528 38.8318 468.864 36.4798C469.152 34.1278 469.344 25.8238 469.44 11.5678H456.144C454.848 15.1198 453.264 18.2878 451.344 21.1198L448.08 16.8958C450.912 12.4318 452.832 6.95984 453.84 0.479841ZM450.432 34.9438L449.52 30.7678C450.816 30.0478 453.12 25.0078 456.432 15.6958L460.848 17.3278C458.736 22.7998 457.008 26.8798 455.664 29.5678C457.776 29.0878 459.696 28.6558 461.472 28.2718C460.896 26.5918 460.32 25.0078 459.744 23.5678L463.872 22.1278C465.504 25.7758 466.896 29.7118 468.096 33.9358L463.728 35.9518C463.344 34.5598 463.008 33.2158 462.624 31.9678C459.072 33.0238 454.992 33.9838 450.432 34.9438ZM443.28 22.0318V44.6878H438.336V23.1838C436.896 27.1198 435.168 30.7678 433.152 34.1278L430.992 28.5598C434.208 24.3358 436.56 19.5358 438 14.1118H431.952V9.26384H438.336V0.431842H443.28V9.26384H448.608V14.1118H443.28V16.2718C445.392 18.3838 447.504 20.6398 449.616 23.1358L446.736 27.4078C445.44 25.2958 444.288 23.5198 443.28 22.0318Z" fill="url(#paint0_linear_847_282)"/>
<defs>
<linearGradient id="paint0_linear_847_282" x1="106.084" y1="9.28884" x2="106.084" y2="45.9501" gradientUnits="userSpaceOnUse">
<stop stop-color="#1BFFE4"/>
<stop offset="1" stop-color="#3183FF"/>
</linearGradient>
</defs>
</svg>
