<svg width="10" height="10" viewBox="0 0 10 10" fill="none" xmlns="http://www.w3.org/2000/svg">
<path d="M8.29893 1.84824C8.29634 1.84323 8.29206 1.83931 8.28685 1.83717C7.68408 1.56061 7.04798 1.36341 6.39448 1.25048C6.38855 1.24938 6.38241 1.25018 6.37695 1.25276C6.3715 1.25534 6.36699 1.25958 6.36408 1.26487C6.27746 1.42208 6.19884 1.58356 6.12849 1.74869C5.42406 1.64176 4.70752 1.64176 4.00308 1.74869C3.93227 1.58314 3.85238 1.42162 3.76378 1.26487C3.76074 1.2597 3.75621 1.25556 3.75078 1.25299C3.74536 1.25042 3.73929 1.24955 3.73336 1.25048C3.07979 1.36317 2.44365 1.56039 1.84096 1.83718C1.8358 1.83937 1.83145 1.84311 1.8285 1.84787C0.623243 3.64777 0.293076 5.40342 0.455045 7.13732C0.4555 7.14157 0.456806 7.14568 0.458884 7.14942C0.460962 7.15315 0.463769 7.15643 0.46714 7.15906C1.16895 7.6787 1.95394 8.07534 2.7886 8.33207C2.79448 8.33383 2.80075 8.33375 2.80658 8.33184C2.81242 8.32993 2.81752 8.32628 2.82122 8.32138C3.00048 8.07746 3.15933 7.81917 3.29613 7.54913C3.29801 7.54543 3.29909 7.54137 3.29928 7.53722C3.29948 7.53307 3.29879 7.52892 3.29727 7.52506C3.29575 7.52119 3.29342 7.51769 3.29045 7.51479C3.28748 7.51188 3.28392 7.50964 3.28002 7.50822C3.02954 7.41237 2.78704 7.29684 2.5548 7.1627C2.55058 7.16022 2.54704 7.15674 2.54448 7.15256C2.54193 7.14839 2.54044 7.14365 2.54015 7.13876C2.53986 7.13388 2.54078 7.129 2.54283 7.12455C2.54487 7.12011 2.54798 7.11623 2.55188 7.11327C2.60074 7.07677 2.64876 7.03914 2.6959 7.00043C2.70003 6.99702 2.70503 6.99484 2.71034 6.99412C2.71565 6.99341 2.72105 6.99419 2.72594 6.99638C4.24742 7.69075 5.89463 7.69075 7.39811 6.99638C7.40301 6.99405 7.40847 6.99316 7.41385 6.99381C7.41924 6.99447 7.42433 6.99663 7.42853 7.00006C7.47571 7.03898 7.52386 7.07673 7.57291 7.11327C7.57683 7.1162 7.57997 7.12005 7.58204 7.12448C7.58412 7.12891 7.58507 7.13378 7.58482 7.13867C7.58457 7.14355 7.58312 7.1483 7.58059 7.15249C7.57807 7.15668 7.57455 7.16019 7.57035 7.1627C7.33864 7.29797 7.09592 7.41343 6.84478 7.50785C6.84088 7.50934 6.83734 7.51163 6.83439 7.51457C6.83143 7.51752 6.82913 7.52106 6.82764 7.52496C6.82615 7.52885 6.8255 7.53302 6.82573 7.53719C6.82595 7.54135 6.82706 7.54542 6.82897 7.54913C6.96807 7.81767 7.12668 8.07563 7.30353 8.32095C7.30711 8.32598 7.3122 8.32976 7.31805 8.33175C7.3239 8.33373 7.33023 8.33383 7.33614 8.33202C8.1723 8.07617 8.95866 7.67948 9.66135 7.15906C9.66477 7.15656 9.66762 7.15336 9.66971 7.14968C9.67179 7.14599 9.67307 7.1419 9.67345 7.13768C9.86735 5.13311 9.34881 3.39185 8.29893 1.84824ZM3.52335 6.08155C3.06528 6.08155 2.68783 5.66118 2.68783 5.14492C2.68783 4.62866 3.05796 4.20826 3.52335 4.20826C3.99239 4.20826 4.36618 4.63231 4.35886 5.14489C4.35886 5.66118 3.98872 6.08155 3.52335 6.08155ZM6.61252 6.08155C6.15446 6.08155 5.77702 5.66118 5.77702 5.14492C5.77702 4.62866 6.14714 4.20826 6.61252 4.20826C7.08159 4.20826 7.45536 4.63231 7.44804 5.14489C7.44804 5.66118 7.08159 6.08155 6.61252 6.08155Z" fill="#808080"/>
</svg>
