<svg width="98" height="33" viewBox="0 0 98 33" fill="none" xmlns="http://www.w3.org/2000/svg">
<path d="M25.8721 13.296V19.008H6.76812V32.208H0.000117302V15.504C0.0321174 10.704 0.480117 7.55201 1.34412 6.04801C2.43212 3.93601 4.00012 2.43201 6.04812 1.53601C8.12812 0.640005 11.0401 0.192005 14.7841 0.192005H25.8721V5.90401H15.6481C12.4801 5.96801 10.4481 6.22401 9.55212 6.67201C7.76012 7.40801 6.83212 9.04001 6.76812 11.568V13.296H25.8721ZM27.7797 32.208L41.0277 0.192005H48.8517L62.0997 32.208H54.1317L51.0117 24.816H38.8677L35.7477 32.208H27.7797ZM44.9637 7.92001L40.4037 19.104H49.5237L44.9637 7.92001ZM97.3164 26.496V32.208H85.3164H82.7244C80.0364 32.208 78.1964 32.176 77.2044 32.112C76.2124 32.016 75.0284 31.808 73.6524 31.488C70.0684 30.656 67.4284 28.608 65.7324 25.344C64.4524 22.848 63.8124 19.856 63.8124 16.368C63.8124 10.288 65.3324 5.93601 68.3724 3.31201C70.9644 1.10401 74.7084 7.62939e-06 79.6044 7.62939e-06C82.8364 7.62939e-06 85.6524 0.544007 88.0524 1.63201C89.5564 2.33601 90.7884 3.20001 91.7484 4.22401C92.7084 5.24801 93.4764 6.57601 94.0524 8.20801C94.9804 10.736 95.4444 13.328 95.4444 15.984C95.4444 20.08 94.2604 23.584 91.8924 26.496H97.3164ZM79.6524 5.37601C76.8364 5.37601 74.7404 6.24001 73.3644 7.96801C72.0204 9.66401 71.3484 12.256 71.3484 15.744C71.3484 18.784 71.7964 21.248 72.6924 23.136C73.8764 25.6 76.2124 26.832 79.7004 26.832C82.9644 26.832 85.2204 25.696 86.4684 23.424C87.4284 21.696 87.9084 19.184 87.9084 15.888C87.9084 12.88 87.3324 10.432 86.1804 8.54401C84.8684 6.46401 82.6924 5.40801 79.6524 5.37601Z" fill="url(#paint0_linear_797_240)"/>
<defs>
<linearGradient id="paint0_linear_797_240" x1="19.9325" y1="3.9945" x2="19.9325" y2="34.0896" gradientUnits="userSpaceOnUse">
<stop stop-color="#1BFFE4"/>
<stop offset="1" stop-color="#3183FF"/>
</linearGradient>
</defs>
</svg>
