<svg width="10" height="10" viewBox="0 0 10 10" fill="none" xmlns="http://www.w3.org/2000/svg">
<path d="M5.00044 0.833313C7.53124 0.833313 9.58337 2.84124 9.58337 5.31878C9.58337 7.30097 8.27055 8.98205 6.44877 9.57569C6.22 9.61587 6.14747 9.48364 6.14747 9.36468C6.14747 9.25781 6.14508 8.96021 6.14747 8.58577C7.42203 8.85646 7.68627 7.99486 7.68627 7.99486C7.89471 7.47649 8.19442 7.33881 8.19442 7.33881C8.61091 7.06032 8.16374 7.06617 8.16374 7.06617C7.70421 7.09737 7.46149 7.52798 7.46149 7.52798C7.05258 8.21367 6.38899 8.01553 6.12794 7.90086C6.08569 7.61144 5.96772 7.41291 5.8366 7.30175C6.8545 7.18786 7.92421 6.80367 7.92421 5.08398C7.92421 4.59448 7.74566 4.1943 7.45232 3.88031C7.49935 3.76759 7.65718 3.31085 7.40769 2.69342C7.40769 2.69342 7.02229 2.5729 6.14747 3.15367C5.77337 3.05381 5.3874 3.00293 4.99964 3.00233C4.61066 3.00428 4.21848 3.05382 3.85182 3.15367C2.977 2.57329 2.59279 2.69342 2.59279 2.69342C2.3429 3.31085 2.50033 3.76759 2.54736 3.88031C2.25403 4.1943 2.07587 4.59448 2.07587 5.08398C2.07587 6.80796 3.14758 7.18669 4.16866 7.29707C4.00446 7.43632 3.855 7.70544 3.855 8.12396V9.36585C3.855 9.48598 3.78087 9.61821 3.54812 9.57491C1.72834 8.98088 0.416707 7.30019 0.416707 5.31878C0.416707 2.84124 2.46845 0.833313 5.00044 0.833313Z" fill="#808080"/>
</svg>
