<svg width="34" height="34" viewBox="0 0 34 34" fill="none" xmlns="http://www.w3.org/2000/svg">
<path d="M17.0654 8.5C17.8477 8.50001 18.4824 9.13456 18.4824 9.91699V14.167C20.0469 14.1672 21.3154 15.4352 21.3154 17V25.5C21.3154 27.0648 20.0469 28.3328 18.4824 28.333V32.583C18.4824 33.3654 17.8477 34 17.0654 34C16.2829 34 15.6484 33.3654 15.6484 32.583V28.333C14.0837 28.3328 12.8155 27.0648 12.8154 25.5V17C12.8155 15.4352 14.0837 14.1672 15.6484 14.167V9.91699C15.6484 9.13455 16.2829 8.5 17.0654 8.5ZM4.25 0C5.03248 3.2258e-08 5.66699 0.635302 5.66699 1.41895V7.09473C7.23148 7.09489 8.49981 8.36457 8.5 9.93164V18.4453C8.49989 20.0123 7.23153 21.283 5.66699 21.2832V26.958C5.66699 27.7417 5.03248 28.377 4.25 28.377C3.46756 28.377 2.83301 27.7417 2.83301 26.958V21.2832C1.26849 21.283 0.000106505 20.0123 0 18.4453V9.93164C0.00018749 8.36459 1.26854 7.09492 2.83301 7.09473V1.41895C2.83301 0.635302 3.46756 0 4.25 0ZM29.75 0C30.1258 1.06375e-05 30.4862 0.149181 30.752 0.415039C31.0177 0.681177 31.167 1.0427 31.167 1.41895V7.09473C32.7316 7.09492 33.9998 8.36459 34 9.93164V18.4453C33.9999 20.0123 32.7317 21.283 31.167 21.2832V26.958C31.167 27.7416 30.5324 28.3769 29.75 28.377C28.9677 28.377 28.333 27.7417 28.333 26.958V21.2832C26.7685 21.2831 25.5001 20.0123 25.5 18.4453V9.93164C25.5002 8.36456 26.7685 7.09487 28.333 7.09473V1.41895C28.333 1.0427 28.4823 0.681177 28.748 0.415039C29.0138 0.14914 29.3744 0 29.75 0Z" fill="url(#paint0_linear_132_266)"/>
<defs>
<linearGradient id="paint0_linear_132_266" x1="0" y1="0" x2="0" y2="34" gradientUnits="userSpaceOnUse">
<stop offset="0.015077" stop-color="#02FBE3"/>
<stop offset="1" stop-color="#0145D8"/>
</linearGradient>
</defs>
</svg>
