<svg width="158" height="81" viewBox="0 0 158 81" fill="none" xmlns="http://www.w3.org/2000/svg">
<g filter="url(#filter0_i_199_90)">
<path d="M0 4C0 1.79086 1.79086 0 4 0H154C156.209 0 158 1.79086 158 4V77C158 79.2091 156.209 81 154 81H4C1.79086 81 0 79.2091 0 77V4Z" fill="url(#paint0_linear_199_90)"/>
</g>
<path d="M136.029 55.528C138.021 55.528 139.581 56.344 140.709 58.024C141.765 59.608 142.293 61.744 142.293 64.432C142.293 67.12 141.765 69.256 140.709 70.84C139.581 72.496 138.021 73.336 136.029 73.336C134.013 73.336 132.453 72.496 131.349 70.84C130.293 69.256 129.765 67.12 129.765 64.432C129.765 61.744 130.293 59.608 131.349 58.024C132.453 56.344 134.013 55.528 136.029 55.528ZM136.029 57.904C134.661 57.904 133.701 58.648 133.149 60.184C132.765 61.216 132.573 62.632 132.573 64.432C132.573 66.208 132.765 67.624 133.149 68.68C133.701 70.192 134.661 70.96 136.029 70.96C137.373 70.96 138.333 70.192 138.909 68.68C139.293 67.624 139.485 66.208 139.485 64.432C139.485 62.632 139.293 61.216 138.909 60.184C138.333 58.648 137.373 57.904 136.029 57.904ZM148.788 55.864H150.9V73H148.092V59.248C147.06 60.184 145.764 60.88 144.18 61.336V58.552C144.948 58.36 145.764 58.024 146.628 57.544C147.492 57.016 148.212 56.464 148.788 55.864Z" fill="#93CBFF" fill-opacity="0.5"/>
<path d="M19.6184 18.9785H20.9446V24.7686C20.9446 25.7757 20.8306 26.5755 20.6028 27.168C20.3749 27.7604 19.9625 28.2435 19.3655 28.6172C18.773 28.9863 17.9937 29.1709 17.0276 29.1709C16.0888 29.1709 15.3209 29.0091 14.7239 28.6855C14.1269 28.362 13.7008 27.8949 13.4456 27.2842C13.1903 26.6689 13.0627 25.8304 13.0627 24.7686V18.9785H14.3889V24.7617C14.3889 25.6322 14.4687 26.2747 14.6282 26.6895C14.7922 27.0996 15.0702 27.4163 15.4622 27.6396C15.8586 27.863 16.3417 27.9746 16.9114 27.9746C17.8866 27.9746 18.5816 27.7536 18.9963 27.3115C19.4111 26.8695 19.6184 26.0195 19.6184 24.7617V18.9785ZM22.51 26.833L23.7268 26.6416C23.7952 27.1292 23.9843 27.5029 24.2942 27.7627C24.6086 28.0225 25.0461 28.1523 25.6067 28.1523C26.1718 28.1523 26.5911 28.0384 26.8645 27.8105C27.1379 27.5781 27.2747 27.307 27.2747 26.9971C27.2747 26.7191 27.1539 26.5003 26.9124 26.3408C26.7437 26.2314 26.3245 26.0924 25.6545 25.9238C24.7522 25.696 24.1256 25.5 23.7747 25.3359C23.4283 25.1673 23.164 24.9372 22.9817 24.6455C22.804 24.3493 22.7151 24.0234 22.7151 23.668C22.7151 23.3444 22.788 23.0459 22.9338 22.7725C23.0842 22.4945 23.287 22.2643 23.5422 22.082C23.7336 21.9408 23.9934 21.8223 24.3215 21.7266C24.6542 21.6263 25.0097 21.5762 25.3879 21.5762C25.9576 21.5762 26.4566 21.6582 26.885 21.8223C27.318 21.9863 27.637 22.2096 27.842 22.4922C28.0471 22.7702 28.1884 23.1439 28.2659 23.6133L27.0627 23.7773C27.0081 23.4036 26.8486 23.112 26.5842 22.9023C26.3245 22.6927 25.9553 22.5879 25.4768 22.5879C24.9117 22.5879 24.5084 22.6813 24.2668 22.8682C24.0253 23.055 23.9045 23.2738 23.9045 23.5244C23.9045 23.6839 23.9547 23.8275 24.0549 23.9551C24.1552 24.0872 24.3124 24.1966 24.5266 24.2832C24.6497 24.3288 25.012 24.4336 25.6135 24.5977C26.484 24.8301 27.0901 25.0215 27.4319 25.1719C27.7782 25.3177 28.0494 25.5319 28.2454 25.8145C28.4413 26.097 28.5393 26.4479 28.5393 26.8672C28.5393 27.2773 28.4185 27.6647 28.177 28.0293C27.94 28.3893 27.5959 28.6696 27.1448 28.8701C26.6936 29.0661 26.1832 29.1641 25.6135 29.1641C24.6702 29.1641 23.9501 28.9681 23.4534 28.5762C22.9612 28.1842 22.6467 27.6032 22.51 26.833ZM34.9719 26.6621L36.2434 26.8193C36.0429 27.5622 35.6715 28.1387 35.1292 28.5488C34.5868 28.959 33.8941 29.1641 33.051 29.1641C31.9892 29.1641 31.1461 28.8382 30.5217 28.1865C29.9019 27.5303 29.592 26.612 29.592 25.4316C29.592 24.2103 29.9065 23.2624 30.5354 22.5879C31.1643 21.9134 31.9801 21.5762 32.9827 21.5762C33.9534 21.5762 34.7463 21.9066 35.3616 22.5674C35.9768 23.2282 36.2844 24.1579 36.2844 25.3564C36.2844 25.4294 36.2821 25.5387 36.2776 25.6846H30.8635C30.9091 26.4821 31.1347 27.0928 31.5403 27.5166C31.9459 27.9404 32.4517 28.1523 33.0579 28.1523C33.509 28.1523 33.8941 28.0339 34.2131 27.7969C34.5321 27.5599 34.7851 27.1816 34.9719 26.6621ZM30.9319 24.6729H34.9856C34.9309 24.0622 34.776 23.6042 34.5208 23.2988C34.1288 22.8249 33.6207 22.5879 32.9963 22.5879C32.4312 22.5879 31.955 22.777 31.5676 23.1553C31.1848 23.5335 30.9729 24.0394 30.9319 24.6729ZM37.7815 29V21.7402H38.8889V22.8408C39.1715 22.3258 39.4312 21.9863 39.6682 21.8223C39.9097 21.6582 40.1741 21.5762 40.4612 21.5762C40.8759 21.5762 41.2974 21.7083 41.7258 21.9727L41.302 23.1143C41.0012 22.9365 40.7004 22.8477 40.3997 22.8477C40.1308 22.8477 39.8892 22.9297 39.675 23.0938C39.4609 23.2533 39.3082 23.4766 39.217 23.7637C39.0803 24.2012 39.012 24.6797 39.012 25.1992V29H37.7815ZM46.511 29V18.9785H49.9631C50.7424 18.9785 51.3372 19.0264 51.7473 19.1221C52.3215 19.2542 52.8114 19.4935 53.217 19.8398C53.7457 20.2865 54.1399 20.8584 54.3997 21.5557C54.664 22.2484 54.7961 23.0413 54.7961 23.9346C54.7961 24.6956 54.7073 25.3701 54.5295 25.958C54.3518 26.5459 54.1239 27.0335 53.8459 27.4209C53.568 27.8037 53.2626 28.1068 52.9299 28.3301C52.6018 28.5488 52.203 28.7152 51.7336 28.8291C51.2688 28.943 50.7333 29 50.1272 29H46.511ZM47.8372 27.8174H49.9768C50.6376 27.8174 51.1549 27.7559 51.5286 27.6328C51.9068 27.5098 52.2076 27.3366 52.4309 27.1133C52.7454 26.7988 52.9892 26.3773 53.1624 25.8486C53.3401 25.3154 53.429 24.6706 53.429 23.9141C53.429 22.8659 53.2558 22.0615 52.9094 21.501C52.5676 20.9359 52.1506 20.5576 51.6584 20.3662C51.303 20.2295 50.731 20.1611 49.9426 20.1611H47.8372V27.8174ZM61.4407 26.6621L62.7122 26.8193C62.5116 27.5622 62.1402 28.1387 61.5979 28.5488C61.0556 28.959 60.3629 29.1641 59.5198 29.1641C58.4579 29.1641 57.6148 28.8382 56.9905 28.1865C56.3707 27.5303 56.0608 26.612 56.0608 25.4316C56.0608 24.2103 56.3752 23.2624 57.0042 22.5879C57.6331 21.9134 58.4488 21.5762 59.4514 21.5762C60.4221 21.5762 61.2151 21.9066 61.8303 22.5674C62.4456 23.2282 62.7532 24.1579 62.7532 25.3564C62.7532 25.4294 62.7509 25.5387 62.7463 25.6846H57.3323C57.3778 26.4821 57.6034 27.0928 58.009 27.5166C58.4146 27.9404 58.9205 28.1523 59.5266 28.1523C59.9778 28.1523 60.3629 28.0339 60.6819 27.7969C61.0009 27.5599 61.2538 27.1816 61.4407 26.6621ZM57.4006 24.6729H61.4543C61.3997 24.0622 61.2447 23.6042 60.9895 23.2988C60.5976 22.8249 60.0894 22.5879 59.4651 22.5879C58.9 22.5879 58.4237 22.777 58.0364 23.1553C57.6536 23.5335 57.4417 24.0394 57.4006 24.6729ZM64.2639 31.7822V21.7402H65.385V22.6836C65.6493 22.3145 65.9478 22.0387 66.2805 21.8564C66.6132 21.6696 67.0165 21.5762 67.4905 21.5762C68.1103 21.5762 68.6571 21.7357 69.1311 22.0547C69.6051 22.3737 69.9628 22.8249 70.2043 23.4082C70.4459 23.987 70.5667 24.6227 70.5667 25.3154C70.5667 26.0583 70.4322 26.7282 70.1633 27.3252C69.899 27.9176 69.5116 28.3734 69.0012 28.6924C68.4954 29.0068 67.9622 29.1641 67.4016 29.1641C66.9915 29.1641 66.6223 29.0775 66.2942 28.9043C65.9706 28.7311 65.704 28.5124 65.4944 28.248V31.7822H64.2639ZM65.3782 25.4111C65.3782 26.3454 65.5673 27.0358 65.9456 27.4824C66.3238 27.929 66.7818 28.1523 67.3196 28.1523C67.8665 28.1523 68.3336 27.9222 68.7209 27.4619C69.1129 26.9971 69.3088 26.2793 69.3088 25.3086C69.3088 24.3835 69.1174 23.6908 68.7346 23.2305C68.3564 22.7702 67.9029 22.54 67.3743 22.54C66.8502 22.54 66.3853 22.7861 65.9797 23.2783C65.5787 23.766 65.3782 24.4769 65.3782 25.4111ZM71.5989 25.3701C71.5989 24.0257 71.9726 23.0299 72.72 22.3828C73.3443 21.8451 74.1054 21.5762 75.0032 21.5762C76.0012 21.5762 76.817 21.9043 77.4504 22.5605C78.0839 23.2122 78.4006 24.1146 78.4006 25.2676C78.4006 26.2018 78.2594 26.9378 77.9768 27.4756C77.6988 28.0088 77.2909 28.4235 76.7532 28.7197C76.22 29.016 75.6366 29.1641 75.0032 29.1641C73.9869 29.1641 73.1643 28.8382 72.5354 28.1865C71.9111 27.5348 71.5989 26.596 71.5989 25.3701ZM72.8635 25.3701C72.8635 26.2998 73.0663 26.9971 73.4719 27.4619C73.8775 27.9222 74.3879 28.1523 75.0032 28.1523C75.6139 28.1523 76.122 27.9199 76.5276 27.4551C76.9332 26.9902 77.136 26.2816 77.136 25.3291C77.136 24.4313 76.9309 23.7523 76.5208 23.292C76.1152 22.8271 75.6093 22.5947 75.0032 22.5947C74.3879 22.5947 73.8775 22.8249 73.4719 23.2852C73.0663 23.7454 72.8635 24.4404 72.8635 25.3701ZM79.3577 26.833L80.5745 26.6416C80.6428 27.1292 80.8319 27.5029 81.1418 27.7627C81.4563 28.0225 81.8938 28.1523 82.4543 28.1523C83.0194 28.1523 83.4387 28.0384 83.7122 27.8105C83.9856 27.5781 84.1223 27.307 84.1223 26.9971C84.1223 26.7191 84.0015 26.5003 83.76 26.3408C83.5914 26.2314 83.1721 26.0924 82.5022 25.9238C81.5999 25.696 80.9732 25.5 80.6223 25.3359C80.276 25.1673 80.0116 24.9372 79.8293 24.6455C79.6516 24.3493 79.5627 24.0234 79.5627 23.668C79.5627 23.3444 79.6357 23.0459 79.7815 22.7725C79.9319 22.4945 80.1347 22.2643 80.3899 22.082C80.5813 21.9408 80.8411 21.8223 81.1692 21.7266C81.5019 21.6263 81.8573 21.5762 82.2356 21.5762C82.8053 21.5762 83.3043 21.6582 83.7327 21.8223C84.1656 21.9863 84.4846 22.2096 84.6897 22.4922C84.8948 22.7702 85.0361 23.1439 85.1135 23.6133L83.9104 23.7773C83.8557 23.4036 83.6962 23.112 83.4319 22.9023C83.1721 22.6927 82.803 22.5879 82.3245 22.5879C81.7594 22.5879 81.356 22.6813 81.1145 22.8682C80.873 23.055 80.7522 23.2738 80.7522 23.5244C80.7522 23.6839 80.8023 23.8275 80.9026 23.9551C81.0028 24.0872 81.1601 24.1966 81.3743 24.2832C81.4973 24.3288 81.8596 24.4336 82.4612 24.5977C83.3316 24.8301 83.9377 25.0215 84.2795 25.1719C84.6259 25.3177 84.8971 25.5319 85.093 25.8145C85.289 26.097 85.387 26.4479 85.387 26.8672C85.387 27.2773 85.2662 27.6647 85.0247 28.0293C84.7877 28.3893 84.4436 28.6696 83.9924 28.8701C83.5413 29.0661 83.0308 29.1641 82.4612 29.1641C81.5178 29.1641 80.7978 28.9681 80.301 28.5762C79.8088 28.1842 79.4944 27.6032 79.3577 26.833ZM86.8567 20.3936V18.9785H88.0872V20.3936H86.8567ZM86.8567 29V21.7402H88.0872V29H86.8567ZM92.6536 27.8994L92.8313 28.9863C92.4849 29.0592 92.175 29.0957 91.9016 29.0957C91.455 29.0957 91.1086 29.0251 90.8625 28.8838C90.6165 28.7425 90.4433 28.5579 90.343 28.3301C90.2428 28.0977 90.1926 27.6123 90.1926 26.874V22.6973H89.2903V21.7402H90.1926V19.9424L91.4163 19.2041V21.7402H92.6536V22.6973H91.4163V26.9424C91.4163 27.2933 91.4368 27.5189 91.4778 27.6191C91.5234 27.7194 91.594 27.7992 91.6897 27.8584C91.79 27.9176 91.9312 27.9473 92.1135 27.9473C92.2502 27.9473 92.4303 27.9313 92.6536 27.8994Z" fill="white"/>
<path d="M17.4309 39.8418H18.3782V43.9775C18.3782 44.6969 18.2968 45.2682 18.134 45.6914C17.9713 46.1146 17.6767 46.4596 17.2502 46.7266C16.8271 46.9902 16.2704 47.1221 15.5803 47.1221C14.9097 47.1221 14.3612 47.0065 13.9348 46.7754C13.5084 46.5443 13.204 46.2106 13.0217 45.7744C12.8394 45.335 12.7483 44.736 12.7483 43.9775V39.8418H13.6956V43.9727C13.6956 44.5944 13.7525 45.0534 13.8665 45.3496C13.9836 45.6426 14.1822 45.8688 14.4622 46.0283C14.7454 46.1878 15.0904 46.2676 15.4973 46.2676C16.1939 46.2676 16.6903 46.1097 16.9866 45.7939C17.2828 45.4782 17.4309 44.8711 17.4309 43.9727V39.8418ZM19.6379 44.7002L20.5315 44.6221C20.5738 44.9801 20.6715 45.2747 20.8245 45.5059C20.9807 45.7337 21.2216 45.9193 21.5471 46.0625C21.8726 46.2025 22.2389 46.2725 22.6458 46.2725C23.0071 46.2725 23.3261 46.2188 23.6028 46.1113C23.8795 46.0039 24.0846 45.8574 24.218 45.6719C24.3547 45.4831 24.4231 45.278 24.4231 45.0566C24.4231 44.832 24.358 44.6367 24.2278 44.4707C24.0976 44.3014 23.8827 44.1598 23.5833 44.0459C23.3912 43.971 22.9664 43.8555 22.3088 43.6992C21.6513 43.5397 21.1907 43.39 20.927 43.25C20.5852 43.071 20.3297 42.8496 20.1604 42.5859C19.9944 42.319 19.9114 42.0212 19.9114 41.6924C19.9114 41.3311 20.0139 40.9941 20.219 40.6816C20.4241 40.3659 20.7236 40.1266 21.1174 39.9639C21.5113 39.8011 21.9491 39.7197 22.4309 39.7197C22.9615 39.7197 23.4286 39.806 23.8323 39.9785C24.2392 40.1478 24.5517 40.3984 24.7698 40.7305C24.9879 41.0625 25.1051 41.4385 25.1213 41.8584L24.2131 41.9268C24.1643 41.4743 23.9983 41.1325 23.7151 40.9014C23.4351 40.6702 23.0201 40.5547 22.47 40.5547C21.8971 40.5547 21.4788 40.6605 21.2151 40.8721C20.9547 41.0804 20.8245 41.3327 20.8245 41.6289C20.8245 41.8861 20.9172 42.0977 21.1028 42.2637C21.2851 42.4297 21.7603 42.6006 22.5286 42.7764C23.3 42.9489 23.829 43.1003 24.1155 43.2305C24.5321 43.4225 24.8398 43.6667 25.0383 43.9629C25.2369 44.2559 25.3362 44.5944 25.3362 44.9785C25.3362 45.3594 25.2271 45.7191 25.009 46.0576C24.7909 46.3929 24.4768 46.6549 24.0667 46.8438C23.6597 47.0293 23.2008 47.1221 22.6897 47.1221C22.0419 47.1221 21.4983 47.0277 21.0588 46.8389C20.6226 46.6501 20.2792 46.3669 20.0286 45.9893C19.7812 45.6084 19.651 45.1787 19.6379 44.7002ZM26.6301 47V39.8418H29.0959C29.6526 39.8418 30.0774 39.876 30.3704 39.9443C30.7805 40.0387 31.1305 40.2096 31.4202 40.457C31.7978 40.776 32.0793 41.1846 32.2649 41.6826C32.4537 42.1774 32.5481 42.7438 32.5481 43.3818C32.5481 43.9255 32.4846 44.4072 32.3577 44.8271C32.2307 45.2471 32.068 45.5954 31.8694 45.8721C31.6708 46.1455 31.4527 46.362 31.2151 46.5215C30.9807 46.6777 30.6959 46.7965 30.3606 46.8779C30.0286 46.9593 29.6461 47 29.2131 47H26.6301ZM27.5774 46.1553H29.1057C29.5777 46.1553 29.9472 46.1113 30.2141 46.0234C30.4843 45.9355 30.6991 45.8118 30.8586 45.6523C31.0833 45.4277 31.2574 45.1266 31.3811 44.749C31.5081 44.3682 31.5715 43.9076 31.5715 43.3672C31.5715 42.6185 31.4478 42.0439 31.2004 41.6436C30.9563 41.2399 30.6584 40.9697 30.3069 40.833C30.053 40.7354 29.6444 40.6865 29.0813 40.6865H27.5774V46.1553ZM35.678 47V40.6865H33.3196V39.8418H38.9934V40.6865H36.6252V47H35.678ZM39.1985 47.1221L41.2737 39.7197H41.9768L39.9065 47.1221H39.1985ZM47.4504 39.8418H48.3977V43.9775C48.3977 44.6969 48.3163 45.2682 48.1536 45.6914C47.9908 46.1146 47.6962 46.4596 47.2698 46.7266C46.8466 46.9902 46.29 47.1221 45.5999 47.1221C44.9293 47.1221 44.3808 47.0065 43.9543 46.7754C43.5279 46.5443 43.2236 46.2106 43.0413 45.7744C42.859 45.335 42.7678 44.736 42.7678 43.9775V39.8418H43.7151V43.9727C43.7151 44.5944 43.7721 45.0534 43.886 45.3496C44.0032 45.6426 44.2017 45.8688 44.4817 46.0283C44.7649 46.1878 45.1099 46.2676 45.5168 46.2676C46.2135 46.2676 46.7099 46.1097 47.0061 45.7939C47.3023 45.4782 47.4504 44.8711 47.4504 43.9727V39.8418ZM49.6575 44.7002L50.551 44.6221C50.5933 44.9801 50.691 45.2747 50.844 45.5059C51.0002 45.7337 51.2411 45.9193 51.5667 46.0625C51.8922 46.2025 52.2584 46.2725 52.6653 46.2725C53.0266 46.2725 53.3456 46.2188 53.6223 46.1113C53.899 46.0039 54.1041 45.8574 54.2375 45.6719C54.3743 45.4831 54.4426 45.278 54.4426 45.0566C54.4426 44.832 54.3775 44.6367 54.2473 44.4707C54.1171 44.3014 53.9023 44.1598 53.6028 44.0459C53.4107 43.971 52.9859 43.8555 52.3284 43.6992C51.6708 43.5397 51.2102 43.39 50.9465 43.25C50.6047 43.071 50.3492 42.8496 50.1799 42.5859C50.0139 42.319 49.9309 42.0212 49.9309 41.6924C49.9309 41.3311 50.0334 40.9941 50.2385 40.6816C50.4436 40.3659 50.7431 40.1266 51.137 39.9639C51.5308 39.8011 51.9687 39.7197 52.4504 39.7197C52.981 39.7197 53.4482 39.806 53.8518 39.9785C54.2587 40.1478 54.5712 40.3984 54.7893 40.7305C55.0074 41.0625 55.1246 41.4385 55.1409 41.8584L54.2327 41.9268C54.1838 41.4743 54.0178 41.1325 53.7346 40.9014C53.4547 40.6702 53.0396 40.5547 52.4895 40.5547C51.9166 40.5547 51.4983 40.6605 51.2346 40.8721C50.9742 41.0804 50.844 41.3327 50.844 41.6289C50.844 41.8861 50.9368 42.0977 51.1223 42.2637C51.3046 42.4297 51.7799 42.6006 52.5481 42.7764C53.3196 42.9489 53.8486 43.1003 54.135 43.2305C54.5517 43.4225 54.8593 43.6667 55.0579 43.9629C55.2564 44.2559 55.3557 44.5944 55.3557 44.9785C55.3557 45.3594 55.2467 45.7191 55.0286 46.0576C54.8105 46.3929 54.4963 46.6549 54.0862 46.8438C53.6793 47.0293 53.2203 47.1221 52.7092 47.1221C52.0614 47.1221 51.5178 47.0277 51.0784 46.8389C50.6422 46.6501 50.2987 46.3669 50.0481 45.9893C49.8007 45.6084 49.6705 45.1787 49.6575 44.7002ZM56.6497 47V39.8418H59.1155C59.6721 39.8418 60.0969 39.876 60.3899 39.9443C60.8 40.0387 61.15 40.2096 61.4397 40.457C61.8173 40.776 62.0989 41.1846 62.2844 41.6826C62.4732 42.1774 62.5676 42.7438 62.5676 43.3818C62.5676 43.9255 62.5042 44.4072 62.3772 44.8271C62.2502 45.2471 62.0875 45.5954 61.8889 45.8721C61.6903 46.1455 61.4722 46.362 61.2346 46.5215C61.0002 46.6777 60.7154 46.7965 60.3801 46.8779C60.0481 46.9593 59.6656 47 59.2327 47H56.6497ZM57.5969 46.1553H59.1252C59.5972 46.1553 59.9667 46.1113 60.2336 46.0234C60.5038 45.9355 60.7187 45.8118 60.8782 45.6523C61.1028 45.4277 61.2769 45.1266 61.4006 44.749C61.5276 44.3682 61.5911 43.9076 61.5911 43.3672C61.5911 42.6185 61.4674 42.0439 61.22 41.6436C60.9758 41.2399 60.678 40.9697 60.3264 40.833C60.0725 40.7354 59.664 40.6865 59.1008 40.6865H57.5969V46.1553ZM68.9836 44.4902L69.9309 44.7295C69.7323 45.5075 69.3743 46.1016 68.8567 46.5117C68.3424 46.9186 67.7125 47.1221 66.967 47.1221C66.1956 47.1221 65.5673 46.9658 65.0823 46.6533C64.6005 46.3376 64.2327 45.8818 63.9788 45.2861C63.7281 44.6904 63.6028 44.0508 63.6028 43.3672C63.6028 42.6217 63.7444 41.9723 64.0276 41.4189C64.314 40.8623 64.7193 40.4408 65.2434 40.1543C65.7708 39.8646 66.3502 39.7197 66.9817 39.7197C67.6978 39.7197 68.3 39.902 68.7883 40.2666C69.2766 40.6312 69.6168 41.1439 69.8088 41.8047L68.8762 42.0244C68.7102 41.5036 68.4693 41.1243 68.1536 40.8867C67.8378 40.6491 67.4407 40.5303 66.9622 40.5303C66.412 40.5303 65.9514 40.6621 65.5803 40.9258C65.2125 41.1895 64.9537 41.5443 64.804 41.9902C64.6542 42.4329 64.5793 42.8903 64.5793 43.3623C64.5793 43.971 64.6672 44.5033 64.843 44.959C65.0221 45.4115 65.2987 45.75 65.6731 45.9746C66.0474 46.1992 66.4527 46.3115 66.8889 46.3115C67.4195 46.3115 67.8687 46.1585 68.2366 45.8525C68.6044 45.5465 68.8534 45.0924 68.9836 44.4902ZM73.4221 45.4521L74.2913 45.3154C74.3401 45.6637 74.4752 45.9307 74.6965 46.1162C74.9211 46.3018 75.2336 46.3945 75.634 46.3945C76.0377 46.3945 76.3372 46.3132 76.5325 46.1504C76.7278 45.9844 76.8254 45.7907 76.8254 45.5693C76.8254 45.3708 76.7392 45.2145 76.5667 45.1006C76.4462 45.0225 76.1467 44.9232 75.6682 44.8027C75.0237 44.64 74.5761 44.5 74.3254 44.3828C74.078 44.2624 73.8892 44.098 73.759 43.8896C73.6321 43.6781 73.5686 43.4453 73.5686 43.1914C73.5686 42.9603 73.6207 42.7471 73.7249 42.5518C73.8323 42.3532 73.9771 42.1888 74.1594 42.0586C74.2961 41.9577 74.4817 41.873 74.7161 41.8047C74.9537 41.7331 75.2076 41.6973 75.4778 41.6973C75.8847 41.6973 76.2411 41.7559 76.5471 41.873C76.8564 41.9902 77.0842 42.1497 77.2307 42.3516C77.3772 42.5501 77.4781 42.8171 77.5334 43.1523L76.6741 43.2695C76.635 43.0026 76.5211 42.7943 76.3323 42.6445C76.1467 42.4948 75.8831 42.4199 75.5413 42.4199C75.1376 42.4199 74.8495 42.4867 74.677 42.6201C74.5045 42.7536 74.4182 42.9098 74.4182 43.0889C74.4182 43.2028 74.454 43.3053 74.5256 43.3965C74.5972 43.4909 74.7096 43.569 74.8625 43.6309C74.9504 43.6634 75.2092 43.7383 75.6389 43.8555C76.2607 44.0215 76.6936 44.1582 76.9377 44.2656C77.1851 44.3698 77.3788 44.5228 77.5188 44.7246C77.6588 44.9264 77.7288 45.1771 77.7288 45.4766C77.7288 45.7695 77.6425 46.0462 77.47 46.3066C77.3007 46.5638 77.0549 46.764 76.7327 46.9072C76.4104 47.0472 76.0458 47.1172 75.6389 47.1172C74.9651 47.1172 74.4508 46.9772 74.0959 46.6973C73.7444 46.4173 73.5198 46.0023 73.4221 45.4521ZM80.6926 46.2139L80.8196 46.9902C80.5722 47.0423 80.3508 47.0684 80.1555 47.0684C79.8365 47.0684 79.5891 47.0179 79.4133 46.917C79.2375 46.8161 79.1139 46.6842 79.0422 46.5215C78.9706 46.3555 78.9348 46.0088 78.9348 45.4814V42.498H78.2903V41.8145H78.9348V40.5303L79.8088 40.0029V41.8145H80.6926V42.498H79.8088V45.5303C79.8088 45.7809 79.8235 45.9421 79.8528 46.0137C79.8853 46.0853 79.9358 46.1423 80.0042 46.1846C80.0758 46.2269 80.1767 46.248 80.3069 46.248C80.4045 46.248 80.5331 46.2367 80.6926 46.2139ZM84.9407 46.3604C84.6152 46.637 84.301 46.8324 83.9983 46.9463C83.6988 47.0602 83.3765 47.1172 83.0315 47.1172C82.4618 47.1172 82.024 46.9788 81.718 46.7021C81.412 46.4222 81.259 46.0658 81.259 45.6328C81.259 45.3789 81.316 45.1478 81.4299 44.9395C81.5471 44.7279 81.6985 44.5586 81.884 44.4316C82.0728 44.3047 82.2844 44.2087 82.5188 44.1436C82.6913 44.098 82.9517 44.054 83.3 44.0117C84.0097 43.9271 84.5321 43.8262 84.8674 43.709C84.8707 43.5885 84.8723 43.512 84.8723 43.4795C84.8723 43.1214 84.7893 42.8691 84.6233 42.7227C84.3987 42.5241 84.065 42.4248 83.6223 42.4248C83.2089 42.4248 82.9029 42.498 82.7043 42.6445C82.509 42.7878 82.3642 43.0433 82.2698 43.4111L81.4104 43.2939C81.4885 42.9261 81.6171 42.6299 81.7961 42.4053C81.9752 42.1774 82.234 42.0033 82.5725 41.8828C82.9111 41.7591 83.3033 41.6973 83.7493 41.6973C84.192 41.6973 84.5517 41.7493 84.8284 41.8535C85.1051 41.9577 85.3085 42.0895 85.4387 42.249C85.5689 42.4053 85.6601 42.6038 85.7122 42.8447C85.7415 42.9945 85.7561 43.2646 85.7561 43.6553V44.8271C85.7561 45.6442 85.774 46.1618 85.8098 46.3799C85.8489 46.5947 85.9237 46.8014 86.0344 47H85.1165C85.0253 46.8177 84.9667 46.6045 84.9407 46.3604ZM84.8674 44.3975C84.5484 44.5277 84.0699 44.6383 83.4319 44.7295C83.0706 44.7816 82.815 44.8402 82.6653 44.9053C82.5155 44.9704 82.4 45.0664 82.3186 45.1934C82.2372 45.3171 82.1965 45.4554 82.1965 45.6084C82.1965 45.8428 82.2844 46.0381 82.4602 46.1943C82.6392 46.3506 82.8997 46.4287 83.2415 46.4287C83.58 46.4287 83.8811 46.3555 84.1448 46.209C84.4084 46.0592 84.6021 45.8558 84.7258 45.5986C84.8202 45.4001 84.8674 45.1071 84.8674 44.7197V44.3975ZM87.9338 47H87.1184V39.8418H87.9973V42.3955C88.3684 41.93 88.842 41.6973 89.4182 41.6973C89.7372 41.6973 90.0383 41.7624 90.3215 41.8926C90.608 42.0195 90.8424 42.2002 91.0247 42.4346C91.2102 42.6657 91.3551 42.9456 91.4592 43.2744C91.5634 43.6032 91.6155 43.9548 91.6155 44.3291C91.6155 45.2178 91.3958 45.9046 90.9563 46.3896C90.5168 46.8747 89.9895 47.1172 89.3743 47.1172C88.7623 47.1172 88.2821 46.8617 87.9338 46.3506V47ZM87.9241 44.3682C87.9241 44.9899 88.0087 45.4391 88.178 45.7158C88.4547 46.1683 88.829 46.3945 89.301 46.3945C89.6851 46.3945 90.0172 46.2285 90.2971 45.8965C90.5771 45.5612 90.717 45.0632 90.717 44.4023C90.717 43.7253 90.5819 43.2256 90.3118 42.9033C90.0448 42.5811 89.7209 42.4199 89.3401 42.4199C88.956 42.4199 88.6239 42.5876 88.344 42.9229C88.064 43.2549 87.9241 43.7367 87.9241 44.3682ZM92.6702 47V39.8418H93.5491V47H92.6702ZM98.4661 45.3301L99.3743 45.4424C99.231 45.973 98.9657 46.3848 98.5784 46.6777C98.191 46.9707 97.6962 47.1172 97.094 47.1172C96.3355 47.1172 95.7333 46.8844 95.2874 46.4189C94.8446 45.9502 94.6233 45.2943 94.6233 44.4512C94.6233 43.5788 94.8479 42.9017 95.2971 42.4199C95.7463 41.9382 96.329 41.6973 97.0452 41.6973C97.7385 41.6973 98.3049 41.9333 98.7444 42.4053C99.1838 42.8773 99.4036 43.5413 99.4036 44.3975C99.4036 44.4495 99.4019 44.5277 99.3987 44.6318H95.5315C95.564 45.2015 95.7252 45.6377 96.0149 45.9404C96.3046 46.2432 96.6659 46.3945 97.0989 46.3945C97.4211 46.3945 97.6962 46.3099 97.9241 46.1406C98.1519 45.9714 98.3326 45.7012 98.4661 45.3301ZM95.5803 43.9092H98.4758C98.4368 43.473 98.3261 43.1458 98.1438 42.9277C97.8639 42.5892 97.5009 42.4199 97.0549 42.4199C96.6513 42.4199 96.3111 42.555 96.0344 42.8252C95.761 43.0954 95.6096 43.4567 95.5803 43.9092ZM103.866 45.1006L104.731 45.2129C104.636 45.8086 104.394 46.2757 104.003 46.6143C103.616 46.9495 103.139 47.1172 102.573 47.1172C101.863 47.1172 101.292 46.8861 100.859 46.4238C100.429 45.9583 100.214 45.2926 100.214 44.4268C100.214 43.8669 100.307 43.377 100.492 42.957C100.678 42.5371 100.96 42.223 101.337 42.0146C101.718 41.8031 102.131 41.6973 102.577 41.6973C103.141 41.6973 103.601 41.8405 103.959 42.127C104.317 42.4102 104.547 42.8138 104.648 43.3379L103.793 43.4697C103.712 43.1214 103.567 42.8594 103.359 42.6836C103.154 42.5078 102.905 42.4199 102.612 42.4199C102.169 42.4199 101.809 42.5794 101.532 42.8984C101.256 43.2142 101.117 43.7155 101.117 44.4023C101.117 45.099 101.251 45.6051 101.518 45.9209C101.785 46.2367 102.133 46.3945 102.563 46.3945C102.908 46.3945 103.196 46.2887 103.427 46.0771C103.658 45.8656 103.805 45.54 103.866 45.1006ZM105.156 44.4072C105.156 43.4469 105.422 42.7357 105.956 42.2734C106.402 41.8893 106.946 41.6973 107.587 41.6973C108.3 41.6973 108.883 41.9316 109.335 42.4004C109.788 42.8659 110.014 43.5104 110.014 44.334C110.014 45.0013 109.913 45.527 109.711 45.9111C109.513 46.292 109.221 46.5882 108.837 46.7998C108.456 47.0114 108.04 47.1172 107.587 47.1172C106.861 47.1172 106.274 46.8844 105.824 46.4189C105.378 45.9535 105.156 45.2829 105.156 44.4072ZM106.059 44.4072C106.059 45.0713 106.204 45.5693 106.493 45.9014C106.783 46.2301 107.148 46.3945 107.587 46.3945C108.023 46.3945 108.386 46.2285 108.676 45.8965C108.966 45.5645 109.111 45.0583 109.111 44.3779C109.111 43.7367 108.964 43.2516 108.671 42.9229C108.381 42.5908 108.02 42.4248 107.587 42.4248C107.148 42.4248 106.783 42.5892 106.493 42.918C106.204 43.2467 106.059 43.7432 106.059 44.4072ZM111.054 40.8525V39.8418H111.933V40.8525H111.054ZM111.054 47V41.8145H111.933V47H111.054ZM113.276 47V41.8145H114.067V42.5518C114.448 41.9821 114.998 41.6973 115.717 41.6973C116.03 41.6973 116.316 41.7542 116.576 41.8682C116.84 41.9788 117.037 42.1253 117.167 42.3076C117.297 42.4899 117.389 42.7064 117.441 42.957C117.473 43.1198 117.49 43.4046 117.49 43.8115V47H116.611V43.8457C116.611 43.4876 116.576 43.2207 116.508 43.0449C116.44 42.8659 116.318 42.7243 116.142 42.6201C115.969 42.5127 115.766 42.459 115.531 42.459C115.157 42.459 114.833 42.5778 114.56 42.8154C114.29 43.0531 114.155 43.5039 114.155 44.168V47H113.276ZM118.49 45.4521L119.36 45.3154C119.408 45.6637 119.544 45.9307 119.765 46.1162C119.99 46.3018 120.302 46.3945 120.702 46.3945C121.106 46.3945 121.406 46.3132 121.601 46.1504C121.796 45.9844 121.894 45.7907 121.894 45.5693C121.894 45.3708 121.808 45.2145 121.635 45.1006C121.515 45.0225 121.215 44.9232 120.737 44.8027C120.092 44.64 119.644 44.5 119.394 44.3828C119.146 44.2624 118.958 44.098 118.827 43.8896C118.7 43.6781 118.637 43.4453 118.637 43.1914C118.637 42.9603 118.689 42.7471 118.793 42.5518C118.901 42.3532 119.045 42.1888 119.228 42.0586C119.365 41.9577 119.55 41.873 119.784 41.8047C120.022 41.7331 120.276 41.6973 120.546 41.6973C120.953 41.6973 121.309 41.7559 121.615 41.873C121.925 41.9902 122.153 42.1497 122.299 42.3516C122.446 42.5501 122.546 42.8171 122.602 43.1523L121.742 43.2695C121.703 43.0026 121.589 42.7943 121.401 42.6445C121.215 42.4948 120.951 42.4199 120.61 42.4199C120.206 42.4199 119.918 42.4867 119.745 42.6201C119.573 42.7536 119.487 42.9098 119.487 43.0889C119.487 43.2028 119.522 43.3053 119.594 43.3965C119.666 43.4909 119.778 43.569 119.931 43.6309C120.019 43.6634 120.278 43.7383 120.707 43.8555C121.329 44.0215 121.762 44.1582 122.006 44.2656C122.253 44.3698 122.447 44.5228 122.587 44.7246C122.727 44.9264 122.797 45.1771 122.797 45.4766C122.797 45.7695 122.711 46.0462 122.538 46.3066C122.369 46.5638 122.123 46.764 121.801 46.9072C121.479 47.0472 121.114 47.1172 120.707 47.1172C120.033 47.1172 119.519 46.9772 119.164 46.6973C118.813 46.4173 118.588 46.0023 118.49 45.4521Z" fill="#9A9A9A"/>
<defs>
<filter id="filter0_i_199_90" x="0" y="0" width="161" height="84" filterUnits="userSpaceOnUse" color-interpolation-filters="sRGB">
<feFlood flood-opacity="0" result="BackgroundImageFix"/>
<feBlend mode="normal" in="SourceGraphic" in2="BackgroundImageFix" result="shape"/>
<feColorMatrix in="SourceAlpha" type="matrix" values="0 0 0 0 0 0 0 0 0 0 0 0 0 0 0 0 0 0 127 0" result="hardAlpha"/>
<feOffset dx="3" dy="3"/>
<feGaussianBlur stdDeviation="7.5"/>
<feComposite in2="hardAlpha" operator="arithmetic" k2="-1" k3="1"/>
<feColorMatrix type="matrix" values="0 0 0 0 0 0 0 0 0 0.616667 0 0 0 0 1 0 0 0 0.6 0"/>
<feBlend mode="normal" in2="shape" result="effect1_innerShadow_199_90"/>
</filter>
<linearGradient id="paint0_linear_199_90" x1="79" y1="0" x2="79" y2="74" gradientUnits="userSpaceOnUse">
<stop stop-color="#0065FE" stop-opacity="0.5"/>
<stop offset="1" stop-color="#024D9D" stop-opacity="0.5"/>
</linearGradient>
</defs>
</svg>
