<svg width="158" height="81" viewBox="0 0 158 81" fill="none" xmlns="http://www.w3.org/2000/svg">
<g filter="url(#filter0_i_848_451)">
<path d="M0 4C0 1.79086 1.79086 0 4 0H154C156.209 0 158 1.79086 158 4V77C158 79.2091 156.209 81 154 81H4C1.79086 81 0 79.2091 0 77V4Z" fill="url(#paint0_linear_848_451)"/>
</g>
<path d="M133.756 55.528C135.748 55.528 137.308 56.344 138.436 58.024C139.492 59.608 140.02 61.744 140.02 64.432C140.02 67.12 139.492 69.256 138.436 70.84C137.308 72.496 135.748 73.336 133.756 73.336C131.74 73.336 130.18 72.496 129.076 70.84C128.02 69.256 127.492 67.12 127.492 64.432C127.492 61.744 128.02 59.608 129.076 58.024C130.18 56.344 131.74 55.528 133.756 55.528ZM133.756 57.904C132.388 57.904 131.428 58.648 130.876 60.184C130.492 61.216 130.3 62.632 130.3 64.432C130.3 66.208 130.492 67.624 130.876 68.68C131.428 70.192 132.388 70.96 133.756 70.96C135.1 70.96 136.06 70.192 136.636 68.68C137.02 67.624 137.212 66.208 137.212 64.432C137.212 62.632 137.02 61.216 136.636 60.184C136.06 58.648 135.1 57.904 133.756 57.904ZM148.314 55.528C150.042 55.528 151.458 55.936 152.514 56.776C153.546 57.616 154.074 58.768 154.074 60.256C154.074 62.128 153.114 63.376 151.218 64C152.226 64.312 153.018 64.768 153.546 65.392C154.122 66.04 154.41 66.88 154.41 67.888C154.41 69.472 153.858 70.768 152.754 71.776C151.602 72.808 150.09 73.336 148.218 73.336C146.442 73.336 145.002 72.88 143.922 71.968C142.722 70.96 142.05 69.472 141.906 67.552H144.762C144.81 68.656 145.146 69.52 145.818 70.12C146.418 70.672 147.21 70.96 148.194 70.96C149.274 70.96 150.138 70.648 150.762 70.048C151.314 69.496 151.602 68.824 151.602 68.008C151.602 67.024 151.29 66.304 150.714 65.848C150.138 65.368 149.298 65.152 148.194 65.152H146.994V63.04H148.194C149.202 63.04 149.97 62.824 150.498 62.392C151.002 61.96 151.266 61.312 151.266 60.472C151.266 59.632 151.026 59.008 150.57 58.576C150.066 58.144 149.322 57.928 148.338 57.928C147.33 57.928 146.562 58.168 146.01 58.672C145.434 59.176 145.098 59.944 145.002 60.976H142.242C142.386 59.248 143.01 57.904 144.162 56.944C145.242 55.984 146.634 55.528 148.314 55.528Z" fill="#93CBFF" fill-opacity="0.5"/>
<path d="M14.492 24.434V26.8H16.746V24.434H14.492ZM16.746 23.496V20.99H14.492V23.496H16.746ZM14.464 27.752C14.352 29.642 13.96 31.196 13.302 32.428L12.546 31.742C13.218 30.454 13.554 28.83 13.568 26.856V20.094H17.684V31.238C17.684 31.966 17.278 32.33 16.466 32.33H15.374L15.136 31.462C15.514 31.49 15.864 31.504 16.186 31.504C16.55 31.504 16.746 31.294 16.746 30.902V27.752H14.464ZM18.482 25.526H24.404V26.464C24.026 27.808 23.41 28.956 22.542 29.894C23.34 30.51 24.32 31.056 25.496 31.532L24.964 32.4C23.746 31.854 22.71 31.238 21.87 30.538C20.96 31.308 19.854 31.924 18.566 32.386L18.006 31.532C19.224 31.098 20.26 30.538 21.1 29.838C20.148 28.858 19.49 27.738 19.154 26.506H18.482V25.526ZM20.092 26.506C20.4 27.514 20.96 28.41 21.772 29.222C22.514 28.438 23.074 27.542 23.438 26.506H20.092ZM19.35 20.108H23.718V23.132C23.718 23.426 23.844 23.58 24.124 23.58H25.272V24.518H23.872C23.102 24.518 22.724 24.112 22.724 23.328V21.06H20.344V21.872C20.344 23.216 19.854 24.266 18.874 25.008L18.202 24.238C18.958 23.706 19.35 22.95 19.35 21.97V20.108ZM26.784 20.108H39.216V20.99H35.002V22.11H38.208V25.218H27.806V22.11H31.012V20.99H26.784V20.108ZM34.05 22.11V20.99H31.964V22.11H34.05ZM37.242 24.392V22.95H35.002V24.392H37.242ZM34.05 24.392V22.95H31.964V24.392H34.05ZM31.012 24.392V22.95H28.772V24.392H31.012ZM28.394 26.254H37.676V27.094H28.394V26.254ZM27.008 28.116H38.992V28.998H33.644V31.182C33.644 31.952 33.224 32.344 32.384 32.344H31.124L30.928 31.448C31.32 31.476 31.698 31.504 32.062 31.504C32.454 31.504 32.664 31.322 32.664 30.958V28.998H27.008V28.116ZM35.87 29.474C37.158 30.16 38.236 30.846 39.104 31.532L38.404 32.232C37.634 31.56 36.57 30.86 35.198 30.104L35.87 29.474ZM30.41 29.502L31.068 30.104C30.13 30.916 28.982 31.616 27.61 32.218L27.008 31.434C28.352 30.874 29.486 30.23 30.41 29.502ZM45.838 20.122V28.914H44.942V21.06H42.044V28.914H41.134V20.122H45.838ZM47.826 19.52L48.806 19.646C48.666 20.318 48.498 20.962 48.302 21.564H52.936C52.936 26.436 52.852 29.418 52.712 30.538C52.572 31.686 51.928 32.26 50.808 32.26C50.43 32.26 49.772 32.246 48.848 32.218L48.61 31.308C49.394 31.336 50.066 31.364 50.654 31.364C51.27 31.364 51.634 31 51.746 30.272C51.858 29.446 51.928 26.87 51.956 22.544H47.91C47.532 23.384 47.07 24.154 46.51 24.84L45.894 24.042C46.846 22.81 47.49 21.312 47.826 19.52ZM49.982 25.722C50.458 26.842 50.892 28.06 51.312 29.376L50.486 29.796C50.374 29.432 50.276 29.096 50.178 28.788C49.086 29.04 47.896 29.222 46.594 29.362L46.426 28.494C46.958 28.074 47.63 26.506 48.428 23.79L49.338 24.084C48.736 25.904 48.148 27.346 47.574 28.41C48.4 28.298 49.184 28.158 49.912 27.976C49.688 27.304 49.45 26.674 49.212 26.1L49.982 25.722ZM43.066 22.082H43.906V26.674C43.878 28.228 43.654 29.46 43.22 30.384C42.8 31.252 42.114 31.924 41.162 32.414L40.63 31.574C41.526 31.112 42.156 30.51 42.52 29.754C42.856 28.97 43.038 27.934 43.066 26.674V22.082ZM44.48 29.334C45.264 30.09 45.922 30.846 46.454 31.602L45.726 32.316C45.278 31.588 44.648 30.804 43.836 29.964L44.48 29.334ZM56.156 24.014C57.22 24.448 58.2 24.966 59.082 25.568L58.564 26.38C57.626 25.68 56.66 25.12 55.666 24.728L56.156 24.014ZM57.444 22.054C58.508 22.488 59.46 23.006 60.328 23.622L59.81 24.42C58.886 23.72 57.948 23.16 56.968 22.768L57.444 22.054ZM61.308 22.054H62.302V24.994C62.274 25.764 62.176 26.464 62.022 27.108H67.23V28.088H61.686C61.588 28.312 61.476 28.536 61.364 28.746C63.408 29.642 65.256 30.608 66.922 31.672L66.236 32.428C64.5 31.322 62.708 30.342 60.86 29.502C60.79 29.586 60.72 29.684 60.65 29.768C59.628 30.874 57.962 31.742 55.652 32.358L55.078 31.462C57.402 30.86 59.012 30.062 59.936 29.068C60.188 28.76 60.398 28.438 60.566 28.088H55.008V27.108H60.972C61.168 26.464 61.28 25.75 61.308 24.994V22.054ZM55.54 20.388H66.208V21.018C65.998 21.858 65.718 22.684 65.382 23.51L64.43 23.244C64.724 22.67 64.962 22.026 65.158 21.326H55.54V20.388Z" fill="white"/>
<path d="M15.5519 45.49H17.8419V43.63H18.5719V45.49H20.9619V46.19H18.5719V48.95H21.4119V49.66H15.1419V48.95H17.8419V46.19H15.5519V45.49ZM13.9419 45.93C13.5719 46.31 13.1819 46.68 12.7619 47.03L12.3119 46.44C13.5619 45.41 14.5319 44.23 15.2319 42.9H12.6619V42.19H15.5719C15.7719 41.73 15.9519 41.25 16.0919 40.76L16.8419 40.85C16.7019 41.31 16.5519 41.76 16.3719 42.19H21.4019V42.9H16.0519C15.6619 43.69 15.1919 44.43 14.6519 45.11V50.03H13.9419V45.93ZM22.9119 41.56H26.7219L26.8119 40.8L27.5419 40.9C27.5219 41.12 27.4919 41.34 27.4619 41.56H31.0119V42.19H27.3519C27.3119 42.41 27.2619 42.63 27.2119 42.85H30.0619V47.56H31.3819V48.21H28.4019C29.4419 48.56 30.3919 48.98 31.2419 49.47L30.8719 50.04C29.9519 49.46 29.0119 49.01 28.0419 48.69L28.3619 48.21H25.5019L25.9219 48.69C25.1619 49.23 24.2219 49.68 23.0819 50.03L22.7819 49.42C23.8819 49.11 24.7819 48.71 25.4819 48.21H22.5419V47.56H24.0219V42.85H26.4819C26.5319 42.63 26.5819 42.41 26.6219 42.19H22.9119V41.56ZM24.7119 47.56H29.3719V46.92H24.7119V47.56ZM24.7119 46.37H29.3719V45.76H24.7119V46.37ZM24.7119 45.22H29.3719V44.61H24.7119V45.22ZM24.7119 44.06H29.3719V43.43H24.7119V44.06ZM37.0119 48C36.2019 48.86 34.8819 49.53 33.0519 50.01L32.6519 49.4C34.5119 48.92 35.8119 48.27 36.5519 47.47C36.6719 47.33 36.7719 47.18 36.8719 47.02H32.7419V46.34H37.2219C37.4819 45.72 37.6219 45.01 37.6519 44.22V43.04H38.3519V44.22C38.3219 45.01 38.2019 45.72 37.9819 46.34H41.1919V47.02H37.6819C37.5919 47.18 37.5019 47.33 37.4119 47.47C38.8319 48.03 40.1419 48.68 41.3219 49.44L40.9319 50.06C39.6519 49.2 38.3519 48.52 37.0119 48ZM34.0719 44.41C34.8019 44.72 35.4719 45.09 36.0719 45.51L35.7019 46.08C35.0619 45.6 34.3919 45.22 33.7119 44.95L34.0719 44.41ZM34.9719 42.98C35.7219 43.29 36.4119 43.67 37.0319 44.12L36.6619 44.69C35.9919 44.19 35.3019 43.8 34.6019 43.52L34.9719 42.98ZM41.0219 41.81V43.73H40.3219V42.48H33.5819V43.73H32.8819V41.81H36.6819C36.5619 41.47 36.4219 41.17 36.2719 40.89L37.0119 40.77C37.1419 41.07 37.2719 41.42 37.4019 41.81H41.0219ZM42.5319 41.98H46.5719C46.4119 41.56 46.2319 41.19 46.0519 40.85L46.8219 40.73C46.9819 41.1 47.1419 41.52 47.3019 41.98H51.3919V42.67H47.3319V43.98H50.5819V47.61C50.5819 48.21 50.2719 48.52 49.6719 48.52H48.6719L48.4919 47.83L49.4419 47.87C49.7219 47.87 49.8619 47.73 49.8619 47.45V44.67H47.3319V49.98H46.5919V44.67H44.1819V48.59H43.4719V43.98H46.5919V42.67H42.5319V41.98ZM57.6019 44.97H56.1319V44.3C57.3419 43.6 58.4519 42.85 59.4719 42.06H56.2519V41.4H60.5219V42.03C59.5619 42.85 58.5019 43.61 57.3619 44.33H61.2019C61.1419 46.66 61.0319 48.16 60.8719 48.83C60.7019 49.51 60.2519 49.85 59.5119 49.87C59.1819 49.87 58.8619 49.86 58.5519 49.85L58.3519 49.15C58.7119 49.17 59.0619 49.19 59.4019 49.19C59.7919 49.18 60.0619 49 60.2019 48.64C60.3319 48.32 60.4219 47.09 60.4819 44.97H59.7619C59.5219 46.18 59.1619 47.13 58.7019 47.83C58.1819 48.58 57.4019 49.25 56.3619 49.85L55.9219 49.29C56.8719 48.76 57.5919 48.17 58.0819 47.53C58.5319 46.89 58.8619 46.03 59.0719 44.97H58.2819C57.9119 46.23 57.2719 47.21 56.3719 47.91L55.9219 47.36C56.7219 46.74 57.2819 45.95 57.6019 44.97ZM52.4719 43.6H53.6719V41.05H54.4119V43.6H55.6619V44.29H54.4119V47.78C54.8519 47.65 55.2719 47.51 55.6819 47.35V48.1C54.7119 48.47 53.6619 48.78 52.5419 49.03L52.3519 48.27C52.8019 48.19 53.2419 48.09 53.6719 47.99V44.29H52.4719V43.6ZM66.5919 40.79H67.3319V42.59H70.9219V47.29H70.2019V46.66H67.3319V50.07H66.5919V46.66H63.7319V47.29H63.0119V42.59H66.5919V40.79ZM63.7319 45.96H66.5919V43.29H63.7319V45.96ZM67.3319 45.96H70.2019V43.29H67.3319V45.96ZM80.6219 49.94C80.1819 49.93 79.8519 49.65 79.6419 49.11C79.4219 48.56 79.3219 47.44 79.3219 45.75V43.23H77.9119V44.33C77.9019 44.89 77.8619 45.41 77.7919 45.9C78.2619 46.24 78.7119 46.6 79.1319 46.99L78.7219 47.61C78.3619 47.26 78.0019 46.95 77.6519 46.68C77.3119 48.1 76.6819 49.2 75.7419 50L75.2019 49.53C76.1319 48.75 76.7319 47.64 77.0119 46.2C76.5919 45.9 76.1719 45.65 75.7519 45.43L76.1419 44.85C76.4819 45.03 76.8019 45.23 77.1219 45.43C77.1519 45.07 77.1719 44.71 77.1819 44.33V43.23H75.9019V42.53H77.1819V40.85H77.9119V42.53H80.0319V45.75C80.0319 47.18 80.0719 48.09 80.1719 48.48C80.2519 48.88 80.3719 49.08 80.5519 49.08C80.6519 49.08 80.7519 48.89 80.8319 48.52C80.8919 48.2 80.9519 47.8 81.0119 47.33L81.6219 47.62C81.4819 48.54 81.3319 49.17 81.1619 49.49C81.0019 49.79 80.8219 49.94 80.6219 49.94ZM73.5919 49.91H72.6319L72.4819 49.21C72.7819 49.23 73.0619 49.25 73.3419 49.25C73.6219 49.25 73.7719 49.11 73.7719 48.84V46.39C73.3519 46.54 72.9319 46.68 72.4919 46.81L72.3119 46.13C72.8119 46.01 73.3019 45.87 73.7719 45.7V43.44H72.5019V42.75H73.7719V40.86H74.5019V42.75H75.4419V43.44H74.5019V45.42C74.8419 45.28 75.1719 45.12 75.5019 44.95V45.67C75.1719 45.83 74.8419 45.97 74.5019 46.11V49.02C74.5019 49.61 74.1919 49.91 73.5919 49.91ZM86.2119 41.47H91.0019V42.18H86.2119V41.47ZM85.9419 44.01H91.4419V44.72H89.8219V49.09C89.8219 49.67 89.4919 49.96 88.8519 49.96H87.3819L87.2319 49.25C87.7119 49.28 88.1619 49.3 88.6019 49.3C88.9219 49.3 89.0919 49.17 89.0919 48.91V44.72H85.9419V44.01ZM84.6319 40.92L85.2819 41.22C84.7219 42.33 83.8219 43.31 82.5819 44.16L82.3719 43.44C83.4119 42.7 84.1619 41.86 84.6319 40.92ZM85.1019 43.2L85.7519 43.5C85.4619 44.06 85.1019 44.6 84.6619 45.1V50H83.9519V45.83C83.5519 46.19 83.1219 46.54 82.6419 46.87L82.4319 46.15C83.6519 45.29 84.5419 44.31 85.1019 43.2ZM93.7419 44.31V46H95.3519V44.31H93.7419ZM95.3519 43.64V41.85H93.7419V43.64H95.3519ZM93.7219 46.68C93.6419 48.03 93.3619 49.14 92.8919 50.02L92.3519 49.53C92.8319 48.61 93.0719 47.45 93.0819 46.04V41.21H96.0219V49.17C96.0219 49.69 95.7319 49.95 95.1519 49.95H94.3719L94.2019 49.33C94.4719 49.35 94.7219 49.36 94.9519 49.36C95.2119 49.36 95.3519 49.21 95.3519 48.93V46.68H93.7219ZM96.5919 45.09H100.822V45.76C100.552 46.72 100.112 47.54 99.4919 48.21C100.062 48.65 100.762 49.04 101.602 49.38L101.222 50C100.352 49.61 99.6119 49.17 99.0119 48.67C98.3619 49.22 97.5719 49.66 96.6519 49.99L96.2519 49.38C97.1219 49.07 97.8619 48.67 98.4619 48.17C97.7819 47.47 97.3119 46.67 97.0719 45.79H96.5919V45.09ZM97.7419 45.79C97.9619 46.51 98.3619 47.15 98.9419 47.73C99.4719 47.17 99.8719 46.53 100.132 45.79H97.7419ZM97.2119 41.22H100.332V43.38C100.332 43.59 100.422 43.7 100.622 43.7H101.442V44.37H100.442C99.8919 44.37 99.6219 44.08 99.6219 43.52V41.9H97.9219V42.48C97.9219 43.44 97.5719 44.19 96.8719 44.72L96.3919 44.17C96.9319 43.79 97.2119 43.25 97.2119 42.55V41.22ZM102.522 41.22H111.402V41.85H108.392V42.65H110.682V44.87H103.252V42.65H105.542V41.85H102.522V41.22ZM107.712 42.65V41.85H106.222V42.65H107.712ZM109.992 44.28V43.25H108.392V44.28H109.992ZM107.712 44.28V43.25H106.222V44.28H107.712ZM105.542 44.28V43.25H103.942V44.28H105.542ZM103.672 45.61H110.302V46.21H103.672V45.61ZM102.682 46.94H111.242V47.57H107.422V49.13C107.422 49.68 107.122 49.96 106.522 49.96H105.622L105.482 49.32C105.762 49.34 106.032 49.36 106.292 49.36C106.572 49.36 106.722 49.23 106.722 48.97V47.57H102.682V46.94ZM109.012 47.91C109.932 48.4 110.702 48.89 111.322 49.38L110.822 49.88C110.272 49.4 109.512 48.9 108.532 48.36L109.012 47.91ZM105.112 47.93L105.582 48.36C104.912 48.94 104.092 49.44 103.112 49.87L102.682 49.31C103.642 48.91 104.452 48.45 105.112 47.93ZM112.542 42.02H116.672C116.492 41.61 116.292 41.24 116.072 40.9L116.872 40.76C117.072 41.14 117.272 41.56 117.452 42.02H121.392V42.71H112.542V42.02ZM118.542 43.01C119.652 43.89 120.582 44.76 121.332 45.64L120.802 46.17C120.142 45.33 119.222 44.44 118.052 43.48L118.542 43.01ZM118.642 44.88L119.302 45.17C118.822 46.09 118.242 46.88 117.552 47.55C118.632 48.33 119.942 48.91 121.502 49.31L121.052 49.98C119.432 49.52 118.082 48.88 117.002 48.04C115.882 48.94 114.522 49.6 112.922 50.02L112.482 49.36C114.062 48.96 115.372 48.36 116.422 47.56C115.692 46.9 115.092 46.14 114.622 45.3L115.242 44.95C115.682 45.77 116.262 46.48 116.972 47.09C117.652 46.45 118.212 45.72 118.642 44.88ZM115.322 43.02L115.842 43.48C115.082 44.47 114.142 45.34 113.022 46.08L112.562 45.47C113.652 44.77 114.572 43.96 115.322 43.02ZM125.312 44.72H123.922V41.2H130.052V44.72H126.122C125.942 45 125.722 45.27 125.482 45.53H130.782C130.752 46.6 130.692 47.47 130.602 48.13C130.502 48.78 130.352 49.24 130.142 49.5C129.932 49.74 129.592 49.88 129.112 49.9H127.822L127.632 49.23C128.032 49.25 128.412 49.26 128.772 49.26C129.262 49.26 129.582 49.07 129.742 48.69C129.902 48.29 130.002 47.45 130.052 46.17H129.092C128.232 48.09 126.862 49.35 124.972 49.97L124.562 49.37C126.322 48.81 127.592 47.75 128.362 46.17H127.042C126.342 47.29 125.212 48.16 123.642 48.78L123.192 48.23C124.632 47.7 125.662 47.01 126.292 46.17H124.762C124.272 46.54 123.702 46.88 123.042 47.18L122.652 46.54C123.862 46.06 124.752 45.46 125.312 44.72ZM129.342 44.11V43.25H124.632V44.11H129.342ZM124.632 42.67H129.342V41.82H124.632V42.67Z" fill="#9A9A9A"/>
<defs>
<filter id="filter0_i_848_451" x="0" y="0" width="161" height="84" filterUnits="userSpaceOnUse" color-interpolation-filters="sRGB">
<feFlood flood-opacity="0" result="BackgroundImageFix"/>
<feBlend mode="normal" in="SourceGraphic" in2="BackgroundImageFix" result="shape"/>
<feColorMatrix in="SourceAlpha" type="matrix" values="0 0 0 0 0 0 0 0 0 0 0 0 0 0 0 0 0 0 127 0" result="hardAlpha"/>
<feOffset dx="3" dy="3"/>
<feGaussianBlur stdDeviation="7.5"/>
<feComposite in2="hardAlpha" operator="arithmetic" k2="-1" k3="1"/>
<feColorMatrix type="matrix" values="0 0 0 0 0 0 0 0 0 0.616667 0 0 0 0 1 0 0 0 0.6 0"/>
<feBlend mode="normal" in2="shape" result="effect1_innerShadow_848_451"/>
</filter>
<linearGradient id="paint0_linear_848_451" x1="79" y1="0" x2="79" y2="74" gradientUnits="userSpaceOnUse">
<stop stop-color="#0065FE" stop-opacity="0.5"/>
<stop offset="1" stop-color="#024D9D" stop-opacity="0.5"/>
</linearGradient>
</defs>
</svg>
