<svg width="111" height="16" viewBox="0 0 111 16" fill="none" xmlns="http://www.w3.org/2000/svg">
<path d="M0.352281 3.13612H2.54428V0.192124H4.20828V3.13612H6.00028V4.75212H4.20828V5.34412C4.91228 6.03212 5.63228 6.80012 6.35228 7.63212L5.37628 9.10413C4.92828 8.30412 4.54428 7.61612 4.20828 7.05612V14.9281H2.54428V7.68012C2.04828 8.99212 1.44028 10.2081 0.720281 11.3281L0.000281274 9.50412C1.12028 8.12812 1.93628 6.54412 2.46428 4.75212H0.352281V3.13612ZM5.00828 13.9041C5.64828 12.9441 6.11228 11.9201 6.36828 10.8641C6.57628 9.95212 6.68828 8.59212 6.68828 6.78412V0.688125H12.3203V12.8321C12.3203 12.9761 12.3683 13.0561 12.4803 13.0561H12.9603C13.0883 13.0561 13.1843 13.0241 13.2483 12.9601C13.3123 12.8961 13.3443 12.8001 13.3763 12.6881C13.4403 12.4641 13.4723 11.4881 13.4723 9.79212L15.0083 10.2721C15.0083 11.4881 14.9603 12.4161 14.8963 13.0241C14.8323 13.6321 14.6723 14.0481 14.4163 14.3041C14.1603 14.5121 13.7443 14.6241 13.1843 14.6241H12.4643C11.2323 14.6241 10.6243 14.0801 10.6243 13.0241V2.25612H8.35228V6.78412C8.35228 8.59212 8.20828 10.1281 7.92028 11.4081C7.64828 12.6881 7.13628 13.9361 6.38428 15.1201L5.00828 13.9041ZM23.6323 0.208124L25.2803 0.416124C25.1683 1.08812 25.0403 1.72812 24.8803 2.35212H30.4003C30.4003 8.04812 30.3203 11.5521 30.1603 12.8961C29.9683 14.2081 29.1523 14.8801 27.6963 14.8801C27.3443 14.8801 26.7683 14.8481 25.9363 14.8001L25.5523 13.3121C26.2723 13.3601 26.8963 13.3921 27.4243 13.3921C28.1283 13.3921 28.5283 12.9921 28.6403 12.2081C28.7363 11.4241 28.8003 8.65612 28.8323 3.90412H24.4003C23.9683 5.08812 23.4403 6.14412 22.8003 7.08812L21.7123 5.68012C22.6563 4.19212 23.2963 2.36812 23.6323 0.208124ZM22.4963 11.6961L22.1923 10.3041C22.6243 10.0641 23.3923 8.38412 24.4963 5.28012L25.9683 5.82412C25.2643 7.64812 24.6883 9.00812 24.2403 9.90412C24.9443 9.74412 25.5843 9.60012 26.1763 9.47212C25.9843 8.91212 25.7923 8.38412 25.6003 7.90412L26.9763 7.42412C27.5203 8.64012 27.9843 9.95212 28.3843 11.3601L26.9283 12.0321C26.8003 11.5681 26.6883 11.1201 26.5603 10.7041C25.3763 11.0561 24.0163 11.3761 22.4963 11.6961ZM20.1123 7.39212V14.9441H18.4643V7.77612C17.9843 9.08812 17.4083 10.3041 16.7363 11.4241L16.0163 9.56812C17.0883 8.16012 17.8723 6.56012 18.3523 4.75212H16.3363V3.13612H18.4643V0.192124H20.1123V3.13612H21.8883V4.75212H20.1123V5.47212C20.8163 6.17612 21.5203 6.92812 22.2243 7.76012L21.2643 9.18412C20.8323 8.48012 20.4483 7.88812 20.1123 7.39212ZM37.0563 11.3121V12.6881C38.4643 10.3841 39.1843 7.12012 39.2163 2.86412V2.25612H37.8243V0.688125H45.1363V1.72812C44.8963 3.02412 44.6563 4.14412 44.4163 5.10413H46.3683V6.03212C46.0163 8.19212 45.3283 10.0001 44.3043 11.4721C45.1043 12.2561 46.0003 12.9601 47.0243 13.5841L45.9683 15.0081C44.9443 14.3201 44.0483 13.5521 43.2803 12.7201C42.3363 13.6801 41.2163 14.4481 39.9363 15.0401L39.0083 13.5201C40.2563 12.9121 41.3123 12.1761 42.1603 11.3121C41.4403 10.2721 40.8643 9.13612 40.4323 7.90412C39.9203 10.9121 38.9283 13.2641 37.4723 14.9601L36.2083 13.8561C36.4483 13.5681 36.6723 13.2641 36.8963 12.9441C35.5203 13.4721 33.9843 13.9041 32.2723 14.2241L32.0483 12.5921C33.9523 12.2721 35.6163 11.8561 37.0563 11.3121ZM43.1363 10.1441C43.8723 9.08812 44.4003 7.88812 44.7043 6.56012H42.4963C42.7683 5.56812 43.0723 4.12812 43.4243 2.25612H40.8483V2.86412C40.8483 3.56812 40.8163 4.25612 40.7843 4.89612C41.2003 6.88012 41.9843 8.64012 43.1363 10.1441ZM34.8323 0.128124L36.4323 0.768125C35.6643 2.56012 34.8803 4.04812 34.0803 5.21612C34.6243 5.15212 35.1683 5.08812 35.7283 5.00812C36.0163 4.49612 36.3363 3.93612 36.6563 3.34412L38.1123 3.90412C36.7683 6.22412 35.6483 7.93612 34.7363 9.04012C35.6963 8.84812 36.6723 8.60812 37.6643 8.30412V9.80812C35.9043 10.3361 34.2563 10.6881 32.6883 10.8641L32.2563 9.36012C32.5443 9.24812 32.8003 9.08812 33.0083 8.88012C33.4883 8.43212 34.0963 7.63212 34.8163 6.51212C34.0803 6.60812 33.2963 6.72012 32.4963 6.81612L32.0963 5.29612C32.3523 5.20012 32.5763 4.99212 32.7843 4.68812C33.5683 3.31212 34.2563 1.79212 34.8323 0.128124ZM49.5043 0.368124C50.4643 0.672125 51.3443 1.04012 52.1443 1.48812L51.2483 2.83212C50.4163 2.30412 49.5523 1.88812 48.6723 1.60012L49.5043 0.368124ZM54.2723 0.112124L55.9203 0.320125C55.8243 0.624125 55.7123 0.912125 55.5843 1.18412H61.8083V2.17612C61.6323 2.94412 61.4083 3.72812 61.1203 4.49612L59.5203 4.01612C59.7443 3.61612 59.9363 3.15212 60.0963 2.64012H57.9363C57.8723 2.92812 57.7923 3.20012 57.7123 3.45612C58.5603 4.54412 60.1443 5.31212 62.4803 5.72812L61.8883 7.18412C59.6483 6.72012 58.0323 5.92012 57.0243 4.76812C56.8643 4.96012 56.7203 5.13612 56.5763 5.29612C55.8403 6.06412 54.5443 6.65612 52.7043 7.08812L52.0803 5.60012C53.5683 5.29612 54.6403 4.86412 55.2963 4.32012C55.7763 3.88812 56.1283 3.32812 56.3363 2.64012H54.7363C54.3203 3.18412 53.8243 3.68012 53.2643 4.12812L52.2723 2.83212C53.2643 2.09612 53.9203 1.20012 54.2723 0.112124ZM60.7523 7.26412V12.0481H59.0723V8.81612H51.8563V12.2401H50.1923V7.26412H60.7523ZM54.7523 9.18412L56.4323 9.31212C56.2083 11.3601 55.7123 12.7201 54.9763 13.3601C54.1923 14.2081 52.2883 14.7521 49.2643 15.0081L48.5923 13.4881C51.0883 13.3761 52.7363 13.0081 53.5363 12.3841C54.2403 11.7601 54.6403 10.6881 54.7523 9.18412ZM51.4563 3.45612L52.4163 4.59212C51.6163 5.39212 50.6243 6.12812 49.4403 6.83212L48.3523 5.53612C49.5843 4.89612 50.6243 4.19212 51.4563 3.45612ZM56.7043 11.9201C58.7683 12.4161 60.6563 13.0241 62.3523 13.7441L61.4563 15.1361C59.6323 14.3041 57.7763 13.6481 55.8563 13.1841L56.7043 11.9201ZM71.7603 0.000123978C71.9843 0.496124 72.1923 1.05612 72.3843 1.68012H77.9043V3.26412H75.2483C75.0883 3.93612 74.8803 4.57612 74.6243 5.21612H78.2403V6.83212H66.9443V8.91212C66.8803 11.4241 66.3203 13.4401 65.2323 14.9601L63.9683 13.8241C64.7843 12.6401 65.2163 11.0081 65.2483 8.91212V5.21612H68.4643L67.9363 3.26412H65.1203V1.68012H70.6723C70.4643 1.16812 70.2403 0.704124 70.0003 0.288124L71.7603 0.000123978ZM70.1123 5.21612H73.0083C73.2803 4.57612 73.4883 3.93612 73.6483 3.26412H69.5843L70.1123 5.21612ZM94.4163 5.96812L94.6723 7.56812L90.0643 8.19212V12.5281C90.0643 12.8961 90.2403 13.0881 90.6243 13.0881H92.6243C92.8483 13.0881 93.0243 12.9601 93.1203 12.7201C93.2323 12.4641 93.3123 11.6961 93.3603 10.4161L94.9443 10.9121C94.8163 12.7361 94.6083 13.8241 94.3043 14.1761C93.9843 14.4961 93.5363 14.6721 92.9443 14.6721H90.1123C88.9603 14.6721 88.3843 14.0641 88.3843 12.8801V8.41612L85.9683 8.75212L85.7283 7.16812L88.3843 6.80012V3.20012C87.7123 3.29612 87.0243 3.37612 86.3363 3.42412L85.8083 1.93612C88.8803 1.64812 91.3283 1.10412 93.1523 0.320125L93.9523 1.71212C92.7043 2.22412 91.4083 2.62412 90.0643 2.91212V6.57612L94.4163 5.96812ZM82.2723 14.8481H80.6083L80.2403 13.2321C80.7523 13.2961 81.2483 13.3281 81.6963 13.3281C82.0643 13.3281 82.2563 13.1521 82.2563 12.8001V9.50412C81.6483 9.68012 81.0403 9.85612 80.4323 10.0161L80.0163 8.41612C80.7683 8.27212 81.5203 8.09612 82.2563 7.87212V4.68812H80.2083V3.07212H82.2563V0.256124H83.9363V3.07212H85.3603V4.68812H83.9363V7.29612C84.3683 7.12012 84.8003 6.92812 85.2323 6.73612V8.41612C84.8003 8.59212 84.3683 8.76812 83.9363 8.92812V13.2161C83.9363 14.3041 83.3763 14.8481 82.2723 14.8481ZM108.192 6.46412V9.90412H100.48V10.6561H108.944V15.0081H107.296V14.4641H100.48V14.9921H98.8003V6.46412H108.192ZM100.48 12.9921H107.296V11.9681H100.48V12.9921ZM100.48 8.59212H106.576V7.79212H100.48V8.59212ZM110.4 4.43212V7.56812H108.768V5.84012H98.2083V7.56812H96.5763V4.43212H102.704C102.576 4.14412 102.448 3.88812 102.32 3.64812L103.728 3.40812L103.408 3.20012C104.144 2.24012 104.672 1.21612 104.992 0.128124L106.576 0.480124C106.496 0.720124 106.416 0.960124 106.336 1.18412H110.736V2.64012H108.208C108.432 2.96012 108.624 3.28012 108.784 3.56812L107.312 4.12812C107.056 3.61612 106.768 3.12012 106.432 2.64012H105.712C105.44 3.15212 105.136 3.63212 104.816 4.08012L104.08 3.61612C104.176 3.87212 104.288 4.14412 104.384 4.43212H110.4ZM98.8323 2.64012C98.4963 3.21612 98.1283 3.74412 97.7123 4.22412L96.2563 3.29612C97.1843 2.30412 97.8243 1.23212 98.1923 0.112124L99.8083 0.464125C99.7123 0.704124 99.6323 0.944124 99.5363 1.18412H103.472V2.64012H101.2C101.456 3.00812 101.68 3.36012 101.856 3.69612L100.336 4.28813C100.08 3.71212 99.7763 3.16812 99.4243 2.64012H98.8323Z" fill="url(#paint0_linear_848_466)"/>
<defs>
<linearGradient id="paint0_linear_848_466" x1="24.9961" y1="-6.11632" x2="24.8331" y2="15.0806" gradientUnits="userSpaceOnUse">
<stop stop-color="#1BFFE4"/>
<stop offset="1" stop-color="#3183FF"/>
</linearGradient>
</defs>
</svg>
