<svg width="159" height="81" viewBox="0 0 159 81" fill="none" xmlns="http://www.w3.org/2000/svg">
<g filter="url(#filter0_i_848_456)">
<path d="M0 4C0 1.79086 1.79086 0 4 0H155C157.209 0 159 1.79086 159 4V77C159 79.2091 157.209 81 155 81H4C1.79086 81 0 79.2091 0 77V4Z" fill="url(#paint0_linear_848_456)"/>
</g>
<path d="M134.809 55.528C136.801 55.528 138.361 56.344 139.489 58.024C140.545 59.608 141.073 61.744 141.073 64.432C141.073 67.12 140.545 69.256 139.489 70.84C138.361 72.496 136.801 73.336 134.809 73.336C132.793 73.336 131.233 72.496 130.129 70.84C129.073 69.256 128.545 67.12 128.545 64.432C128.545 61.744 129.073 59.608 130.129 58.024C131.233 56.344 132.793 55.528 134.809 55.528ZM134.809 57.904C133.441 57.904 132.481 58.648 131.929 60.184C131.545 61.216 131.353 62.632 131.353 64.432C131.353 66.208 131.545 67.624 131.929 68.68C132.481 70.192 133.441 70.96 134.809 70.96C136.153 70.96 137.113 70.192 137.689 68.68C138.073 67.624 138.265 66.208 138.265 64.432C138.265 62.632 138.073 61.216 137.689 60.184C137.113 58.648 136.153 57.904 134.809 57.904ZM149.464 55.528C151.12 55.528 152.488 56.008 153.568 56.968C154.624 57.928 155.152 59.152 155.152 60.688C155.152 62.176 154.576 63.52 153.472 64.744C152.8 65.464 151.6 66.376 149.92 67.504C148.168 68.656 147.112 69.664 146.728 70.528H155.176V73H143.224C143.224 71.248 143.776 69.736 144.928 68.44C145.552 67.72 146.872 66.664 148.864 65.296C149.968 64.528 150.736 63.88 151.216 63.376C151.96 62.536 152.344 61.624 152.344 60.664C152.344 59.728 152.08 59.032 151.6 58.576C151.096 58.12 150.352 57.904 149.368 57.904C148.312 57.904 147.52 58.264 146.992 58.984C146.464 59.656 146.176 60.688 146.128 62.032H143.32C143.344 60.112 143.896 58.576 145 57.4C146.128 56.152 147.616 55.528 149.464 55.528Z" fill="#93CBFF" fill-opacity="0.5"/>
<path d="M23.312 24.784H20.274C19.406 24.784 18.986 24.392 18.986 23.622V23.034C18.412 23.202 17.824 23.37 17.236 23.538L16.69 22.74C17.502 22.53 18.272 22.306 18.986 22.082V19.632H19.966V21.76C21.562 21.172 22.864 20.542 23.886 19.842L24.53 20.514C23.242 21.354 21.73 22.096 19.966 22.712V23.426C19.966 23.748 20.148 23.916 20.54 23.916H23.13C23.438 23.916 23.662 23.846 23.788 23.734C23.956 23.594 24.068 23.16 24.124 22.46L25.048 22.754C24.95 23.72 24.754 24.308 24.474 24.518C24.222 24.686 23.844 24.784 23.312 24.784ZM23.55 25.582V29.754H22.514V26.506H15.78V29.95H14.758V25.582H23.55ZM20.036 29.768C21.842 30.272 23.48 30.902 24.964 31.63L24.404 32.484C22.822 31.658 21.198 31.014 19.532 30.538L20.036 29.768ZM18.664 27.122L19.644 27.206C19.448 29.026 19.014 30.258 18.356 30.902C17.628 31.686 16.004 32.19 13.47 32.4L13.064 31.49C15.318 31.378 16.802 30.986 17.53 30.314C18.174 29.684 18.552 28.62 18.664 27.122ZM14.926 22.362C14.366 22.754 13.75 23.132 13.078 23.482L12.77 22.502C14.492 21.62 15.752 20.612 16.536 19.492L17.362 19.898C16.97 20.5 16.48 21.06 15.906 21.578V24.966H14.926V22.362ZM36.892 30.706H35.632L35.352 29.698L36.556 29.74C36.92 29.74 37.102 29.544 37.102 29.18V24.742H33.546V32.428H32.51V24.742H28.94V30.734H27.932V23.762H32.51V21.564C30.886 21.69 29.136 21.76 27.232 21.76L26.924 20.822C31.488 20.808 35.268 20.43 38.278 19.674L38.782 20.556C37.284 20.962 35.534 21.27 33.546 21.48V23.762H38.11V29.404C38.11 30.272 37.704 30.706 36.892 30.706ZM42.744 22.544H47.868C48.512 21.592 49.058 20.584 49.534 19.492L50.556 19.842C50.08 20.85 49.534 21.746 48.946 22.544H51.298V27.22H49.142V30.58C49.142 31.028 49.324 31.252 49.702 31.252H51.536C51.774 31.252 51.942 31.168 52.04 31C52.166 30.804 52.25 30.244 52.278 29.32L53.244 29.628C53.16 30.86 52.992 31.602 52.74 31.868C52.53 32.092 52.194 32.204 51.718 32.204H49.38C48.54 32.204 48.134 31.728 48.134 30.79V27.22H46.034C45.838 29.628 44.326 31.364 41.47 32.456L40.896 31.56C43.5 30.678 44.9 29.236 45.082 27.22H42.744V22.544ZM50.318 26.282V23.496H43.724V26.282H50.318ZM44.354 19.576C44.886 20.332 45.376 21.144 45.852 22.04L44.956 22.488C44.494 21.564 44.004 20.724 43.472 19.996L44.354 19.576ZM66.558 23.426V27.234H67.44V28.158H63.912C64.654 29.586 65.858 30.692 67.51 31.504L67.048 32.456C65.2 31.42 63.87 30.048 63.086 28.368C62.498 29.992 61.168 31.35 59.096 32.442L58.438 31.602C60.342 30.706 61.574 29.558 62.134 28.158H58.872V27.234H59.866V23.426H63.058C63.464 22.866 63.87 22.222 64.262 21.48H61.826C61.238 22.292 60.468 23.02 59.544 23.65L58.956 22.866C60.356 21.942 61.308 20.808 61.812 19.478L62.792 19.604C62.666 19.954 62.526 20.29 62.358 20.612H65.326V21.34C64.92 22.152 64.5 22.852 64.08 23.426H66.558ZM60.762 27.234H62.414C62.582 26.422 62.68 25.442 62.708 24.308H60.762V27.234ZM63.38 27.234H65.662V24.308H63.632C63.604 25.47 63.52 26.45 63.38 27.234ZM56.198 32.246H55.008L54.798 31.28C55.162 31.322 55.512 31.35 55.848 31.35C56.212 31.35 56.408 31.14 56.408 30.748V27.374C55.848 27.598 55.288 27.794 54.728 27.976L54.476 26.968C55.134 26.8 55.778 26.604 56.408 26.366V23.104H54.742V22.138H56.408V19.576H57.416V22.138H58.844V23.104H57.416V25.96C57.92 25.736 58.41 25.484 58.9 25.204V26.226C58.41 26.478 57.92 26.73 57.416 26.954V31C57.416 31.826 57.01 32.246 56.198 32.246Z" fill="white"/>
<path d="M15.8881 45.68H19.6881V44.67H20.4081V45.68H21.6181V46.37H20.4081V49.07C20.4081 49.67 20.0881 49.97 19.4481 49.97H18.1181L17.9681 49.28C18.3981 49.31 18.8081 49.33 19.1981 49.33C19.5181 49.33 19.6881 49.18 19.6881 48.89V46.37H15.8881V45.68ZM14.5681 40.83H15.2981V49.99H14.5681V46.68C13.9081 47.3 13.2981 47.79 12.7381 48.16L12.4181 47.47C13.0181 47.11 13.7281 46.55 14.5681 45.81V40.83ZM17.1581 46.78C17.7181 47.39 18.1381 47.92 18.4381 48.38L17.8781 48.78C17.5681 48.28 17.1481 47.72 16.6281 47.11L17.1581 46.78ZM17.8581 42.23C17.3981 42.76 16.8281 43.2 16.1381 43.56L15.6781 43C16.7681 42.46 17.4981 41.73 17.8781 40.82L18.6181 40.96C18.5281 41.17 18.4281 41.37 18.3181 41.57H21.2381V42.19C20.6681 43.65 19.0881 44.68 16.5081 45.27L16.1481 44.63C16.9381 44.46 17.6281 44.25 18.2281 44.01C17.9081 43.71 17.5881 43.46 17.2781 43.24L17.7881 42.85C18.1581 43.12 18.5081 43.41 18.8381 43.72C19.5881 43.31 20.1281 42.81 20.4581 42.23H17.8581ZM13.0481 42C13.5181 42.68 13.9181 43.41 14.2581 44.18L13.6281 44.44C13.2681 43.6 12.8681 42.87 12.4281 42.25L13.0481 42ZM22.7481 42.38L22.6081 41.69C23.7581 41.57 24.7781 41.35 25.6581 41.02L25.9181 41.69C25.5281 41.82 25.1181 41.94 24.6881 42.04V43.57H25.8681V44.26H24.6881V44.78C25.1281 45.22 25.5681 45.71 26.0181 46.26L25.6181 46.87C25.2581 46.27 24.9481 45.79 24.6881 45.43V50H23.9981V45.49C23.6781 46.39 23.2481 47.21 22.7281 47.95L22.4281 47.17C23.1381 46.31 23.6381 45.34 23.9381 44.26H22.5581V43.57H23.9981V42.19C23.5881 42.26 23.1681 42.32 22.7481 42.38ZM30.8481 46.71H26.3981V46.09H30.1581V45.33H26.5381V44.73H30.1581V43.99H26.4581V43.42C26.3581 43.5 26.2481 43.58 26.1481 43.65L25.7281 43.11C26.6881 42.47 27.3381 41.7 27.6781 40.79L28.3881 40.87C28.3081 41.1 28.2081 41.32 28.0981 41.52H30.3581V42.05C30.0581 42.57 29.7581 43 29.4581 43.35H30.8481V46.71ZM27.7081 42.15C27.3881 42.59 27.0081 42.99 26.5581 43.35H28.6781C28.9781 43.01 29.2681 42.61 29.5581 42.15H27.7081ZM30.7381 47.19C31.0981 47.81 31.4081 48.47 31.6781 49.17L31.0881 49.43C30.7881 48.66 30.4681 47.98 30.1181 47.39L30.7381 47.19ZM26.1981 47.36L26.8181 47.48C26.6481 48.29 26.4081 48.99 26.0981 49.59L25.5181 49.22C25.8281 48.66 26.0581 48.04 26.1981 47.36ZM29.3581 49.91H28.0581C27.4981 49.91 27.2181 49.6 27.2181 49V47.2H27.8681V48.87C27.8681 49.14 27.9981 49.28 28.2781 49.28H29.2381C29.3981 49.28 29.5181 49.24 29.5881 49.17C29.6781 49.08 29.7381 48.81 29.7681 48.35L30.3881 48.54C30.3281 49.19 30.2181 49.59 30.0481 49.73C29.9081 49.85 29.6781 49.91 29.3581 49.91ZM28.6981 47.03C29.0781 47.48 29.3681 47.88 29.5681 48.22L29.0481 48.58C28.8381 48.21 28.5481 47.8 28.1781 47.36L28.6981 47.03ZM34.1081 43.8H39.9881V44.48H37.4481V46.24H40.4281V46.92H37.4481V48.99C38.1481 49.09 38.9881 49.15 39.9881 49.16C40.4981 49.16 41.0181 49.14 41.5581 49.1L41.4281 49.82H40.3081C38.2881 49.82 36.8481 49.63 35.9681 49.26C35.3081 48.95 34.7681 48.47 34.3581 47.82C33.9681 48.68 33.4881 49.4 32.9181 49.98L32.4581 49.41C33.4181 48.39 34.0581 47.02 34.3981 45.3L35.0981 45.42C34.9781 46.04 34.8181 46.61 34.6381 47.13C35.1181 47.99 35.7181 48.53 36.4381 48.76C36.5281 48.79 36.6281 48.82 36.7281 48.84V44.48H34.1081V43.8ZM41.1281 41.85V43.98H40.4281V42.51H33.6481V44.03H32.9481V41.85H36.7681C36.6181 41.49 36.4481 41.16 36.2681 40.86L37.0381 40.74C37.1981 41.07 37.3581 41.44 37.4981 41.85H41.1281ZM49.8181 48.79H48.9181L48.7181 48.07L49.5781 48.1C49.8381 48.1 49.9681 47.96 49.9681 47.7V44.53H47.4281V50.02H46.6881V44.53H44.1381V48.81H43.4181V43.83H46.6881V42.26C45.5281 42.35 44.2781 42.4 42.9181 42.4L42.6981 41.73C45.9581 41.72 48.6581 41.45 50.8081 40.91L51.1681 41.54C50.0981 41.83 48.8481 42.05 47.4281 42.2V43.83H50.6881V47.86C50.6881 48.48 50.3981 48.79 49.8181 48.79ZM53.9981 42.96H57.6581C58.1181 42.28 58.5081 41.56 58.8481 40.78L59.5781 41.03C59.2381 41.75 58.8481 42.39 58.4281 42.96H60.1081V46.3H58.5681V48.7C58.5681 49.02 58.6981 49.18 58.9681 49.18H60.2781C60.4481 49.18 60.5681 49.12 60.6381 49C60.7281 48.86 60.7881 48.46 60.8081 47.8L61.4981 48.02C61.4381 48.9 61.3181 49.43 61.1381 49.62C60.9881 49.78 60.7481 49.86 60.4081 49.86H58.7381C58.1381 49.86 57.8481 49.52 57.8481 48.85V46.3H56.3481C56.2081 48.02 55.1281 49.26 53.0881 50.04L52.6781 49.4C54.5381 48.77 55.5381 47.74 55.6681 46.3H53.9981V42.96ZM59.4081 45.63V43.64H54.6981V45.63H59.4081ZM55.1481 40.84C55.5281 41.38 55.8781 41.96 56.2181 42.6L55.5781 42.92C55.2481 42.26 54.8981 41.66 54.5181 41.14L55.1481 40.84ZM71.0081 43.59V46.31H71.6381V46.97H69.1181C69.6481 47.99 70.5081 48.78 71.6881 49.36L71.3581 50.04C70.0381 49.3 69.0881 48.32 68.5281 47.12C68.1081 48.28 67.1581 49.25 65.6781 50.03L65.2081 49.43C66.5681 48.79 67.4481 47.97 67.8481 46.97H65.5181V46.31H66.2281V43.59H68.5081C68.7981 43.19 69.0881 42.73 69.3681 42.2H67.6281C67.2081 42.78 66.6581 43.3 65.9981 43.75L65.5781 43.19C66.5781 42.53 67.2581 41.72 67.6181 40.77L68.3181 40.86C68.2281 41.11 68.1281 41.35 68.0081 41.58H70.1281V42.1C69.8381 42.68 69.5381 43.18 69.2381 43.59H71.0081ZM66.8681 46.31H68.0481C68.1681 45.73 68.2381 45.03 68.2581 44.22H66.8681V46.31ZM68.7381 46.31H70.3681V44.22H68.9181C68.8981 45.05 68.8381 45.75 68.7381 46.31ZM63.6081 49.89H62.7581L62.6081 49.2C62.8681 49.23 63.1181 49.25 63.3581 49.25C63.6181 49.25 63.7581 49.1 63.7581 48.82V46.41C63.3581 46.57 62.9581 46.71 62.5581 46.84L62.3781 46.12C62.8481 46 63.3081 45.86 63.7581 45.69V43.36H62.5681V42.67H63.7581V40.84H64.4781V42.67H65.4981V43.36H64.4781V45.4C64.8381 45.24 65.1881 45.06 65.5381 44.86V45.59C65.1881 45.77 64.8381 45.95 64.4781 46.11V49C64.4781 49.59 64.1881 49.89 63.6081 49.89ZM73.8781 41.08C74.4581 41.68 74.9081 42.21 75.2281 42.67L74.6681 43.06C74.3181 42.56 73.8681 42.03 73.3281 41.47L73.8781 41.08ZM77.3981 45.3C78.1181 46.09 78.6681 46.78 79.0581 47.36L78.4281 47.8C78.0281 47.16 77.4981 46.44 76.8181 45.66L77.3981 45.3ZM76.1481 40.83H76.8581V42.02C76.8481 42.46 76.8281 42.89 76.7981 43.3H80.9181C80.9181 46.16 80.7881 47.98 80.5381 48.76C80.2781 49.54 79.8081 49.93 79.1381 49.93C78.6481 49.93 78.2381 49.91 77.8981 49.89L77.7081 49.19C78.2181 49.23 78.6781 49.25 79.0981 49.25C79.6581 49.21 79.9881 48.64 80.0681 47.56C80.1481 46.47 80.1881 45.28 80.1881 44H76.7281C76.5681 45.26 76.2881 46.31 75.8781 47.17C75.2881 48.36 74.3181 49.29 72.9581 49.96L72.5481 49.32C73.8881 48.64 74.8281 47.74 75.3481 46.61C75.6581 45.87 75.8781 45 76.0081 44H72.8981V43.3H76.0881C76.1181 42.88 76.1381 42.46 76.1481 42.02V40.83ZM87.8581 40.83H88.5981V42.44H91.1681V43.14H88.5981V45.01H91.4381V45.71H88.1581C87.5181 47.24 86.9581 48.32 86.4781 48.95C87.7081 48.82 88.9381 48.63 90.1781 48.39C89.8881 47.79 89.5881 47.24 89.2881 46.74L89.9781 46.51C90.5781 47.51 91.1081 48.59 91.5581 49.73L90.8781 50.03C90.7381 49.68 90.6081 49.35 90.4681 49.03C88.9581 49.31 87.3181 49.54 85.5481 49.71L85.3781 49.08C85.4381 49.06 85.4881 49.03 85.5281 49.01C85.9981 48.6 86.6181 47.5 87.3781 45.71H85.0081V45.01H87.8581V43.14H85.4881V42.44H87.8581V40.83ZM83.3181 40.99C83.9681 41.48 84.5181 41.97 84.9581 42.47L84.4481 42.99C84.0481 42.51 83.5081 42.01 82.8081 41.48L83.3181 40.99ZM83.0781 43.33C83.6781 43.82 84.1781 44.32 84.5881 44.82L84.0681 45.33C83.7081 44.86 83.2081 44.36 82.5681 43.82L83.0781 43.33ZM84.2281 46.1L84.8781 46.36C84.4481 47.62 83.9681 48.81 83.4381 49.92L82.7181 49.61C83.2981 48.47 83.8081 47.3 84.2281 46.1ZM94.1081 43.8H99.9881V44.48H97.4481V46.24H100.428V46.92H97.4481V48.99C98.1481 49.09 98.9881 49.15 99.9881 49.16C100.498 49.16 101.018 49.14 101.558 49.1L101.428 49.82H100.308C98.2881 49.82 96.8481 49.63 95.9681 49.26C95.3081 48.95 94.7681 48.47 94.3581 47.82C93.9681 48.68 93.4881 49.4 92.9181 49.98L92.4581 49.41C93.4181 48.39 94.0581 47.02 94.3981 45.3L95.0981 45.42C94.9781 46.04 94.8181 46.61 94.6381 47.13C95.1181 47.99 95.7181 48.53 96.4381 48.76C96.5281 48.79 96.6281 48.82 96.7281 48.84V44.48H94.1081V43.8ZM101.128 41.85V43.98H100.428V42.51H93.6481V44.03H92.9481V41.85H96.7681C96.6181 41.49 96.4481 41.16 96.2681 40.86L97.0381 40.74C97.1981 41.07 97.3581 41.44 97.4981 41.85H101.128ZM102.998 41.84H105.278C105.138 41.5 104.978 41.19 104.798 40.91L105.558 40.79C105.718 41.1 105.868 41.45 106.018 41.84H108.108C108.278 41.49 108.408 41.13 108.488 40.77L109.258 40.87C109.158 41.21 109.028 41.53 108.858 41.84H111.078V42.5H107.408V43.45H110.548V44.09H107.408V45.06H111.408V45.72H102.668V45.06H106.668V44.09H103.558V43.45H106.668V42.5H102.998V41.84ZM106.738 45.98L107.478 46.06C107.438 46.32 107.388 46.57 107.318 46.79H111.188V47.47H107.688C108.378 48.39 109.708 49.02 111.678 49.35L111.298 50.03C109.098 49.59 107.668 48.77 107.008 47.57C106.788 47.99 106.498 48.35 106.158 48.67C105.508 49.26 104.368 49.72 102.738 50.06L102.438 49.36C103.888 49.09 104.928 48.7 105.568 48.19C105.828 47.98 106.038 47.74 106.208 47.47H102.898V46.79H106.538C106.628 46.53 106.698 46.26 106.738 45.98ZM113.538 41.39H120.448V42.09H113.538V41.39ZM112.768 44.33H121.318V45.03H118.558V48.76C118.558 49.04 118.698 49.19 118.998 49.19H120.108C120.328 49.19 120.478 49.11 120.558 48.96C120.678 48.78 120.748 48.24 120.788 47.34L121.448 47.55C121.378 48.64 121.248 49.3 121.048 49.53C120.878 49.73 120.608 49.84 120.248 49.84H118.798C118.168 49.84 117.858 49.53 117.858 48.91V45.03H116.058V45.18C116.028 46.48 115.758 47.53 115.258 48.32C114.758 49.05 113.958 49.62 112.848 50.03L112.458 49.42C113.538 49.02 114.288 48.5 114.718 47.84C115.118 47.16 115.338 46.27 115.358 45.18V45.03H112.768V44.33Z" fill="#9A9A9A"/>
<defs>
<filter id="filter0_i_848_456" x="0" y="0" width="162" height="84" filterUnits="userSpaceOnUse" color-interpolation-filters="sRGB">
<feFlood flood-opacity="0" result="BackgroundImageFix"/>
<feBlend mode="normal" in="SourceGraphic" in2="BackgroundImageFix" result="shape"/>
<feColorMatrix in="SourceAlpha" type="matrix" values="0 0 0 0 0 0 0 0 0 0 0 0 0 0 0 0 0 0 127 0" result="hardAlpha"/>
<feOffset dx="3" dy="3"/>
<feGaussianBlur stdDeviation="7.5"/>
<feComposite in2="hardAlpha" operator="arithmetic" k2="-1" k3="1"/>
<feColorMatrix type="matrix" values="0 0 0 0 0 0 0 0 0 0.616667 0 0 0 0 1 0 0 0 0.6 0"/>
<feBlend mode="normal" in2="shape" result="effect1_innerShadow_848_456"/>
</filter>
<linearGradient id="paint0_linear_848_456" x1="79.5" y1="0" x2="79.5" y2="74" gradientUnits="userSpaceOnUse">
<stop stop-color="#0065FE" stop-opacity="0.5"/>
<stop offset="1" stop-color="#024D9D" stop-opacity="0.5"/>
</linearGradient>
</defs>
</svg>
