<svg width="158" height="81" viewBox="0 0 158 81" fill="none" xmlns="http://www.w3.org/2000/svg">
<g filter="url(#filter0_i_848_446)">
<path d="M0 4C0 1.79086 1.79086 0 4 0H154C156.209 0 158 1.79086 158 4V77C158 79.2091 156.209 81 154 81H4C1.79086 81 0 79.2091 0 77V4Z" fill="url(#paint0_linear_848_446)"/>
</g>
<path d="M136.029 55.528C138.021 55.528 139.581 56.344 140.709 58.024C141.765 59.608 142.293 61.744 142.293 64.432C142.293 67.12 141.765 69.256 140.709 70.84C139.581 72.496 138.021 73.336 136.029 73.336C134.013 73.336 132.453 72.496 131.349 70.84C130.293 69.256 129.765 67.12 129.765 64.432C129.765 61.744 130.293 59.608 131.349 58.024C132.453 56.344 134.013 55.528 136.029 55.528ZM136.029 57.904C134.661 57.904 133.701 58.648 133.149 60.184C132.765 61.216 132.573 62.632 132.573 64.432C132.573 66.208 132.765 67.624 133.149 68.68C133.701 70.192 134.661 70.96 136.029 70.96C137.373 70.96 138.333 70.192 138.909 68.68C139.293 67.624 139.485 66.208 139.485 64.432C139.485 62.632 139.293 61.216 138.909 60.184C138.333 58.648 137.373 57.904 136.029 57.904ZM148.788 55.864H150.9V73H148.092V59.248C147.06 60.184 145.764 60.88 144.18 61.336V58.552C144.948 58.36 145.764 58.024 146.628 57.544C147.492 57.016 148.212 56.464 148.788 55.864Z" fill="#93CBFF" fill-opacity="0.5"/>
<path d="M14.9439 24.448V26.898H18.4999V24.448H14.9439ZM14.8879 27.822C14.7339 29.614 14.2159 31.098 13.3199 32.274L12.5499 31.588C13.4459 30.342 13.9079 28.76 13.9359 26.842V20.122H24.3659V30.608C24.3659 31.588 23.8759 32.078 22.8959 32.078H21.2859L21.0199 31.084C21.5799 31.112 22.0979 31.14 22.5739 31.14C23.0779 31.14 23.3439 30.846 23.3439 30.258V27.822H19.5359V31.924H18.4999V27.822H14.8879ZM23.3439 26.898V24.448H19.5359V26.898H23.3439ZM23.3439 23.51V21.102H19.5359V23.51H23.3439ZM18.4999 21.102H14.9439V23.51H18.4999V21.102ZM37.1479 22.278H29.1539V25.008H37.1479V22.278ZM29.1539 25.988C29.0839 28.494 28.4259 30.65 27.1659 32.456L26.4239 31.784C27.5579 30.216 28.1319 28.172 28.1599 25.666V21.284H32.7239C32.4719 20.696 32.2059 20.15 31.9119 19.646L32.9899 19.478C33.2419 20.01 33.4939 20.612 33.7459 21.284H38.1699V25.988H29.1539ZM41.0399 20.99H44.8479C45.0299 20.5 45.1979 20.01 45.3379 19.506L46.3599 19.632C46.2199 20.094 46.0799 20.542 45.9259 20.99H53.0939V21.97H45.5479C45.0299 23.174 44.3859 24.28 43.6299 25.288V32.414H42.6499V26.492C42.1739 27.01 41.6839 27.5 41.1519 27.976L40.5219 27.178C42.2299 25.68 43.5319 23.944 44.4419 21.97H41.0399V20.99ZM44.7219 27.5H48.7819V26.198C49.5799 25.75 50.3359 25.232 51.0639 24.616H45.7999V23.678H52.3519V24.616C51.5959 25.316 50.7419 25.988 49.7899 26.618V27.5H53.2899V28.466H49.7899V31.112C49.7899 31.938 49.3699 32.358 48.5439 32.358H46.7939L46.5279 31.406C47.0319 31.42 47.5639 31.434 48.1379 31.434C48.5579 31.434 48.7819 31.21 48.7819 30.79V28.466H44.7219V27.5ZM60.3459 22.81C59.7019 21.634 58.9319 20.738 58.0359 20.094L58.8759 19.562C60.1219 20.43 61.1719 22.012 62.0399 24.28C63.3559 27.626 65.1059 29.992 67.3179 31.378L66.6879 32.19C64.4199 30.818 62.5719 28.27 61.1299 24.574C61.0459 24.35 60.9759 24.154 60.9059 23.986C59.9819 27.556 58.0499 30.3 55.1099 32.204L54.5079 31.35C57.5039 29.39 59.4499 26.534 60.3459 22.81Z" fill="white"/>
<path d="M12.7319 41.85H15.4519C15.5819 41.5 15.7019 41.15 15.8019 40.79L16.5319 40.88C16.4319 41.21 16.3319 41.53 16.2219 41.85H21.3419V42.55H15.9519C15.5819 43.41 15.1219 44.2 14.5819 44.92V50.01H13.8819V45.78C13.5419 46.15 13.1919 46.5 12.8119 46.84L12.3619 46.27C13.5819 45.2 14.5119 43.96 15.1619 42.55H12.7319V41.85ZM15.3619 46.5H18.2619V45.57C18.8319 45.25 19.3719 44.88 19.8919 44.44H16.1319V43.77H20.8119V44.44C20.2719 44.94 19.6619 45.42 18.9819 45.87V46.5H21.4819V47.19H18.9819V49.08C18.9819 49.67 18.6819 49.97 18.0919 49.97H16.8419L16.6519 49.29C17.0119 49.3 17.3919 49.31 17.8019 49.31C18.1019 49.31 18.2619 49.15 18.2619 48.85V47.19H15.3619V46.5ZM26.5219 43.15C26.0619 42.31 25.5119 41.67 24.8719 41.21L25.4719 40.83C26.3619 41.45 27.1119 42.58 27.7319 44.2C28.6719 46.59 29.9219 48.28 31.5019 49.27L31.0519 49.85C29.4319 48.87 28.1119 47.05 27.0819 44.41C27.0219 44.25 26.9719 44.11 26.9219 43.99C26.2619 46.54 24.8819 48.5 22.7819 49.86L22.3519 49.25C24.4919 47.85 25.8819 45.81 26.5219 43.15ZM32.6819 41.86H33.5019V46.27C33.5019 46.97 33.6519 47.5 33.9719 47.86C34.3019 48.23 34.8219 48.42 35.5319 48.42C36.2319 48.42 36.7519 48.23 37.0919 47.86C37.4019 47.5 37.5619 46.97 37.5619 46.27V41.86H38.3819V46.26C38.3819 47.19 38.1419 47.9 37.6719 48.39C37.1819 48.89 36.4719 49.14 35.5319 49.14C34.5919 49.14 33.8819 48.89 33.4019 48.4C32.9219 47.9 32.6819 47.19 32.6819 46.26V41.86ZM42.2206 41.72C43.0206 41.72 43.6606 41.9 44.1206 42.27C44.6006 42.65 44.8706 43.22 44.9406 43.97H44.1306C44.0406 43.45 43.8406 43.07 43.5306 42.82C43.2106 42.56 42.7606 42.44 42.1806 42.44C41.6506 42.44 41.2406 42.52 40.9406 42.7C40.6006 42.9 40.4306 43.2 40.4306 43.61C40.4306 43.97 40.6306 44.26 41.0406 44.48C41.2206 44.58 41.6606 44.73 42.3506 44.93C43.2906 45.21 43.9106 45.44 44.2106 45.62C44.8006 45.98 45.1006 46.48 45.1006 47.13C45.1006 47.75 44.8506 48.25 44.3506 48.61C43.8506 48.96 43.1806 49.14 42.3306 49.14C41.4906 49.14 40.8306 48.96 40.3506 48.6C39.7906 48.17 39.4806 47.52 39.4206 46.64H40.2306C40.3006 47.26 40.5206 47.72 40.8806 48.01C41.2106 48.27 41.6906 48.41 42.3306 48.41C42.9106 48.41 43.3906 48.3 43.7506 48.08C44.1106 47.86 44.2906 47.56 44.2906 47.18C44.2906 46.73 44.0506 46.38 43.5806 46.13C43.3806 46.01 42.8706 45.84 42.0706 45.61C41.2106 45.35 40.6606 45.15 40.4306 45.03C39.8806 44.71 39.6106 44.25 39.6106 43.65C39.6106 43.03 39.8706 42.54 40.4006 42.2C40.8706 41.88 41.4806 41.72 42.2206 41.72ZM46.1389 41.86H48.6989C49.8289 41.86 50.6789 42.18 51.2589 42.84C51.7889 43.44 52.0589 44.31 52.0589 45.43C52.0589 46.53 51.7689 47.4 51.1989 48.02C50.5989 48.67 49.7389 49 48.6189 49H46.1389V41.86ZM46.9589 42.57V48.29H48.4789C49.4089 48.29 50.1089 48.04 50.5789 47.55C51.0189 47.07 51.2489 46.36 51.2489 45.43C51.2489 44.47 51.0389 43.76 50.6289 43.3C50.1889 42.81 49.5089 42.57 48.5689 42.57H46.9589ZM52.6495 41.86H58.4995V42.57H55.9795V49H55.1695V42.57H52.6495V41.86ZM62.5909 40.8H63.3009L59.7609 50H59.0409L62.5909 40.8ZM64.3909 41.86H65.2109V46.27C65.2109 46.97 65.3609 47.5 65.6809 47.86C66.0109 48.23 66.5309 48.42 67.2409 48.42C67.9409 48.42 68.4609 48.23 68.8009 47.86C69.1109 47.5 69.2709 46.97 69.2709 46.27V41.86H70.0909V46.26C70.0909 47.19 69.8509 47.9 69.3809 48.39C68.8909 48.89 68.1809 49.14 67.2409 49.14C66.3009 49.14 65.5909 48.89 65.1109 48.4C64.6309 47.9 64.3909 47.19 64.3909 46.26V41.86ZM73.9296 41.72C74.7296 41.72 75.3696 41.9 75.8296 42.27C76.3096 42.65 76.5796 43.22 76.6496 43.97H75.8396C75.7496 43.45 75.5496 43.07 75.2396 42.82C74.9196 42.56 74.4696 42.44 73.8896 42.44C73.3596 42.44 72.9496 42.52 72.6496 42.7C72.3096 42.9 72.1396 43.2 72.1396 43.61C72.1396 43.97 72.3396 44.26 72.7496 44.48C72.9296 44.58 73.3696 44.73 74.0596 44.93C74.9996 45.21 75.6196 45.44 75.9196 45.62C76.5096 45.98 76.8096 46.48 76.8096 47.13C76.8096 47.75 76.5596 48.25 76.0596 48.61C75.5596 48.96 74.8896 49.14 74.0396 49.14C73.1996 49.14 72.5396 48.96 72.0596 48.6C71.4996 48.17 71.1896 47.52 71.1296 46.64H71.9396C72.0096 47.26 72.2296 47.72 72.5896 48.01C72.9196 48.27 73.3996 48.41 74.0396 48.41C74.6196 48.41 75.0996 48.3 75.4596 48.08C75.8196 47.86 75.9996 47.56 75.9996 47.18C75.9996 46.73 75.7596 46.38 75.2896 46.13C75.0896 46.01 74.5796 45.84 73.7796 45.61C72.9196 45.35 72.3696 45.15 72.1396 45.03C71.5896 44.71 71.3196 44.25 71.3196 43.65C71.3196 43.03 71.5796 42.54 72.1096 42.2C72.5796 41.88 73.1896 41.72 73.9296 41.72ZM77.8479 41.86H80.4079C81.5379 41.86 82.3879 42.18 82.9679 42.84C83.4979 43.44 83.7679 44.31 83.7679 45.43C83.7679 46.53 83.4779 47.4 82.9079 48.02C82.3079 48.67 81.4479 49 80.3279 49H77.8479V41.86ZM78.6679 42.57V48.29H80.1879C81.1179 48.29 81.8179 48.04 82.2879 47.55C82.7279 47.07 82.9579 46.36 82.9579 45.43C82.9579 44.47 82.7479 43.76 82.3379 43.3C81.8979 42.81 81.2179 42.57 80.2779 42.57H78.6679ZM87.9885 41.72C88.7785 41.72 89.4485 41.93 89.9885 42.35C90.5285 42.77 90.8485 43.34 90.9485 44.05H90.1585C90.0585 43.53 89.7985 43.13 89.3985 42.85C89.0085 42.58 88.5385 42.45 87.9785 42.45C87.1485 42.45 86.5085 42.74 86.0585 43.32C85.6385 43.86 85.4285 44.57 85.4285 45.46C85.4285 46.35 85.6285 47.06 86.0485 47.58C86.4885 48.13 87.1185 48.41 87.9585 48.41C88.5285 48.41 89.0085 48.26 89.4085 47.96C89.8285 47.64 90.1185 47.17 90.2585 46.55H91.0485C90.8885 47.38 90.5185 48.03 89.9285 48.49C89.3785 48.92 88.7185 49.14 87.9585 49.14C86.8485 49.14 85.9985 48.77 85.4085 48.04C84.8685 47.38 84.6085 46.52 84.6085 45.46C84.6085 44.4 84.8785 43.53 85.4285 42.85C86.0285 42.09 86.8885 41.72 87.9885 41.72ZM92.1739 42.38L92.0339 41.69C93.1839 41.57 94.2039 41.35 95.0839 41.02L95.3439 41.69C94.9539 41.82 94.5439 41.94 94.1139 42.04V43.57H95.2939V44.26H94.1139V44.78C94.5539 45.22 94.9939 45.71 95.4439 46.26L95.0439 46.87C94.6839 46.27 94.3739 45.79 94.1139 45.43V50H93.4239V45.49C93.1039 46.39 92.6739 47.21 92.1539 47.95L91.8539 47.17C92.5639 46.31 93.0639 45.34 93.3639 44.26H91.9839V43.57H93.4239V42.19C93.0139 42.26 92.5939 42.32 92.1739 42.38ZM100.274 46.71H95.8239V46.09H99.5839V45.33H95.9639V44.73H99.5839V43.99H95.8839V43.42C95.7839 43.5 95.6739 43.58 95.5739 43.65L95.1539 43.11C96.1139 42.47 96.7639 41.7 97.1039 40.79L97.8139 40.87C97.7339 41.1 97.6339 41.32 97.5239 41.52H99.7839V42.05C99.4839 42.57 99.1839 43 98.8839 43.35H100.274V46.71ZM97.1339 42.15C96.8139 42.59 96.4339 42.99 95.9839 43.35H98.1039C98.4039 43.01 98.6939 42.61 98.9839 42.15H97.1339ZM100.164 47.19C100.524 47.81 100.834 48.47 101.104 49.17L100.514 49.43C100.214 48.66 99.8939 47.98 99.5439 47.39L100.164 47.19ZM95.6239 47.36L96.2439 47.48C96.0739 48.29 95.8339 48.99 95.5239 49.59L94.9439 49.22C95.2539 48.66 95.4839 48.04 95.6239 47.36ZM98.7839 49.91H97.4839C96.9239 49.91 96.6439 49.6 96.6439 49V47.2H97.2939V48.87C97.2939 49.14 97.4239 49.28 97.7039 49.28H98.6639C98.8239 49.28 98.9439 49.24 99.0139 49.17C99.1039 49.08 99.1639 48.81 99.1939 48.35L99.8139 48.54C99.7539 49.19 99.6439 49.59 99.4739 49.73C99.3339 49.85 99.1039 49.91 98.7839 49.91ZM98.1239 47.03C98.5039 47.48 98.7939 47.88 98.9939 48.22L98.4739 48.58C98.2639 48.21 97.9739 47.8 97.6039 47.36L98.1239 47.03ZM103.534 43.8H109.414V44.48H106.874V46.24H109.854V46.92H106.874V48.99C107.574 49.09 108.414 49.15 109.414 49.16C109.924 49.16 110.444 49.14 110.984 49.1L110.854 49.82H109.734C107.714 49.82 106.274 49.63 105.394 49.26C104.734 48.95 104.194 48.47 103.784 47.82C103.394 48.68 102.914 49.4 102.344 49.98L101.884 49.41C102.844 48.39 103.484 47.02 103.824 45.3L104.524 45.42C104.404 46.04 104.244 46.61 104.064 47.13C104.544 47.99 105.144 48.53 105.864 48.76C105.954 48.79 106.054 48.82 106.154 48.84V44.48H103.534V43.8ZM110.554 41.85V43.98H109.854V42.51H103.074V44.03H102.374V41.85H106.194C106.044 41.49 105.874 41.16 105.694 40.86L106.464 40.74C106.624 41.07 106.784 41.44 106.924 41.85H110.554ZM119.244 48.79H118.344L118.144 48.07L119.004 48.1C119.264 48.1 119.394 47.96 119.394 47.7V44.53H116.854V50.02H116.114V44.53H113.564V48.81H112.844V43.83H116.114V42.26C114.954 42.35 113.704 42.4 112.344 42.4L112.124 41.73C115.384 41.72 118.084 41.45 120.234 40.91L120.594 41.54C119.524 41.83 118.274 42.05 116.854 42.2V43.83H120.114V47.86C120.114 48.48 119.824 48.79 119.244 48.79Z" fill="#9A9A9A"/>
<defs>
<filter id="filter0_i_848_446" x="0" y="0" width="161" height="84" filterUnits="userSpaceOnUse" color-interpolation-filters="sRGB">
<feFlood flood-opacity="0" result="BackgroundImageFix"/>
<feBlend mode="normal" in="SourceGraphic" in2="BackgroundImageFix" result="shape"/>
<feColorMatrix in="SourceAlpha" type="matrix" values="0 0 0 0 0 0 0 0 0 0 0 0 0 0 0 0 0 0 127 0" result="hardAlpha"/>
<feOffset dx="3" dy="3"/>
<feGaussianBlur stdDeviation="7.5"/>
<feComposite in2="hardAlpha" operator="arithmetic" k2="-1" k3="1"/>
<feColorMatrix type="matrix" values="0 0 0 0 0 0 0 0 0 0.616667 0 0 0 0 1 0 0 0 0.6 0"/>
<feBlend mode="normal" in2="shape" result="effect1_innerShadow_848_446"/>
</filter>
<linearGradient id="paint0_linear_848_446" x1="79" y1="0" x2="79" y2="74" gradientUnits="userSpaceOnUse">
<stop stop-color="#0065FE" stop-opacity="0.5"/>
<stop offset="1" stop-color="#024D9D" stop-opacity="0.5"/>
</linearGradient>
</defs>
</svg>
