<svg width="159" height="81" viewBox="0 0 159 81" fill="none" xmlns="http://www.w3.org/2000/svg">
<g filter="url(#filter0_i_848_461)">
<path d="M0 4C0 1.79086 1.79086 0 4 0H155C157.209 0 159 1.79086 159 4V77C159 79.2091 157.209 81 155 81H4C1.79086 81 0 79.2091 0 77V4Z" fill="url(#paint0_linear_848_461)"/>
</g>
<path d="M134.809 55.528C136.801 55.528 138.361 56.344 139.489 58.024C140.545 59.608 141.073 61.744 141.073 64.432C141.073 67.12 140.545 69.256 139.489 70.84C138.361 72.496 136.801 73.336 134.809 73.336C132.793 73.336 131.233 72.496 130.129 70.84C129.073 69.256 128.545 67.12 128.545 64.432C128.545 61.744 129.073 59.608 130.129 58.024C131.233 56.344 132.793 55.528 134.809 55.528ZM134.809 57.904C133.441 57.904 132.481 58.648 131.929 60.184C131.545 61.216 131.353 62.632 131.353 64.432C131.353 66.208 131.545 67.624 131.929 68.68C132.481 70.192 133.441 70.96 134.809 70.96C136.153 70.96 137.113 70.192 137.689 68.68C138.073 67.624 138.265 66.208 138.265 64.432C138.265 62.632 138.073 61.216 137.689 60.184C137.113 58.648 136.153 57.904 134.809 57.904ZM150.832 55.864H153.4V67.096H155.944V69.328H153.4V73H150.736V69.328H142.456V66.664L150.832 55.864ZM150.664 59.416L144.736 67.096H150.736V59.416H150.664Z" fill="#93CBFF" fill-opacity="0.5"/>
<path d="M24.81 20.934V23.944H23.774V21.914H14.212V23.93H13.176V20.934H18.496C18.3 20.458 18.09 20.038 17.852 19.646L18.972 19.45C19.196 19.898 19.406 20.388 19.602 20.934H24.81ZM12.84 24.826H16.76C17.18 24.056 17.586 23.3 17.964 22.544L19 22.852C18.636 23.552 18.286 24.21 17.95 24.826H25.188V25.806H22.43C21.856 27.29 21.198 28.452 20.456 29.32C21.898 29.936 23.368 30.664 24.852 31.504L24.18 32.386C22.696 31.518 21.212 30.734 19.728 30.062C18.16 31.462 16.088 32.19 13.484 32.274L12.896 31.336C15.276 31.322 17.222 30.748 18.706 29.614C17.39 29.054 16.088 28.564 14.786 28.144C15.29 27.36 15.766 26.576 16.214 25.806H12.84V24.826ZM17.404 25.806C16.984 26.534 16.592 27.178 16.228 27.738C17.292 28.046 18.37 28.438 19.476 28.9C20.232 28.074 20.848 27.038 21.324 25.806H17.404ZM32.636 19.604H33.364C35.128 21.452 37.158 22.894 39.454 23.958L38.95 24.854C36.626 23.734 34.652 22.292 33 20.514C31.474 22.208 29.472 23.678 26.994 24.924L26.504 24.042C28.968 22.852 31.012 21.368 32.636 19.604ZM29.094 24.028H36.906V24.994H33.518V27.43H37.564V28.396H33.518V30.986H38.838V31.98H27.176V30.986H32.482V28.396H28.422V27.43H32.482V24.994H29.094V24.028ZM53.076 24.77L53.23 25.75L48.904 26.338V30.58C48.904 30.958 49.1 31.154 49.506 31.154H51.536C51.816 31.154 52.026 31.042 52.152 30.832C52.292 30.58 52.39 29.824 52.446 28.564L53.398 28.872C53.314 30.412 53.132 31.35 52.852 31.686C52.6 31.966 52.222 32.12 51.718 32.12H49.198C48.33 32.12 47.896 31.672 47.896 30.79V26.478L45.642 26.786L45.488 25.82L47.896 25.484V21.9C47.238 21.998 46.58 22.068 45.922 22.124L45.614 21.228C48.176 21.004 50.318 20.514 52.054 19.772L52.53 20.612C51.382 21.088 50.178 21.466 48.904 21.718V25.344L53.076 24.77ZM42.45 32.274H40.966L40.756 31.294C41.232 31.322 41.68 31.35 42.1 31.35C42.464 31.35 42.646 31.182 42.646 30.86V27.346C42.044 27.542 41.428 27.71 40.812 27.878L40.56 26.926C41.26 26.772 41.96 26.59 42.646 26.366V23.216H40.7V22.25H42.646V19.618H43.668V22.25H45.068V23.216H43.668V26.016C44.116 25.834 44.564 25.638 44.998 25.442V26.45C44.564 26.646 44.116 26.828 43.668 26.996V31.112C43.668 31.882 43.262 32.274 42.45 32.274ZM65.004 25.092V27.836H58.018V28.802H65.648V32.4H64.654V31.812H58.018V32.386H57.01V25.092H65.004ZM58.018 30.916H64.654V29.614H58.018V30.916ZM58.018 27.024H64.024V25.904H58.018V27.024ZM66.936 23.398V25.932H65.956V24.266H56.044V25.932H55.064V23.398H60.608C60.468 23.062 60.328 22.768 60.174 22.488L61.154 22.32L61.07 22.264C61.742 21.424 62.218 20.514 62.526 19.506L63.492 19.716C63.394 20.01 63.296 20.29 63.184 20.57H67.23V21.452H64.738C65.032 21.844 65.27 22.208 65.438 22.544L64.542 22.88C64.29 22.376 63.996 21.9 63.66 21.452H62.778C62.526 21.928 62.232 22.376 61.924 22.796L61.168 22.334C61.322 22.656 61.476 23.006 61.616 23.398H66.936ZM56.744 21.452C56.408 21.998 56.044 22.502 55.624 22.964L54.742 22.404C55.582 21.536 56.198 20.556 56.59 19.492L57.556 19.702C57.444 20.01 57.318 20.29 57.206 20.57H60.958V21.452H58.606C58.914 21.872 59.18 22.278 59.376 22.656L58.452 23.006C58.2 22.474 57.892 21.956 57.542 21.452H56.744Z" fill="white"/>
<path d="M13.2181 41.04C13.8181 41.23 14.3781 41.46 14.8781 41.74L14.4981 42.32C13.9581 42 13.4181 41.76 12.8681 41.58L13.2181 41.04ZM16.4381 40.8L17.1481 40.89C17.0681 41.11 16.9881 41.33 16.8881 41.53H20.9181V41.96C20.7981 42.45 20.6381 42.94 20.4381 43.42L19.7481 43.21C19.9181 42.9 20.0581 42.55 20.1781 42.16H18.4781C18.4381 42.4 18.3781 42.62 18.2981 42.82C18.8181 43.59 19.8481 44.12 21.3881 44.41L21.1281 45.05C19.6681 44.75 18.6281 44.21 18.0081 43.41C17.8881 43.59 17.7581 43.76 17.6081 43.92C17.1181 44.38 16.3181 44.75 15.1981 45.01L14.9281 44.37C15.9081 44.16 16.6181 43.87 17.0581 43.49C17.4181 43.16 17.6681 42.72 17.7881 42.16H16.5081C16.2281 42.52 15.8981 42.85 15.5181 43.15L15.0981 42.59C15.7581 42.11 16.1981 41.51 16.4381 40.8ZM20.2381 45.28V48.25H19.5181V45.95H14.5281V48.33H13.8081V45.28H20.2381ZM16.7381 46.33L17.4581 46.39C17.3181 47.66 17.0181 48.51 16.5481 48.95C16.0281 49.49 14.8681 49.84 13.0681 49.98L12.7881 49.34C14.3781 49.25 15.4281 48.98 15.9381 48.52C16.3881 48.09 16.6581 47.36 16.7381 46.33ZM14.6081 42.92L15.0281 43.41C14.5281 43.93 13.9081 44.42 13.1681 44.88L12.6881 44.32C13.4481 43.89 14.0881 43.42 14.6081 42.92ZM17.6881 48.22C18.9881 48.56 20.1681 48.97 21.2381 49.45L20.8481 50.05C19.7081 49.51 18.5281 49.08 17.3181 48.77L17.6881 48.22ZM27.0581 40.7C27.2181 41.04 27.3781 41.43 27.5281 41.86H31.0381V42.55H29.2981C29.1781 43.08 29.0181 43.59 28.8081 44.07H31.2481V44.76H24.0681V46.24C24.0281 47.8 23.6681 49.05 22.9781 49.99L22.4281 49.5C23.0081 48.72 23.3181 47.63 23.3381 46.24V44.07H25.3881L24.9681 42.55H23.1381V41.86H26.7981C26.6581 41.48 26.4881 41.14 26.3081 40.83L27.0581 40.7ZM26.0981 44.07H28.1181C28.3381 43.59 28.5081 43.08 28.6081 42.55H25.6781L26.0981 44.07ZM32.8081 41.85H35.5281C35.6581 41.5 35.7781 41.15 35.8781 40.79L36.6081 40.88C36.5081 41.21 36.4081 41.53 36.2981 41.85H41.4181V42.55H36.0281C35.6581 43.41 35.1981 44.2 34.6581 44.92V50.01H33.9581V45.78C33.6181 46.15 33.2681 46.5 32.8881 46.84L32.4381 46.27C33.6581 45.2 34.5881 43.96 35.2381 42.55H32.8081V41.85ZM35.4381 46.5H38.3381V45.57C38.9081 45.25 39.4481 44.88 39.9681 44.44H36.2081V43.77H40.8881V44.44C40.3481 44.94 39.7381 45.42 39.0581 45.87V46.5H41.5581V47.19H39.0581V49.08C39.0581 49.67 38.7581 49.97 38.1681 49.97H36.9181L36.7281 49.29C37.0881 49.3 37.4681 49.31 37.8781 49.31C38.1781 49.31 38.3381 49.15 38.3381 48.85V47.19H35.4381V46.5ZM46.5981 43.15C46.1381 42.31 45.5881 41.67 44.9481 41.21L45.5481 40.83C46.4381 41.45 47.1881 42.58 47.8081 44.2C48.7481 46.59 49.9981 48.28 51.5781 49.27L51.1281 49.85C49.5081 48.87 48.1881 47.05 47.1581 44.41C47.0981 44.25 47.0481 44.11 46.9981 43.99C46.3381 46.54 44.9581 48.5 42.8581 49.86L42.4281 49.25C44.5681 47.85 45.9581 45.81 46.5981 43.15ZM55.9581 41.24H61.4681V41.9H55.9581V41.24ZM56.4681 42.53H60.8781V44.63H56.4681V42.53ZM60.1981 44.08V43.11H57.1481V44.08H60.1981ZM57.0281 47.54H58.7781C58.9781 47.07 59.1481 46.58 59.2981 46.07L59.9081 46.29C59.7581 46.75 59.5881 47.17 59.4081 47.54H60.1981V48.12H58.9481V49.92H58.2881V48.12H57.0281V47.54ZM57.8081 46.15C57.9881 46.47 58.1581 46.85 58.2981 47.27L57.7581 47.4C57.6181 47.03 57.4581 46.67 57.2581 46.33L57.8081 46.15ZM60.5181 49.94H59.7081L59.5281 49.29L60.3081 49.32C60.5181 49.32 60.6281 49.21 60.6281 49V45.88H56.6181V49.99H55.9581V45.26H61.2781V49.14C61.2781 49.67 61.0181 49.94 60.5181 49.94ZM52.8781 41.24H55.6081V41.79C55.3881 42.7 55.1181 43.65 54.8181 44.64C55.2581 45.53 55.4881 46.34 55.5281 47.06C55.5281 47.48 55.4381 47.78 55.2681 47.96C55.0281 48.19 54.6181 48.31 54.0281 48.32L53.8081 47.6C53.9481 47.62 54.0781 47.64 54.1881 47.64C54.4481 47.62 54.6181 47.57 54.7081 47.49C54.7881 47.41 54.8381 47.26 54.8381 47.06C54.8381 46.37 54.5881 45.6 54.1081 44.75C54.4481 43.7 54.7081 42.75 54.8981 41.9H53.5581V50H52.8781V41.24ZM69.5381 44.89V42.72H70.2281V45.49H67.0181C66.9381 45.74 66.8581 45.97 66.7781 46.19H70.8481V49.17C70.8481 49.71 70.5681 49.99 70.0081 49.99H69.1681L68.9881 49.31L69.7781 49.34C70.0281 49.34 70.1581 49.23 70.1581 49.02V46.84H68.3281C68.7281 47.45 69.1081 48.11 69.4581 48.81L68.8781 49.1C68.7881 48.9 68.6981 48.72 68.6181 48.55C67.8481 48.69 66.6281 48.86 64.9581 49.05L64.7881 48.4C64.9481 48.38 65.0481 48.34 65.0981 48.28C65.3581 47.88 65.5981 47.4 65.8381 46.84H63.9381V49.99H63.2481V46.19H66.0881C66.1681 45.97 66.2381 45.73 66.3181 45.49H63.8581V42.72H64.5481V44.89H69.5381ZM68.1081 46.84H66.5281C66.2881 47.42 66.0381 47.91 65.7981 48.33C66.6781 48.24 67.5181 48.13 68.3181 47.99C68.1181 47.64 67.9281 47.32 67.7381 47.02L68.1081 46.84ZM65.4281 42.52C66.0581 42.75 66.6581 43.01 67.2381 43.29C67.6481 43.03 68.0181 42.75 68.3581 42.43L68.8681 42.74C68.5181 43.06 68.1681 43.34 67.8281 43.58C68.2581 43.8 68.6681 44.04 69.0681 44.29L68.7381 44.79C68.2481 44.47 67.7581 44.18 67.2681 43.93C66.7481 44.22 66.0981 44.51 65.2981 44.79L64.9781 44.27C65.5981 44.09 66.1481 43.88 66.6481 43.62C66.1381 43.38 65.6281 43.16 65.1181 42.98L65.4281 42.52ZM67.1781 40.76C67.2981 41 67.4081 41.28 67.5081 41.59H71.3281V42.26H62.7481V41.59H66.7881C66.6781 41.33 66.5581 41.1 66.4381 40.88L67.1781 40.76ZM81.3781 44.55L81.4881 45.25L78.3981 45.67V48.7C78.3981 48.97 78.5381 49.11 78.8281 49.11H80.2781C80.4781 49.11 80.6281 49.03 80.7181 48.88C80.8181 48.7 80.8881 48.16 80.9281 47.26L81.6081 47.48C81.5481 48.58 81.4181 49.25 81.2181 49.49C81.0381 49.69 80.7681 49.8 80.4081 49.8H78.6081C77.9881 49.8 77.6781 49.48 77.6781 48.85V45.77L76.0681 45.99L75.9581 45.3L77.6781 45.06V42.5C77.2081 42.57 76.7381 42.62 76.2681 42.66L76.0481 42.02C77.8781 41.86 79.4081 41.51 80.6481 40.98L80.9881 41.58C80.1681 41.92 79.3081 42.19 78.3981 42.37V44.96L81.3781 44.55ZM73.7881 49.91H72.7281L72.5781 49.21C72.9181 49.23 73.2381 49.25 73.5381 49.25C73.7981 49.25 73.9281 49.13 73.9281 48.9V46.39C73.4981 46.53 73.0581 46.65 72.6181 46.77L72.4381 46.09C72.9381 45.98 73.4381 45.85 73.9281 45.69V43.44H72.5381V42.75H73.9281V40.87H74.6581V42.75H75.6581V43.44H74.6581V45.44C74.9781 45.31 75.2981 45.17 75.6081 45.03V45.75C75.2981 45.89 74.9781 46.02 74.6581 46.14V49.08C74.6581 49.63 74.3681 49.91 73.7881 49.91ZM89.8981 44.78V46.74H84.9081V47.43H90.3581V50H89.6481V49.58H84.9081V49.99H84.1881V44.78H89.8981ZM84.9081 48.94H89.6481V48.01H84.9081V48.94ZM84.9081 46.16H89.1981V45.36H84.9081V46.16ZM91.2781 43.57V45.38H90.5781V44.19H83.4981V45.38H82.7981V43.57H86.7581C86.6581 43.33 86.5581 43.12 86.4481 42.92L87.1481 42.8L87.0881 42.76C87.5681 42.16 87.9081 41.51 88.1281 40.79L88.8181 40.94C88.7481 41.15 88.6781 41.35 88.5981 41.55H91.4881V42.18H89.7081C89.9181 42.46 90.0881 42.72 90.2081 42.96L89.5681 43.2C89.3881 42.84 89.1781 42.5 88.9381 42.18H88.3081C88.1281 42.52 87.9181 42.84 87.6981 43.14L87.1581 42.81C87.2681 43.04 87.3781 43.29 87.4781 43.57H91.2781ZM83.9981 42.18C83.7581 42.57 83.4981 42.93 83.1981 43.26L82.5681 42.86C83.1681 42.24 83.6081 41.54 83.8881 40.78L84.5781 40.93C84.4981 41.15 84.4081 41.35 84.3281 41.55H87.0081V42.18H85.3281C85.5481 42.48 85.7381 42.77 85.8781 43.04L85.2181 43.29C85.0381 42.91 84.8181 42.54 84.5681 42.18H83.9981ZM96.3081 41.23V47.51H95.6681V41.9H93.5081V47.51H92.8481V41.23H96.3081ZM94.2581 42.63H94.8781V45.88C94.8581 47 94.6981 47.9 94.3781 48.57C94.0681 49.19 93.5681 49.68 92.8681 50.03L92.4781 49.43C93.1381 49.1 93.6081 48.66 93.8681 48.11C94.1081 47.53 94.2381 46.79 94.2581 45.88V42.63ZM95.2181 47.79C95.7781 48.35 96.2381 48.9 96.6081 49.44L96.0981 49.95C95.7781 49.41 95.3281 48.84 94.7581 48.24L95.2181 47.79ZM99.0281 45.67H98.1481V49.07C98.5881 48.9 99.0481 48.67 99.5081 48.38L99.6381 49.02C99.0181 49.41 98.3181 49.73 97.5181 49.98L97.2181 49.34C97.3681 49.27 97.4481 49.17 97.4481 49.03V45.67H96.7281V44.97H97.4481V40.84H98.1481V44.97H101.468V45.67H99.6581C100.118 47.27 100.788 48.49 101.658 49.35L101.168 49.91C100.228 48.95 99.5081 47.53 99.0281 45.67ZM100.768 41.29L101.318 41.74C100.618 42.86 99.7881 43.7 98.8481 44.24L98.4581 43.68C99.3581 43.16 100.128 42.36 100.768 41.29ZM110.028 42.77H104.318V44.72H110.028V42.77ZM104.318 45.42C104.268 47.21 103.798 48.75 102.898 50.04L102.368 49.56C103.178 48.44 103.588 46.98 103.608 45.19V42.06H106.868C106.688 41.64 106.498 41.25 106.288 40.89L107.058 40.77C107.238 41.15 107.418 41.58 107.598 42.06H110.758V45.42H104.318Z" fill="#9A9A9A"/>
<defs>
<filter id="filter0_i_848_461" x="0" y="0" width="162" height="84" filterUnits="userSpaceOnUse" color-interpolation-filters="sRGB">
<feFlood flood-opacity="0" result="BackgroundImageFix"/>
<feBlend mode="normal" in="SourceGraphic" in2="BackgroundImageFix" result="shape"/>
<feColorMatrix in="SourceAlpha" type="matrix" values="0 0 0 0 0 0 0 0 0 0 0 0 0 0 0 0 0 0 127 0" result="hardAlpha"/>
<feOffset dx="3" dy="3"/>
<feGaussianBlur stdDeviation="7.5"/>
<feComposite in2="hardAlpha" operator="arithmetic" k2="-1" k3="1"/>
<feColorMatrix type="matrix" values="0 0 0 0 0 0 0 0 0 0.616667 0 0 0 0 1 0 0 0 0.6 0"/>
<feBlend mode="normal" in2="shape" result="effect1_innerShadow_848_461"/>
</filter>
<linearGradient id="paint0_linear_848_461" x1="79.5" y1="0" x2="79.5" y2="74" gradientUnits="userSpaceOnUse">
<stop stop-color="#0065FE" stop-opacity="0.5"/>
<stop offset="1" stop-color="#024D9D" stop-opacity="0.5"/>
</linearGradient>
</defs>
</svg>
