<svg width="540" height="41" viewBox="0 0 540 41" fill="none" xmlns="http://www.w3.org/2000/svg">
<path d="M0.000328302 32.0156V-0.000377655H6.81633V32.0156H0.000328302ZM13.1688 8.63962H25.5528C27.4088 8.63962 28.8168 8.78362 29.7768 9.07162C30.7688 9.32762 31.6648 9.80762 32.4648 10.5116C34.0968 12.0156 34.9128 14.3836 34.9128 17.6156V32.0156H28.4808V16.8956C28.4808 15.7436 28.2248 14.9116 27.7128 14.3996C27.2008 13.8876 26.3528 13.6316 25.1688 13.6316H19.6008V32.0156H13.1688V8.63962ZM51.0468 24.7196L57.5748 8.63962H64.3908L54.3108 32.0156H47.3988L38.0868 8.63962H45.0948L51.0468 24.7196ZM86.9291 17.8076V22.7996H73.3931C73.5211 24.3356 74.0171 25.4236 74.8811 26.0636C75.7451 26.7036 77.1531 27.0236 79.1051 27.0236H86.9291V32.0156H78.3851C76.5291 32.0156 75.0091 31.8556 73.8251 31.5356C72.6731 31.1836 71.5851 30.6236 70.5611 29.8556C67.7131 27.6476 66.2891 24.3676 66.2891 20.0156C66.2891 17.1996 67.0411 14.7356 68.5451 12.6236C69.5691 11.1836 70.8011 10.1596 72.2411 9.55162C73.6811 8.94362 75.5691 8.63962 77.9051 8.63962H86.9291V13.6316H78.3851C76.6251 13.6316 75.3931 13.9356 74.6891 14.5436C73.9851 15.1196 73.5531 16.2076 73.3931 17.8076H86.9291ZM112.457 8.63962V13.6316H101.081C99.7692 13.6316 98.9372 13.6956 98.5852 13.8236C97.8492 14.0796 97.4812 14.7036 97.4812 15.6956C97.4812 16.5276 97.8332 17.1676 98.5372 17.6156C98.9212 17.8716 99.9612 17.9996 101.657 17.9996H105.449C107.881 17.9996 109.801 18.5116 111.209 19.5356C112.777 20.6876 113.561 22.3836 113.561 24.6236C113.561 26.3196 113.081 27.8716 112.121 29.2796C111.417 30.3996 110.553 31.1356 109.529 31.4876C108.537 31.8396 106.857 32.0156 104.489 32.0156H91.1932V27.0236H102.665C104.073 27.0236 105.033 27.0076 105.545 26.9756C106.697 26.8476 107.273 26.1916 107.273 25.0076C107.273 24.0476 106.889 23.3916 106.121 23.0396C105.737 22.8476 104.809 22.7516 103.337 22.7516H99.4492C97.9132 22.7516 96.7292 22.6556 95.8972 22.4636C95.0972 22.2716 94.3452 21.9196 93.6412 21.4076C92.7772 20.7996 92.0892 19.9676 91.5772 18.9116C91.0972 17.8236 90.8572 16.6716 90.8572 15.4556C90.8572 13.1196 91.7052 11.2636 93.4012 9.88762C94.4252 9.05562 96.2012 8.63962 98.7292 8.63962H112.457ZM120.178 8.63962V-0.000377655H126.61V8.63962H132.562V13.6316H126.61V22.1276C126.61 24.1116 126.786 25.3596 127.138 25.8716C127.682 26.6396 128.642 27.0236 130.018 27.0236H132.562V32.0156H127.906C125.122 32.0156 123.138 31.3436 121.954 29.9996C120.77 28.6556 120.178 26.3996 120.178 23.2316V13.6316H116.098V8.63962H120.178ZM147.719 8.30362C152.039 8.30362 155.223 9.55162 157.271 12.0476C159.159 14.3196 160.103 17.1836 160.103 20.6396C160.103 24.2876 158.919 27.1996 156.551 29.3756C154.375 31.3596 151.399 32.3516 147.623 32.3516C143.719 32.3516 140.663 31.2316 138.455 28.9916C136.407 26.9756 135.383 24.0316 135.383 20.1596C135.383 16.8956 136.359 14.1756 138.311 11.9996C140.487 9.56762 143.623 8.33562 147.719 8.30362ZM147.767 13.1996C143.895 13.1996 141.959 15.5996 141.959 20.3996C141.959 22.3516 142.279 23.8396 142.919 24.8636C143.975 26.5916 145.607 27.4556 147.815 27.4556C151.623 27.4556 153.527 25.0716 153.527 20.3036C153.527 15.6316 151.607 13.2636 147.767 13.1996ZM164.856 8.63962H174.36C176.312 8.63962 177.816 8.78362 178.872 9.07162C179.96 9.32762 180.856 9.77562 181.56 10.4156C182.264 11.0556 182.76 11.8556 183.048 12.8156C183.336 13.7756 183.48 15.1516 183.48 16.9436V19.1996H177.288V17.9516C177.288 16.2876 177 15.1516 176.424 14.5436C175.848 13.9356 174.744 13.6316 173.112 13.6316H171.288V32.0156H164.856V8.63962ZM207.613 8.63962V13.6316H196.237C194.925 13.6316 194.093 13.6956 193.741 13.8236C193.005 14.0796 192.637 14.7036 192.637 15.6956C192.637 16.5276 192.989 17.1676 193.693 17.6156C194.077 17.8716 195.117 17.9996 196.813 17.9996H200.605C203.037 17.9996 204.957 18.5116 206.365 19.5356C207.933 20.6876 208.717 22.3836 208.717 24.6236C208.717 26.3196 208.237 27.8716 207.277 29.2796C206.573 30.3996 205.709 31.1356 204.685 31.4876C203.693 31.8396 202.013 32.0156 199.645 32.0156H186.349V27.0236H197.821C199.229 27.0236 200.189 27.0076 200.701 26.9756C201.853 26.8476 202.429 26.1916 202.429 25.0076C202.429 24.0476 202.045 23.3916 201.277 23.0396C200.893 22.8476 199.965 22.7516 198.493 22.7516H194.605C193.069 22.7516 191.885 22.6556 191.053 22.4636C190.253 22.2716 189.501 21.9196 188.797 21.4076C187.933 20.7996 187.245 19.9676 186.733 18.9116C186.253 17.8236 186.013 16.6716 186.013 15.4556C186.013 13.1196 186.861 11.2636 188.557 9.88762C189.581 9.05562 191.357 8.63962 193.885 8.63962H207.613ZM253.734 17.8076C253.734 16.1756 253.398 15.0716 252.726 14.4956C252.086 13.9196 250.79 13.6316 248.838 13.6316H237.99V8.63962H248.838C250.79 8.63962 252.134 8.68762 252.87 8.78362C253.606 8.84762 254.358 8.99162 255.126 9.21562C258.678 10.5596 260.358 13.7756 260.166 18.8636V32.0156H246.63C244.198 32.0156 242.518 31.9516 241.59 31.8236C240.662 31.6636 239.846 31.3596 239.142 30.9116C237.254 29.6316 236.31 27.6956 236.31 25.1036C236.31 23.5356 236.678 22.1436 237.414 20.9276C238.182 19.6796 239.19 18.8316 240.438 18.3836C241.526 17.9996 243.334 17.8076 245.862 17.8076H253.734ZM253.734 22.7996H246.342H245.238C244.502 22.7996 243.91 22.9916 243.462 23.3756C243.046 23.7596 242.838 24.2876 242.838 24.9596C242.838 25.6956 243.094 26.2236 243.606 26.5436C244.15 26.8636 245.062 27.0236 246.342 27.0236H253.734V22.7996ZM266.153 8.63962H278.537C280.393 8.63962 281.801 8.78362 282.761 9.07162C283.753 9.32762 284.649 9.80762 285.449 10.5116C287.081 12.0156 287.897 14.3836 287.897 17.6156V32.0156H281.465V16.8956C281.465 15.7436 281.209 14.9116 280.697 14.3996C280.185 13.8876 279.337 13.6316 278.153 13.6316H272.585V32.0156H266.153V8.63962ZM309.599 8.63962V-0.000377655H315.983V32.0156H304.943C302.703 32.0156 301.007 31.8396 299.855 31.4876C297.135 30.6236 295.103 28.9276 293.759 26.3996C292.831 24.7036 292.367 22.6236 292.367 20.1596C292.367 16.1596 293.711 13.0556 296.399 10.8476C298.159 9.37562 300.543 8.63962 303.551 8.63962H309.599ZM309.599 27.0236V13.6316H304.943C302.895 13.6316 301.343 14.3196 300.287 15.6956C299.359 16.8476 298.895 18.3356 298.895 20.1596C298.895 22.8156 299.663 24.7196 301.199 25.8716C302.255 26.6396 303.503 27.0236 304.943 27.0236H309.599ZM346.263 8.63962H357.495C359.671 8.63962 361.319 8.78362 362.439 9.07162C363.559 9.32762 364.631 9.85562 365.655 10.6556C368.439 12.8316 369.831 16.1756 369.831 20.6876C369.831 24.1116 368.807 26.8796 366.759 28.9916C365.735 30.0476 364.551 30.8156 363.207 31.2956C361.895 31.7756 360.279 32.0156 358.359 32.0156H352.695V40.7996H346.263V8.63962ZM352.695 13.6316V27.0236H356.631C358.711 27.0236 360.231 26.5756 361.191 25.6796C362.535 24.4956 363.207 22.6716 363.207 20.2076C363.207 18.0956 362.679 16.4796 361.623 15.3596C360.567 14.2076 359.047 13.6316 357.063 13.6316H352.695ZM390.656 17.8076C390.656 16.1756 390.32 15.0716 389.648 14.4956C389.008 13.9196 387.712 13.6316 385.76 13.6316H374.912V8.63962H385.76C387.712 8.63962 389.056 8.68762 389.792 8.78362C390.528 8.84762 391.28 8.99162 392.048 9.21562C395.6 10.5596 397.28 13.7756 397.088 18.8636V32.0156H383.552C381.12 32.0156 379.44 31.9516 378.512 31.8236C377.584 31.6636 376.768 31.3596 376.064 30.9116C374.176 29.6316 373.232 27.6956 373.232 25.1036C373.232 23.5356 373.6 22.1436 374.336 20.9276C375.104 19.6796 376.112 18.8316 377.36 18.3836C378.448 17.9996 380.256 17.8076 382.784 17.8076H390.656ZM390.656 22.7996H383.264H382.16C381.424 22.7996 380.832 22.9916 380.384 23.3756C379.968 23.7596 379.76 24.2876 379.76 24.9596C379.76 25.6956 380.016 26.2236 380.528 26.5436C381.072 26.8636 381.984 27.0236 383.264 27.0236H390.656V22.7996ZM403.075 8.63962H412.579C414.531 8.63962 416.035 8.78362 417.091 9.07162C418.179 9.32762 419.075 9.77562 419.779 10.4156C420.483 11.0556 420.979 11.8556 421.267 12.8156C421.555 13.7756 421.699 15.1516 421.699 16.9436V19.1996H415.507V17.9516C415.507 16.2876 415.219 15.1516 414.643 14.5436C414.067 13.9356 412.963 13.6316 411.331 13.6316H409.507V32.0156H403.075V8.63962ZM427.256 8.63962V-0.000377655H433.688V8.63962H439.64V13.6316H433.688V22.1276C433.688 24.1116 433.864 25.3596 434.216 25.8716C434.76 26.6396 435.72 27.0236 437.096 27.0236H439.64V32.0156H434.984C432.2 32.0156 430.216 31.3436 429.032 29.9996C427.848 28.6556 427.256 26.3996 427.256 23.2316V13.6316H423.176V8.63962H427.256ZM443.997 8.63962H456.381C458.237 8.63962 459.645 8.78362 460.605 9.07162C461.597 9.32762 462.493 9.80762 463.293 10.5116C464.925 12.0156 465.741 14.3836 465.741 17.6156V32.0156H459.309V16.8956C459.309 15.7436 459.053 14.9116 458.541 14.3996C458.029 13.8876 457.181 13.6316 455.997 13.6316H450.429V32.0156H443.997V8.63962ZM490.851 17.8076V22.7996H477.315C477.443 24.3356 477.939 25.4236 478.803 26.0636C479.667 26.7036 481.075 27.0236 483.027 27.0236H490.851V32.0156H482.307C480.451 32.0156 478.931 31.8556 477.747 31.5356C476.595 31.1836 475.507 30.6236 474.483 29.8556C471.635 27.6476 470.211 24.3676 470.211 20.0156C470.211 17.1996 470.963 14.7356 472.467 12.6236C473.491 11.1836 474.723 10.1596 476.163 9.55162C477.603 8.94362 479.491 8.63962 481.827 8.63962H490.851V13.6316H482.307C480.547 13.6316 479.315 13.9356 478.611 14.5436C477.907 15.1196 477.475 16.2076 477.315 17.8076H490.851ZM496.075 8.63962H505.579C507.531 8.63962 509.035 8.78362 510.091 9.07162C511.179 9.32762 512.075 9.77562 512.779 10.4156C513.483 11.0556 513.979 11.8556 514.267 12.8156C514.555 13.7756 514.699 15.1516 514.699 16.9436V19.1996H508.507V17.9516C508.507 16.2876 508.219 15.1516 507.643 14.5436C507.067 13.9356 505.963 13.6316 504.331 13.6316H502.507V32.0156H496.075V8.63962ZM538.832 8.63962V13.6316H527.456C526.144 13.6316 525.312 13.6956 524.96 13.8236C524.224 14.0796 523.856 14.7036 523.856 15.6956C523.856 16.5276 524.208 17.1676 524.912 17.6156C525.296 17.8716 526.336 17.9996 528.032 17.9996H531.824C534.256 17.9996 536.176 18.5116 537.584 19.5356C539.152 20.6876 539.936 22.3836 539.936 24.6236C539.936 26.3196 539.456 27.8716 538.496 29.2796C537.792 30.3996 536.928 31.1356 535.904 31.4876C534.912 31.8396 533.232 32.0156 530.864 32.0156H517.568V27.0236H529.04C530.448 27.0236 531.408 27.0076 531.92 26.9756C533.072 26.8476 533.648 26.1916 533.648 25.0076C533.648 24.0476 533.264 23.3916 532.496 23.0396C532.112 22.8476 531.184 22.7516 529.712 22.7516H525.824C524.288 22.7516 523.104 22.6556 522.272 22.4636C521.472 22.2716 520.72 21.9196 520.016 21.4076C519.152 20.7996 518.464 19.9676 517.952 18.9116C517.472 17.8236 517.232 16.6716 517.232 15.4556C517.232 13.1196 518.08 11.2636 519.776 9.88762C520.8 9.05562 522.576 8.63962 525.104 8.63962H538.832Z" fill="url(#paint0_linear_797_239)"/>
<defs>
<linearGradient id="paint0_linear_797_239" x1="120.113" y1="3.80211" x2="120.113" y2="33.8972" gradientUnits="userSpaceOnUse">
<stop stop-color="#1BFFE4"/>
<stop offset="1" stop-color="#3183FF"/>
</linearGradient>
</defs>
</svg>
