<svg width="34" height="34" viewBox="0 0 34 34" fill="none" xmlns="http://www.w3.org/2000/svg">
<path fill-rule="evenodd" clip-rule="evenodd" d="M11.8922 0.215162L1.64808 8.46196C1.4205 8.64461 1.28802 8.92066 1.28802 9.21256C1.28802 9.50437 1.4205 9.78052 1.64808 9.96307L11.8878 18.2181C12.5166 18.7226 13.4556 18.2761 13.4556 17.4652V12.1552H25.2091C28.7742 12.1552 30.5858 13.458 32.12 15.1824C32.3929 15.4928 32.9056 15.2569 32.8477 14.8475C31.7023 6.77465 24.9611 6.36926 22.0452 6.36926H13.4596V0.968092C13.4596 0.157205 12.5209 -0.293624 11.8922 0.215162ZM22.2522 33.7848L32.4963 25.5384C32.9759 25.1496 32.9759 24.4215 32.5003 24.033L22.2562 15.7862C21.6274 15.2817 20.6887 15.7282 20.6887 16.5391V21.8452H8.93526C5.37012 21.8452 3.55863 20.5425 2.0244 18.8177C1.75147 18.5076 1.23865 18.7431 1.2963 19.1529C2.44201 27.2257 9.18334 27.6308 12.0988 27.6308H20.6848V33.0323C20.6848 33.8428 21.6235 34.2936 22.2522 33.7848Z" fill="url(#paint0_linear_132_262)"/>
<defs>
<linearGradient id="paint0_linear_132_262" x1="1.28802" y1="0" x2="1.28802" y2="34" gradientUnits="userSpaceOnUse">
<stop stop-color="#05FFEF"/>
<stop offset="1" stop-color="#0051FF"/>
</linearGradient>
</defs>
</svg>
