<svg width="34" height="34" viewBox="0 0 34 34" fill="none" xmlns="http://www.w3.org/2000/svg">
<rect x="11" y="12" width="20.5" height="20.5" rx="2" fill="#EDEFFC"/>
<path d="M24.9263 26H23.1968L22.5093 24.2114H19.3618L18.7119 26H17.0254L20.0923 18.126H21.7734L24.9263 26ZM21.999 22.8848L20.9141 19.9629L19.8506 22.8848H21.999Z" fill="#335EFF"/>
<rect x="2" y="1" width="20" height="20" rx="2" fill="#3881FC"/>
<path d="M7.968 7.564H17.054V13.086H15.668V8.862H9.288V13.141H7.968V7.564ZM8.65 11.238H16.438V12.536H8.65V11.238ZM11.774 5.65H13.171V15.979H11.774V5.65Z" fill="white"/>
<path d="M3.99973 23.5C3.83306 25.3333 4.79973 29.1 9.99973 29.5" stroke="#335EFF" stroke-linecap="round"/>
<path d="M30.054 7.9447C30.1818 6.10825 29.1357 2.36289 23.9284 2.07301" stroke="#335EFF" stroke-linecap="round"/>
</svg>
