<svg width="31" height="14" viewBox="0 0 31 14" fill="none" xmlns="http://www.w3.org/2000/svg">
<path d="M14 7C14 3.12429 10.8757 0 7 0C3.12429 0 0 3.12429 0 7C0 10.8362 3.12429 14 6.96045 14H7.03955C10.8757 14 14 10.8362 14 7ZM1.93785 10.9548C1.14689 9.92655 0.632768 8.66102 0.553672 7.27684H3.67797C3.67797 7.9096 3.75706 8.9774 4.0339 10.0452C3.20339 10.2429 2.41243 10.5198 1.93785 10.9548ZM1.89831 3.0452C2.37288 3.48023 3.16384 3.79661 4.0339 3.99435C3.79661 5.06215 3.71751 6.09039 3.71751 6.72316H0.59322C0.632768 5.33898 1.10734 4.07345 1.89831 3.0452ZM12.1017 3.0452C12.8927 4.07345 13.3672 5.33898 13.4463 6.72316H10.322C10.322 6.09039 10.2429 5.06215 9.9661 3.99435C10.8362 3.79661 11.6271 3.48023 12.1017 3.0452ZM9.76836 6.72316H7.27684V4.27119C7.9096 4.27119 8.66102 4.19209 9.41243 4.07345C9.68927 5.14124 9.72881 6.16949 9.76836 6.72316ZM7.27684 3.71751V0.711864C8.30508 1.26554 8.8983 2.41243 9.25424 3.55932C8.58192 3.67797 7.87006 3.71751 7.27684 3.71751ZM6.72316 0.711864V3.71751C6.12994 3.71751 5.41808 3.63842 4.74576 3.55932C5.06215 2.41243 5.69491 1.30508 6.72316 0.711864ZM6.72316 4.27119V6.72316H4.23164C4.23164 6.16949 4.31073 5.14124 4.58757 4.11299C5.37853 4.23164 6.16949 4.27119 6.72316 4.27119ZM4.23164 7.27684H6.72316V9.76836C6.16949 9.76836 5.41808 9.80791 4.58757 9.9661C4.31073 8.85876 4.27119 7.83051 4.23164 7.27684ZM6.72316 10.322V13.2881C5.69491 12.7345 5.10169 11.6271 4.74576 10.4802C5.41808 10.3616 6.12994 10.322 6.72316 10.322ZM7.27684 13.2881V10.322C7.87006 10.322 8.58192 10.4011 9.25424 10.5198C8.8983 11.6271 8.30508 12.7345 7.27684 13.2881ZM7.27684 9.76836V7.27684H9.76836C9.76836 7.83051 9.68927 8.85876 9.41243 9.9661C8.66102 9.84746 7.87006 9.76836 7.27684 9.76836ZM10.322 7.27684H13.4463C13.3672 8.66102 12.8927 9.92655 12.0621 10.9548C11.5876 10.5198 10.7966 10.2429 9.9661 10.0452C10.2034 8.9774 10.2825 7.9096 10.322 7.27684ZM11.7458 2.64972C11.3503 3.00565 10.6384 3.28249 9.84746 3.44068C9.53107 2.41243 9.01695 1.38418 8.18644 0.672316C9.57062 0.909604 10.7966 1.62147 11.7458 2.64972ZM5.81356 0.672316C4.98305 1.38418 4.46893 2.41243 4.15254 3.48023C3.36158 3.28249 2.64972 3.00565 2.25424 2.64972C3.20339 1.62147 4.42938 0.909604 5.81356 0.672316ZM2.29379 11.3898C2.68927 11.0339 3.40113 10.7571 4.19209 10.5989C4.50847 11.6271 5.0226 12.6554 5.81356 13.3277C4.42938 13.0904 3.20339 12.3785 2.29379 11.3898ZM8.18644 13.3277C9.01695 12.6158 9.49152 11.6271 9.80791 10.5989C10.5989 10.7571 11.3107 11.0339 11.7062 11.3898C10.7966 12.3785 9.57062 13.0904 8.18644 13.3277Z" fill="white"/>
<path d="M30.2613 9.87139L26.5213 6.03103L22.7259 9.84653C22.5592 10.0159 22.2884 10.0153 22.121 9.84522C21.9536 9.67517 21.953 9.40001 22.1625 9.23075L26.1686 5.1606C26.229 5.1057 26.3005 5.0426 26.3391 5.03214C26.4963 4.96784 26.6896 5.00003 26.8484 5.12864L30.9105 9.25565C31.0357 9.42643 31.0364 9.70283 30.869 9.8729C30.7016 10.0429 30.4295 10.0423 30.2613 9.87139Z" fill="white"/>
</svg>
