<svg width="33" height="34" viewBox="0 0 33 34" fill="none" xmlns="http://www.w3.org/2000/svg">
<path d="M15.7857 33.999C25.1745 33.999 32.7856 26.3881 32.7856 16.9995C32.7856 7.61094 25.1745 0 15.7857 0H8.5V7.2855H15.7857C21.1507 7.2855 25.4999 11.6346 25.4999 16.9995C25.4999 22.3644 21.1507 26.7135 15.7857 26.7135H8.5V33.999H15.7857Z" fill="#007AFF"/>
<path d="M32.4111 13.3569C32.6552 14.5304 32.7851 15.7492 32.7852 16.9995C32.785 26.3879 25.5363 33.9994 16.5947 33.9995H8.5V26.7144H16.5947C24.3454 26.7143 30.8228 20.9948 32.4111 13.3569Z" fill="url(#paint0_linear_769_356)"/>
<path d="M8.49996 8.49951C8.49996 8.49951 8.96895 12.8768 10.7957 14.7036C12.6225 16.5303 16.9999 16.9993 16.9999 16.9993C16.9999 16.9993 12.6225 17.4682 10.7957 19.295C8.96895 21.1217 8.49996 25.499 8.49996 25.499C8.49996 25.499 8.03098 21.1217 6.2042 19.295C4.37743 17.4682 0 16.9993 0 16.9993C0 16.9993 4.37743 16.5303 6.2042 14.7036C8.03098 12.8768 8.49996 8.49951 8.49996 8.49951Z" fill="#00FFFF"/>
<defs>
<linearGradient id="paint0_linear_769_356" x1="32.7852" y1="17.6069" x2="11.5355" y2="29.7494" gradientUnits="userSpaceOnUse">
<stop stop-color="#96FFFD"/>
<stop offset="1" stop-color="#007AFF"/>
</linearGradient>
</defs>
</svg>
