<svg width="139" height="33" viewBox="0 0 139 33" fill="none" xmlns="http://www.w3.org/2000/svg">
<path d="M11.2411 6.36C18.4611 6.36 22.0711 9.8 22.0711 16.68C22.0711 23.56 18.4611 27 11.2411 27H2.30105V6.36H11.2411ZM8.93106 22.05H11.1211C13.9011 22.05 15.2911 20.56 15.2911 17.58V15.78C15.2911 12.8 13.9011 11.31 11.1211 11.31H8.93106V22.05ZM33.4207 10.8C36.3207 10.8 38.5307 11.48 40.0507 12.84C41.5907 14.2 42.3607 16.28 42.3607 19.08V20.1H30.4807C30.4807 21.24 30.7307 22.1 31.2307 22.68C31.7507 23.26 32.5607 23.55 33.6607 23.55C34.6607 23.55 35.3907 23.34 35.8507 22.92C36.3307 22.5 36.5707 21.94 36.5707 21.24H42.3607C42.3607 23.16 41.6307 24.66 40.1707 25.74C38.7107 26.82 36.5807 27.36 33.7807 27.36C30.8407 27.36 28.5607 26.68 26.9407 25.32C25.3207 23.94 24.5107 21.86 24.5107 19.08C24.5107 16.36 25.3007 14.3 26.8807 12.9C28.4607 11.5 30.6407 10.8 33.4207 10.8ZM33.6607 14.61C31.7807 14.61 30.7307 15.5 30.5107 17.28H36.3307C36.3307 16.46 36.0907 15.81 35.6107 15.33C35.1507 14.85 34.5007 14.61 33.6607 14.61ZM54.3304 6C56.9704 6 59.1404 6.54 60.8404 7.62C62.5404 8.68 63.4104 10.26 63.4504 12.36V12.72H57.2404V12.6C57.2404 12 57.0204 11.5 56.5804 11.1C56.1404 10.7 55.4704 10.5 54.5704 10.5C53.6904 10.5 53.0104 10.63 52.5304 10.89C52.0704 11.15 51.8404 11.47 51.8404 11.85C51.8404 12.39 52.1604 12.79 52.8004 13.05C53.4404 13.31 54.4704 13.58 55.8904 13.86C57.5504 14.2 58.9104 14.56 59.9704 14.94C61.0504 15.3 61.9904 15.9 62.7904 16.74C63.5904 17.58 64.0004 18.72 64.0204 20.16C64.0204 22.6 63.1904 24.41 61.5304 25.59C59.8904 26.77 57.6904 27.36 54.9304 27.36C51.7104 27.36 49.2004 26.82 47.4004 25.74C45.6204 24.66 44.7304 22.75 44.7304 20.01H51.0004C51.0004 21.05 51.2704 21.75 51.8104 22.11C52.3504 22.45 53.1904 22.62 54.3304 22.62C55.1704 22.62 55.8604 22.53 56.4004 22.35C56.9604 22.17 57.2404 21.8 57.2404 21.24C57.2404 20.74 56.9304 20.37 56.3104 20.13C55.7104 19.87 54.7204 19.6 53.3404 19.32C51.6604 18.96 50.2704 18.59 49.1704 18.21C48.0704 17.81 47.1104 17.16 46.2904 16.26C45.4704 15.36 45.0604 14.14 45.0604 12.6C45.0604 10.34 45.9304 8.68 47.6704 7.62C49.4304 6.54 51.6504 6 54.3304 6ZM72.8608 12.81C73.5008 12.17 74.2508 11.68 75.1108 11.34C75.9708 10.98 76.8708 10.8 77.8108 10.8C79.6508 10.8 81.0308 11.31 81.9508 12.33C82.8708 13.35 83.3308 14.82 83.3308 16.74V27H77.3608V17.46C77.3608 16.78 77.1808 16.24 76.8208 15.84C76.4808 15.42 75.9908 15.21 75.3508 15.21C74.6108 15.21 74.0108 15.45 73.5508 15.93C73.0908 16.41 72.8608 17 72.8608 17.7V27H66.8908V5.25H72.8608V12.81ZM94.7306 10.8C97.1506 10.8 99.1206 11.21 100.641 12.03C102.161 12.83 102.921 14.14 102.921 15.96V22.14C102.921 22.48 103.001 22.76 103.161 22.98C103.321 23.2 103.561 23.31 103.881 23.31H104.961V26.76C104.901 26.8 104.741 26.87 104.481 26.97C104.241 27.05 103.891 27.13 103.431 27.21C102.971 27.31 102.441 27.36 101.841 27.36C100.681 27.36 99.7206 27.19 98.9606 26.85C98.2206 26.49 97.7106 26 97.4306 25.38C96.6706 25.98 95.8206 26.46 94.8806 26.82C93.9406 27.18 92.8406 27.36 91.5806 27.36C87.8606 27.36 86.0006 25.88 86.0006 22.92C86.0006 21.38 86.4106 20.21 87.2306 19.41C88.0706 18.59 89.2706 18.03 90.8306 17.73C92.3906 17.43 94.4306 17.28 96.9506 17.28V16.5C96.9506 15.88 96.7306 15.41 96.2906 15.09C95.8706 14.77 95.3206 14.61 94.6406 14.61C94.0206 14.61 93.4806 14.72 93.0206 14.94C92.5806 15.16 92.3606 15.51 92.3606 15.99V16.11H86.4806C86.4606 16.01 86.4506 15.87 86.4506 15.69C86.4506 14.19 87.1606 13 88.5806 12.12C90.0206 11.24 92.0706 10.8 94.7306 10.8ZM96.9506 20.1C95.2506 20.1 93.9906 20.29 93.1706 20.67C92.3706 21.03 91.9706 21.52 91.9706 22.14C91.9706 23.14 92.6506 23.64 94.0106 23.64C94.7906 23.64 95.4706 23.43 96.0506 23.01C96.6506 22.59 96.9506 22.07 96.9506 21.45V20.1ZM116.54 10.77C117 10.77 117.41 10.83 117.77 10.95C118.13 11.05 118.31 11.11 118.31 11.13V16.14H116.39C115.15 16.14 114.25 16.46 113.69 17.1C113.15 17.74 112.88 18.69 112.88 19.95V27H106.91V11.16H111.8L112.19 13.56C112.55 12.64 113.12 11.95 113.9 11.49C114.68 11.01 115.56 10.77 116.54 10.77ZM128.899 10.8C131.799 10.8 134.009 11.48 135.529 12.84C137.069 14.2 137.839 16.28 137.839 19.08V20.1H125.959C125.959 21.24 126.209 22.1 126.709 22.68C127.229 23.26 128.039 23.55 129.139 23.55C130.139 23.55 130.869 23.34 131.329 22.92C131.809 22.5 132.049 21.94 132.049 21.24H137.839C137.839 23.16 137.109 24.66 135.649 25.74C134.189 26.82 132.059 27.36 129.259 27.36C126.319 27.36 124.039 26.68 122.419 25.32C120.799 23.94 119.989 21.86 119.989 19.08C119.989 16.36 120.779 14.3 122.359 12.9C123.939 11.5 126.119 10.8 128.899 10.8ZM129.139 14.61C127.259 14.61 126.209 15.5 125.989 17.28H131.809C131.809 16.46 131.569 15.81 131.089 15.33C130.629 14.85 129.979 14.61 129.139 14.61Z" fill="white"/>
</svg>
