<svg width="34" height="34" viewBox="0 0 34 34" fill="none" xmlns="http://www.w3.org/2000/svg">
<path fill-rule="evenodd" clip-rule="evenodd" d="M17 0C7.61087 0 0 7.6052 0 16.9861C0 25.6519 6.49381 32.8022 14.8849 33.8416C15.358 33.9415 15.934 34 16.6205 34C16.8129 34 16.9989 33.9893 17.1785 33.9713C26.4847 33.8756 34 26.3087 34 16.9861C34 7.6052 26.389 0 17 0ZM14.3196 32.325C7.00401 31.0476 1.44221 24.67 1.44221 16.9936C1.44221 15.8936 1.55705 14.8191 1.77501 13.784C2.44771 14.5024 4.03344 14.4856 4.41926 13.4111C5.1111 13.8234 6.0412 13.8977 6.0412 14.7225C6.0412 17.4421 6.13785 20.3583 8.61005 20.403C8.67914 20.403 9.98737 20.8993 10.6103 22.5135C10.826 23.0727 11.6773 22.5135 12.6116 22.5135C13.0781 22.5135 12.6116 23.3 12.6116 24.9984C12.6116 26.6903 16.2603 29.2962 16.2603 29.2962C16.2433 30.4163 16.2889 31.3218 16.3825 32.0456C15.5588 32.0295 14.8648 32.139 14.3206 32.325H14.3196ZM20.8549 32.0827C20.7742 31.6874 20.4201 31.4705 19.7761 31.6407C20.2905 29.4503 20.5403 28.2238 21.6149 27.2917C23.1666 25.9452 21.7986 24.4478 20.6168 24.6243C19.6847 24.7657 20.2735 23.4711 19.4424 23.399C18.6103 23.3298 17.525 21.6761 16.3283 21.1064C15.6937 20.8058 15.0698 19.998 14.0911 19.9619C13.2238 19.928 11.9569 20.6952 11.9569 20.1033C11.9569 18.1998 11.7634 16.8405 11.7241 16.2985C11.6922 15.8628 11.4392 16.1519 12.6116 16.1795C13.2492 16.1965 12.9379 14.8978 13.5702 14.8478C14.1898 14.799 15.6682 15.4282 16.0445 15.1774C16.3952 14.9435 18.6166 21.0088 18.6166 16.1795C18.6166 15.6067 18.319 14.6109 18.6166 14.0678C19.7899 11.9241 20.8878 10.176 20.7901 9.91979C20.7338 9.77644 19.589 9.65742 18.6729 9.96454C18.3647 10.0687 18.7718 10.5522 18.3274 10.6552C16.6642 11.04 15.1942 10.2068 15.7086 9.42452C16.2358 8.6233 18.1458 9.07489 18.3127 7.46592C18.4082 6.54447 18.4889 5.47743 18.5421 4.68464C20.7816 5.03423 20.5349 1.77909 17.2062 1.43046C23.9403 1.50909 29.6466 5.85787 31.7404 11.8933C31.6386 11.7972 31.5077 11.7375 31.3684 11.7234C30.3629 9.20981 27.9196 11.0293 28.7485 13.2463C24.3091 16.6599 25.4453 19.0404 26.9034 20.403C27.6719 21.1192 28.403 22.1968 28.8803 22.9707C28.3617 24.4829 30.7903 23.8782 31.9891 21.3115C30.4487 26.6212 26.2129 30.7189 20.8549 32.0827ZM31.2493 13.9285C31.4806 15.0121 31.588 16.1185 31.5693 17.2263C31.5211 16.3916 31.4104 15.5618 31.2377 14.7437C31.2526 14.4557 31.2568 14.1826 31.2493 13.9285Z" fill="url(#paint0_linear_132_256)"/>
<defs>
<linearGradient id="paint0_linear_132_256" x1="0" y1="0" x2="0" y2="34" gradientUnits="userSpaceOnUse">
<stop stop-color="#00FFD9"/>
<stop offset="1" stop-color="#0050FF"/>
</linearGradient>
</defs>
</svg>
