<svg width="955" height="42" viewBox="0 0 955 42" fill="none" xmlns="http://www.w3.org/2000/svg">
<path d="M7.08 20.856V33H0.264V0.983997H15.912C20.392 0.983997 23.512 1.56 25.272 2.712C26.488 3.48 27.416 4.504 28.056 5.784C28.728 7.032 29.064 8.408 29.064 9.912C29.064 12.952 28.296 15.304 26.76 16.968C25.8 17.96 24.536 18.712 22.968 19.224C24.216 19.672 25.16 20.152 25.8 20.664C26.44 21.144 27.016 21.864 27.528 22.824C27.912 23.592 28.184 24.328 28.344 25.032C28.536 25.736 28.68 26.776 28.776 28.152C28.968 30.456 29.224 32.072 29.544 33H21.912C21.688 32.264 21.448 30.744 21.192 28.44C21.032 26.584 20.696 25.16 20.184 24.168C19.704 23.176 18.968 22.392 17.976 21.816C16.728 21.144 14.92 20.824 12.552 20.856H7.08ZM7.08 15.144H16.632C18.232 15.144 19.368 14.904 20.04 14.424C21.064 13.72 21.576 12.488 21.576 10.728C21.576 8.776 20.808 7.528 19.272 6.984C18.728 6.792 17.848 6.696 16.632 6.696H7.08V15.144ZM53.4896 18.792V23.784H39.9536C40.0816 25.32 40.5776 26.408 41.4416 27.048C42.3056 27.688 43.7136 28.008 45.6656 28.008H53.4896V33H44.9456C43.0896 33 41.5696 32.84 40.3856 32.52C39.2336 32.168 38.1456 31.608 37.1216 30.84C34.2736 28.632 32.8496 25.352 32.8496 21C32.8496 18.184 33.6016 15.72 35.1056 13.608C36.1296 12.168 37.3616 11.144 38.8016 10.536C40.2416 9.928 42.1296 9.624 44.4656 9.624H53.4896V14.616H44.9456C43.1856 14.616 41.9536 14.92 41.2496 15.528C40.5456 16.104 40.1136 17.192 39.9536 18.792H53.4896ZM74.8418 18.792C74.8418 17.16 74.5058 16.056 73.8338 15.48C73.1938 14.904 71.8978 14.616 69.9458 14.616H59.0978V9.624H69.9458C71.8978 9.624 73.2418 9.672 73.9778 9.768C74.7138 9.832 75.4658 9.976 76.2338 10.2C79.7858 11.544 81.4658 14.76 81.2738 19.848V33H67.7378C65.3058 33 63.6258 32.936 62.6978 32.808C61.7698 32.648 60.9538 32.344 60.2498 31.896C58.3618 30.616 57.4178 28.68 57.4178 26.088C57.4178 24.52 57.7858 23.128 58.5218 21.912C59.2898 20.664 60.2978 19.816 61.5458 19.368C62.6338 18.984 64.4418 18.792 66.9698 18.792H74.8418ZM74.8418 23.784H67.4498H66.3458C65.6098 23.784 65.0178 23.976 64.5698 24.36C64.1538 24.744 63.9458 25.272 63.9458 25.944C63.9458 26.68 64.2018 27.208 64.7138 27.528C65.2578 27.848 66.1698 28.008 67.4498 28.008H74.8418V23.784ZM93.6926 33H87.2606V0.983997H93.6926V33ZM130.683 9.528V33H124.155V0.983997H132.891L145.611 24.84V0.983997H152.091V33H143.739L130.683 9.528ZM169.264 9.288C173.584 9.288 176.768 10.536 178.816 13.032C180.704 15.304 181.648 18.168 181.648 21.624C181.648 25.272 180.464 28.184 178.096 30.36C175.92 32.344 172.944 33.336 169.168 33.336C165.264 33.336 162.208 32.216 160 29.976C157.952 27.96 156.928 25.016 156.928 21.144C156.928 17.88 157.904 15.16 159.856 12.984C162.032 10.552 165.168 9.32 169.264 9.288ZM169.312 14.184C165.44 14.184 163.504 16.584 163.504 21.384C163.504 23.336 163.824 24.824 164.464 25.848C165.52 27.576 167.152 28.44 169.36 28.44C173.168 28.44 175.072 26.056 175.072 21.288C175.072 16.616 173.152 14.248 169.312 14.184ZM186.401 9.624H198.785C200.641 9.624 202.049 9.768 203.009 10.056C204.001 10.312 204.897 10.792 205.697 11.496C207.329 13 208.145 15.368 208.145 18.6V33H201.713V17.88C201.713 16.728 201.457 15.896 200.945 15.384C200.433 14.872 199.585 14.616 198.401 14.616H192.833V33H186.401V9.624ZM222.215 17.736V23.496H211.031V17.736H222.215ZM249.834 27.288V33H238.65C236.538 33 234.922 32.888 233.802 32.664C229.866 31.896 227.066 29.704 225.402 26.088C224.314 23.656 223.77 20.648 223.77 17.064C223.77 12.776 224.602 9.288 226.266 6.6C227.482 4.648 229.098 3.224 231.114 2.328C233.162 1.432 235.786 0.983997 238.986 0.983997H249.834V6.696H239.754C236.714 6.696 234.49 7.512 233.082 9.144C231.898 10.488 231.306 12.92 231.306 16.44C231.306 21.176 232.218 24.28 234.042 25.752C235.322 26.776 237.322 27.288 240.042 27.288H249.834ZM269.728 28.008V9.624H276.16V33H263.488C261.664 33 260.256 32.872 259.264 32.616C258.272 32.328 257.392 31.832 256.624 31.128C254.992 29.656 254.176 27.272 254.176 23.976V9.624H260.56V24.648C260.56 25.704 260.832 26.536 261.376 27.144C261.952 27.72 262.72 28.008 263.68 28.008H269.728ZM302.752 9.624V14.616H291.376C290.064 14.616 289.232 14.68 288.88 14.808C288.144 15.064 287.776 15.688 287.776 16.68C287.776 17.512 288.128 18.152 288.832 18.6C289.216 18.856 290.256 18.984 291.952 18.984H295.744C298.176 18.984 300.096 19.496 301.504 20.52C303.072 21.672 303.856 23.368 303.856 25.608C303.856 27.304 303.376 28.856 302.416 30.264C301.712 31.384 300.848 32.12 299.824 32.472C298.832 32.824 297.152 33 294.784 33H281.488V28.008H292.96C294.368 28.008 295.328 27.992 295.84 27.96C296.992 27.832 297.568 27.176 297.568 25.992C297.568 25.032 297.184 24.376 296.416 24.024C296.032 23.832 295.104 23.736 293.632 23.736H289.744C288.208 23.736 287.024 23.64 286.192 23.448C285.392 23.256 284.64 22.904 283.936 22.392C283.072 21.784 282.384 20.952 281.872 19.896C281.392 18.808 281.152 17.656 281.152 16.44C281.152 14.104 282 12.248 283.696 10.872C284.72 10.04 286.496 9.624 289.024 9.624H302.752ZM310.473 9.624V0.983997H316.905V9.624H322.857V14.616H316.905V23.112C316.905 25.096 317.081 26.344 317.433 26.856C317.977 27.624 318.937 28.008 320.313 28.008H322.857V33H318.201C315.417 33 313.433 32.328 312.249 30.984C311.065 29.64 310.473 27.384 310.473 24.216V14.616H306.393V9.624H310.473ZM338.014 9.288C342.334 9.288 345.518 10.536 347.566 13.032C349.454 15.304 350.398 18.168 350.398 21.624C350.398 25.272 349.214 28.184 346.846 30.36C344.67 32.344 341.694 33.336 337.918 33.336C334.014 33.336 330.958 32.216 328.75 29.976C326.702 27.96 325.678 25.016 325.678 21.144C325.678 17.88 326.654 15.16 328.606 12.984C330.782 10.552 333.918 9.32 338.014 9.288ZM338.062 14.184C334.19 14.184 332.254 16.584 332.254 21.384C332.254 23.336 332.574 24.824 333.214 25.848C334.27 27.576 335.902 28.44 338.11 28.44C341.918 28.44 343.822 26.056 343.822 21.288C343.822 16.616 341.902 14.248 338.062 14.184ZM370.847 9.624V0.983997H377.231V33H366.191C363.951 33 362.255 32.824 361.103 32.472C358.383 31.608 356.351 29.912 355.007 27.384C354.079 25.688 353.615 23.608 353.615 21.144C353.615 17.144 354.959 14.04 357.647 11.832C359.407 10.36 361.791 9.624 364.799 9.624H370.847ZM370.847 28.008V14.616H366.191C364.143 14.616 362.591 15.304 361.535 16.68C360.607 17.832 360.143 19.32 360.143 21.144C360.143 23.8 360.911 25.704 362.447 26.856C363.503 27.624 364.751 28.008 366.191 28.008H370.847ZM383.511 9.624H389.943V33H383.511V9.624ZM383.511 7.224V0.983997H389.943V7.224H383.511ZM412.389 18.792C412.389 17.16 412.053 16.056 411.381 15.48C410.741 14.904 409.445 14.616 407.493 14.616H396.645V9.624H407.493C409.445 9.624 410.789 9.672 411.525 9.768C412.261 9.832 413.013 9.976 413.781 10.2C417.333 11.544 419.013 14.76 418.821 19.848V33H405.285C402.853 33 401.173 32.936 400.245 32.808C399.317 32.648 398.501 32.344 397.797 31.896C395.909 30.616 394.965 28.68 394.965 26.088C394.965 24.52 395.333 23.128 396.069 21.912C396.837 20.664 397.845 19.816 399.093 19.368C400.181 18.984 401.989 18.792 404.517 18.792H412.389ZM412.389 23.784H404.997H403.893C403.157 23.784 402.565 23.976 402.117 24.36C401.701 24.744 401.493 25.272 401.493 25.944C401.493 26.68 401.749 27.208 402.261 27.528C402.805 27.848 403.717 28.008 404.997 28.008H412.389V23.784ZM431.24 33H424.808V0.983997H431.24V33ZM461.558 33V27.288H476.198C478.534 27.288 480.086 27.064 480.854 26.616C481.974 25.944 482.534 24.936 482.534 23.592C482.534 22.024 481.878 20.888 480.566 20.184C479.83 19.768 478.646 19.56 477.014 19.56H471.062C467.446 19.56 464.838 18.904 463.238 17.592C462.246 16.76 461.462 15.72 460.886 14.472C460.342 13.224 460.07 11.88 460.07 10.44C460.07 8.2 460.726 6.152 462.038 4.296C463.318 2.504 465.366 1.448 468.182 1.128C469.142 1.032 470.566 0.983997 472.454 0.983997H488.342V6.696H473.99C471.845 6.728 470.422 6.824 469.718 6.984C468.278 7.336 467.558 8.424 467.558 10.248C467.558 11.784 468.166 12.808 469.382 13.32C470.182 13.704 471.526 13.896 473.414 13.896H478.55C481.174 13.896 483.126 14.12 484.406 14.568C486.678 15.336 488.246 16.68 489.11 18.6C489.782 20.136 490.118 21.784 490.118 23.544C490.118 25.496 489.67 27.24 488.774 28.776C487.526 30.952 485.654 32.264 483.158 32.712C481.942 32.904 480.102 33 477.638 33H461.558ZM514.037 18.792V23.784H500.501C500.629 25.32 501.125 26.408 501.989 27.048C502.853 27.688 504.261 28.008 506.213 28.008H514.037V33H505.493C503.637 33 502.117 32.84 500.933 32.52C499.781 32.168 498.693 31.608 497.669 30.84C494.821 28.632 493.396 25.352 493.396 21C493.396 18.184 494.149 15.72 495.653 13.608C496.677 12.168 497.909 11.144 499.349 10.536C500.789 9.928 502.677 9.624 505.013 9.624H514.037V14.616H505.493C503.733 14.616 502.501 14.92 501.797 15.528C501.093 16.104 500.661 17.192 500.501 18.792H514.037ZM538.797 9.624V14.616H531.117C528.525 14.616 526.733 15.192 525.741 16.344C524.781 17.432 524.301 19.096 524.301 21.336C524.301 23.832 525.085 25.656 526.653 26.808C527.293 27.256 527.981 27.576 528.717 27.768C529.485 27.928 530.541 28.008 531.885 28.008H538.797V33H530.013C527.645 33 525.773 32.76 524.397 32.28C523.021 31.8 521.805 30.968 520.749 29.784C518.733 27.544 517.725 24.696 517.725 21.24C517.725 17.08 518.925 13.976 521.325 11.928C522.285 11.096 523.437 10.504 524.781 10.152C526.125 9.8 527.869 9.624 530.013 9.624H538.797ZM558.947 28.008V9.624H565.379V33H552.707C550.883 33 549.475 32.872 548.483 32.616C547.491 32.328 546.611 31.832 545.843 31.128C544.211 29.656 543.395 27.272 543.395 23.976V9.624H549.779V24.648C549.779 25.704 550.051 26.536 550.595 27.144C551.171 27.72 551.939 28.008 552.898 28.008H558.947ZM571.667 9.624H581.171C583.123 9.624 584.627 9.768 585.683 10.056C586.771 10.312 587.667 10.76 588.371 11.4C589.075 12.04 589.571 12.84 589.859 13.8C590.147 14.76 590.291 16.136 590.291 17.928V20.184H584.099V18.936C584.099 17.272 583.811 16.136 583.235 15.528C582.659 14.92 581.555 14.616 579.923 14.616H578.099V33H571.667V9.624ZM594.12 9.624H600.552V33H594.12V9.624ZM594.12 7.224V0.983997H600.552V7.224H594.12ZM608.598 9.624V0.983997H615.03V9.624H620.982V14.616H615.03V23.112C615.03 25.096 615.206 26.344 615.558 26.856C616.102 27.624 617.062 28.008 618.438 28.008H620.982V33H616.326C613.542 33 611.558 32.328 610.374 30.984C609.19 29.64 608.598 27.384 608.598 24.216V14.616H604.518V9.624H608.598ZM640.651 28.008V9.624H647.083V32.52C647.083 35.56 646.283 37.784 644.683 39.192C643.083 40.6 640.539 41.304 637.051 41.304H625.579V36.312H637.051C638.427 36.312 639.323 36.168 639.739 35.88C640.059 35.688 640.267 35.432 640.363 35.112C640.459 34.824 640.555 34.12 640.651 33H634.939C628.347 33.16 625.227 29.72 625.579 22.68V9.624H632.011V22.056C632.011 24.488 632.219 26.088 632.635 26.856C633.083 27.624 633.995 28.008 635.371 28.008H640.651ZM673.878 33L687.126 0.983997H694.95L708.198 33H700.23L697.11 25.608H684.966L681.846 33H673.878ZM691.062 8.712L686.502 19.896H695.622L691.062 8.712ZM711.495 9.624H720.999C722.951 9.624 724.455 9.768 725.511 10.056C726.599 10.312 727.495 10.76 728.199 11.4C728.903 12.04 729.399 12.84 729.687 13.8C729.975 14.76 730.119 16.136 730.119 17.928V20.184H723.927V18.936C723.927 17.272 723.639 16.136 723.063 15.528C722.487 14.92 721.383 14.616 719.751 14.616H717.927V33H711.495V9.624ZM753.484 9.624V14.616H745.804C743.212 14.616 741.42 15.192 740.428 16.344C739.468 17.432 738.988 19.096 738.988 21.336C738.988 23.832 739.772 25.656 741.34 26.808C741.98 27.256 742.668 27.576 743.404 27.768C744.172 27.928 745.228 28.008 746.572 28.008H753.484V33H744.7C742.332 33 740.46 32.76 739.084 32.28C737.708 31.8 736.492 30.968 735.436 29.784C733.42 27.544 732.412 24.696 732.412 21.24C732.412 17.08 733.612 13.976 736.012 11.928C736.972 11.096 738.124 10.504 739.468 10.152C740.812 9.8 742.556 9.624 744.7 9.624H753.484ZM764.802 0.983997V9.624H771.378C773.33 9.624 774.85 9.784 775.938 10.104C777.058 10.392 778.002 10.92 778.77 11.688C780.242 13.032 780.978 15.288 780.978 18.456V33H774.546V19.704C774.546 18.456 774.482 17.576 774.354 17.064C774.258 16.52 774.034 16.056 773.682 15.672C773.042 15 771.826 14.648 770.034 14.616H764.802V33H758.37V0.983997H764.802ZM786.964 9.624H793.396V33H786.964V9.624ZM786.964 7.224V0.983997H793.396V7.224H786.964ZM801.442 9.624V0.983997H807.874V9.624H813.826V14.616H807.874V23.112C807.874 25.096 808.05 26.344 808.402 26.856C808.946 27.624 809.906 28.008 811.282 28.008H813.826V33H809.17C806.386 33 804.402 32.328 803.218 30.984C802.034 29.64 801.442 27.384 801.442 24.216V14.616H797.362V9.624H801.442ZM837.287 18.792V23.784H823.751C823.879 25.32 824.375 26.408 825.239 27.048C826.103 27.688 827.511 28.008 829.463 28.008H837.287V33H828.743C826.887 33 825.367 32.84 824.183 32.52C823.031 32.168 821.943 31.608 820.919 30.84C818.071 28.632 816.646 25.352 816.646 21C816.646 18.184 817.399 15.72 818.903 13.608C819.927 12.168 821.159 11.144 822.599 10.536C824.039 9.928 825.927 9.624 828.263 9.624H837.287V14.616H828.743C826.983 14.616 825.751 14.92 825.047 15.528C824.343 16.104 823.911 17.192 823.751 18.792H837.287ZM862.047 9.624V14.616H854.367C851.775 14.616 849.983 15.192 848.991 16.344C848.031 17.432 847.551 19.096 847.551 21.336C847.551 23.832 848.335 25.656 849.903 26.808C850.543 27.256 851.231 27.576 851.967 27.768C852.735 27.928 853.791 28.008 855.135 28.008H862.047V33H853.263C850.895 33 849.023 32.76 847.647 32.28C846.271 31.8 845.055 30.968 843.999 29.784C841.983 27.544 840.975 24.696 840.975 21.24C840.975 17.08 842.175 13.976 844.575 11.928C845.535 11.096 846.687 10.504 848.031 10.152C849.375 9.8 851.119 9.624 853.263 9.624H862.047ZM868.661 9.624V0.983997H875.093V9.624H881.045V14.616H875.093V23.112C875.093 25.096 875.269 26.344 875.621 26.856C876.165 27.624 877.125 28.008 878.501 28.008H881.045V33H876.389C873.605 33 871.621 32.328 870.437 30.984C869.253 29.64 868.661 27.384 868.661 24.216V14.616H864.581V9.624H868.661ZM900.665 28.008V9.624H907.097V33H894.425C892.601 33 891.193 32.872 890.201 32.616C889.209 32.328 888.329 31.832 887.561 31.128C885.929 29.656 885.113 27.272 885.113 23.976V9.624H891.497V24.648C891.497 25.704 891.769 26.536 892.313 27.144C892.889 27.72 893.657 28.008 894.617 28.008H900.665ZM913.386 9.624H922.89C924.842 9.624 926.346 9.768 927.402 10.056C928.49 10.312 929.386 10.76 930.09 11.4C930.794 12.04 931.29 12.84 931.578 13.8C931.866 14.76 932.01 16.136 932.01 17.928V20.184H925.818V18.936C925.818 17.272 925.53 16.136 924.954 15.528C924.378 14.92 923.274 14.616 921.642 14.616H919.818V33H913.386V9.624ZM954.943 18.792V23.784H941.407C941.535 25.32 942.031 26.408 942.895 27.048C943.759 27.688 945.167 28.008 947.119 28.008H954.943V33H946.399C944.543 33 943.023 32.84 941.839 32.52C940.687 32.168 939.599 31.608 938.575 30.84C935.727 28.632 934.303 25.352 934.303 21C934.303 18.184 935.055 15.72 936.559 13.608C937.583 12.168 938.815 11.144 940.255 10.536C941.695 9.928 943.583 9.624 945.919 9.624H954.943V14.616H946.399C944.639 14.616 943.407 14.92 942.703 15.528C941.999 16.104 941.567 17.192 941.407 18.792H954.943Z" fill="url(#paint0_linear_132_250)"/>
<defs>
<linearGradient id="paint0_linear_132_250" x1="214.579" y1="4.78649" x2="214.579" y2="34.8815" gradientUnits="userSpaceOnUse">
<stop stop-color="#1BFFE4"/>
<stop offset="1" stop-color="#3183FF"/>
</linearGradient>
</defs>
</svg>
