<svg width="100" height="100" viewBox="0 0 100 100" fill="none" xmlns="http://www.w3.org/2000/svg">
<g filter="url(#filter0_ig_769_324)">
<path d="M73.9597 19.6934L86.8382 26.9801V41.5534L73.9597 48.8401L61.0812 41.5534V26.9801L73.9597 19.6934Z" fill="#0794FF"/>
</g>
<path d="M41.6768 45.6069C58.561 45.6069 72.1159 37.7704 72.1159 28.0343V34.9208C72.1159 39.1952 69.5 42.9947 65.4573 46.0818C61.1768 47.2691 57.372 48.9314 54.2805 51.0686C50.4756 52.0185 46.1951 52.7309 41.439 52.7309C24.5549 52.7309 11 44.8945 11 34.9208V27.7968C11.2378 37.7704 24.7927 45.6069 41.6768 45.6069ZM41.6768 57.9551C43.8171 57.9551 45.7195 57.7177 47.6219 57.7177C45.9573 59.8549 45.0061 62.467 44.5305 65.0792H41.6768C24.7927 65.0792 11.2378 57.2427 11.2378 47.2691V40.1451C11.2378 50.1187 24.7927 57.9551 41.6768 57.9551ZM41.6768 5C58.561 5 72.1159 12.8364 72.1159 22.81C72.1159 32.7836 58.3232 40.62 41.6768 40.62C24.7927 40.62 11.2378 32.7836 11.2378 22.81C11.2378 12.8364 24.7927 5 41.6768 5ZM55.9451 95C53.0915 95 50.9512 92.6253 50.9512 90.0132V75.7652C50.9512 72.9156 53.3293 70.7784 55.9451 70.7784H56.8963V66.029C56.8963 58.905 62.6037 53.2058 69.5 52.9683C76.3963 52.7309 82.5793 58.1926 83.0549 65.0792C83.2927 66.2665 82.8171 67.2164 81.8659 67.9288C80.9146 68.6412 79.7256 68.6412 78.7744 68.1662C77.8232 67.6913 77.1098 66.504 77.1098 65.5541C76.8719 61.7546 73.5427 58.905 69.7378 58.905C65.9329 59.1425 62.8415 62.2295 62.8415 66.029V70.7784H84.0061C86.8598 70.7784 89 73.153 89 75.7652V90.0132C89 92.8628 86.6219 95 84.0061 95H55.9451Z" fill="url(#paint0_linear_769_324)"/>
<path d="M41.439 83.1583H44.2927V84.1082C44.0549 84.8206 44.0549 85.2955 44.0549 86.0079V90.2823H41.439C24.5549 90.2823 11 82.4459 11 72.4723V65.3483C11 75.3219 24.5549 83.1583 41.439 83.1583ZM41.439 70.81H44.2927V71.7599C44.0549 72.4723 44.0549 72.9472 44.0549 73.6596V77.934H41.439C24.5549 77.934 11 70.0976 11 60.124V53C11 62.9736 24.5549 70.81 41.439 70.81Z" fill="url(#paint1_linear_769_324)" fill-opacity="0.5"/>
<defs>
<filter id="filter0_ig_769_324" x="33.0811" y="-8.30664" width="81.7568" height="85.1465" filterUnits="userSpaceOnUse" color-interpolation-filters="sRGB">
<feFlood flood-opacity="0" result="BackgroundImageFix"/>
<feBlend mode="normal" in="SourceGraphic" in2="BackgroundImageFix" result="shape"/>
<feColorMatrix in="SourceAlpha" type="matrix" values="0 0 0 0 0 0 0 0 0 0 0 0 0 0 0 0 0 0 127 0" result="hardAlpha"/>
<feOffset dy="4"/>
<feGaussianBlur stdDeviation="9"/>
<feComposite in2="hardAlpha" operator="arithmetic" k2="-1" k3="1"/>
<feColorMatrix type="matrix" values="0 0 0 0 0.160996 0 0 0 0 0.95805 0 0 0 0 1 0 0 0 1 0"/>
<feBlend mode="normal" in2="shape" result="effect1_innerShadow_769_324"/>
<feTurbulence type="fractalNoise" baseFrequency="10 10" numOctaves="3" seed="793" />
<feDisplacementMap in="effect1_innerShadow_769_324" scale="56" xChannelSelector="R" yChannelSelector="G" result="displacedImage" width="100%" height="100%" />
<feMerge result="effect2_texture_769_324">
<feMergeNode in="displacedImage"/>
</feMerge>
</filter>
<linearGradient id="paint0_linear_769_324" x1="43" y1="95" x2="43" y2="-3" gradientUnits="userSpaceOnUse">
<stop stop-color="#2D8EFC"/>
<stop offset="1" stop-color="#00F9FF"/>
</linearGradient>
<linearGradient id="paint1_linear_769_324" x1="49.5" y1="72" x2="49.5" y2="84.5" gradientUnits="userSpaceOnUse">
<stop stop-color="#2090FC"/>
<stop offset="1" stop-color="#08F2ED"/>
</linearGradient>
</defs>
</svg>
