<svg width="104" height="100" viewBox="0 0 104 100" fill="none" xmlns="http://www.w3.org/2000/svg">
<g filter="url(#filter0_ig_769_284)">
<path d="M61.8638 37.7588L75.6496 45.5588V61.159L61.8638 68.959L48.078 61.159V45.5588L61.8638 37.7588Z" fill="#0794FF"/>
</g>
<path d="M60.7467 53.4561L75.6353 61.8929V78.7665L60.7467 87.2033L45.858 78.7665V61.8929L60.7467 53.4561Z" fill="url(#paint0_linear_769_284)"/>
<path d="M36.8451 62.6514L14.9123 49.9885V24.6627L36.8451 11.9998L58.7779 24.6627V49.9885L36.8451 62.6514Z" fill="url(#paint1_linear_769_284)"/>
<path d="M38.7931 27.4106C40.9936 27.5769 42.8114 28.159 44.2465 29.1568C45.6815 30.1309 46.3991 31.5445 46.3991 33.3977H39.7618C39.7379 32.7325 39.4628 32.2692 38.9367 32.0078C38.4344 31.7227 37.8603 31.5802 37.2146 31.5802C35.4925 31.5802 34.6314 31.9841 34.6314 32.7918C34.6314 33.2433 34.9304 33.564 35.5283 33.7541C36.1263 33.9441 37.1069 34.1461 38.4703 34.3599C40.1445 34.5975 41.5437 34.8826 42.6679 35.2152C43.792 35.524 44.7726 36.0942 45.6098 36.9258C46.4469 37.7335 46.8655 38.8739 46.8655 40.3469C46.8655 42.5089 46.124 44.1126 44.6411 45.158C43.1821 46.2033 41.2328 46.8092 38.7931 46.9755L39.0802 51.8578H35.0261L35.2772 46.9398C32.9811 46.7023 31.0796 46.0489 29.5728 44.9798C28.0659 43.8869 27.3125 42.3783 27.3125 40.4539H33.9497V40.5964C33.9737 41.4042 34.3085 41.9744 34.9543 42.307C35.624 42.6159 36.3296 42.7703 37.071 42.7703C39.0562 42.7703 40.0488 42.307 40.0488 41.3804C40.0488 40.9053 39.7379 40.5608 39.116 40.3469C38.4942 40.1331 37.4777 39.9074 36.0665 39.6698C34.3683 39.3847 32.9691 39.0759 31.8689 38.7433C30.7926 38.4107 29.8478 37.8523 29.0346 37.0683C28.2214 36.2605 27.8148 35.1439 27.8148 33.7184C27.8148 31.7227 28.4845 30.226 29.8239 29.2281C31.1872 28.2303 33.005 27.6363 35.2772 27.4463L35.0261 22.5283H39.0802L38.7931 27.4106Z" fill="black"/>
<path opacity="0.4" d="M77.0014 58.5166L62.1127 50.0798V33.2062L77.0014 24.7694L91.8901 33.2062V50.0798L77.0014 58.5166Z" fill="#0091FF"/>
<path d="M14.65 32.2792C8.47541 35.0329 4.45455 39.1251 3.65746 44.2583C1.63734 57.2676 21.0886 72.0362 47.1031 77.2449C73.1176 82.4536 95.8441 76.13 97.8642 63.1207C98.6416 58.1143 96.5457 53.0383 91.9862 48.2637" stroke="url(#paint2_linear_769_284)" stroke-width="2"/>
<path d="M82.8582 72.4464L91.5546 73.8116L85.2446 79.9495L82.8582 72.4464Z" fill="#1D7DFE"/>
<path d="M10.7187 54.6801L14.7121 62.5251L6.04017 61.0128L10.7187 54.6801Z" fill="#1D7DFE"/>
<defs>
<filter id="filter0_ig_769_284" x="20.0781" y="9.75879" width="83.5713" height="87.2002" filterUnits="userSpaceOnUse" color-interpolation-filters="sRGB">
<feFlood flood-opacity="0" result="BackgroundImageFix"/>
<feBlend mode="normal" in="SourceGraphic" in2="BackgroundImageFix" result="shape"/>
<feColorMatrix in="SourceAlpha" type="matrix" values="0 0 0 0 0 0 0 0 0 0 0 0 0 0 0 0 0 0 127 0" result="hardAlpha"/>
<feOffset dy="4"/>
<feGaussianBlur stdDeviation="9"/>
<feComposite in2="hardAlpha" operator="arithmetic" k2="-1" k3="1"/>
<feColorMatrix type="matrix" values="0 0 0 0 0.160996 0 0 0 0 0.95805 0 0 0 0 1 0 0 0 1 0"/>
<feBlend mode="normal" in2="shape" result="effect1_innerShadow_769_284"/>
<feTurbulence type="fractalNoise" baseFrequency="10 10" numOctaves="3" seed="793" />
<feDisplacementMap in="effect1_innerShadow_769_284" scale="56" xChannelSelector="R" yChannelSelector="G" result="displacedImage" width="100%" height="100%" />
<feMerge result="effect2_texture_769_284">
<feMergeNode in="displacedImage"/>
</feMerge>
</filter>
<linearGradient id="paint0_linear_769_284" x1="60.7976" y1="53.2523" x2="60.9489" y2="87.2033" gradientUnits="userSpaceOnUse">
<stop stop-color="#03F8E3"/>
<stop offset="1" stop-color="#2F88FE"/>
</linearGradient>
<linearGradient id="paint1_linear_769_284" x1="57.895" y1="48.1509" x2="16.2865" y2="25.1096" gradientUnits="userSpaceOnUse">
<stop stop-color="#00FFE1"/>
<stop offset="1" stop-color="#3183FF"/>
</linearGradient>
<linearGradient id="paint2_linear_769_284" x1="53.4872" y1="36.1319" x2="45.3267" y2="76.8892" gradientUnits="userSpaceOnUse">
<stop stop-color="#AAFFFB" stop-opacity="0.29"/>
<stop offset="1" stop-color="#0068FF"/>
</linearGradient>
</defs>
</svg>
