<svg width="115" height="109" viewBox="0 0 115 109" fill="none" xmlns="http://www.w3.org/2000/svg">
<g filter="url(#filter0_ig_132_322)">
<path d="M73.9598 28.6938L86.8383 35.9805V50.5539L73.9598 57.8406L61.0813 50.5539V35.9805L73.9598 28.6938Z" fill="#0794FF"/>
</g>
<path d="M41.6768 54.6069C58.561 54.6069 72.1159 46.7704 72.1159 37.0343V43.9208C72.1159 48.1952 69.5 51.9947 65.4573 55.0818C61.1768 56.2691 57.372 57.9314 54.2805 60.0686C50.4756 61.0185 46.1951 61.7309 41.439 61.7309C24.5549 61.7309 11 53.8945 11 43.9208V36.7968C11.2378 46.7704 24.7927 54.6069 41.6768 54.6069ZM41.6768 66.9551C43.8171 66.9551 45.7195 66.7177 47.6219 66.7177C45.9573 68.8549 45.0061 71.467 44.5305 74.0792H41.6768C24.7927 74.0792 11.2378 66.2427 11.2378 56.2691V49.1451C11.2378 59.1187 24.7927 66.9551 41.6768 66.9551ZM41.6768 14C58.561 14 72.1159 21.8364 72.1159 31.81C72.1159 41.7836 58.3232 49.62 41.6768 49.62C24.7927 49.62 11.2378 41.7836 11.2378 31.81C11.2378 21.8364 24.7927 14 41.6768 14ZM55.9451 104C53.0915 104 50.9512 101.625 50.9512 99.0132V84.7652C50.9512 81.9156 53.3293 79.7784 55.9451 79.7784H56.8963V75.029C56.8963 67.905 62.6037 62.2058 69.5 61.9683C76.3963 61.7309 82.5793 67.1926 83.0549 74.0792C83.2927 75.2665 82.8171 76.2164 81.8659 76.9288C80.9146 77.6412 79.7256 77.6412 78.7744 77.1662C77.8232 76.6913 77.1098 75.504 77.1098 74.5541C76.8719 70.7546 73.5427 67.905 69.7378 67.905C65.9329 68.1425 62.8415 71.2295 62.8415 75.029V79.7784H84.0061C86.8598 79.7784 89 82.153 89 84.7652V99.0132C89 101.863 86.6219 104 84.0061 104H55.9451Z" fill="url(#paint0_linear_132_322)"/>
<path d="M41.439 92.1583H44.2927V93.1082C44.0549 93.8206 44.0549 94.2955 44.0549 95.0079V99.2823H41.439C24.5549 99.2823 11 91.4459 11 81.4723V74.3483C11 84.3219 24.5549 92.1583 41.439 92.1583ZM41.439 79.81H44.2927V80.7599C44.0549 81.4723 44.0549 81.9472 44.0549 82.6596V86.934H41.439C24.5549 86.934 11 79.0976 11 69.124V62C11 71.9736 24.5549 79.81 41.439 79.81Z" fill="url(#paint1_linear_132_322)" fill-opacity="0.5"/>
<defs>
<filter id="filter0_ig_132_322" x="33.0813" y="0.693848" width="81.757" height="85.1467" filterUnits="userSpaceOnUse" color-interpolation-filters="sRGB">
<feFlood flood-opacity="0" result="BackgroundImageFix"/>
<feBlend mode="normal" in="SourceGraphic" in2="BackgroundImageFix" result="shape"/>
<feColorMatrix in="SourceAlpha" type="matrix" values="0 0 0 0 0 0 0 0 0 0 0 0 0 0 0 0 0 0 127 0" result="hardAlpha"/>
<feOffset dy="4"/>
<feGaussianBlur stdDeviation="9"/>
<feComposite in2="hardAlpha" operator="arithmetic" k2="-1" k3="1"/>
<feColorMatrix type="matrix" values="0 0 0 0 0.160996 0 0 0 0 0.95805 0 0 0 0 1 0 0 0 1 0"/>
<feBlend mode="normal" in2="shape" result="effect1_innerShadow_132_322"/>
<feTurbulence type="fractalNoise" baseFrequency="10 10" numOctaves="3" seed="793" />
<feDisplacementMap in="effect1_innerShadow_132_322" scale="56" xChannelSelector="R" yChannelSelector="G" result="displacedImage" width="100%" height="100%" />
<feMerge result="effect2_texture_132_322">
<feMergeNode in="displacedImage"/>
</feMerge>
</filter>
<linearGradient id="paint0_linear_132_322" x1="43" y1="104" x2="43" y2="6" gradientUnits="userSpaceOnUse">
<stop stop-color="#2D8EFC"/>
<stop offset="1" stop-color="#00F9FF"/>
</linearGradient>
<linearGradient id="paint1_linear_132_322" x1="49.5" y1="81" x2="49.5" y2="93.5" gradientUnits="userSpaceOnUse">
<stop stop-color="#2090FC"/>
<stop offset="1" stop-color="#08F2ED"/>
</linearGradient>
</defs>
</svg>
