<svg width="115" height="127" viewBox="0 0 115 127" fill="none" xmlns="http://www.w3.org/2000/svg">
<path opacity="0.4" d="M82.7569 11.9878C70.2332 10.5809 60.811 7.21663 54.7528 1.98533L53.1592 0.610352L51.4397 1.82842C41.9452 8.5597 32.5552 11.9719 23.5347 11.9719H20.8564V49.2053C20.8564 60.6201 30.9911 70.9736 51.8415 80.8591L52.9369 81.3777L54.0537 80.9017C74.6792 72.1039 85.1352 61.4419 85.1352 49.2053V12.2564L82.7569 11.9878Z" fill="url(#paint0_linear_769_331)"/>
<g filter="url(#filter0_ig_769_331)">
<path d="M73.9597 69.6943L86.8382 76.981V91.5544L73.9597 98.8411L61.0812 91.5544V76.981L73.9597 69.6943Z" fill="#0794FF"/>
</g>
<path d="M72.669 21.8704C60.3945 20.4694 51.1597 17.119 45.222 11.9093L43.6601 10.54L41.9749 11.7531C32.6693 18.4565 23.466 21.8545 14.625 21.8545H12V58.9339C12 70.3013 21.933 80.612 42.3686 90.4566L43.4422 90.973L44.5369 90.4989C64.752 81.7376 75 71.1197 75 58.9339V22.1379L72.669 21.8704Z" fill="#0090FF"/>
<path d="M71.743 25.7059C59.8582 24.3821 50.9166 21.2163 45.1673 16.2938L43.655 15L42.0233 16.1462C33.0131 22.4801 24.102 25.6909 15.5417 25.6909H13V60.7266C13 71.4676 22.6177 81.21 42.4045 90.512L43.4441 91L44.504 90.552C64.0773 82.2736 74 72.2409 74 60.7266V25.9587L71.743 25.7059Z" fill="url(#paint1_linear_769_331)"/>
<path d="M35.1956 52.7636C35.0391 52.5748 34.8493 52.4208 34.637 52.3103C34.4248 52.1997 34.1942 52.1349 33.9584 52.1194C33.7226 52.1039 33.4862 52.1381 33.2628 52.22C33.0394 52.3019 32.8334 52.4299 32.6564 52.5967C32.4794 52.7636 32.3349 52.966 32.2312 53.1923C32.1276 53.4187 32.0668 53.6646 32.0522 53.9161C32.0377 54.1675 32.0698 54.4195 32.1466 54.6578C32.2234 54.896 32.3434 55.1158 32.4999 55.3045L39.3443 63.564C40.0528 64.4174 41.0401 64.8565 42.0364 64.8565C42.5706 64.856 43.0981 64.7294 43.5809 64.4857C44.0638 64.242 44.4901 63.8873 44.8291 63.447L55.9337 48.9014C56.2349 48.5069 56.3768 48.0011 56.3283 47.4951C56.2797 46.9891 56.0446 46.5244 55.6748 46.2032C55.3049 45.882 54.8305 45.7306 54.356 45.7824C53.8815 45.8342 53.4457 46.0849 53.1445 46.4793L42.04 61.0231L35.1956 52.7636Z" fill="black" stroke="black" stroke-width="2" stroke-linejoin="round"/>
<defs>
<filter id="filter0_ig_769_331" x="33.0811" y="41.6943" width="81.7568" height="85.1465" filterUnits="userSpaceOnUse" color-interpolation-filters="sRGB">
<feFlood flood-opacity="0" result="BackgroundImageFix"/>
<feBlend mode="normal" in="SourceGraphic" in2="BackgroundImageFix" result="shape"/>
<feColorMatrix in="SourceAlpha" type="matrix" values="0 0 0 0 0 0 0 0 0 0 0 0 0 0 0 0 0 0 127 0" result="hardAlpha"/>
<feOffset dy="4"/>
<feGaussianBlur stdDeviation="9"/>
<feComposite in2="hardAlpha" operator="arithmetic" k2="-1" k3="1"/>
<feColorMatrix type="matrix" values="0 0 0 0 0.160996 0 0 0 0 0.95805 0 0 0 0 1 0 0 0 1 0"/>
<feBlend mode="normal" in2="shape" result="effect1_innerShadow_769_331"/>
<feTurbulence type="fractalNoise" baseFrequency="10 10" numOctaves="3" seed="793" />
<feDisplacementMap in="effect1_innerShadow_769_331" scale="56" xChannelSelector="R" yChannelSelector="G" result="displacedImage" width="100%" height="100%" />
<feMerge result="effect2_texture_769_331">
<feMergeNode in="displacedImage"/>
</feMerge>
</filter>
<linearGradient id="paint0_linear_769_331" x1="52.9958" y1="0.610352" x2="52.9958" y2="81.3777" gradientUnits="userSpaceOnUse">
<stop stop-color="#0090FF"/>
<stop offset="1" stop-color="#0090FF"/>
</linearGradient>
<linearGradient id="paint1_linear_769_331" x1="43.5" y1="15" x2="43.5" y2="91" gradientUnits="userSpaceOnUse">
<stop stop-color="#04FFEA"/>
<stop offset="1" stop-color="#2C8DFC"/>
</linearGradient>
</defs>
</svg>
