<svg width="115" height="127" viewBox="0 0 115 127" fill="none" xmlns="http://www.w3.org/2000/svg">
<path opacity="0.4" d="M82.7565 11.9875C70.2328 10.5806 60.8106 7.21627 54.7524 1.98496L53.1588 0.609985L51.4393 1.82805C41.9448 8.55933 32.5548 11.9715 23.5343 11.9715H20.856V49.205C20.856 60.6197 30.9907 70.9733 51.8411 80.8587L52.9365 81.3774L54.0533 80.9013C74.6788 72.1036 85.1348 61.4415 85.1348 49.205V12.2561L82.7565 11.9875Z" fill="url(#paint0_linear_132_329)"/>
<g filter="url(#filter0_ig_132_329)">
<path d="M73.9598 69.6938L86.8383 76.9805V91.5539L73.9598 98.8406L61.0813 91.5539V76.9805L73.9598 69.6938Z" fill="#0794FF"/>
</g>
<path d="M72.669 21.8704C60.3945 20.4694 51.1597 17.119 45.222 11.9093L43.6601 10.54L41.9749 11.7531C32.6693 18.4565 23.466 21.8545 14.625 21.8545H12V58.9339C12 70.3013 21.933 80.612 42.3686 90.4566L43.4422 90.973L44.5369 90.4989C64.752 81.7376 75 71.1197 75 58.9339V22.1379L72.669 21.8704Z" fill="#0090FF"/>
<path d="M71.743 25.7059C59.8582 24.3821 50.9166 21.2163 45.1673 16.2938L43.655 15L42.0233 16.1462C33.0131 22.4801 24.102 25.6909 15.5417 25.6909H13V60.7266C13 71.4676 22.6177 81.21 42.4045 90.512L43.4441 91L44.504 90.552C64.0773 82.2736 74 72.2409 74 60.7266V25.9587L71.743 25.7059Z" fill="url(#paint1_linear_132_329)"/>
<path d="M35.1959 52.7635C35.0394 52.5747 34.8497 52.4207 34.6374 52.3101C34.4251 52.1996 34.1945 52.1347 33.9587 52.1192C33.7229 52.1037 33.4866 52.1379 33.2632 52.2198C33.0398 52.3018 32.8337 52.4298 32.6567 52.5966C32.4797 52.7635 32.3352 52.9658 32.2316 53.1922C32.1279 53.4186 32.0671 53.6645 32.0526 53.916C32.038 54.1674 32.0701 54.4194 32.1469 54.6577C32.2237 54.8959 32.3438 55.1156 32.5002 55.3044L39.3446 63.5639C40.0531 64.4172 41.0404 64.8564 42.0367 64.8564C42.5709 64.8559 43.0984 64.7292 43.5813 64.4855C44.0641 64.2418 44.4904 63.8871 44.8295 63.4469L55.9341 48.9012C56.2352 48.5068 56.3772 48.001 56.3286 47.495C56.28 46.9889 56.045 46.5242 55.6751 46.2031C55.3052 45.8819 54.8309 45.7305 54.3564 45.7823C53.8818 45.8341 53.4461 46.0848 53.1449 46.4792L42.0403 61.0229L35.1959 52.7635Z" fill="black" stroke="black" stroke-width="2" stroke-linejoin="round"/>
<defs>
<filter id="filter0_ig_132_329" x="33.0813" y="41.6938" width="81.757" height="85.1467" filterUnits="userSpaceOnUse" color-interpolation-filters="sRGB">
<feFlood flood-opacity="0" result="BackgroundImageFix"/>
<feBlend mode="normal" in="SourceGraphic" in2="BackgroundImageFix" result="shape"/>
<feColorMatrix in="SourceAlpha" type="matrix" values="0 0 0 0 0 0 0 0 0 0 0 0 0 0 0 0 0 0 127 0" result="hardAlpha"/>
<feOffset dy="4"/>
<feGaussianBlur stdDeviation="9"/>
<feComposite in2="hardAlpha" operator="arithmetic" k2="-1" k3="1"/>
<feColorMatrix type="matrix" values="0 0 0 0 0.160996 0 0 0 0 0.95805 0 0 0 0 1 0 0 0 1 0"/>
<feBlend mode="normal" in2="shape" result="effect1_innerShadow_132_329"/>
<feTurbulence type="fractalNoise" baseFrequency="10 10" numOctaves="3" seed="793" />
<feDisplacementMap in="effect1_innerShadow_132_329" scale="56" xChannelSelector="R" yChannelSelector="G" result="displacedImage" width="100%" height="100%" />
<feMerge result="effect2_texture_132_329">
<feMergeNode in="displacedImage"/>
</feMerge>
</filter>
<linearGradient id="paint0_linear_132_329" x1="52.9954" y1="0.609985" x2="52.9954" y2="81.3774" gradientUnits="userSpaceOnUse">
<stop stop-color="#0090FF"/>
<stop offset="1" stop-color="#0090FF"/>
</linearGradient>
<linearGradient id="paint1_linear_132_329" x1="43.5" y1="15" x2="43.5" y2="91" gradientUnits="userSpaceOnUse">
<stop stop-color="#04FFEA"/>
<stop offset="1" stop-color="#2C8DFC"/>
</linearGradient>
</defs>
</svg>
