<svg width="104" height="100" viewBox="0 0 104 100" fill="none" xmlns="http://www.w3.org/2000/svg">
<g filter="url(#filter0_ig_132_274)">
<path d="M61.8634 37.7585L75.6492 45.5586V61.1587L61.8634 68.9588L48.0776 61.1587V45.5586L61.8634 37.7585Z" fill="#0794FF"/>
</g>
<path d="M60.7471 53.4565L75.6358 61.8933V78.7669L60.7471 87.2037L45.8584 78.7669V61.8933L60.7471 53.4565Z" fill="url(#paint0_linear_132_274)"/>
<path d="M36.8453 62.6516L14.9126 49.9887V24.6629L36.8453 12L58.7781 24.6629V49.9887L36.8453 62.6516Z" fill="url(#paint1_linear_132_274)"/>
<path d="M38.793 27.4107C40.9934 27.5771 42.8112 28.1591 44.2463 29.157C45.6813 30.1311 46.3989 31.5447 46.3989 33.3978H39.7616C39.7377 32.7326 39.4627 32.2693 38.9365 32.008C38.4342 31.7229 37.8602 31.5803 37.2144 31.5803C35.4923 31.5803 34.6312 31.9842 34.6312 32.792C34.6312 33.2434 34.9302 33.5641 35.5282 33.7542C36.1261 33.9442 37.1067 34.1462 38.4701 34.36C40.1443 34.5976 41.5435 34.8827 42.6677 35.2153C43.7918 35.5242 44.7725 36.0944 45.6096 36.9259C46.4467 37.7337 46.8653 38.8741 46.8653 40.3471C46.8653 42.5091 46.1238 44.1127 44.6409 45.1581C43.1819 46.2035 41.2326 46.8093 38.793 46.9756L39.08 51.8579H35.0259L35.277 46.94C32.9809 46.7024 31.0794 46.049 29.5726 44.9799C28.0657 43.887 27.3123 42.3784 27.3123 40.454H33.9496V40.5965C33.9735 41.4043 34.3083 41.9745 34.9541 42.3071C35.6238 42.616 36.3294 42.7704 37.0709 42.7704C39.0561 42.7704 40.0487 42.3071 40.0487 41.3806C40.0487 40.9054 39.7377 40.5609 39.1159 40.3471C38.494 40.1332 37.4775 39.9075 36.0663 39.67C34.3681 39.3849 32.9689 39.076 31.8687 38.7434C30.7924 38.4108 29.8476 37.8525 29.0344 37.0684C28.2212 36.2607 27.8146 35.144 27.8146 33.7185C27.8146 31.7229 28.4843 30.2261 29.8237 29.2282C31.187 28.2304 33.0048 27.6364 35.277 27.4464L35.0259 22.5284H39.08L38.793 27.4107Z" fill="black"/>
<path opacity="0.4" d="M77.0011 58.5162L62.1124 50.0794V33.2058L77.0011 24.769L91.8897 33.2058V50.0794L77.0011 58.5162Z" fill="#0091FF"/>
<path d="M14.6503 32.2794C8.47572 35.033 4.45485 39.1253 3.65776 44.2584C1.63765 57.2677 21.0889 72.0363 47.1034 77.245C73.1179 82.4537 95.8444 76.1301 97.8645 63.1208C98.6419 58.1145 96.546 53.0384 91.9865 48.2639" stroke="url(#paint2_linear_132_274)" stroke-width="2"/>
<path d="M82.8585 72.4468L91.5549 73.8119L85.245 79.9499L82.8585 72.4468Z" fill="#1D7DFE"/>
<path d="M10.7183 54.6799L14.7118 62.5249L6.0398 61.0126L10.7183 54.6799Z" fill="#1D7DFE"/>
<defs>
<filter id="filter0_ig_132_274" x="20.0775" y="9.75854" width="83.5717" height="87.2002" filterUnits="userSpaceOnUse" color-interpolation-filters="sRGB">
<feFlood flood-opacity="0" result="BackgroundImageFix"/>
<feBlend mode="normal" in="SourceGraphic" in2="BackgroundImageFix" result="shape"/>
<feColorMatrix in="SourceAlpha" type="matrix" values="0 0 0 0 0 0 0 0 0 0 0 0 0 0 0 0 0 0 127 0" result="hardAlpha"/>
<feOffset dy="4"/>
<feGaussianBlur stdDeviation="9"/>
<feComposite in2="hardAlpha" operator="arithmetic" k2="-1" k3="1"/>
<feColorMatrix type="matrix" values="0 0 0 0 0.160996 0 0 0 0 0.95805 0 0 0 0 1 0 0 0 1 0"/>
<feBlend mode="normal" in2="shape" result="effect1_innerShadow_132_274"/>
<feTurbulence type="fractalNoise" baseFrequency="10 10" numOctaves="3" seed="793" />
<feDisplacementMap in="effect1_innerShadow_132_274" scale="56" xChannelSelector="R" yChannelSelector="G" result="displacedImage" width="100%" height="100%" />
<feMerge result="effect2_texture_132_274">
<feMergeNode in="displacedImage"/>
</feMerge>
</filter>
<linearGradient id="paint0_linear_132_274" x1="60.798" y1="53.2528" x2="60.9493" y2="87.2037" gradientUnits="userSpaceOnUse">
<stop stop-color="#03F8E3"/>
<stop offset="1" stop-color="#2F88FE"/>
</linearGradient>
<linearGradient id="paint1_linear_132_274" x1="57.8952" y1="48.1511" x2="16.2868" y2="25.1098" gradientUnits="userSpaceOnUse">
<stop stop-color="#00FFE1"/>
<stop offset="1" stop-color="#3183FF"/>
</linearGradient>
<linearGradient id="paint2_linear_132_274" x1="53.4875" y1="36.1321" x2="45.327" y2="76.8893" gradientUnits="userSpaceOnUse">
<stop stop-color="#AAFFFB" stop-opacity="0.29"/>
<stop offset="1" stop-color="#0068FF"/>
</linearGradient>
</defs>
</svg>
