<svg width="64" height="72" viewBox="0 0 64 72" fill="none" xmlns="http://www.w3.org/2000/svg">
<g opacity="0.5" filter="url(#filter0_f_450_2291)">
<path d="M30.5565 16.9572L31.7747 16L32.993 16.9572L32.9984 16.9615L33.0089 16.9698L33.0446 16.9982C33.0748 17.0223 33.1178 17.0568 33.1726 17.1013C33.2823 17.1904 33.4396 17.3196 33.6377 17.4864C34.0338 17.8198 34.594 18.3042 35.2638 18.9181C36.6008 20.1437 38.3875 21.8979 40.1797 24.0101C43.6825 28.1385 47.5494 34.0294 47.5494 40.1979C47.5494 48.91 40.4868 55.9726 31.7747 55.9726C23.0626 55.9726 16 48.91 16 40.1979C16 34.0294 19.8669 28.1385 23.3697 24.0101C25.162 21.8979 26.9486 20.1437 28.2856 18.9181C28.9554 18.3042 29.5156 17.8198 29.9117 17.4864C30.1099 17.3196 30.2672 17.1904 30.3768 17.1013C30.4317 17.0568 30.4746 17.0223 30.5048 16.9982L30.5405 16.9698L30.551 16.9615L30.5565 16.9572Z" fill="#21D2D2"/>
</g>
<defs>
<filter id="filter0_f_450_2291" x="0" y="0" width="63.5493" height="71.9727" filterUnits="userSpaceOnUse" color-interpolation-filters="sRGB">
<feFlood flood-opacity="0" result="BackgroundImageFix"/>
<feBlend mode="normal" in="SourceGraphic" in2="BackgroundImageFix" result="shape"/>
<feGaussianBlur stdDeviation="0" result="effect1_foregroundBlur_450_2291"/>
</filter>
</defs>
</svg>
