<svg width="82" height="82" viewBox="0 0 82 82" fill="none" xmlns="http://www.w3.org/2000/svg">
<g opacity="0.5" filter="url(#filter0_f_446_2119)">
<path d="M49.3333 16H66V66H49.3333V43.3036C52.57 42.1596 54.8889 39.0728 54.8889 35.4444C54.8889 31.8161 52.57 28.7293 49.3333 27.5853V16Z" fill="#21D2D2"/>
<path d="M43.7778 66V43.3029C43.4992 43.2043 43.2274 43.0914 42.9633 42.9651L32.6667 53.2617L27.1111 47.7061L16 58.8173V66H43.7778Z" fill="#21D2D2"/>
<path d="M16 50.9605V16H43.7778V27.5853C40.5411 28.7293 38.2222 31.8161 38.2222 35.4444C38.2222 36.7299 38.5144 37.9488 39.0349 39.0367L32.6667 45.405L27.1111 39.8494L16 50.9605Z" fill="#21D2D2"/>
<path d="M43.7778 35.4444C43.7778 33.9103 45.0214 32.6667 46.5556 32.6667C48.0897 32.6667 49.3333 33.9103 49.3333 35.4444C49.3333 36.9786 48.0897 38.2222 46.5556 38.2222C45.7877 38.2222 45.0971 37.9144 44.5914 37.4086C44.0856 36.9029 43.7778 36.2123 43.7778 35.4444Z" fill="#21D2D2"/>
</g>
<defs>
<filter id="filter0_f_446_2119" x="0" y="0" width="82" height="82" filterUnits="userSpaceOnUse" color-interpolation-filters="sRGB">
<feFlood flood-opacity="0" result="BackgroundImageFix"/>
<feBlend mode="normal" in="SourceGraphic" in2="BackgroundImageFix" result="shape"/>
<feGaussianBlur stdDeviation="0" result="effect1_foregroundBlur_446_2119"/>
</filter>
</defs>
</svg>
