<svg width="86" height="92" viewBox="0 0 86 92" fill="none" xmlns="http://www.w3.org/2000/svg">
<g opacity="0.5" filter="url(#filter0_f_446_2117)">
<path fill-rule="evenodd" clip-rule="evenodd" d="M70 26.5C70 24.2389 68.5471 22.4904 66.9458 21.2885C65.3288 20.0749 63.1892 19.1171 60.8405 18.3715C56.1139 16.8709 49.806 16 43 16C36.194 16 29.8861 16.8709 25.1595 18.3715C22.8108 19.1171 20.6712 20.0749 19.0542 21.2885C17.4529 22.4904 16 24.2389 16 26.5V40C16 42.2611 17.4529 44.0096 19.0542 45.2115C20.6712 46.4251 22.8108 47.3829 25.1595 48.1285C29.8861 49.6291 36.194 50.5 43 50.5C49.806 50.5 56.1139 49.6291 60.8405 48.1285C63.1892 47.3829 65.3288 46.4251 66.9458 45.2115C68.5471 44.0096 70 42.2611 70 40V26.5ZM23.409 25.8728C22.9877 26.189 22.8283 26.4004 22.7714 26.5C22.8283 26.5996 22.9877 26.811 23.409 27.1272C24.183 27.7081 25.5031 28.3664 27.4297 28.9781C31.2537 30.192 36.7583 31 43 31C49.2417 31 54.7463 30.192 58.5703 28.9781C60.4969 28.3664 61.817 27.7081 62.591 27.1272C63.0123 26.811 63.1717 26.5996 63.2286 26.5C63.1717 26.4004 63.0123 26.189 62.591 25.8728C61.817 25.2919 60.4969 24.6336 58.5703 24.0219C54.7463 22.808 49.2417 22 43 22C36.7583 22 31.2537 22.808 27.4297 24.0219C25.5031 24.6336 24.183 25.2919 23.409 25.8728Z" fill="#21D2D2"/>
<path d="M63.1108 53.779C65.4086 53.0495 67.8356 52.0604 70 50.6913V65.5C70 67.7611 68.5471 69.5096 66.9458 70.7115C65.3288 71.9251 63.1892 72.8829 60.8405 73.6285C56.1139 75.129 49.806 76 43 76C36.194 76 29.8861 75.129 25.1595 73.6285C22.8108 72.8829 20.6712 71.9251 19.0542 70.7115C17.4529 69.5096 16 67.7611 16 65.5V50.6913C18.1644 52.0604 20.5914 53.0495 22.8892 53.779C28.5186 55.5661 35.6298 56.5 43 56.5C50.3702 56.5 57.4814 55.5661 63.1108 53.779Z" fill="#21D2D2"/>
</g>
<defs>
<filter id="filter0_f_446_2117" x="0" y="0" width="86" height="92" filterUnits="userSpaceOnUse" color-interpolation-filters="sRGB">
<feFlood flood-opacity="0" result="BackgroundImageFix"/>
<feBlend mode="normal" in="SourceGraphic" in2="BackgroundImageFix" result="shape"/>
<feGaussianBlur stdDeviation="0" result="effect1_foregroundBlur_446_2117"/>
</filter>
</defs>
</svg>
