<svg width="133" height="77" viewBox="0 0 133 77" fill="none" xmlns="http://www.w3.org/2000/svg">
<path d="M124.844 0.46402C126.052 -0.075976 127.436 -0.150303 128.706 0.270661C129.976 0.69251 131.033 1.56518 131.661 2.72281C132.289 3.88089 132.44 5.24604 132.094 6.54117C131.747 7.83552 130.934 8.94556 129.86 9.65152C127.69 11.0737 125.573 12.505 123.456 13.9455C120.874 15.701 118.303 17.4577 115.661 19.1496C113.823 20.3267 111.966 21.5061 110.101 22.6808C109.908 22.8023 109.709 22.9268 109.522 23.0441C108.265 24.2429 107.035 25.4065 106.035 26.2394C105.949 26.3112 105.865 26.3801 105.783 26.4464C104.948 27.1223 104.197 27.4287 103.561 27.6877C103.119 27.8684 102.727 28.0301 102.397 28.2755C102.219 28.4081 101.98 28.5976 101.689 28.8283C100.514 29.7618 98.5105 31.3615 96.419 32.4445C95.4972 32.9202 94.3487 33.3901 93.2588 33.8361C91.6979 34.4754 90.2419 35.0766 89.6739 35.6125C88.6724 36.5561 87.3093 37.3281 86.1045 38.0119C84.9529 38.6657 83.9487 39.2364 83.543 39.7961C83.0595 40.464 82.4554 40.7654 81.5567 41.214C80.933 41.5255 80.1703 41.9067 79.2051 42.5324C78.094 43.2525 77.2217 43.652 76.4854 43.9884C75.4437 44.4659 74.6677 44.82 73.8194 45.8048C72.8848 46.8932 71.8255 47.9216 70.8272 48.5089C70.3709 48.7776 69.8988 49.1311 69.3955 49.5089C68.7302 50.0085 68.045 50.5239 67.3242 50.8937C66.7342 51.1956 66.1539 51.2976 65.628 51.3976C65.4652 51.4279 65.3092 51.4574 65.1621 51.4904C64.741 51.7979 64.3284 52.1013 63.9043 52.4162C63.8597 52.4991 63.8143 52.5886 63.7666 52.6808C63.5261 53.1451 63.2421 53.7066 62.7452 54.2423C61.9765 55.0773 61.086 55.5423 60.1641 56.0187C59.4309 56.4007 58.6885 56.7823 57.9268 57.3839C57.4259 57.781 56.8541 58.3208 56.3282 58.8253C55.5119 59.5999 54.7145 60.3559 54.0528 60.7101C54.0193 60.728 53.9849 60.7435 53.9502 60.757C53.7188 60.8504 53.4647 60.8617 53.2149 60.8703C53.2136 60.8701 53.2123 60.8695 53.211 60.8693C53.1914 60.87 53.1719 60.8706 53.1524 60.8712C51.725 62.0395 50.3073 63.2148 48.878 64.3957C48.7672 64.5241 48.6567 64.6517 48.5489 64.7765C48.0264 65.3833 47.4979 65.9839 47.2403 66.4914C46.9573 67.0433 45.9299 67.9661 44.7793 68.9425C44.0154 69.5882 43.1984 70.2552 42.4444 70.881C42.0108 71.2422 41.4166 71.3818 40.7549 71.5128C40.1323 71.6355 39.4416 71.7616 38.6397 72.0529C38.2444 72.1967 37.7965 72.3818 37.3467 72.5421C36.9516 72.6839 36.5606 72.8074 36.2188 72.8898C36.2085 72.8923 36.1977 72.8944 36.1866 72.8966C35.9299 72.9563 35.3986 72.9301 34.7032 72.8986C34.2646 72.8778 33.7596 72.8544 33.2364 72.8468C31.8757 73.1033 30.5048 73.3505 29.0928 73.5724C28.8075 73.7443 28.5672 73.9548 28.3848 74.213C28.2515 74.3984 28.1397 74.6153 28.0264 74.8371C27.871 75.1391 27.7135 75.4506 27.4727 75.7072C27.2825 75.9078 27.0475 75.9988 26.8819 75.9328C26.805 75.902 26.7432 75.8389 26.6875 75.7814C26.624 75.7152 26.5631 75.6562 26.4971 75.6623C26.4494 75.6669 26.4022 75.7196 26.3448 75.7834C26.2529 75.8852 26.1331 76.017 25.9405 76.0324C25.211 76.0899 24.3723 76.0856 23.5039 76.0587C22.543 76.0296 21.5673 75.9693 20.7266 75.9562C19.7873 75.9393 18.4131 75.648 16.7969 75.0832C15.6792 74.6907 14.435 74.1403 13.2735 73.464C12.1472 72.8163 10.7942 71.9696 9.65433 70.7902C9.08704 70.2081 8.58599 69.5661 8.18949 68.9103C7.6913 68.0904 7.42756 67.4237 7.31546 66.8586C7.27711 66.6615 7.3861 66.3709 7.54007 66.0412C7.64803 65.8039 7.77875 65.5478 7.89261 65.2804C7.61461 64.3641 7.43276 63.6058 7.26078 62.8947C7.22803 62.8769 7.19418 62.8583 7.16019 62.84H7.15824C6.38865 62.4201 5.36154 61.9222 5.58206 60.8517C5.63702 60.577 5.8241 60.3583 5.99124 60.1593C6.15547 59.9647 6.29998 59.7851 6.28226 59.6037C6.26088 59.3953 6.05813 59.2123 5.83695 59.0226C5.52492 58.7526 5.17609 58.4724 5.22367 58.0334C5.22682 58.0032 5.23035 57.9705 5.23343 57.9367C5.24564 57.8072 5.26005 57.6536 5.28617 57.4757C5.31319 57.1892 5.3701 56.8566 5.4971 56.4943C5.02585 55.1588 4.52636 53.8498 3.9766 52.5627C3.06534 50.4278 2.01652 48.3532 0.791049 46.5031C0.198296 45.604 -0.0602267 44.4979 0.0117523 43.2834C0.0961701 42.0736 0.443498 40.8155 1.13578 39.7228C1.81593 38.6257 3.09401 37.9491 4.58109 37.9425C6.06481 37.9294 7.58592 38.5781 8.68656 39.631C10.4812 41.3472 12.0552 43.1819 13.4737 45.0988C13.5614 45.191 13.6498 45.2873 13.7344 45.381C14.3636 46.0784 15.1 46.6444 15.8301 47.2355C15.998 47.3717 16.1632 47.504 16.3282 47.6437C17.2834 48.4443 18.1143 50.2372 18.6319 51.7121C18.8193 52.2289 18.9679 52.7036 19.0889 53.1066C19.0983 53.1369 19.108 53.1672 19.1172 53.1974C19.2341 53.5912 19.3611 53.9583 19.501 54.382C19.8266 55.3698 20.2886 56.8766 20.5479 59.464C20.6947 59.9822 20.8306 60.468 20.9473 60.8703C21.7931 61.0205 23.0027 61.1138 24.2559 61.1427C27.3569 61.2138 30.8969 61.0538 34.4287 60.9308C34.5259 60.9163 34.6251 60.9019 34.7256 60.8869C34.745 60.884 34.7647 60.881 34.7842 60.8781C35.1209 60.8219 35.1299 60.7928 35.1563 60.7736C35.1831 60.7533 35.3327 60.6903 35.5928 60.5587C36.1137 60.2982 36.8777 59.8718 37.4922 59.6105C39.1096 58.91 40.3412 58.3734 41.3321 57.9689C43.8038 56.5356 46.2847 55.0373 48.7686 53.4972C51.5308 51.7861 54.2886 50.0115 57.0069 48.174C58.6061 47.0931 60.1936 45.9883 61.7696 44.8527C63.2114 43.8137 64.6555 42.7492 66.0772 41.6798C66.8442 40.9614 67.5489 40.2561 68.2071 39.5998C69.1282 38.6802 69.9524 37.8599 70.6866 37.258C72.4538 35.8088 74.6936 34.4852 76.3565 33.505C76.6284 33.3447 76.8856 33.193 77.1221 33.0519C78.3153 32.0945 79.5051 31.1333 80.6973 30.1701C80.8102 30.1528 80.9251 30.137 81.042 30.1212C82.5008 29.9252 83.8049 28.9861 85.8555 27.5177C86.7504 26.8771 87.7905 26.1344 89.0401 25.3146C89.8544 24.78 90.4152 24.7184 90.8731 24.6681C91.0072 24.6536 91.1341 24.6397 91.2559 24.6144C91.6732 24.528 91.9048 24.142 92.1758 23.6886C92.521 23.1049 92.9615 22.3867 93.9434 22.0724C97.0929 21.0574 97.8868 19.7163 98.4698 18.7121C98.6369 18.4204 98.8059 18.1451 99.002 17.922C99.2322 17.6612 99.5372 17.4233 99.877 17.214C100.51 16.8224 101.23 16.5394 101.894 16.34C102.703 16.1003 103.879 15.0038 104.723 14.0558C105.035 13.7015 105.555 13.3529 106.165 12.9474C106.792 12.5305 107.522 12.0487 108.247 11.4152C110.054 9.83133 111.048 9.00838 111.833 8.35562C112.064 8.16546 112.277 7.99109 112.486 7.81754C113.152 7.26636 114.012 6.62343 114.886 5.98062C115.933 5.20994 117 4.43855 117.793 3.7941C120.119 2.61713 122.491 1.5169 124.844 0.46402ZM20.0625 60.6095C19.8942 60.5489 19.9919 60.624 20.251 60.7072C20.1706 60.655 20.1048 60.6206 20.0625 60.6095Z" fill="#21D2D2"/>
</svg>
